%TF.GenerationSoftware,KiCad,Pcbnew,(6.99.0-3810-gd26b59a0bf)*%
%TF.CreationDate,2022-11-09T12:36:04+00:00*%
%TF.ProjectId,roller-shutter-controller,726f6c6c-6572-42d7-9368-75747465722d,-*%
%TF.SameCoordinates,Original*%
%TF.FileFunction,Copper,L2,Bot*%
%TF.FilePolarity,Positive*%
%FSLAX46Y46*%
G04 Gerber Fmt 4.6, Leading zero omitted, Abs format (unit mm)*
G04 Created by KiCad (PCBNEW (6.99.0-3810-gd26b59a0bf)) date 2022-11-09 12:36:04*
%MOMM*%
%LPD*%
G01*
G04 APERTURE LIST*
G04 Aperture macros list*
%AMRoundRect*
0 Rectangle with rounded corners*
0 $1 Rounding radius*
0 $2 $3 $4 $5 $6 $7 $8 $9 X,Y pos of 4 corners*
0 Add a 4 corners polygon primitive as box body*
4,1,4,$2,$3,$4,$5,$6,$7,$8,$9,$2,$3,0*
0 Add four circle primitives for the rounded corners*
1,1,$1+$1,$2,$3*
1,1,$1+$1,$4,$5*
1,1,$1+$1,$6,$7*
1,1,$1+$1,$8,$9*
0 Add four rect primitives between the rounded corners*
20,1,$1+$1,$2,$3,$4,$5,0*
20,1,$1+$1,$4,$5,$6,$7,0*
20,1,$1+$1,$6,$7,$8,$9,0*
20,1,$1+$1,$8,$9,$2,$3,0*%
G04 Aperture macros list end*
%TA.AperFunction,ComponentPad*%
%ADD10C,6.400000*%
%TD*%
%TA.AperFunction,ComponentPad*%
%ADD11R,1.050000X1.500000*%
%TD*%
%TA.AperFunction,ComponentPad*%
%ADD12O,1.050000X1.500000*%
%TD*%
%TA.AperFunction,ComponentPad*%
%ADD13RoundRect,0.250500X0.499500X0.499500X-0.499500X0.499500X-0.499500X-0.499500X0.499500X-0.499500X0*%
%TD*%
%TA.AperFunction,ComponentPad*%
%ADD14C,1.500000*%
%TD*%
%TA.AperFunction,ComponentPad*%
%ADD15C,2.100000*%
%TD*%
%TA.AperFunction,ComponentPad*%
%ADD16R,2.100000X2.100000*%
%TD*%
%TA.AperFunction,ComponentPad*%
%ADD17R,1.500000X2.500000*%
%TD*%
%TA.AperFunction,ComponentPad*%
%ADD18O,1.500000X2.500000*%
%TD*%
%TA.AperFunction,ComponentPad*%
%ADD19C,1.800000*%
%TD*%
%TA.AperFunction,ViaPad*%
%ADD20C,0.800000*%
%TD*%
%TA.AperFunction,ViaPad*%
%ADD21C,0.700000*%
%TD*%
%TA.AperFunction,Conductor*%
%ADD22C,1.000000*%
%TD*%
%TA.AperFunction,Conductor*%
%ADD23C,0.500000*%
%TD*%
G04 APERTURE END LIST*
D10*
%TO.P,H1,1*%
%TO.N,N/C*%
X112061282Y-75051908D03*
%TD*%
%TO.P,H3,1*%
%TO.N,N/C*%
X189754782Y-75051908D03*
%TD*%
%TO.P,H2,1*%
%TO.N,N/C*%
X150907682Y-139123978D03*
%TD*%
D11*
%TO.P,Q1,1,S*%
%TO.N,GND*%
X150308987Y-85089999D03*
D12*
%TO.P,Q1,2,G*%
%TO.N,/AUTH_LED*%
X151578987Y-85089999D03*
%TO.P,Q1,3,D*%
%TO.N,/SWITCH_LED*%
X152848987Y-85089999D03*
%TD*%
D13*
%TO.P,K1,1*%
%TO.N,+3V3*%
X132296488Y-85151478D03*
D14*
%TO.P,K1,3*%
%TO.N,unconnected-(K1-Pad3)*%
X132296488Y-80071478D03*
%TO.P,K1,4*%
%TO.N,/RAISE*%
X132296488Y-77531478D03*
%TO.P,K1,5*%
%TO.N,+12V*%
X132296488Y-74991478D03*
%TO.P,K1,8*%
%TO.N,unconnected-(K1-Pad8)*%
X127216488Y-74991478D03*
%TO.P,K1,9*%
%TO.N,unconnected-(K1-Pad9)*%
X127216488Y-77531478D03*
%TO.P,K1,10*%
%TO.N,unconnected-(K1-Pad10)*%
X127216488Y-80071478D03*
%TO.P,K1,12*%
%TO.N,Net-(D8-A)*%
X127216488Y-85151478D03*
%TD*%
D11*
%TO.P,Q3,1,S*%
%TO.N,GND*%
X121098987Y-91763977D03*
D12*
%TO.P,Q3,2,G*%
%TO.N,/LOWER_RELAY*%
X119828987Y-91763977D03*
%TO.P,Q3,3,D*%
%TO.N,Net-(D9-A)*%
X118558987Y-91763977D03*
%TD*%
D15*
%TO.P,J1,6,Pin_6*%
%TO.N,GND*%
X112681488Y-63171012D03*
%TO.P,J1,5,Pin_5*%
%TO.N,/LOWER_STOP*%
X116181488Y-63171012D03*
%TO.P,J1,4,Pin_4*%
%TO.N,Net-(J1-Pin_4)*%
X119681488Y-63171012D03*
%TO.P,J1,3,Pin_3*%
%TO.N,/LOWER*%
X123181488Y-63171012D03*
%TO.P,J1,2,Pin_2*%
%TO.N,/RAISE*%
X126681488Y-63171012D03*
D16*
%TO.P,J1,1,Pin_1*%
%TO.N,+12V*%
X130181487Y-63171011D03*
%TD*%
D17*
%TO.P,U2,1,Vin*%
%TO.N,Net-(U2-Vin)*%
X181328987Y-91271011D03*
D18*
%TO.P,U2,2,GND*%
%TO.N,GND*%
X178788987Y-91271011D03*
%TO.P,U2,3,Vout*%
%TO.N,+3V3*%
X176248987Y-91271011D03*
%TD*%
D13*
%TO.P,K2,1*%
%TO.N,+3V3*%
X122296488Y-85151478D03*
D14*
%TO.P,K2,3*%
%TO.N,unconnected-(K2-Pad3)*%
X122296488Y-80071478D03*
%TO.P,K2,4*%
%TO.N,/LOWER*%
X122296488Y-77531478D03*
%TO.P,K2,5*%
%TO.N,+12V*%
X122296488Y-74991478D03*
%TO.P,K2,8*%
%TO.N,unconnected-(K2-Pad8)*%
X117216488Y-74991478D03*
%TO.P,K2,9*%
%TO.N,unconnected-(K2-Pad9)*%
X117216488Y-77531478D03*
%TO.P,K2,10*%
%TO.N,unconnected-(K2-Pad10)*%
X117216488Y-80071478D03*
%TO.P,K2,12*%
%TO.N,Net-(D9-A)*%
X117216488Y-85151478D03*
%TD*%
D16*
%TO.P,J3,1,Pin_1*%
%TO.N,+12V*%
X188681487Y-63171011D03*
D15*
%TO.P,J3,2,Pin_2*%
%TO.N,/RAISE*%
X185181488Y-63171012D03*
%TO.P,J3,3,Pin_3*%
%TO.N,Net-(J1-Pin_4)*%
X181681488Y-63171012D03*
%TO.P,J3,4,Pin_4*%
%TO.N,/RAISE_STOP*%
X178181488Y-63171012D03*
%TD*%
D11*
%TO.P,Q4,1,S*%
%TO.N,GND*%
X139445999Y-84941999D03*
D12*
%TO.P,Q4,2,G*%
%TO.N,/LED3*%
X140715999Y-84941999D03*
%TO.P,Q4,3,D*%
%TO.N,/RFID_LED*%
X141985999Y-84941999D03*
%TD*%
D11*
%TO.P,Q2,1,S*%
%TO.N,GND*%
X131098987Y-91763977D03*
D12*
%TO.P,Q2,2,G*%
%TO.N,/RAISE_RELAY*%
X129828987Y-91763977D03*
%TO.P,Q2,3,D*%
%TO.N,Net-(D8-A)*%
X128558987Y-91763977D03*
%TD*%
D16*
%TO.P,J2,1,Pin_1*%
%TO.N,+12V*%
X170199581Y-63171011D03*
D15*
%TO.P,J2,2,Pin_2*%
%TO.N,/RAISE_REQUEST*%
X166699582Y-63171012D03*
%TO.P,J2,3,Pin_3*%
%TO.N,/LOWER_REQUEST*%
X163199582Y-63171012D03*
%TO.P,J2,4,Pin_4*%
%TO.N,/RAISE_STOP*%
X159699582Y-63171012D03*
%TO.P,J2,5,Pin_5*%
%TO.N,/LOWER_STOP*%
X156199582Y-63171012D03*
%TO.P,J2,6,Pin_6*%
%TO.N,/SWITCH_LED*%
X152699582Y-63171012D03*
%TO.P,J2,7,Pin_7*%
%TO.N,/DATA0*%
X149199582Y-63171012D03*
%TO.P,J2,8,Pin_8*%
%TO.N,/DATA1*%
X145699582Y-63171012D03*
%TO.P,J2,9,Pin_9*%
%TO.N,/RFID_LED*%
X142199582Y-63171012D03*
%TO.P,J2,10,Pin_10*%
%TO.N,GND*%
X138699582Y-63171012D03*
%TD*%
D19*
%TO.P,U1,1,EN*%
%TO.N,/EN*%
X138900000Y-97710000D03*
%TO.P,U1,2,3*%
%TO.N,/RAISE_REQUEST_3.3V*%
X138900000Y-100250000D03*
%TO.P,U1,3,2*%
%TO.N,/LOWER_REQUEST_3.3V*%
X138900000Y-102790000D03*
%TO.P,U1,4,1*%
%TO.N,/LED1*%
X138900000Y-105330000D03*
%TO.P,U1,5,0*%
%TO.N,/LED2*%
X138900000Y-107870000D03*
%TO.P,U1,6,4*%
%TO.N,/LED3*%
X138900000Y-110410000D03*
%TO.P,U1,7,5*%
%TO.N,/AUTH_LED*%
X138900000Y-112950000D03*
%TO.P,U1,8,3V3*%
%TO.N,+3V3*%
X138900000Y-115490000D03*
%TO.P,U1,9,VBUS*%
%TO.N,unconnected-(U1-VBUS)*%
X161760000Y-115490000D03*
%TO.P,U1,10,GND*%
%TO.N,GND*%
X161760000Y-112950000D03*
%TO.P,U1,11,6*%
%TO.N,/LOWER_RELAY*%
X161760000Y-110410000D03*
%TO.P,U1,12,7*%
%TO.N,/RAISE_RELAY*%
X161760000Y-107870000D03*
%TO.P,U1,13,8*%
%TO.N,unconnected-(U1-8)*%
X161760000Y-105330000D03*
%TO.P,U1,14,10*%
%TO.N,unconnected-(U1-10)*%
X161760000Y-102790000D03*
%TO.P,U1,15,20*%
%TO.N,/DATA1*%
X161760000Y-100250000D03*
%TO.P,U1,16,21*%
%TO.N,/DATA0*%
X161760000Y-97710000D03*
%TD*%
D20*
%TO.N,GND*%
X143000000Y-80000000D03*
X138000000Y-80000000D03*
X138000000Y-75000000D03*
X143000000Y-75000000D03*
X113000000Y-125000000D03*
X183000000Y-145500000D03*
X104000000Y-77500000D03*
X104000000Y-70000000D03*
X198000000Y-97500000D03*
X118000000Y-145000000D03*
X183000000Y-80000000D03*
X108000000Y-90000000D03*
X193000000Y-95000000D03*
X148000000Y-135000000D03*
X138000000Y-90000000D03*
X118000000Y-120000000D03*
X104000000Y-125000000D03*
X113000000Y-130000000D03*
X104000000Y-65000000D03*
X198000000Y-120000000D03*
X158000000Y-130000000D03*
X183000000Y-135000000D03*
X128000000Y-130000000D03*
X198000000Y-75000000D03*
X198000000Y-80000000D03*
X104000000Y-130000000D03*
X148000000Y-95000000D03*
X113000000Y-80000000D03*
X190500000Y-56000000D03*
X104000000Y-60000000D03*
X150500000Y-146000000D03*
X158000000Y-80000000D03*
X153000000Y-100000000D03*
X165000000Y-70000000D03*
X173000000Y-140000000D03*
X183000000Y-115000000D03*
X148000000Y-110000000D03*
X133000000Y-65000000D03*
X104500000Y-58000000D03*
X148000000Y-56000000D03*
X128000000Y-100000000D03*
X183000000Y-56000000D03*
X148000000Y-125000000D03*
X158000000Y-65000000D03*
X138000000Y-140000000D03*
X104000000Y-87500000D03*
X104000000Y-82500000D03*
X198000000Y-60000000D03*
X106000000Y-56500000D03*
X128000000Y-146000000D03*
X123000000Y-95000000D03*
X133000000Y-120000000D03*
X183000000Y-70000000D03*
X180500000Y-146000000D03*
X118000000Y-115000000D03*
X178000000Y-110000000D03*
X138000000Y-56000000D03*
X128000000Y-135000000D03*
X123000000Y-146000000D03*
X193000000Y-115000000D03*
X113000000Y-110000000D03*
X143000000Y-65000000D03*
X198000000Y-112500000D03*
X178000000Y-56000000D03*
X188000000Y-125000000D03*
X153000000Y-130000000D03*
X143000000Y-135000000D03*
X168000000Y-135000000D03*
X160500000Y-56000000D03*
X188000000Y-110000000D03*
X104000000Y-120000000D03*
X104000000Y-95000000D03*
X104000000Y-117500000D03*
X168000000Y-115000000D03*
X160500000Y-146000000D03*
X187000000Y-138000000D03*
X168000000Y-130000000D03*
X198000000Y-90000000D03*
X173000000Y-100000000D03*
X178000000Y-140000000D03*
X104000000Y-122500000D03*
X198000000Y-82500000D03*
X148000000Y-75000000D03*
X108000000Y-105000000D03*
X158000000Y-125000000D03*
X158000000Y-146000000D03*
X108000000Y-95000000D03*
X185500000Y-140500000D03*
X173000000Y-146000000D03*
X198000000Y-92500000D03*
X148000000Y-146000000D03*
X130500000Y-56000000D03*
X194500000Y-132500000D03*
X198000000Y-95000000D03*
X198000000Y-130000000D03*
X148000000Y-80000000D03*
X138000000Y-125000000D03*
X183000000Y-125000000D03*
X197500000Y-58000000D03*
X153000000Y-56000000D03*
X188000000Y-115000000D03*
X198000000Y-70000000D03*
X145500000Y-146000000D03*
X158000000Y-140000000D03*
X178000000Y-130000000D03*
X198000000Y-62500000D03*
X153000000Y-110000000D03*
X158000000Y-75000000D03*
X168000000Y-75000000D03*
X168000000Y-70000000D03*
X155500000Y-56000000D03*
X104000000Y-75000000D03*
X165500000Y-56000000D03*
X198000000Y-117500000D03*
X153000000Y-125000000D03*
X163000000Y-90000000D03*
X188000000Y-100000000D03*
X133000000Y-135000000D03*
X104000000Y-62500000D03*
X175500000Y-56000000D03*
X104000000Y-112500000D03*
X138000000Y-95000000D03*
X165000000Y-67000000D03*
X125000000Y-79000000D03*
X133000000Y-146000000D03*
X158000000Y-135000000D03*
X123000000Y-140000000D03*
X153000000Y-146000000D03*
X168000000Y-105000000D03*
X198000000Y-110000000D03*
X198000000Y-67500000D03*
X128000000Y-120000000D03*
X143000000Y-90000000D03*
X118000000Y-67000000D03*
X104000000Y-115000000D03*
X104000000Y-107500000D03*
X120500000Y-56000000D03*
X130500000Y-146000000D03*
X198000000Y-127500000D03*
X112000000Y-135000000D03*
X193000000Y-60000000D03*
X118000000Y-110000000D03*
X128000000Y-95000000D03*
X173000000Y-65000000D03*
X148000000Y-65000000D03*
X123000000Y-70000000D03*
X153000000Y-105000000D03*
X180500000Y-56000000D03*
X118000000Y-100000000D03*
X158000000Y-120000000D03*
X143000000Y-125000000D03*
X195500000Y-56500000D03*
X128000000Y-56000000D03*
X158000000Y-115000000D03*
X148000000Y-130000000D03*
X123000000Y-125000000D03*
X175500000Y-146000000D03*
X163000000Y-56000000D03*
X123000000Y-135000000D03*
X133000000Y-100000000D03*
X104000000Y-97500000D03*
X198000000Y-105000000D03*
X118000000Y-135000000D03*
X108000000Y-100000000D03*
X153000000Y-90000000D03*
X104000000Y-127500000D03*
X183000000Y-110000000D03*
X138000000Y-65000000D03*
X188000000Y-95000000D03*
X163000000Y-146000000D03*
X113000000Y-105000000D03*
X178000000Y-135000000D03*
X123000000Y-90000000D03*
X193000000Y-120000000D03*
X116000000Y-140000000D03*
X183000000Y-65000000D03*
X118000000Y-105000000D03*
X113000000Y-120000000D03*
X140500000Y-146000000D03*
X178000000Y-105000000D03*
X133000000Y-125000000D03*
X163000000Y-120000000D03*
X133000000Y-56000000D03*
X115500000Y-56000000D03*
X158000000Y-95000000D03*
X143000000Y-95000000D03*
X128000000Y-67000000D03*
X163000000Y-135000000D03*
X188000000Y-80000000D03*
X193000000Y-125000000D03*
X113000000Y-70000000D03*
X104000000Y-92500000D03*
X198000000Y-125000000D03*
X108000000Y-125000000D03*
X168000000Y-56000000D03*
X198000000Y-115000000D03*
X123000000Y-110000000D03*
X165000000Y-75000000D03*
X158000000Y-85000000D03*
X143000000Y-70000000D03*
X113000000Y-95000000D03*
X143000000Y-56000000D03*
X140500000Y-56000000D03*
X143000000Y-140000000D03*
X110500000Y-56000000D03*
X198000000Y-65000000D03*
X107000000Y-132500000D03*
X123000000Y-100000000D03*
X168000000Y-125000000D03*
X168000000Y-120000000D03*
X183000000Y-100000000D03*
X185500000Y-56000000D03*
X113000000Y-56000000D03*
X193000000Y-100000000D03*
X170500000Y-146000000D03*
X173000000Y-120000000D03*
X158000000Y-105000000D03*
X138000000Y-130000000D03*
X173000000Y-80000000D03*
X143000000Y-130000000D03*
X108000000Y-115000000D03*
X193000000Y-56000000D03*
X120500000Y-146000000D03*
X168000000Y-65000000D03*
X148000000Y-85000000D03*
X198000000Y-107500000D03*
X104000000Y-67500000D03*
X188000000Y-130000000D03*
X138000000Y-120000000D03*
X114500000Y-137500000D03*
X123000000Y-56000000D03*
X188000000Y-120000000D03*
X145500000Y-56000000D03*
X189500000Y-135500000D03*
X143000000Y-105000000D03*
X178000000Y-146000000D03*
X183000000Y-130000000D03*
X108000000Y-80000000D03*
X148000000Y-120000000D03*
X173000000Y-85000000D03*
X133000000Y-130000000D03*
X193000000Y-90000000D03*
X108000000Y-56000000D03*
X196500000Y-131500000D03*
X118000000Y-125000000D03*
X163000000Y-95000000D03*
X138000000Y-146000000D03*
X148000000Y-70000000D03*
X104000000Y-100000000D03*
X192000000Y-133500000D03*
X108000000Y-85000000D03*
X193000000Y-70000000D03*
X128000000Y-140000000D03*
X188000000Y-60000000D03*
X108000000Y-65000000D03*
X108000000Y-120000000D03*
X178000000Y-65000000D03*
X117000000Y-142500000D03*
X165500000Y-146000000D03*
X168000000Y-140000000D03*
X188000000Y-90000000D03*
X168000000Y-90000000D03*
X128000000Y-115000000D03*
X125500000Y-56000000D03*
X123000000Y-115000000D03*
X173000000Y-130000000D03*
X104000000Y-80000000D03*
X128000000Y-125000000D03*
X133000000Y-140000000D03*
X123000000Y-105000000D03*
X123000000Y-120000000D03*
X193000000Y-65000000D03*
X178000000Y-75000000D03*
X118000000Y-130000000D03*
X143000000Y-115000000D03*
X104000000Y-72500000D03*
X153000000Y-135000000D03*
X138000000Y-135000000D03*
X108000000Y-70000000D03*
X173000000Y-75000000D03*
X178000000Y-115000000D03*
X118000000Y-56000000D03*
X183000000Y-105000000D03*
X113000000Y-115000000D03*
X135500000Y-56000000D03*
X113000000Y-85000000D03*
X113000000Y-90000000D03*
X168000000Y-95000000D03*
X113000000Y-60000000D03*
X123000000Y-130000000D03*
X104000000Y-102500000D03*
X155500000Y-146000000D03*
X104000000Y-90000000D03*
X108000000Y-110000000D03*
X108000000Y-75000000D03*
X193000000Y-105000000D03*
X170500000Y-56000000D03*
X135500000Y-146000000D03*
X168000000Y-100000000D03*
X138000000Y-70000000D03*
X198000000Y-122500000D03*
X173000000Y-135000000D03*
X193000000Y-110000000D03*
X193000000Y-80000000D03*
X128000000Y-70000000D03*
X173000000Y-70000000D03*
X109500000Y-133500000D03*
X105000000Y-131500000D03*
X163000000Y-125000000D03*
X104000000Y-85000000D03*
X113000000Y-100000000D03*
X178000000Y-125000000D03*
X178000000Y-120000000D03*
X173000000Y-56000000D03*
X183000000Y-120000000D03*
X108000000Y-60000000D03*
X113000000Y-65000000D03*
X163000000Y-130000000D03*
X168000000Y-146000000D03*
X143000000Y-120000000D03*
X150500000Y-56000000D03*
X153000000Y-120000000D03*
X158000000Y-56000000D03*
X178000000Y-100000000D03*
X125500000Y-146000000D03*
X198000000Y-72500000D03*
X198000000Y-100000000D03*
X104000000Y-105000000D03*
X178000000Y-70000000D03*
X198000000Y-87500000D03*
X188000000Y-105000000D03*
X173000000Y-110000000D03*
X168000000Y-80000000D03*
X173000000Y-125000000D03*
X188000000Y-85000000D03*
X198000000Y-85000000D03*
X148000000Y-115000000D03*
X184500000Y-143000000D03*
X133000000Y-70000000D03*
X148000000Y-90000000D03*
X198000000Y-102500000D03*
X188000000Y-56000000D03*
X143000000Y-146000000D03*
X104000000Y-110000000D03*
X193000000Y-85000000D03*
X173000000Y-115000000D03*
X198000000Y-77500000D03*
X178000000Y-80000000D03*
X158000000Y-100000000D03*
X163000000Y-140000000D03*
D21*
%TO.N,/LOWER_REQUEST_3.3V*%
X164328988Y-85271012D03*
%TO.N,/RAISE_REQUEST_3.3V*%
X164328988Y-84021012D03*
%TD*%
D22*
%TO.N,+12V*%
X117356614Y-59521012D02*
X114431488Y-62446138D01*
X170199582Y-63171012D02*
X166549582Y-59521012D01*
X115500000Y-65000000D02*
X128352500Y-65000000D01*
X114431488Y-63931488D02*
X115500000Y-65000000D01*
X166549582Y-59521012D02*
X117356614Y-59521012D01*
X114431488Y-62446138D02*
X114431488Y-63931488D01*
X128352500Y-65000000D02*
X130181488Y-63171012D01*
D23*
%TO.N,/LOWER_REQUEST_3.3V*%
X164068938Y-85271012D02*
X164328988Y-85271012D01*
X138900000Y-102790000D02*
X146549950Y-102790000D01*
X146549950Y-102790000D02*
X164068938Y-85271012D01*
%TO.N,/RAISE_REQUEST_3.3V*%
X164328988Y-84021012D02*
X148100000Y-100250000D01*
X148100000Y-100250000D02*
X138900000Y-100250000D01*
D22*
%TO.N,/LOWER_STOP*%
X118631488Y-60721012D02*
X153749582Y-60721012D01*
X153749582Y-60721012D02*
X156199582Y-63171012D01*
X116181488Y-63171012D02*
X118631488Y-60721012D01*
D23*
%TO.N,/DATA0*%
X165128988Y-79100418D02*
X165128988Y-94341012D01*
X165128988Y-94341012D02*
X161760000Y-97710000D01*
X149199582Y-63171012D02*
X165128988Y-79100418D01*
%TO.N,/DATA1*%
X151199582Y-63049691D02*
X151199582Y-64181062D01*
X151199582Y-64181062D02*
X165828988Y-78810469D01*
X145699582Y-63171012D02*
X147199582Y-61671012D01*
X165828988Y-78810469D02*
X165828988Y-96181012D01*
X149820903Y-61671012D02*
X151199582Y-63049691D01*
X165828988Y-96181012D02*
X161760000Y-100250000D01*
X147199582Y-61671012D02*
X149820903Y-61671012D01*
%TO.N,/RAISE_RELAY*%
X150760000Y-116840000D02*
X138340811Y-116840000D01*
X129828988Y-108328177D02*
X129828988Y-91763978D01*
X159730000Y-107870000D02*
X159578988Y-108021012D01*
X138340811Y-116840000D02*
X129828988Y-108328177D01*
X161760000Y-107870000D02*
X159730000Y-107870000D01*
X159578988Y-108021012D02*
X150760000Y-116840000D01*
%TO.N,/LOWER_RELAY*%
X138050861Y-117540000D02*
X151049950Y-117540000D01*
X119828988Y-99318127D02*
X119828988Y-91763978D01*
X158179950Y-110410000D02*
X151049950Y-117540000D01*
X138050861Y-117540000D02*
X119828988Y-99318127D01*
X161760000Y-110410000D02*
X158179950Y-110410000D01*
%TD*%
%TA.AperFunction,Conductor*%
%TO.N,GND*%
G36*
X194910780Y-55052512D02*
G01*
X195074696Y-55060090D01*
X195075072Y-55060108D01*
X195277986Y-55070096D01*
X195289198Y-55071152D01*
X195466182Y-55095839D01*
X195467263Y-55095995D01*
X195655505Y-55123918D01*
X195665864Y-55125901D01*
X195843674Y-55167720D01*
X195845441Y-55168149D01*
X195848252Y-55168853D01*
X196026141Y-55213411D01*
X196035545Y-55216160D01*
X196210395Y-55274763D01*
X196212717Y-55275567D01*
X196386550Y-55337764D01*
X196394981Y-55341129D01*
X196441207Y-55361540D01*
X196564455Y-55415959D01*
X196567432Y-55417320D01*
X196733454Y-55495841D01*
X196740895Y-55499667D01*
X196903199Y-55590069D01*
X196906663Y-55592072D01*
X197063741Y-55686220D01*
X197070165Y-55690339D01*
X197223680Y-55795499D01*
X197227531Y-55798245D01*
X197374398Y-55907168D01*
X197379834Y-55911435D01*
X197523092Y-56030393D01*
X197527210Y-56033966D01*
X197661944Y-56156079D01*
X197662629Y-56156700D01*
X197667097Y-56160955D01*
X197726211Y-56220068D01*
X197798812Y-56292668D01*
X197803068Y-56297138D01*
X197925799Y-56432549D01*
X197929375Y-56436671D01*
X198048342Y-56579936D01*
X198052610Y-56585373D01*
X198161536Y-56732242D01*
X198164281Y-56736092D01*
X198269432Y-56889591D01*
X198273556Y-56896021D01*
X198367719Y-57053120D01*
X198369712Y-57056567D01*
X198460123Y-57218884D01*
X198463924Y-57226275D01*
X198542492Y-57392391D01*
X198543817Y-57395289D01*
X198561029Y-57434270D01*
X198618652Y-57564772D01*
X198622022Y-57573218D01*
X198684205Y-57747006D01*
X198685039Y-57749412D01*
X198743622Y-57924195D01*
X198746378Y-57933622D01*
X198791646Y-58114338D01*
X198792075Y-58116105D01*
X198833892Y-58293895D01*
X198835874Y-58304251D01*
X198863833Y-58492726D01*
X198863951Y-58493540D01*
X198868548Y-58526496D01*
X198888641Y-58670536D01*
X198889697Y-58681761D01*
X198900057Y-58892619D01*
X198900075Y-58892982D01*
X198907248Y-59048112D01*
X198907382Y-59053932D01*
X198907382Y-129954043D01*
X198907195Y-129960906D01*
X198902430Y-130048263D01*
X198902397Y-130048827D01*
X198890508Y-130246837D01*
X198887942Y-130289580D01*
X198886489Y-130302537D01*
X198863593Y-130441324D01*
X198863241Y-130443354D01*
X198829534Y-130628746D01*
X198826917Y-130640119D01*
X198786281Y-130785531D01*
X198785312Y-130788825D01*
X198732693Y-130959077D01*
X198729264Y-130968748D01*
X198671561Y-131112588D01*
X198669688Y-131117012D01*
X198669302Y-131117878D01*
X198598654Y-131276222D01*
X198594730Y-131284239D01*
X198520894Y-131422496D01*
X198517850Y-131427874D01*
X198429045Y-131576169D01*
X198424972Y-131582530D01*
X198336268Y-131712322D01*
X198331822Y-131718427D01*
X198225899Y-131855057D01*
X198221994Y-131859847D01*
X198120012Y-131978851D01*
X198113985Y-131985399D01*
X197991434Y-132109435D01*
X197988009Y-132112772D01*
X197874947Y-132218793D01*
X197867169Y-132225510D01*
X197842844Y-132244842D01*
X197727678Y-132336366D01*
X197724962Y-132338465D01*
X197604232Y-132429156D01*
X197594586Y-132435726D01*
X197434092Y-132534481D01*
X197432329Y-132535546D01*
X197311343Y-132607291D01*
X197299810Y-132613347D01*
X197085048Y-132712317D01*
X197084426Y-132712602D01*
X197068965Y-132719623D01*
X197000047Y-132750918D01*
X196993720Y-132753585D01*
X194530356Y-133713988D01*
X194527387Y-133715103D01*
X194186945Y-133838056D01*
X194186933Y-133838061D01*
X194185412Y-133838610D01*
X193512750Y-134121464D01*
X193336128Y-134206674D01*
X192856973Y-134437836D01*
X192856960Y-134437843D01*
X192855525Y-134438535D01*
X192854120Y-134439304D01*
X192854105Y-134439312D01*
X192357739Y-134711090D01*
X192215474Y-134788985D01*
X191594292Y-135171885D01*
X190993623Y-135586222D01*
X190992331Y-135587215D01*
X190703240Y-135809406D01*
X190415055Y-136030900D01*
X189860120Y-136504743D01*
X189330287Y-137006496D01*
X188826957Y-137534832D01*
X188825895Y-137536068D01*
X188825888Y-137536076D01*
X188605505Y-137792623D01*
X188351463Y-138088352D01*
X187905062Y-138665592D01*
X187488937Y-139265024D01*
X187104187Y-139885063D01*
X186751832Y-140524066D01*
X186751140Y-140525490D01*
X186751132Y-140525505D01*
X186696752Y-140637371D01*
X186432804Y-141180344D01*
X186432169Y-141181842D01*
X186148572Y-141850684D01*
X186148567Y-141850698D01*
X186147947Y-141852159D01*
X186147398Y-141853666D01*
X185905320Y-142517694D01*
X185898014Y-142537734D01*
X185805939Y-142837394D01*
X185790864Y-142886456D01*
X185790849Y-142886497D01*
X185790850Y-142886497D01*
X185790703Y-142886975D01*
X185790679Y-142886968D01*
X185790027Y-142888774D01*
X185789889Y-142889598D01*
X185094887Y-144989951D01*
X185092672Y-144996102D01*
X185055092Y-145092509D01*
X185054948Y-145092877D01*
X184977686Y-145288344D01*
X184972504Y-145299759D01*
X184907700Y-145425475D01*
X184906867Y-145427062D01*
X184825964Y-145578675D01*
X184820180Y-145588431D01*
X184738628Y-145712844D01*
X184736961Y-145715322D01*
X184643523Y-145850756D01*
X184637440Y-145858855D01*
X184541512Y-145976395D01*
X184538847Y-145979551D01*
X184432513Y-146101359D01*
X184426402Y-146107877D01*
X184317802Y-146215747D01*
X184313932Y-146219430D01*
X184195392Y-146327531D01*
X184189498Y-146332583D01*
X184069841Y-146428902D01*
X184064618Y-146432886D01*
X183934869Y-146526620D01*
X183929446Y-146530326D01*
X183800423Y-146613660D01*
X183793777Y-146617669D01*
X183653915Y-146696246D01*
X183649174Y-146698777D01*
X183512677Y-146767978D01*
X183504550Y-146771742D01*
X183355522Y-146834420D01*
X183351643Y-146835976D01*
X183277964Y-146864126D01*
X183209955Y-146890109D01*
X183200353Y-146893341D01*
X183076510Y-146929539D01*
X183042403Y-146939508D01*
X183039529Y-146940311D01*
X182895806Y-146978648D01*
X182884767Y-146981067D01*
X182715206Y-147010281D01*
X182713593Y-147010547D01*
X182573903Y-147032574D01*
X182561461Y-147033906D01*
X182351821Y-147045841D01*
X182351411Y-147045864D01*
X182275050Y-147049848D01*
X182249001Y-147051207D01*
X182242436Y-147051378D01*
X119573472Y-147051378D01*
X119566905Y-147051207D01*
X119463030Y-147045786D01*
X119462580Y-147045761D01*
X119430053Y-147043912D01*
X119254804Y-147033949D01*
X119242329Y-147032614D01*
X119100278Y-147010213D01*
X119098510Y-147009921D01*
X118931558Y-146981155D01*
X118920478Y-146978728D01*
X118920171Y-146978646D01*
X118775153Y-146939962D01*
X118772389Y-146939190D01*
X118615965Y-146893467D01*
X118606371Y-146890238D01*
X118463442Y-146835629D01*
X118459640Y-146834104D01*
X118371231Y-146796920D01*
X118311797Y-146771922D01*
X118303672Y-146768159D01*
X118166189Y-146698458D01*
X118161462Y-146695934D01*
X118022586Y-146617909D01*
X118015945Y-146613904D01*
X118015568Y-146613660D01*
X117956943Y-146575794D01*
X117886062Y-146530011D01*
X117880654Y-146526316D01*
X117751752Y-146433191D01*
X117746595Y-146429257D01*
X117626114Y-146332274D01*
X117620225Y-146327226D01*
X117502544Y-146219907D01*
X117498651Y-146216202D01*
X117465837Y-146183608D01*
X117389294Y-146107578D01*
X117383184Y-146101062D01*
X117277707Y-145980234D01*
X117275012Y-145977041D01*
X117178326Y-145858570D01*
X117172231Y-145850455D01*
X117079703Y-145716339D01*
X117078036Y-145713861D01*
X116995631Y-145588145D01*
X116989846Y-145578389D01*
X116910046Y-145428842D01*
X116909214Y-145427255D01*
X116908297Y-145425475D01*
X116843402Y-145299582D01*
X116838202Y-145288124D01*
X116756060Y-145080082D01*
X116724427Y-144998929D01*
X116722221Y-144992805D01*
X116025411Y-142888797D01*
X116024578Y-142886188D01*
X115918001Y-142539296D01*
X115917531Y-142537765D01*
X115916981Y-142536256D01*
X115668181Y-141853725D01*
X115668176Y-141853713D01*
X115667624Y-141852198D01*
X115437462Y-141309333D01*
X115383427Y-141181885D01*
X115383422Y-141181875D01*
X115382792Y-141180388D01*
X115063789Y-140524115D01*
X114711460Y-139885115D01*
X114704073Y-139873210D01*
X114327595Y-139266464D01*
X114327591Y-139266457D01*
X114326736Y-139265080D01*
X114228789Y-139123978D01*
X147194093Y-139123978D01*
X147214436Y-139512154D01*
X147214949Y-139515394D01*
X147214950Y-139515402D01*
X147242950Y-139692185D01*
X147275244Y-139896077D01*
X147375849Y-140271540D01*
X147515150Y-140634431D01*
X147691620Y-140980773D01*
X147693416Y-140983539D01*
X147693418Y-140983542D01*
X147821251Y-141180388D01*
X147903325Y-141306771D01*
X148147948Y-141608854D01*
X148422806Y-141883712D01*
X148724889Y-142128335D01*
X149050887Y-142340040D01*
X149053821Y-142341535D01*
X149053828Y-142341539D01*
X149394289Y-142515012D01*
X149397229Y-142516510D01*
X149760120Y-142655811D01*
X150135583Y-142756416D01*
X150339475Y-142788710D01*
X150516258Y-142816710D01*
X150516266Y-142816711D01*
X150519506Y-142817224D01*
X150907682Y-142837567D01*
X151295858Y-142817224D01*
X151299098Y-142816711D01*
X151299106Y-142816710D01*
X151475889Y-142788710D01*
X151679781Y-142756416D01*
X152055244Y-142655811D01*
X152418135Y-142516510D01*
X152421075Y-142515012D01*
X152761536Y-142341539D01*
X152761543Y-142341535D01*
X152764477Y-142340040D01*
X153090475Y-142128335D01*
X153392558Y-141883712D01*
X153667416Y-141608854D01*
X153912039Y-141306771D01*
X153994113Y-141180388D01*
X154121946Y-140983542D01*
X154121948Y-140983539D01*
X154123744Y-140980773D01*
X154300214Y-140634431D01*
X154439515Y-140271540D01*
X154540120Y-139896077D01*
X154572414Y-139692185D01*
X154600414Y-139515402D01*
X154600415Y-139515394D01*
X154600928Y-139512154D01*
X154621271Y-139123978D01*
X154600928Y-138735802D01*
X154589613Y-138664358D01*
X154540636Y-138355140D01*
X154540120Y-138351879D01*
X154439515Y-137976416D01*
X154300214Y-137613525D01*
X154298716Y-137610585D01*
X154125243Y-137270125D01*
X154125239Y-137270118D01*
X154123744Y-137267184D01*
X153955245Y-137007716D01*
X153913834Y-136943949D01*
X153913834Y-136943948D01*
X153912039Y-136941185D01*
X153789727Y-136790143D01*
X153669491Y-136641664D01*
X153669488Y-136641660D01*
X153667416Y-136639102D01*
X153392558Y-136364244D01*
X153090475Y-136119621D01*
X152764477Y-135907916D01*
X152761543Y-135906421D01*
X152761536Y-135906417D01*
X152421075Y-135732944D01*
X152418135Y-135731446D01*
X152055244Y-135592145D01*
X151679781Y-135491540D01*
X151475889Y-135459246D01*
X151299106Y-135431246D01*
X151299098Y-135431245D01*
X151295858Y-135430732D01*
X150907682Y-135410389D01*
X150519506Y-135430732D01*
X150516266Y-135431245D01*
X150516258Y-135431246D01*
X150339475Y-135459246D01*
X150135583Y-135491540D01*
X149760120Y-135592145D01*
X149397229Y-135731446D01*
X149394289Y-135732944D01*
X149053829Y-135906417D01*
X149053822Y-135906421D01*
X149050888Y-135907916D01*
X148724889Y-136119621D01*
X148422806Y-136364244D01*
X148147948Y-136639102D01*
X148145876Y-136641660D01*
X148145873Y-136641664D01*
X148025636Y-136790144D01*
X147903325Y-136941185D01*
X147901530Y-136943948D01*
X147901530Y-136943949D01*
X147860120Y-137007716D01*
X147691620Y-137267184D01*
X147690125Y-137270118D01*
X147690121Y-137270125D01*
X147516648Y-137610585D01*
X147515150Y-137613525D01*
X147375849Y-137976416D01*
X147275244Y-138351879D01*
X147274728Y-138355140D01*
X147225752Y-138664358D01*
X147214436Y-138735802D01*
X147194093Y-139123978D01*
X114228789Y-139123978D01*
X113910636Y-138665649D01*
X113909605Y-138664315D01*
X113465234Y-138089667D01*
X113465230Y-138089662D01*
X113464261Y-138088409D01*
X113463233Y-138087212D01*
X113463223Y-138087200D01*
X112989833Y-137536101D01*
X112989832Y-137536100D01*
X112988791Y-137534888D01*
X112987599Y-137533637D01*
X112486597Y-137007716D01*
X112486592Y-137007711D01*
X112485486Y-137006550D01*
X112484335Y-137005460D01*
X112484321Y-137005446D01*
X111956855Y-136505909D01*
X111956842Y-136505897D01*
X111955677Y-136504794D01*
X111400766Y-136030947D01*
X111238750Y-135906417D01*
X110823508Y-135587251D01*
X110823497Y-135587243D01*
X110822222Y-135586263D01*
X110820880Y-135585337D01*
X110222916Y-135172844D01*
X110222906Y-135172838D01*
X110221576Y-135171920D01*
X109600416Y-134789013D01*
X109281975Y-134614646D01*
X108961806Y-134439332D01*
X108961793Y-134439325D01*
X108960388Y-134438556D01*
X108303184Y-134121476D01*
X108301689Y-134120847D01*
X108301675Y-134120841D01*
X107809170Y-133913730D01*
X107630543Y-133838612D01*
X107287392Y-133714672D01*
X107287296Y-133714637D01*
X107284161Y-133713463D01*
X104822143Y-132753585D01*
X104821574Y-132753363D01*
X104815239Y-132750692D01*
X104735011Y-132714254D01*
X104734506Y-132714023D01*
X104516127Y-132613401D01*
X104504580Y-132607337D01*
X104383537Y-132535546D01*
X104382740Y-132535073D01*
X104381033Y-132534042D01*
X104300051Y-132484205D01*
X104221422Y-132435815D01*
X104211783Y-132429250D01*
X104090346Y-132338012D01*
X104087660Y-132335936D01*
X104075461Y-132326240D01*
X103948907Y-132225651D01*
X103941156Y-132218956D01*
X103827443Y-132112309D01*
X103824047Y-132109000D01*
X103702178Y-131985639D01*
X103696145Y-131979083D01*
X103593583Y-131859384D01*
X103589679Y-131854595D01*
X103484400Y-131718779D01*
X103479979Y-131712707D01*
X103390703Y-131582059D01*
X103386643Y-131575716D01*
X103298439Y-131428404D01*
X103295394Y-131423024D01*
X103221035Y-131283764D01*
X103217119Y-131275761D01*
X103146669Y-131117833D01*
X103144842Y-131113519D01*
X103086587Y-130968274D01*
X103083154Y-130958585D01*
X103031131Y-130790229D01*
X103030162Y-130786934D01*
X103029771Y-130785531D01*
X102989014Y-130639651D01*
X102986399Y-130628283D01*
X102953256Y-130445935D01*
X102952928Y-130444037D01*
X102929521Y-130302093D01*
X102928068Y-130289136D01*
X102914121Y-130056519D01*
X102914082Y-130055833D01*
X102908869Y-129960158D01*
X102908682Y-129953303D01*
X102908682Y-85151478D01*
X115953181Y-85151478D01*
X115972373Y-85370849D01*
X116029368Y-85583554D01*
X116122432Y-85783132D01*
X116138099Y-85805506D01*
X116224935Y-85929520D01*
X116248739Y-85963516D01*
X116404450Y-86119227D01*
X116408959Y-86122384D01*
X116408961Y-86122386D01*
X116469442Y-86164735D01*
X116584834Y-86245534D01*
X116784412Y-86338598D01*
X116997117Y-86395593D01*
X117216488Y-86414785D01*
X117435859Y-86395593D01*
X117648564Y-86338598D01*
X117848142Y-86245534D01*
X117963534Y-86164735D01*
X118024015Y-86122386D01*
X118024017Y-86122384D01*
X118028526Y-86119227D01*
X118184237Y-85963516D01*
X118208042Y-85929520D01*
X118294877Y-85805506D01*
X118310544Y-85783132D01*
X118348584Y-85701554D01*
X121037988Y-85701554D01*
X121038313Y-85704731D01*
X121038313Y-85704739D01*
X121047357Y-85793257D01*
X121048608Y-85805506D01*
X121050769Y-85812028D01*
X121050770Y-85812032D01*
X121078777Y-85896552D01*
X121104417Y-85973929D01*
X121197563Y-86124941D01*
X121323025Y-86250403D01*
X121474037Y-86343549D01*
X121502239Y-86352894D01*
X121635934Y-86397196D01*
X121635938Y-86397197D01*
X121642460Y-86399358D01*
X121649294Y-86400056D01*
X121649298Y-86400057D01*
X121743227Y-86409653D01*
X121743235Y-86409653D01*
X121746412Y-86409978D01*
X122846564Y-86409978D01*
X122849741Y-86409653D01*
X122849749Y-86409653D01*
X122943678Y-86400057D01*
X122943682Y-86400056D01*
X122950516Y-86399358D01*
X122957038Y-86397197D01*
X122957042Y-86397196D01*
X123090737Y-86352894D01*
X123118939Y-86343549D01*
X123269951Y-86250403D01*
X123395413Y-86124941D01*
X123488559Y-85973929D01*
X123514199Y-85896552D01*
X123542206Y-85812032D01*
X123542207Y-85812028D01*
X123544368Y-85805506D01*
X123545620Y-85793257D01*
X123554663Y-85704739D01*
X123554663Y-85704731D01*
X123554988Y-85701554D01*
X123554988Y-85151478D01*
X125953181Y-85151478D01*
X125972373Y-85370849D01*
X126029368Y-85583554D01*
X126122432Y-85783132D01*
X126138099Y-85805506D01*
X126224935Y-85929520D01*
X126248739Y-85963516D01*
X126404450Y-86119227D01*
X126408959Y-86122384D01*
X126408961Y-86122386D01*
X126469442Y-86164735D01*
X126584834Y-86245534D01*
X126784412Y-86338598D01*
X126997117Y-86395593D01*
X127216488Y-86414785D01*
X127435859Y-86395593D01*
X127648564Y-86338598D01*
X127848142Y-86245534D01*
X127963534Y-86164735D01*
X128024015Y-86122386D01*
X128024017Y-86122384D01*
X128028526Y-86119227D01*
X128184237Y-85963516D01*
X128208042Y-85929520D01*
X128294877Y-85805506D01*
X128310544Y-85783132D01*
X128348584Y-85701554D01*
X131037988Y-85701554D01*
X131038313Y-85704731D01*
X131038313Y-85704739D01*
X131047357Y-85793257D01*
X131048608Y-85805506D01*
X131050769Y-85812028D01*
X131050770Y-85812032D01*
X131078777Y-85896552D01*
X131104417Y-85973929D01*
X131197563Y-86124941D01*
X131323025Y-86250403D01*
X131474037Y-86343549D01*
X131502239Y-86352894D01*
X131635934Y-86397196D01*
X131635938Y-86397197D01*
X131642460Y-86399358D01*
X131649294Y-86400056D01*
X131649298Y-86400057D01*
X131743227Y-86409653D01*
X131743235Y-86409653D01*
X131746412Y-86409978D01*
X132846564Y-86409978D01*
X132849741Y-86409653D01*
X132849749Y-86409653D01*
X132943678Y-86400057D01*
X132943682Y-86400056D01*
X132950516Y-86399358D01*
X132957038Y-86397197D01*
X132957042Y-86397196D01*
X133090737Y-86352894D01*
X133118939Y-86343549D01*
X133269951Y-86250403D01*
X133395413Y-86124941D01*
X133488559Y-85973929D01*
X133514199Y-85896552D01*
X133542206Y-85812032D01*
X133542207Y-85812028D01*
X133544368Y-85805506D01*
X133545620Y-85793257D01*
X133551344Y-85737223D01*
X138413000Y-85737223D01*
X138413360Y-85743938D01*
X138418662Y-85793257D01*
X138422259Y-85808478D01*
X138467405Y-85929520D01*
X138475954Y-85945176D01*
X138552698Y-86047693D01*
X138565307Y-86060302D01*
X138667824Y-86137046D01*
X138683480Y-86145595D01*
X138804522Y-86190741D01*
X138819743Y-86194338D01*
X138869062Y-86199640D01*
X138875777Y-86200000D01*
X139173885Y-86200000D01*
X139189124Y-86195525D01*
X139190329Y-86194135D01*
X139192000Y-86186452D01*
X139192000Y-85217775D01*
X139682500Y-85217775D01*
X139682803Y-85220849D01*
X139682803Y-85220854D01*
X139696847Y-85363443D01*
X139696848Y-85363448D01*
X139697454Y-85369601D01*
X139698000Y-85371402D01*
X139700000Y-85391699D01*
X139700000Y-86181885D01*
X139704475Y-86197124D01*
X139705865Y-86198329D01*
X139713548Y-86200000D01*
X140016223Y-86200000D01*
X140022938Y-86199640D01*
X140072257Y-86194338D01*
X140087478Y-86190741D01*
X140208516Y-86145596D01*
X140223978Y-86137153D01*
X140293352Y-86122061D01*
X140320940Y-86127165D01*
X140507473Y-86183749D01*
X140507479Y-86183750D01*
X140513399Y-86185546D01*
X140716000Y-86205501D01*
X140918601Y-86185546D01*
X140924521Y-86183750D01*
X140924527Y-86183749D01*
X141078486Y-86137046D01*
X141113417Y-86126450D01*
X141291603Y-86031207D01*
X141361110Y-86016735D01*
X141410397Y-86031207D01*
X141588583Y-86126450D01*
X141623514Y-86137046D01*
X141777473Y-86183749D01*
X141777479Y-86183750D01*
X141783399Y-86185546D01*
X141986000Y-86205501D01*
X142188601Y-86185546D01*
X142194521Y-86183750D01*
X142194527Y-86183749D01*
X142348486Y-86137046D01*
X142383417Y-86126450D01*
X142562960Y-86030482D01*
X142720331Y-85901331D01*
X142733550Y-85885223D01*
X149275988Y-85885223D01*
X149276348Y-85891938D01*
X149281650Y-85941257D01*
X149285247Y-85956478D01*
X149330393Y-86077520D01*
X149338942Y-86093176D01*
X149415686Y-86195693D01*
X149428295Y-86208302D01*
X149530812Y-86285046D01*
X149546468Y-86293595D01*
X149667510Y-86338741D01*
X149682731Y-86342338D01*
X149732050Y-86347640D01*
X149738765Y-86348000D01*
X150036873Y-86348000D01*
X150052112Y-86343525D01*
X150053317Y-86342135D01*
X150054988Y-86334452D01*
X150054988Y-85365775D01*
X150545488Y-85365775D01*
X150545791Y-85368849D01*
X150545791Y-85368854D01*
X150559835Y-85511443D01*
X150559836Y-85511448D01*
X150560442Y-85517601D01*
X150560988Y-85519402D01*
X150562988Y-85539699D01*
X150562988Y-86329885D01*
X150567463Y-86345124D01*
X150568853Y-86346329D01*
X150576536Y-86348000D01*
X150879211Y-86348000D01*
X150885926Y-86347640D01*
X150935245Y-86342338D01*
X150950466Y-86338741D01*
X151071504Y-86293596D01*
X151086966Y-86285153D01*
X151156340Y-86270061D01*
X151183928Y-86275165D01*
X151370461Y-86331749D01*
X151370467Y-86331750D01*
X151376387Y-86333546D01*
X151578988Y-86353501D01*
X151781589Y-86333546D01*
X151787509Y-86331750D01*
X151787515Y-86331749D01*
X151941474Y-86285046D01*
X151976405Y-86274450D01*
X152118817Y-86198329D01*
X152154592Y-86179207D01*
X152224098Y-86164735D01*
X152273384Y-86179207D01*
X152309159Y-86198329D01*
X152451571Y-86274450D01*
X152486502Y-86285046D01*
X152640461Y-86331749D01*
X152640467Y-86331750D01*
X152646387Y-86333546D01*
X152848988Y-86353501D01*
X153051589Y-86333546D01*
X153057509Y-86331750D01*
X153057515Y-86331749D01*
X153211474Y-86285046D01*
X153246405Y-86274450D01*
X153416094Y-86183749D01*
X153420489Y-86181400D01*
X153420490Y-86181400D01*
X153425948Y-86178482D01*
X153583319Y-86049331D01*
X153712470Y-85891960D01*
X153808438Y-85712417D01*
X153867534Y-85517601D01*
X153881465Y-85376159D01*
X153882185Y-85368854D01*
X153882185Y-85368849D01*
X153882488Y-85365775D01*
X153882488Y-84814225D01*
X153867534Y-84662399D01*
X153808438Y-84467583D01*
X153712470Y-84288040D01*
X153583319Y-84130669D01*
X153425948Y-84001518D01*
X153246405Y-83905550D01*
X153198405Y-83890989D01*
X153057515Y-83848251D01*
X153057509Y-83848250D01*
X153051589Y-83846454D01*
X152848988Y-83826499D01*
X152646387Y-83846454D01*
X152640467Y-83848250D01*
X152640461Y-83848251D01*
X152499571Y-83890989D01*
X152451571Y-83905550D01*
X152446116Y-83908466D01*
X152273384Y-84000793D01*
X152203878Y-84015265D01*
X152154592Y-84000793D01*
X151981860Y-83908466D01*
X151976405Y-83905550D01*
X151928405Y-83890989D01*
X151787515Y-83848251D01*
X151787509Y-83848250D01*
X151781589Y-83846454D01*
X151578988Y-83826499D01*
X151376387Y-83846454D01*
X151370467Y-83848250D01*
X151370461Y-83848251D01*
X151183928Y-83904835D01*
X151112935Y-83905468D01*
X151086966Y-83894847D01*
X151071504Y-83886404D01*
X150950466Y-83841259D01*
X150935245Y-83837662D01*
X150885926Y-83832360D01*
X150879211Y-83832000D01*
X150581103Y-83832000D01*
X150565864Y-83836475D01*
X150564659Y-83837865D01*
X150562988Y-83845548D01*
X150562988Y-84640301D01*
X150560988Y-84660598D01*
X150560442Y-84662399D01*
X150559836Y-84668552D01*
X150559835Y-84668557D01*
X150554304Y-84724713D01*
X150545488Y-84814225D01*
X150545488Y-85365775D01*
X150054988Y-85365775D01*
X150054988Y-85362115D01*
X150050513Y-85346876D01*
X150049123Y-85345671D01*
X150041440Y-85344000D01*
X149294103Y-85344000D01*
X149278864Y-85348475D01*
X149277659Y-85349865D01*
X149275988Y-85357548D01*
X149275988Y-85885223D01*
X142733550Y-85885223D01*
X142849482Y-85743960D01*
X142945450Y-85564417D01*
X143004546Y-85369601D01*
X143019500Y-85217775D01*
X143019500Y-84817885D01*
X149275988Y-84817885D01*
X149280463Y-84833124D01*
X149281853Y-84834329D01*
X149289536Y-84836000D01*
X150036873Y-84836000D01*
X150052112Y-84831525D01*
X150053317Y-84830135D01*
X150054988Y-84822452D01*
X150054988Y-83850115D01*
X150050513Y-83834876D01*
X150049123Y-83833671D01*
X150041440Y-83832000D01*
X149738765Y-83832000D01*
X149732050Y-83832360D01*
X149682731Y-83837662D01*
X149667510Y-83841259D01*
X149546468Y-83886405D01*
X149530812Y-83894954D01*
X149428295Y-83971698D01*
X149415686Y-83984307D01*
X149338942Y-84086824D01*
X149330393Y-84102480D01*
X149285247Y-84223522D01*
X149281650Y-84238743D01*
X149276348Y-84288062D01*
X149275988Y-84294777D01*
X149275988Y-84817885D01*
X143019500Y-84817885D01*
X143019500Y-84666225D01*
X143018541Y-84656482D01*
X143012802Y-84598217D01*
X143004546Y-84514399D01*
X142945450Y-84319583D01*
X142849482Y-84140040D01*
X142720331Y-83982669D01*
X142562960Y-83853518D01*
X142556594Y-83850115D01*
X142507171Y-83823698D01*
X142383417Y-83757550D01*
X142320300Y-83738404D01*
X142194527Y-83700251D01*
X142194521Y-83700250D01*
X142188601Y-83698454D01*
X141986000Y-83678499D01*
X141783399Y-83698454D01*
X141777479Y-83700250D01*
X141777473Y-83700251D01*
X141651700Y-83738404D01*
X141588583Y-83757550D01*
X141490251Y-83810109D01*
X141410396Y-83852793D01*
X141340890Y-83867265D01*
X141291604Y-83852793D01*
X141211749Y-83810109D01*
X141113417Y-83757550D01*
X141050300Y-83738404D01*
X140924527Y-83700251D01*
X140924521Y-83700250D01*
X140918601Y-83698454D01*
X140716000Y-83678499D01*
X140513399Y-83698454D01*
X140507479Y-83700250D01*
X140507473Y-83700251D01*
X140320940Y-83756835D01*
X140249947Y-83757468D01*
X140223978Y-83746847D01*
X140208516Y-83738404D01*
X140087478Y-83693259D01*
X140072257Y-83689662D01*
X140022938Y-83684360D01*
X140016223Y-83684000D01*
X139718115Y-83684000D01*
X139702876Y-83688475D01*
X139701671Y-83689865D01*
X139700000Y-83697548D01*
X139700000Y-84492301D01*
X139698000Y-84512598D01*
X139697454Y-84514399D01*
X139696848Y-84520552D01*
X139696847Y-84520557D01*
X139682877Y-84662399D01*
X139682500Y-84666225D01*
X139682500Y-85217775D01*
X139192000Y-85217775D01*
X139192000Y-85214115D01*
X139187525Y-85198876D01*
X139186135Y-85197671D01*
X139178452Y-85196000D01*
X138431115Y-85196000D01*
X138415876Y-85200475D01*
X138414671Y-85201865D01*
X138413000Y-85209548D01*
X138413000Y-85737223D01*
X133551344Y-85737223D01*
X133554663Y-85704739D01*
X133554663Y-85704731D01*
X133554988Y-85701554D01*
X133554988Y-84669885D01*
X138413000Y-84669885D01*
X138417475Y-84685124D01*
X138418865Y-84686329D01*
X138426548Y-84688000D01*
X139173885Y-84688000D01*
X139189124Y-84683525D01*
X139190329Y-84682135D01*
X139192000Y-84674452D01*
X139192000Y-83702115D01*
X139187525Y-83686876D01*
X139186135Y-83685671D01*
X139178452Y-83684000D01*
X138875777Y-83684000D01*
X138869062Y-83684360D01*
X138819743Y-83689662D01*
X138804522Y-83693259D01*
X138683480Y-83738405D01*
X138667824Y-83746954D01*
X138565307Y-83823698D01*
X138552698Y-83836307D01*
X138475954Y-83938824D01*
X138467405Y-83954480D01*
X138422259Y-84075522D01*
X138418662Y-84090743D01*
X138413360Y-84140062D01*
X138413000Y-84146777D01*
X138413000Y-84669885D01*
X133554988Y-84669885D01*
X133554988Y-84601402D01*
X133554663Y-84598217D01*
X133545067Y-84504288D01*
X133545066Y-84504284D01*
X133544368Y-84497450D01*
X133536433Y-84473501D01*
X133490866Y-84335990D01*
X133488559Y-84329027D01*
X133395413Y-84178015D01*
X133269951Y-84052553D01*
X133118939Y-83959407D01*
X133054803Y-83938155D01*
X132957042Y-83905760D01*
X132957038Y-83905759D01*
X132950516Y-83903598D01*
X132943682Y-83902900D01*
X132943678Y-83902899D01*
X132849749Y-83893303D01*
X132849741Y-83893303D01*
X132846564Y-83892978D01*
X131746412Y-83892978D01*
X131743235Y-83893303D01*
X131743227Y-83893303D01*
X131649298Y-83902899D01*
X131649294Y-83902900D01*
X131642460Y-83903598D01*
X131635938Y-83905759D01*
X131635934Y-83905760D01*
X131538173Y-83938155D01*
X131474037Y-83959407D01*
X131323025Y-84052553D01*
X131197563Y-84178015D01*
X131104417Y-84329027D01*
X131102110Y-84335990D01*
X131056544Y-84473501D01*
X131048608Y-84497450D01*
X131047910Y-84504284D01*
X131047909Y-84504288D01*
X131038313Y-84598217D01*
X131037988Y-84601402D01*
X131037988Y-85701554D01*
X128348584Y-85701554D01*
X128403608Y-85583554D01*
X128460603Y-85370849D01*
X128479795Y-85151478D01*
X128460603Y-84932107D01*
X128403608Y-84719402D01*
X128347099Y-84598217D01*
X128312870Y-84524812D01*
X128312867Y-84524807D01*
X128310544Y-84519825D01*
X128294877Y-84497450D01*
X128187396Y-84343951D01*
X128187394Y-84343948D01*
X128184237Y-84339440D01*
X128028526Y-84183729D01*
X128012950Y-84172822D01*
X127873991Y-84075522D01*
X127848142Y-84057422D01*
X127648564Y-83964358D01*
X127435859Y-83907363D01*
X127216488Y-83888171D01*
X126997117Y-83907363D01*
X126784412Y-83964358D01*
X126710980Y-83998600D01*
X126589822Y-84055096D01*
X126589817Y-84055099D01*
X126584835Y-84057422D01*
X126580328Y-84060578D01*
X126580326Y-84060579D01*
X126408961Y-84180570D01*
X126408958Y-84180572D01*
X126404450Y-84183729D01*
X126248739Y-84339440D01*
X126245582Y-84343948D01*
X126245580Y-84343951D01*
X126138099Y-84497450D01*
X126122432Y-84519825D01*
X126120109Y-84524807D01*
X126120106Y-84524812D01*
X126085877Y-84598217D01*
X126029368Y-84719402D01*
X125972373Y-84932107D01*
X125953181Y-85151478D01*
X123554988Y-85151478D01*
X123554988Y-84601402D01*
X123554663Y-84598217D01*
X123545067Y-84504288D01*
X123545066Y-84504284D01*
X123544368Y-84497450D01*
X123536433Y-84473501D01*
X123490866Y-84335990D01*
X123488559Y-84329027D01*
X123395413Y-84178015D01*
X123269951Y-84052553D01*
X123118939Y-83959407D01*
X123054803Y-83938155D01*
X122957042Y-83905760D01*
X122957038Y-83905759D01*
X122950516Y-83903598D01*
X122943682Y-83902900D01*
X122943678Y-83902899D01*
X122849749Y-83893303D01*
X122849741Y-83893303D01*
X122846564Y-83892978D01*
X121746412Y-83892978D01*
X121743235Y-83893303D01*
X121743227Y-83893303D01*
X121649298Y-83902899D01*
X121649294Y-83902900D01*
X121642460Y-83903598D01*
X121635938Y-83905759D01*
X121635934Y-83905760D01*
X121538173Y-83938155D01*
X121474037Y-83959407D01*
X121323025Y-84052553D01*
X121197563Y-84178015D01*
X121104417Y-84329027D01*
X121102110Y-84335990D01*
X121056544Y-84473501D01*
X121048608Y-84497450D01*
X121047910Y-84504284D01*
X121047909Y-84504288D01*
X121038313Y-84598217D01*
X121037988Y-84601402D01*
X121037988Y-85701554D01*
X118348584Y-85701554D01*
X118403608Y-85583554D01*
X118460603Y-85370849D01*
X118479795Y-85151478D01*
X118460603Y-84932107D01*
X118403608Y-84719402D01*
X118347099Y-84598217D01*
X118312870Y-84524812D01*
X118312867Y-84524807D01*
X118310544Y-84519825D01*
X118294877Y-84497450D01*
X118187396Y-84343951D01*
X118187394Y-84343948D01*
X118184237Y-84339440D01*
X118028526Y-84183729D01*
X118012950Y-84172822D01*
X117873991Y-84075522D01*
X117848142Y-84057422D01*
X117648564Y-83964358D01*
X117435859Y-83907363D01*
X117216488Y-83888171D01*
X116997117Y-83907363D01*
X116784412Y-83964358D01*
X116710980Y-83998600D01*
X116589822Y-84055096D01*
X116589817Y-84055099D01*
X116584835Y-84057422D01*
X116580328Y-84060578D01*
X116580326Y-84060579D01*
X116408961Y-84180570D01*
X116408958Y-84180572D01*
X116404450Y-84183729D01*
X116248739Y-84339440D01*
X116245582Y-84343948D01*
X116245580Y-84343951D01*
X116138099Y-84497450D01*
X116122432Y-84519825D01*
X116120109Y-84524807D01*
X116120106Y-84524812D01*
X116085877Y-84598217D01*
X116029368Y-84719402D01*
X115972373Y-84932107D01*
X115953181Y-85151478D01*
X102908682Y-85151478D01*
X102908682Y-75051908D01*
X108347693Y-75051908D01*
X108368036Y-75440084D01*
X108428844Y-75824007D01*
X108529449Y-76199470D01*
X108668750Y-76562361D01*
X108670248Y-76565301D01*
X108748786Y-76719440D01*
X108845220Y-76908703D01*
X109056925Y-77234701D01*
X109124043Y-77317584D01*
X109292818Y-77526003D01*
X109301548Y-77536784D01*
X109576406Y-77811642D01*
X109878489Y-78056265D01*
X110204487Y-78267970D01*
X110207421Y-78269465D01*
X110207428Y-78269469D01*
X110472226Y-78404390D01*
X110550829Y-78444440D01*
X110663606Y-78487731D01*
X110855528Y-78561403D01*
X110913720Y-78583741D01*
X111289183Y-78684346D01*
X111493075Y-78716640D01*
X111669858Y-78744640D01*
X111669866Y-78744641D01*
X111673106Y-78745154D01*
X112061282Y-78765497D01*
X112449458Y-78745154D01*
X112452698Y-78744641D01*
X112452706Y-78744640D01*
X112629489Y-78716640D01*
X112833381Y-78684346D01*
X113208844Y-78583741D01*
X113267037Y-78561403D01*
X113458958Y-78487731D01*
X113571735Y-78444440D01*
X113650338Y-78404390D01*
X113915136Y-78269469D01*
X113915143Y-78269465D01*
X113918077Y-78267970D01*
X114244075Y-78056265D01*
X114546158Y-77811642D01*
X114821016Y-77536784D01*
X114829747Y-77526003D01*
X114998521Y-77317584D01*
X115065639Y-77234701D01*
X115277344Y-76908703D01*
X115373779Y-76719440D01*
X115452316Y-76565301D01*
X115453814Y-76562361D01*
X115593115Y-76199470D01*
X115693720Y-75824007D01*
X115754528Y-75440084D01*
X115758579Y-75362785D01*
X115782118Y-75295804D01*
X115838134Y-75252183D01*
X115908840Y-75245771D01*
X115971789Y-75278603D01*
X116006112Y-75336767D01*
X116027941Y-75418232D01*
X116027945Y-75418242D01*
X116029368Y-75423554D01*
X116122432Y-75623132D01*
X116248739Y-75803516D01*
X116404450Y-75959227D01*
X116584834Y-76085534D01*
X116589816Y-76087857D01*
X116589821Y-76087860D01*
X116717256Y-76147283D01*
X116770541Y-76194200D01*
X116790002Y-76262477D01*
X116769460Y-76330437D01*
X116717256Y-76375673D01*
X116589822Y-76435096D01*
X116589817Y-76435099D01*
X116584835Y-76437422D01*
X116580328Y-76440578D01*
X116580326Y-76440579D01*
X116408961Y-76560570D01*
X116408958Y-76560572D01*
X116404450Y-76563729D01*
X116248739Y-76719440D01*
X116122432Y-76899825D01*
X116120109Y-76904807D01*
X116120106Y-76904812D01*
X116072903Y-77006040D01*
X116029368Y-77099402D01*
X115972373Y-77312107D01*
X115953181Y-77531478D01*
X115972373Y-77750849D01*
X116029368Y-77963554D01*
X116122432Y-78163132D01*
X116125589Y-78167640D01*
X116238318Y-78328633D01*
X116248739Y-78343516D01*
X116404450Y-78499227D01*
X116584834Y-78625534D01*
X116589816Y-78627857D01*
X116589821Y-78627860D01*
X116717256Y-78687283D01*
X116770541Y-78734200D01*
X116790002Y-78802477D01*
X116769460Y-78870437D01*
X116717256Y-78915673D01*
X116589822Y-78975096D01*
X116589817Y-78975099D01*
X116584835Y-78977422D01*
X116580328Y-78980578D01*
X116580326Y-78980579D01*
X116408961Y-79100570D01*
X116408958Y-79100572D01*
X116404450Y-79103729D01*
X116248739Y-79259440D01*
X116245582Y-79263948D01*
X116245580Y-79263951D01*
X116140095Y-79414599D01*
X116122432Y-79439825D01*
X116120109Y-79444807D01*
X116120106Y-79444812D01*
X116072903Y-79546040D01*
X116029368Y-79639402D01*
X115972373Y-79852107D01*
X115953181Y-80071478D01*
X115972373Y-80290849D01*
X116029368Y-80503554D01*
X116122432Y-80703132D01*
X116248739Y-80883516D01*
X116404450Y-81039227D01*
X116584834Y-81165534D01*
X116784412Y-81258598D01*
X116997117Y-81315593D01*
X117216488Y-81334785D01*
X117435859Y-81315593D01*
X117648564Y-81258598D01*
X117848142Y-81165534D01*
X118028526Y-81039227D01*
X118184237Y-80883516D01*
X118310544Y-80703132D01*
X118403608Y-80503554D01*
X118460603Y-80290849D01*
X118479795Y-80071478D01*
X121033181Y-80071478D01*
X121052373Y-80290849D01*
X121109368Y-80503554D01*
X121202432Y-80703132D01*
X121328739Y-80883516D01*
X121484450Y-81039227D01*
X121664834Y-81165534D01*
X121864412Y-81258598D01*
X122077117Y-81315593D01*
X122296488Y-81334785D01*
X122515859Y-81315593D01*
X122728564Y-81258598D01*
X122928142Y-81165534D01*
X123108526Y-81039227D01*
X123264237Y-80883516D01*
X123390544Y-80703132D01*
X123483608Y-80503554D01*
X123540603Y-80290849D01*
X123559795Y-80071478D01*
X125953181Y-80071478D01*
X125972373Y-80290849D01*
X126029368Y-80503554D01*
X126122432Y-80703132D01*
X126248739Y-80883516D01*
X126404450Y-81039227D01*
X126584834Y-81165534D01*
X126784412Y-81258598D01*
X126997117Y-81315593D01*
X127216488Y-81334785D01*
X127435859Y-81315593D01*
X127648564Y-81258598D01*
X127848142Y-81165534D01*
X128028526Y-81039227D01*
X128184237Y-80883516D01*
X128310544Y-80703132D01*
X128403608Y-80503554D01*
X128460603Y-80290849D01*
X128479795Y-80071478D01*
X131033181Y-80071478D01*
X131052373Y-80290849D01*
X131109368Y-80503554D01*
X131202432Y-80703132D01*
X131328739Y-80883516D01*
X131484450Y-81039227D01*
X131664834Y-81165534D01*
X131864412Y-81258598D01*
X132077117Y-81315593D01*
X132296488Y-81334785D01*
X132515859Y-81315593D01*
X132728564Y-81258598D01*
X132928142Y-81165534D01*
X133108526Y-81039227D01*
X133264237Y-80883516D01*
X133390544Y-80703132D01*
X133483608Y-80503554D01*
X133540603Y-80290849D01*
X133559795Y-80071478D01*
X133540603Y-79852107D01*
X133483608Y-79639402D01*
X133440073Y-79546040D01*
X133392870Y-79444812D01*
X133392867Y-79444807D01*
X133390544Y-79439825D01*
X133372881Y-79414599D01*
X133267396Y-79263951D01*
X133267394Y-79263948D01*
X133264237Y-79259440D01*
X133108526Y-79103729D01*
X132928142Y-78977422D01*
X132923160Y-78975099D01*
X132923155Y-78975096D01*
X132795720Y-78915673D01*
X132742435Y-78868756D01*
X132722974Y-78800479D01*
X132743516Y-78732519D01*
X132795720Y-78687283D01*
X132923155Y-78627860D01*
X132923160Y-78627857D01*
X132928142Y-78625534D01*
X133108526Y-78499227D01*
X133264237Y-78343516D01*
X133274659Y-78328633D01*
X133387387Y-78167640D01*
X133390544Y-78163132D01*
X133483608Y-77963554D01*
X133540603Y-77750849D01*
X133559795Y-77531478D01*
X133540603Y-77312107D01*
X133483608Y-77099402D01*
X133440073Y-77006040D01*
X133392870Y-76904812D01*
X133392867Y-76904807D01*
X133390544Y-76899825D01*
X133264237Y-76719440D01*
X133108526Y-76563729D01*
X133102167Y-76559276D01*
X133029247Y-76508217D01*
X132928142Y-76437422D01*
X132923160Y-76435099D01*
X132923155Y-76435096D01*
X132795720Y-76375673D01*
X132742435Y-76328756D01*
X132722974Y-76260479D01*
X132743516Y-76192519D01*
X132795720Y-76147283D01*
X132923155Y-76087860D01*
X132923160Y-76087857D01*
X132928142Y-76085534D01*
X133108526Y-75959227D01*
X133264237Y-75803516D01*
X133390544Y-75623132D01*
X133483608Y-75423554D01*
X133540603Y-75210849D01*
X133559795Y-74991478D01*
X133540603Y-74772107D01*
X133483608Y-74559402D01*
X133440073Y-74466040D01*
X133392870Y-74364812D01*
X133392867Y-74364807D01*
X133390544Y-74359825D01*
X133264237Y-74179440D01*
X133108526Y-74023729D01*
X132928142Y-73897422D01*
X132728564Y-73804358D01*
X132515859Y-73747363D01*
X132296488Y-73728171D01*
X132077117Y-73747363D01*
X131864412Y-73804358D01*
X131771050Y-73847893D01*
X131669822Y-73895096D01*
X131669817Y-73895099D01*
X131664835Y-73897422D01*
X131660328Y-73900578D01*
X131660326Y-73900579D01*
X131488961Y-74020570D01*
X131488958Y-74020572D01*
X131484450Y-74023729D01*
X131328739Y-74179440D01*
X131202432Y-74359825D01*
X131200109Y-74364807D01*
X131200106Y-74364812D01*
X131152903Y-74466040D01*
X131109368Y-74559402D01*
X131052373Y-74772107D01*
X131033181Y-74991478D01*
X131052373Y-75210849D01*
X131109368Y-75423554D01*
X131202432Y-75623132D01*
X131328739Y-75803516D01*
X131484450Y-75959227D01*
X131664834Y-76085534D01*
X131669816Y-76087857D01*
X131669821Y-76087860D01*
X131797256Y-76147283D01*
X131850541Y-76194200D01*
X131870002Y-76262477D01*
X131849460Y-76330437D01*
X131797256Y-76375673D01*
X131669822Y-76435096D01*
X131669817Y-76435099D01*
X131664835Y-76437422D01*
X131660328Y-76440578D01*
X131660326Y-76440579D01*
X131488961Y-76560570D01*
X131488958Y-76560572D01*
X131484450Y-76563729D01*
X131328739Y-76719440D01*
X131202432Y-76899825D01*
X131200109Y-76904807D01*
X131200106Y-76904812D01*
X131152903Y-77006040D01*
X131109368Y-77099402D01*
X131052373Y-77312107D01*
X131033181Y-77531478D01*
X131052373Y-77750849D01*
X131109368Y-77963554D01*
X131202432Y-78163132D01*
X131205589Y-78167640D01*
X131318318Y-78328633D01*
X131328739Y-78343516D01*
X131484450Y-78499227D01*
X131664834Y-78625534D01*
X131669816Y-78627857D01*
X131669821Y-78627860D01*
X131797256Y-78687283D01*
X131850541Y-78734200D01*
X131870002Y-78802477D01*
X131849460Y-78870437D01*
X131797256Y-78915673D01*
X131669822Y-78975096D01*
X131669817Y-78975099D01*
X131664835Y-78977422D01*
X131660328Y-78980578D01*
X131660326Y-78980579D01*
X131488961Y-79100570D01*
X131488958Y-79100572D01*
X131484450Y-79103729D01*
X131328739Y-79259440D01*
X131325582Y-79263948D01*
X131325580Y-79263951D01*
X131220095Y-79414599D01*
X131202432Y-79439825D01*
X131200109Y-79444807D01*
X131200106Y-79444812D01*
X131152903Y-79546040D01*
X131109368Y-79639402D01*
X131052373Y-79852107D01*
X131033181Y-80071478D01*
X128479795Y-80071478D01*
X128460603Y-79852107D01*
X128403608Y-79639402D01*
X128360073Y-79546040D01*
X128312870Y-79444812D01*
X128312867Y-79444807D01*
X128310544Y-79439825D01*
X128292881Y-79414599D01*
X128187396Y-79263951D01*
X128187394Y-79263948D01*
X128184237Y-79259440D01*
X128028526Y-79103729D01*
X127848142Y-78977422D01*
X127843160Y-78975099D01*
X127843155Y-78975096D01*
X127715720Y-78915673D01*
X127662435Y-78868756D01*
X127642974Y-78800479D01*
X127663516Y-78732519D01*
X127715720Y-78687283D01*
X127843155Y-78627860D01*
X127843160Y-78627857D01*
X127848142Y-78625534D01*
X128028526Y-78499227D01*
X128184237Y-78343516D01*
X128194659Y-78328633D01*
X128307387Y-78167640D01*
X128310544Y-78163132D01*
X128403608Y-77963554D01*
X128460603Y-77750849D01*
X128479795Y-77531478D01*
X128460603Y-77312107D01*
X128403608Y-77099402D01*
X128360073Y-77006040D01*
X128312870Y-76904812D01*
X128312867Y-76904807D01*
X128310544Y-76899825D01*
X128184237Y-76719440D01*
X128028526Y-76563729D01*
X128022167Y-76559276D01*
X127949247Y-76508217D01*
X127848142Y-76437422D01*
X127843160Y-76435099D01*
X127843155Y-76435096D01*
X127715720Y-76375673D01*
X127662435Y-76328756D01*
X127642974Y-76260479D01*
X127663516Y-76192519D01*
X127715720Y-76147283D01*
X127843155Y-76087860D01*
X127843160Y-76087857D01*
X127848142Y-76085534D01*
X128028526Y-75959227D01*
X128184237Y-75803516D01*
X128310544Y-75623132D01*
X128403608Y-75423554D01*
X128460603Y-75210849D01*
X128479795Y-74991478D01*
X128460603Y-74772107D01*
X128403608Y-74559402D01*
X128360073Y-74466040D01*
X128312870Y-74364812D01*
X128312867Y-74364807D01*
X128310544Y-74359825D01*
X128184237Y-74179440D01*
X128028526Y-74023729D01*
X127848142Y-73897422D01*
X127648564Y-73804358D01*
X127435859Y-73747363D01*
X127216488Y-73728171D01*
X126997117Y-73747363D01*
X126784412Y-73804358D01*
X126691050Y-73847893D01*
X126589822Y-73895096D01*
X126589817Y-73895099D01*
X126584835Y-73897422D01*
X126580328Y-73900578D01*
X126580326Y-73900579D01*
X126408961Y-74020570D01*
X126408958Y-74020572D01*
X126404450Y-74023729D01*
X126248739Y-74179440D01*
X126122432Y-74359825D01*
X126120109Y-74364807D01*
X126120106Y-74364812D01*
X126072903Y-74466040D01*
X126029368Y-74559402D01*
X125972373Y-74772107D01*
X125953181Y-74991478D01*
X125972373Y-75210849D01*
X126029368Y-75423554D01*
X126122432Y-75623132D01*
X126248739Y-75803516D01*
X126404450Y-75959227D01*
X126584834Y-76085534D01*
X126589816Y-76087857D01*
X126589821Y-76087860D01*
X126717256Y-76147283D01*
X126770541Y-76194200D01*
X126790002Y-76262477D01*
X126769460Y-76330437D01*
X126717256Y-76375673D01*
X126589822Y-76435096D01*
X126589817Y-76435099D01*
X126584835Y-76437422D01*
X126580328Y-76440578D01*
X126580326Y-76440579D01*
X126408961Y-76560570D01*
X126408958Y-76560572D01*
X126404450Y-76563729D01*
X126248739Y-76719440D01*
X126122432Y-76899825D01*
X126120109Y-76904807D01*
X126120106Y-76904812D01*
X126072903Y-77006040D01*
X126029368Y-77099402D01*
X125972373Y-77312107D01*
X125953181Y-77531478D01*
X125972373Y-77750849D01*
X126029368Y-77963554D01*
X126122432Y-78163132D01*
X126125589Y-78167640D01*
X126238318Y-78328633D01*
X126248739Y-78343516D01*
X126404450Y-78499227D01*
X126584834Y-78625534D01*
X126589816Y-78627857D01*
X126589821Y-78627860D01*
X126717256Y-78687283D01*
X126770541Y-78734200D01*
X126790002Y-78802477D01*
X126769460Y-78870437D01*
X126717256Y-78915673D01*
X126589822Y-78975096D01*
X126589817Y-78975099D01*
X126584835Y-78977422D01*
X126580328Y-78980578D01*
X126580326Y-78980579D01*
X126408961Y-79100570D01*
X126408958Y-79100572D01*
X126404450Y-79103729D01*
X126248739Y-79259440D01*
X126245582Y-79263948D01*
X126245580Y-79263951D01*
X126140095Y-79414599D01*
X126122432Y-79439825D01*
X126120109Y-79444807D01*
X126120106Y-79444812D01*
X126072903Y-79546040D01*
X126029368Y-79639402D01*
X125972373Y-79852107D01*
X125953181Y-80071478D01*
X123559795Y-80071478D01*
X123540603Y-79852107D01*
X123483608Y-79639402D01*
X123440073Y-79546040D01*
X123392870Y-79444812D01*
X123392867Y-79444807D01*
X123390544Y-79439825D01*
X123372881Y-79414599D01*
X123267396Y-79263951D01*
X123267394Y-79263948D01*
X123264237Y-79259440D01*
X123108526Y-79103729D01*
X122928142Y-78977422D01*
X122923160Y-78975099D01*
X122923155Y-78975096D01*
X122795720Y-78915673D01*
X122742435Y-78868756D01*
X122722974Y-78800479D01*
X122743516Y-78732519D01*
X122795720Y-78687283D01*
X122923155Y-78627860D01*
X122923160Y-78627857D01*
X122928142Y-78625534D01*
X123108526Y-78499227D01*
X123264237Y-78343516D01*
X123274659Y-78328633D01*
X123387387Y-78167640D01*
X123390544Y-78163132D01*
X123483608Y-77963554D01*
X123540603Y-77750849D01*
X123559795Y-77531478D01*
X123540603Y-77312107D01*
X123483608Y-77099402D01*
X123440073Y-77006040D01*
X123392870Y-76904812D01*
X123392867Y-76904807D01*
X123390544Y-76899825D01*
X123264237Y-76719440D01*
X123108526Y-76563729D01*
X123102167Y-76559276D01*
X123029247Y-76508217D01*
X122928142Y-76437422D01*
X122923160Y-76435099D01*
X122923155Y-76435096D01*
X122795720Y-76375673D01*
X122742435Y-76328756D01*
X122722974Y-76260479D01*
X122743516Y-76192519D01*
X122795720Y-76147283D01*
X122923155Y-76087860D01*
X122923160Y-76087857D01*
X122928142Y-76085534D01*
X123108526Y-75959227D01*
X123264237Y-75803516D01*
X123390544Y-75623132D01*
X123483608Y-75423554D01*
X123540603Y-75210849D01*
X123559795Y-74991478D01*
X123540603Y-74772107D01*
X123483608Y-74559402D01*
X123440073Y-74466040D01*
X123392870Y-74364812D01*
X123392867Y-74364807D01*
X123390544Y-74359825D01*
X123264237Y-74179440D01*
X123108526Y-74023729D01*
X122928142Y-73897422D01*
X122728564Y-73804358D01*
X122515859Y-73747363D01*
X122296488Y-73728171D01*
X122077117Y-73747363D01*
X121864412Y-73804358D01*
X121771050Y-73847893D01*
X121669822Y-73895096D01*
X121669817Y-73895099D01*
X121664835Y-73897422D01*
X121660328Y-73900578D01*
X121660326Y-73900579D01*
X121488961Y-74020570D01*
X121488958Y-74020572D01*
X121484450Y-74023729D01*
X121328739Y-74179440D01*
X121202432Y-74359825D01*
X121200109Y-74364807D01*
X121200106Y-74364812D01*
X121152903Y-74466040D01*
X121109368Y-74559402D01*
X121052373Y-74772107D01*
X121033181Y-74991478D01*
X121052373Y-75210849D01*
X121109368Y-75423554D01*
X121202432Y-75623132D01*
X121328739Y-75803516D01*
X121484450Y-75959227D01*
X121664834Y-76085534D01*
X121669816Y-76087857D01*
X121669821Y-76087860D01*
X121797256Y-76147283D01*
X121850541Y-76194200D01*
X121870002Y-76262477D01*
X121849460Y-76330437D01*
X121797256Y-76375673D01*
X121669822Y-76435096D01*
X121669817Y-76435099D01*
X121664835Y-76437422D01*
X121660328Y-76440578D01*
X121660326Y-76440579D01*
X121488961Y-76560570D01*
X121488958Y-76560572D01*
X121484450Y-76563729D01*
X121328739Y-76719440D01*
X121202432Y-76899825D01*
X121200109Y-76904807D01*
X121200106Y-76904812D01*
X121152903Y-77006040D01*
X121109368Y-77099402D01*
X121052373Y-77312107D01*
X121033181Y-77531478D01*
X121052373Y-77750849D01*
X121109368Y-77963554D01*
X121202432Y-78163132D01*
X121205589Y-78167640D01*
X121318318Y-78328633D01*
X121328739Y-78343516D01*
X121484450Y-78499227D01*
X121664834Y-78625534D01*
X121669816Y-78627857D01*
X121669821Y-78627860D01*
X121797256Y-78687283D01*
X121850541Y-78734200D01*
X121870002Y-78802477D01*
X121849460Y-78870437D01*
X121797256Y-78915673D01*
X121669822Y-78975096D01*
X121669817Y-78975099D01*
X121664835Y-78977422D01*
X121660328Y-78980578D01*
X121660326Y-78980579D01*
X121488961Y-79100570D01*
X121488958Y-79100572D01*
X121484450Y-79103729D01*
X121328739Y-79259440D01*
X121325582Y-79263948D01*
X121325580Y-79263951D01*
X121220095Y-79414599D01*
X121202432Y-79439825D01*
X121200109Y-79444807D01*
X121200106Y-79444812D01*
X121152903Y-79546040D01*
X121109368Y-79639402D01*
X121052373Y-79852107D01*
X121033181Y-80071478D01*
X118479795Y-80071478D01*
X118460603Y-79852107D01*
X118403608Y-79639402D01*
X118360073Y-79546040D01*
X118312870Y-79444812D01*
X118312867Y-79444807D01*
X118310544Y-79439825D01*
X118292881Y-79414599D01*
X118187396Y-79263951D01*
X118187394Y-79263948D01*
X118184237Y-79259440D01*
X118028526Y-79103729D01*
X117848142Y-78977422D01*
X117843160Y-78975099D01*
X117843155Y-78975096D01*
X117715720Y-78915673D01*
X117662435Y-78868756D01*
X117642974Y-78800479D01*
X117663516Y-78732519D01*
X117715720Y-78687283D01*
X117843155Y-78627860D01*
X117843160Y-78627857D01*
X117848142Y-78625534D01*
X118028526Y-78499227D01*
X118184237Y-78343516D01*
X118194659Y-78328633D01*
X118307387Y-78167640D01*
X118310544Y-78163132D01*
X118403608Y-77963554D01*
X118460603Y-77750849D01*
X118479795Y-77531478D01*
X118460603Y-77312107D01*
X118403608Y-77099402D01*
X118360073Y-77006040D01*
X118312870Y-76904812D01*
X118312867Y-76904807D01*
X118310544Y-76899825D01*
X118184237Y-76719440D01*
X118028526Y-76563729D01*
X118022167Y-76559276D01*
X117949247Y-76508217D01*
X117848142Y-76437422D01*
X117843160Y-76435099D01*
X117843155Y-76435096D01*
X117715720Y-76375673D01*
X117662435Y-76328756D01*
X117642974Y-76260479D01*
X117663516Y-76192519D01*
X117715720Y-76147283D01*
X117843155Y-76087860D01*
X117843160Y-76087857D01*
X117848142Y-76085534D01*
X118028526Y-75959227D01*
X118184237Y-75803516D01*
X118310544Y-75623132D01*
X118403608Y-75423554D01*
X118460603Y-75210849D01*
X118479795Y-74991478D01*
X118460603Y-74772107D01*
X118403608Y-74559402D01*
X118360073Y-74466040D01*
X118312870Y-74364812D01*
X118312867Y-74364807D01*
X118310544Y-74359825D01*
X118184237Y-74179440D01*
X118028526Y-74023729D01*
X117848142Y-73897422D01*
X117648564Y-73804358D01*
X117435859Y-73747363D01*
X117216488Y-73728171D01*
X116997117Y-73747363D01*
X116784412Y-73804358D01*
X116691050Y-73847893D01*
X116589822Y-73895096D01*
X116589817Y-73895099D01*
X116584835Y-73897422D01*
X116580328Y-73900578D01*
X116580326Y-73900579D01*
X116408961Y-74020570D01*
X116408958Y-74020572D01*
X116404450Y-74023729D01*
X116248739Y-74179440D01*
X116122432Y-74359825D01*
X116120109Y-74364807D01*
X116120106Y-74364812D01*
X116072903Y-74466040D01*
X116029368Y-74559402D01*
X116027945Y-74564713D01*
X116027941Y-74564724D01*
X115999669Y-74670233D01*
X115962717Y-74730856D01*
X115898857Y-74761877D01*
X115828362Y-74753447D01*
X115773616Y-74708244D01*
X115753514Y-74657332D01*
X115693720Y-74279809D01*
X115593115Y-73904346D01*
X115453814Y-73541455D01*
X115277344Y-73195114D01*
X115065639Y-72869115D01*
X114821016Y-72567032D01*
X114546158Y-72292174D01*
X114244075Y-72047551D01*
X113918077Y-71835846D01*
X113915143Y-71834351D01*
X113915136Y-71834347D01*
X113574675Y-71660874D01*
X113571735Y-71659376D01*
X113208844Y-71520075D01*
X112833381Y-71419470D01*
X112629489Y-71387176D01*
X112452706Y-71359176D01*
X112452698Y-71359175D01*
X112449458Y-71358662D01*
X112061282Y-71338319D01*
X111673106Y-71358662D01*
X111669866Y-71359175D01*
X111669858Y-71359176D01*
X111493075Y-71387176D01*
X111289183Y-71419470D01*
X110913720Y-71520075D01*
X110550829Y-71659376D01*
X110547889Y-71660874D01*
X110207429Y-71834347D01*
X110207422Y-71834351D01*
X110204488Y-71835846D01*
X109878489Y-72047551D01*
X109576406Y-72292174D01*
X109301548Y-72567032D01*
X109056925Y-72869115D01*
X108845220Y-73195114D01*
X108668750Y-73541455D01*
X108529449Y-73904346D01*
X108428844Y-74279809D01*
X108428328Y-74283070D01*
X108369050Y-74657332D01*
X108368036Y-74663732D01*
X108347693Y-75051908D01*
X102908682Y-75051908D01*
X102908682Y-63175942D01*
X111119058Y-63175942D01*
X111137523Y-63410557D01*
X111139066Y-63420304D01*
X111194005Y-63649137D01*
X111197054Y-63658522D01*
X111287113Y-63875945D01*
X111291595Y-63884740D01*
X111402560Y-64065817D01*
X111413018Y-64075279D01*
X111421794Y-64071496D01*
X112309466Y-63183824D01*
X112317080Y-63169880D01*
X112316949Y-63168047D01*
X112312698Y-63161432D01*
X111424838Y-62273572D01*
X111412458Y-62266812D01*
X111404808Y-62272539D01*
X111291595Y-62457284D01*
X111287113Y-62466079D01*
X111197054Y-62683502D01*
X111194005Y-62692887D01*
X111139066Y-62921720D01*
X111137523Y-62931467D01*
X111119058Y-63166082D01*
X111119058Y-63175942D01*
X102908682Y-63175942D01*
X102908682Y-61902542D01*
X111777221Y-61902542D01*
X111781004Y-61911318D01*
X112951603Y-63081917D01*
X112985629Y-63144229D01*
X112980564Y-63215044D01*
X112951603Y-63260107D01*
X111784048Y-64427662D01*
X111777288Y-64440042D01*
X111783015Y-64447692D01*
X111967760Y-64560905D01*
X111976555Y-64565387D01*
X112193978Y-64655446D01*
X112203363Y-64658495D01*
X112432196Y-64713434D01*
X112441943Y-64714977D01*
X112676558Y-64733442D01*
X112686418Y-64733442D01*
X112921033Y-64714977D01*
X112930780Y-64713434D01*
X113159613Y-64658495D01*
X113168998Y-64655446D01*
X113386421Y-64565387D01*
X113395206Y-64560910D01*
X113466753Y-64517066D01*
X113535286Y-64498528D01*
X113602963Y-64519984D01*
X113629987Y-64544565D01*
X113714920Y-64648056D01*
X113719699Y-64651978D01*
X113748631Y-64675722D01*
X113757792Y-64684026D01*
X114747462Y-65673696D01*
X114755766Y-65682857D01*
X114783432Y-65716568D01*
X114936996Y-65842595D01*
X114942454Y-65845512D01*
X114942455Y-65845513D01*
X115106734Y-65933322D01*
X115106738Y-65933324D01*
X115112196Y-65936241D01*
X115118116Y-65938037D01*
X115118119Y-65938038D01*
X115296377Y-65992112D01*
X115296381Y-65992113D01*
X115302299Y-65993908D01*
X115500000Y-66013380D01*
X115543384Y-66009107D01*
X115555734Y-66008500D01*
X128296763Y-66008500D01*
X128309112Y-66009107D01*
X128346336Y-66012773D01*
X128346337Y-66012773D01*
X128352500Y-66013380D01*
X128550201Y-65993909D01*
X128740304Y-65936241D01*
X128745759Y-65933325D01*
X128745762Y-65933324D01*
X128910045Y-65845513D01*
X128910046Y-65845512D01*
X128915504Y-65842595D01*
X129069068Y-65716568D01*
X129096734Y-65682857D01*
X129105038Y-65673696D01*
X130012317Y-64766417D01*
X130074629Y-64732391D01*
X130101412Y-64729512D01*
X131280126Y-64729512D01*
X131283473Y-64729152D01*
X131283476Y-64729152D01*
X131303783Y-64726969D01*
X131340689Y-64723001D01*
X131477692Y-64671901D01*
X131495601Y-64658495D01*
X131587538Y-64589671D01*
X131594749Y-64584273D01*
X131658937Y-64498528D01*
X131676977Y-64474430D01*
X131676978Y-64474428D01*
X131682377Y-64467216D01*
X131692512Y-64440042D01*
X137795382Y-64440042D01*
X137801109Y-64447692D01*
X137985854Y-64560905D01*
X137994649Y-64565387D01*
X138212072Y-64655446D01*
X138221457Y-64658495D01*
X138450290Y-64713434D01*
X138460037Y-64714977D01*
X138694652Y-64733442D01*
X138704512Y-64733442D01*
X138939127Y-64714977D01*
X138948874Y-64713434D01*
X139177707Y-64658495D01*
X139187092Y-64655446D01*
X139404515Y-64565387D01*
X139413310Y-64560905D01*
X139594387Y-64449940D01*
X139603849Y-64439482D01*
X139600066Y-64430706D01*
X138712394Y-63543034D01*
X138698450Y-63535420D01*
X138696617Y-63535551D01*
X138690002Y-63539802D01*
X137802142Y-64427662D01*
X137795382Y-64440042D01*
X131692512Y-64440042D01*
X131733477Y-64330213D01*
X131738913Y-64279653D01*
X131739628Y-64273000D01*
X131739628Y-64272997D01*
X131739988Y-64269650D01*
X131739988Y-63175942D01*
X137137152Y-63175942D01*
X137155617Y-63410557D01*
X137157160Y-63420304D01*
X137212099Y-63649137D01*
X137215148Y-63658522D01*
X137305207Y-63875945D01*
X137309689Y-63884740D01*
X137420654Y-64065817D01*
X137431112Y-64075279D01*
X137439888Y-64071496D01*
X138327560Y-63183824D01*
X138333938Y-63172144D01*
X139063990Y-63172144D01*
X139064121Y-63173977D01*
X139068372Y-63180592D01*
X139956232Y-64068452D01*
X139968612Y-64075212D01*
X139976262Y-64069485D01*
X140089475Y-63884740D01*
X140093957Y-63875945D01*
X140184016Y-63658522D01*
X140187065Y-63649137D01*
X140242004Y-63420304D01*
X140243547Y-63410557D01*
X140262012Y-63175942D01*
X140262012Y-63166082D01*
X140243547Y-62931467D01*
X140242004Y-62921720D01*
X140187065Y-62692887D01*
X140184016Y-62683502D01*
X140093957Y-62466079D01*
X140089475Y-62457284D01*
X139978510Y-62276207D01*
X139968052Y-62266745D01*
X139959276Y-62270528D01*
X139071604Y-63158200D01*
X139063990Y-63172144D01*
X138333938Y-63172144D01*
X138335174Y-63169880D01*
X138335043Y-63168047D01*
X138330792Y-63161432D01*
X137442932Y-62273572D01*
X137430552Y-62266812D01*
X137422902Y-62272539D01*
X137309689Y-62457284D01*
X137305207Y-62466079D01*
X137215148Y-62683502D01*
X137212099Y-62692887D01*
X137157160Y-62921720D01*
X137155617Y-62931467D01*
X137137152Y-63166082D01*
X137137152Y-63175942D01*
X131739988Y-63175942D01*
X131739988Y-62072374D01*
X131739258Y-62065579D01*
X131734319Y-62019645D01*
X131733477Y-62011811D01*
X131730725Y-62004433D01*
X131730724Y-62004428D01*
X131691604Y-61899544D01*
X131686540Y-61828729D01*
X131720565Y-61766417D01*
X131782877Y-61732391D01*
X131809660Y-61729512D01*
X137674414Y-61729512D01*
X137742535Y-61749514D01*
X137789028Y-61803170D01*
X137798719Y-61876110D01*
X137794610Y-61900906D01*
X137799098Y-61911318D01*
X138686770Y-62798990D01*
X138700714Y-62806604D01*
X138702547Y-62806473D01*
X138709162Y-62802222D01*
X139597022Y-61914362D01*
X139604636Y-61900418D01*
X139602391Y-61869018D01*
X139600710Y-61864514D01*
X139615794Y-61795138D01*
X139665991Y-61744931D01*
X139726388Y-61729512D01*
X141146093Y-61729512D01*
X141214214Y-61749514D01*
X141260707Y-61803170D01*
X141270811Y-61873444D01*
X141241317Y-61938024D01*
X141227924Y-61951323D01*
X141147930Y-62019645D01*
X141094149Y-62065579D01*
X141090941Y-62069335D01*
X141008136Y-62166287D01*
X140934830Y-62252116D01*
X140806655Y-62461280D01*
X140712777Y-62687920D01*
X140711622Y-62692732D01*
X140656668Y-62921633D01*
X140655510Y-62926455D01*
X140636263Y-63171012D01*
X140655510Y-63415569D01*
X140656664Y-63420376D01*
X140656665Y-63420382D01*
X140692933Y-63571449D01*
X140712777Y-63654104D01*
X140806655Y-63880744D01*
X140934830Y-64089908D01*
X141094149Y-64276445D01*
X141097905Y-64279653D01*
X141274764Y-64430706D01*
X141280686Y-64435764D01*
X141284909Y-64438352D01*
X141284912Y-64438354D01*
X141303819Y-64449940D01*
X141489850Y-64563939D01*
X141634549Y-64623876D01*
X141711917Y-64655923D01*
X141711919Y-64655924D01*
X141716490Y-64657817D01*
X141788267Y-64675049D01*
X141950212Y-64713929D01*
X141950218Y-64713930D01*
X141955025Y-64715084D01*
X142199582Y-64734331D01*
X142444139Y-64715084D01*
X142448946Y-64713930D01*
X142448952Y-64713929D01*
X142610897Y-64675049D01*
X142682674Y-64657817D01*
X142687245Y-64655924D01*
X142687247Y-64655923D01*
X142764615Y-64623876D01*
X142909314Y-64563939D01*
X143095345Y-64449940D01*
X143114252Y-64438354D01*
X143114255Y-64438352D01*
X143118478Y-64435764D01*
X143124401Y-64430706D01*
X143301259Y-64279653D01*
X143305015Y-64276445D01*
X143464334Y-64089908D01*
X143592509Y-63880744D01*
X143686387Y-63654104D01*
X143706231Y-63571449D01*
X143742499Y-63420382D01*
X143742500Y-63420376D01*
X143743654Y-63415569D01*
X143762901Y-63171012D01*
X143743654Y-62926455D01*
X143742497Y-62921633D01*
X143687542Y-62692732D01*
X143686387Y-62687920D01*
X143592509Y-62461280D01*
X143464334Y-62252116D01*
X143391029Y-62166287D01*
X143308223Y-62069335D01*
X143305015Y-62065579D01*
X143251234Y-62019645D01*
X143171240Y-61951323D01*
X143132431Y-61891872D01*
X143131925Y-61820877D01*
X143169881Y-61760879D01*
X143234250Y-61730926D01*
X143253071Y-61729512D01*
X144646093Y-61729512D01*
X144714214Y-61749514D01*
X144760707Y-61803170D01*
X144770811Y-61873444D01*
X144741317Y-61938024D01*
X144727924Y-61951323D01*
X144647930Y-62019645D01*
X144594149Y-62065579D01*
X144590941Y-62069335D01*
X144508136Y-62166287D01*
X144434830Y-62252116D01*
X144306655Y-62461280D01*
X144212777Y-62687920D01*
X144211622Y-62692732D01*
X144156668Y-62921633D01*
X144155510Y-62926455D01*
X144136263Y-63171012D01*
X144155510Y-63415569D01*
X144156664Y-63420376D01*
X144156665Y-63420382D01*
X144192933Y-63571449D01*
X144212777Y-63654104D01*
X144306655Y-63880744D01*
X144434830Y-64089908D01*
X144594149Y-64276445D01*
X144597905Y-64279653D01*
X144774764Y-64430706D01*
X144780686Y-64435764D01*
X144784909Y-64438352D01*
X144784912Y-64438354D01*
X144803819Y-64449940D01*
X144989850Y-64563939D01*
X145134549Y-64623876D01*
X145211917Y-64655923D01*
X145211919Y-64655924D01*
X145216490Y-64657817D01*
X145288267Y-64675049D01*
X145450212Y-64713929D01*
X145450218Y-64713930D01*
X145455025Y-64715084D01*
X145699582Y-64734331D01*
X145944139Y-64715084D01*
X145948946Y-64713930D01*
X145948952Y-64713929D01*
X146110897Y-64675049D01*
X146182674Y-64657817D01*
X146187245Y-64655924D01*
X146187247Y-64655923D01*
X146264615Y-64623876D01*
X146409314Y-64563939D01*
X146595345Y-64449940D01*
X146614252Y-64438354D01*
X146614255Y-64438352D01*
X146618478Y-64435764D01*
X146624401Y-64430706D01*
X146801259Y-64279653D01*
X146805015Y-64276445D01*
X146964334Y-64089908D01*
X147092509Y-63880744D01*
X147186387Y-63654104D01*
X147206231Y-63571449D01*
X147242499Y-63420382D01*
X147242500Y-63420376D01*
X147243654Y-63415569D01*
X147262901Y-63171012D01*
X147243654Y-62926455D01*
X147242498Y-62921641D01*
X147242497Y-62921633D01*
X147216212Y-62812150D01*
X147219758Y-62741242D01*
X147249635Y-62693640D01*
X147476858Y-62466417D01*
X147539170Y-62432391D01*
X147565953Y-62429512D01*
X147631241Y-62429512D01*
X147699362Y-62449514D01*
X147745855Y-62503170D01*
X147755959Y-62573444D01*
X147747651Y-62603727D01*
X147712777Y-62687920D01*
X147711622Y-62692732D01*
X147656668Y-62921633D01*
X147655510Y-62926455D01*
X147636263Y-63171012D01*
X147655510Y-63415569D01*
X147656664Y-63420376D01*
X147656665Y-63420382D01*
X147692933Y-63571449D01*
X147712777Y-63654104D01*
X147806655Y-63880744D01*
X147934830Y-64089908D01*
X148094149Y-64276445D01*
X148097905Y-64279653D01*
X148274764Y-64430706D01*
X148280686Y-64435764D01*
X148284909Y-64438352D01*
X148284912Y-64438354D01*
X148303819Y-64449940D01*
X148489850Y-64563939D01*
X148634549Y-64623876D01*
X148711917Y-64655923D01*
X148711919Y-64655924D01*
X148716490Y-64657817D01*
X148788267Y-64675049D01*
X148950212Y-64713929D01*
X148950218Y-64713930D01*
X148955025Y-64715084D01*
X149199582Y-64734331D01*
X149444139Y-64715084D01*
X149448953Y-64713928D01*
X149448961Y-64713927D01*
X149558444Y-64687642D01*
X149629352Y-64691188D01*
X149676954Y-64721065D01*
X164333583Y-79377694D01*
X164367609Y-79440006D01*
X164370488Y-79466789D01*
X164370488Y-83036512D01*
X164350486Y-83104633D01*
X164296830Y-83151126D01*
X164251830Y-83160915D01*
X164251925Y-83161822D01*
X164245358Y-83162512D01*
X164238756Y-83162512D01*
X164232303Y-83163884D01*
X164232299Y-83163884D01*
X164150496Y-83181272D01*
X164062236Y-83200032D01*
X164056207Y-83202716D01*
X164056205Y-83202717D01*
X163903404Y-83270749D01*
X163903402Y-83270750D01*
X163897374Y-83273434D01*
X163892033Y-83277314D01*
X163892032Y-83277315D01*
X163756719Y-83375625D01*
X163756717Y-83375627D01*
X163751375Y-83379508D01*
X163630621Y-83513619D01*
X163540389Y-83669905D01*
X163535809Y-83684000D01*
X163517477Y-83740421D01*
X163486739Y-83790580D01*
X147822724Y-99454595D01*
X147760412Y-99488621D01*
X147733629Y-99491500D01*
X140155096Y-99491500D01*
X140086975Y-99471498D01*
X140049613Y-99434416D01*
X140015314Y-99381917D01*
X140011789Y-99378088D01*
X140011786Y-99378084D01*
X139905025Y-99262111D01*
X139857220Y-99210182D01*
X139689230Y-99079429D01*
X139647761Y-99021806D01*
X139644028Y-98950908D01*
X139679217Y-98889246D01*
X139689218Y-98880580D01*
X139857220Y-98749818D01*
X139905025Y-98697889D01*
X140011786Y-98581916D01*
X140011789Y-98581912D01*
X140015314Y-98578083D01*
X140142984Y-98382669D01*
X140236749Y-98168907D01*
X140294051Y-97942626D01*
X140313327Y-97710000D01*
X140311887Y-97692626D01*
X140294482Y-97482570D01*
X140294481Y-97482565D01*
X140294051Y-97477374D01*
X140275727Y-97405013D01*
X140238029Y-97256146D01*
X140238027Y-97256141D01*
X140236749Y-97251093D01*
X140142984Y-97037331D01*
X140015314Y-96841917D01*
X140011789Y-96838088D01*
X140011786Y-96838084D01*
X139874279Y-96688713D01*
X139857220Y-96670182D01*
X139853108Y-96666981D01*
X139853102Y-96666976D01*
X139677130Y-96530011D01*
X139677128Y-96530009D01*
X139673017Y-96526810D01*
X139613597Y-96494654D01*
X139472312Y-96418194D01*
X139472309Y-96418193D01*
X139467727Y-96415713D01*
X139246951Y-96339920D01*
X139241817Y-96339063D01*
X139241812Y-96339062D01*
X139021849Y-96302357D01*
X139021846Y-96302357D01*
X139016712Y-96301500D01*
X138783288Y-96301500D01*
X138778154Y-96302357D01*
X138778151Y-96302357D01*
X138558188Y-96339062D01*
X138558183Y-96339063D01*
X138553049Y-96339920D01*
X138332273Y-96415713D01*
X138327691Y-96418193D01*
X138327688Y-96418194D01*
X138186403Y-96494654D01*
X138126983Y-96526810D01*
X138122872Y-96530009D01*
X138122870Y-96530011D01*
X137946898Y-96666976D01*
X137946892Y-96666981D01*
X137942780Y-96670182D01*
X137925721Y-96688713D01*
X137788214Y-96838084D01*
X137788211Y-96838088D01*
X137784686Y-96841917D01*
X137657016Y-97037331D01*
X137563251Y-97251093D01*
X137561973Y-97256141D01*
X137561971Y-97256146D01*
X137524273Y-97405013D01*
X137505949Y-97477374D01*
X137505519Y-97482565D01*
X137505518Y-97482570D01*
X137488113Y-97692626D01*
X137486673Y-97710000D01*
X137505949Y-97942626D01*
X137563251Y-98168907D01*
X137657016Y-98382669D01*
X137784686Y-98578083D01*
X137788211Y-98581912D01*
X137788214Y-98581916D01*
X137894975Y-98697889D01*
X137942780Y-98749818D01*
X138110770Y-98880571D01*
X138152239Y-98938194D01*
X138155972Y-99009092D01*
X138120783Y-99070754D01*
X138110782Y-99079420D01*
X137942780Y-99210182D01*
X137894975Y-99262111D01*
X137788214Y-99378084D01*
X137788211Y-99378088D01*
X137784686Y-99381917D01*
X137781835Y-99386281D01*
X137664751Y-99565492D01*
X137657016Y-99577331D01*
X137654921Y-99582107D01*
X137591921Y-99725733D01*
X137563251Y-99791093D01*
X137561973Y-99796141D01*
X137561971Y-99796146D01*
X137524273Y-99945013D01*
X137505949Y-100017374D01*
X137486673Y-100250000D01*
X137505949Y-100482626D01*
X137563251Y-100708907D01*
X137657016Y-100922669D01*
X137784686Y-101118083D01*
X137788211Y-101121912D01*
X137788214Y-101121916D01*
X137875757Y-101217012D01*
X137942780Y-101289818D01*
X138110770Y-101420571D01*
X138152239Y-101478194D01*
X138155972Y-101549092D01*
X138120783Y-101610754D01*
X138110782Y-101619420D01*
X137942780Y-101750182D01*
X137939248Y-101754019D01*
X137788214Y-101918084D01*
X137788211Y-101918088D01*
X137784686Y-101921917D01*
X137657016Y-102117331D01*
X137563251Y-102331093D01*
X137505949Y-102557374D01*
X137486673Y-102790000D01*
X137505949Y-103022626D01*
X137563251Y-103248907D01*
X137565343Y-103253677D01*
X137565344Y-103253679D01*
X137642584Y-103429767D01*
X137657016Y-103462669D01*
X137659866Y-103467031D01*
X137659868Y-103467035D01*
X137715837Y-103552701D01*
X137784686Y-103658083D01*
X137788211Y-103661912D01*
X137788214Y-103661916D01*
X137894975Y-103777889D01*
X137942780Y-103829818D01*
X138110770Y-103960571D01*
X138152239Y-104018194D01*
X138155972Y-104089092D01*
X138120783Y-104150754D01*
X138110782Y-104159420D01*
X137942780Y-104290182D01*
X137939248Y-104294019D01*
X137788214Y-104458084D01*
X137788211Y-104458088D01*
X137784686Y-104461917D01*
X137657016Y-104657331D01*
X137563251Y-104871093D01*
X137505949Y-105097374D01*
X137486673Y-105330000D01*
X137505949Y-105562626D01*
X137563251Y-105788907D01*
X137657016Y-106002669D01*
X137784686Y-106198083D01*
X137788211Y-106201912D01*
X137788214Y-106201916D01*
X137894975Y-106317889D01*
X137942780Y-106369818D01*
X138110770Y-106500571D01*
X138152239Y-106558194D01*
X138155972Y-106629092D01*
X138120783Y-106690754D01*
X138110782Y-106699420D01*
X137942780Y-106830182D01*
X137939248Y-106834019D01*
X137788214Y-106998084D01*
X137788211Y-106998088D01*
X137784686Y-107001917D01*
X137781835Y-107006281D01*
X137666027Y-107183539D01*
X137657016Y-107197331D01*
X137654921Y-107202107D01*
X137642586Y-107230229D01*
X137563251Y-107411093D01*
X137505949Y-107637374D01*
X137486673Y-107870000D01*
X137487103Y-107875189D01*
X137496500Y-107988589D01*
X137505949Y-108102626D01*
X137563251Y-108328907D01*
X137657016Y-108542669D01*
X137784686Y-108738083D01*
X137788211Y-108741912D01*
X137788214Y-108741916D01*
X137894975Y-108857889D01*
X137942780Y-108909818D01*
X138110770Y-109040571D01*
X138152239Y-109098194D01*
X138155972Y-109169092D01*
X138120783Y-109230754D01*
X138110782Y-109239420D01*
X137942780Y-109370182D01*
X137939248Y-109374019D01*
X137788214Y-109538084D01*
X137788211Y-109538088D01*
X137784686Y-109541917D01*
X137657016Y-109737331D01*
X137563251Y-109951093D01*
X137505949Y-110177374D01*
X137486673Y-110410000D01*
X137505949Y-110642626D01*
X137563251Y-110868907D01*
X137657016Y-111082669D01*
X137784686Y-111278083D01*
X137788211Y-111281912D01*
X137788214Y-111281916D01*
X137894975Y-111397889D01*
X137942780Y-111449818D01*
X138110770Y-111580571D01*
X138152239Y-111638194D01*
X138155972Y-111709092D01*
X138120783Y-111770754D01*
X138110782Y-111779420D01*
X137942780Y-111910182D01*
X137939248Y-111914019D01*
X137788214Y-112078084D01*
X137788211Y-112078088D01*
X137784686Y-112081917D01*
X137781835Y-112086281D01*
X137733315Y-112160547D01*
X137657016Y-112277331D01*
X137654921Y-112282107D01*
X137654818Y-112282343D01*
X137563251Y-112491093D01*
X137561973Y-112496141D01*
X137561971Y-112496146D01*
X137507230Y-112712315D01*
X137505949Y-112717374D01*
X137505519Y-112722565D01*
X137505518Y-112722570D01*
X137488113Y-112932626D01*
X137486673Y-112950000D01*
X137487103Y-112955189D01*
X137505512Y-113177348D01*
X137505949Y-113182626D01*
X137507230Y-113187684D01*
X137507230Y-113187685D01*
X137541249Y-113322021D01*
X137563251Y-113408907D01*
X137565343Y-113413677D01*
X137565344Y-113413679D01*
X137654921Y-113617893D01*
X137657016Y-113622669D01*
X137659866Y-113627031D01*
X137659868Y-113627035D01*
X137736247Y-113743941D01*
X137784686Y-113818083D01*
X137788211Y-113821912D01*
X137788214Y-113821916D01*
X137894975Y-113937889D01*
X137942780Y-113989818D01*
X138110770Y-114120571D01*
X138152239Y-114178194D01*
X138155972Y-114249092D01*
X138120783Y-114310754D01*
X138110782Y-114319420D01*
X137942780Y-114450182D01*
X137939248Y-114454019D01*
X137788214Y-114618084D01*
X137788211Y-114618088D01*
X137784686Y-114621917D01*
X137657016Y-114817331D01*
X137654923Y-114822103D01*
X137649933Y-114833479D01*
X137604251Y-114887827D01*
X137536438Y-114908850D01*
X137468025Y-114889873D01*
X137445451Y-114871959D01*
X130624393Y-108050901D01*
X130590367Y-107988589D01*
X130587488Y-107961806D01*
X130587488Y-93147978D01*
X130607490Y-93079857D01*
X130661146Y-93033364D01*
X130713488Y-93021978D01*
X130826873Y-93021978D01*
X130842112Y-93017503D01*
X130843317Y-93016113D01*
X130844988Y-93008430D01*
X130844988Y-93003863D01*
X131352988Y-93003863D01*
X131357463Y-93019102D01*
X131358853Y-93020307D01*
X131366536Y-93021978D01*
X131669211Y-93021978D01*
X131675926Y-93021618D01*
X131725245Y-93016316D01*
X131740466Y-93012719D01*
X131861508Y-92967573D01*
X131877164Y-92959024D01*
X131979681Y-92882280D01*
X131992290Y-92869671D01*
X132069034Y-92767154D01*
X132077583Y-92751498D01*
X132122729Y-92630456D01*
X132126326Y-92615235D01*
X132131628Y-92565916D01*
X132131988Y-92559201D01*
X132131988Y-92036093D01*
X132127513Y-92020854D01*
X132126123Y-92019649D01*
X132118440Y-92017978D01*
X131371103Y-92017978D01*
X131355864Y-92022453D01*
X131354659Y-92023843D01*
X131352988Y-92031526D01*
X131352988Y-93003863D01*
X130844988Y-93003863D01*
X130844988Y-92213677D01*
X130846988Y-92193380D01*
X130847534Y-92191579D01*
X130848140Y-92185426D01*
X130848141Y-92185421D01*
X130862185Y-92042832D01*
X130862185Y-92042827D01*
X130862488Y-92039753D01*
X130862488Y-91491863D01*
X131352988Y-91491863D01*
X131357463Y-91507102D01*
X131358853Y-91508307D01*
X131366536Y-91509978D01*
X132113873Y-91509978D01*
X132129112Y-91505503D01*
X132130317Y-91504113D01*
X132131988Y-91496430D01*
X132131988Y-90968755D01*
X132131628Y-90962040D01*
X132126326Y-90912721D01*
X132122729Y-90897500D01*
X132077583Y-90776458D01*
X132069034Y-90760802D01*
X131992290Y-90658285D01*
X131979681Y-90645676D01*
X131877164Y-90568932D01*
X131861508Y-90560383D01*
X131740466Y-90515237D01*
X131725245Y-90511640D01*
X131675926Y-90506338D01*
X131669211Y-90505978D01*
X131371103Y-90505978D01*
X131355864Y-90510453D01*
X131354659Y-90511843D01*
X131352988Y-90519526D01*
X131352988Y-91491863D01*
X130862488Y-91491863D01*
X130862488Y-91488203D01*
X130848141Y-91342533D01*
X130848140Y-91342530D01*
X130847534Y-91336377D01*
X130846988Y-91334576D01*
X130844988Y-91314279D01*
X130844988Y-90524093D01*
X130840513Y-90508854D01*
X130839123Y-90507649D01*
X130831440Y-90505978D01*
X130528765Y-90505978D01*
X130522050Y-90506338D01*
X130472731Y-90511640D01*
X130457510Y-90515237D01*
X130336472Y-90560382D01*
X130321010Y-90568825D01*
X130251636Y-90583917D01*
X130224048Y-90578813D01*
X130037515Y-90522229D01*
X130037509Y-90522228D01*
X130031589Y-90520432D01*
X129828988Y-90500477D01*
X129626387Y-90520432D01*
X129620467Y-90522228D01*
X129620461Y-90522229D01*
X129494688Y-90560382D01*
X129431571Y-90579528D01*
X129426116Y-90582444D01*
X129253384Y-90674771D01*
X129183878Y-90689243D01*
X129134592Y-90674771D01*
X128961860Y-90582444D01*
X128956405Y-90579528D01*
X128893288Y-90560382D01*
X128767515Y-90522229D01*
X128767509Y-90522228D01*
X128761589Y-90520432D01*
X128558988Y-90500477D01*
X128356387Y-90520432D01*
X128350467Y-90522228D01*
X128350461Y-90522229D01*
X128224688Y-90560382D01*
X128161571Y-90579528D01*
X127982028Y-90675496D01*
X127824657Y-90804647D01*
X127695506Y-90962018D01*
X127599538Y-91141561D01*
X127540442Y-91336377D01*
X127525488Y-91488203D01*
X127525488Y-92039753D01*
X127540442Y-92191579D01*
X127599538Y-92386395D01*
X127695506Y-92565938D01*
X127824657Y-92723309D01*
X127982028Y-92852460D01*
X128161571Y-92948428D01*
X128196502Y-92959024D01*
X128350461Y-93005727D01*
X128350467Y-93005728D01*
X128356387Y-93007524D01*
X128558988Y-93027479D01*
X128761589Y-93007524D01*
X128846023Y-92981912D01*
X128907913Y-92963138D01*
X128978907Y-92962505D01*
X129038973Y-93000355D01*
X129069041Y-93064670D01*
X129070488Y-93083713D01*
X129070488Y-107182756D01*
X129050486Y-107250877D01*
X128996830Y-107297370D01*
X128926556Y-107307474D01*
X128861976Y-107277980D01*
X128855393Y-107271851D01*
X120624393Y-99040851D01*
X120590367Y-98978539D01*
X120587488Y-98951756D01*
X120587488Y-93147978D01*
X120607490Y-93079857D01*
X120661146Y-93033364D01*
X120713488Y-93021978D01*
X120826873Y-93021978D01*
X120842112Y-93017503D01*
X120843317Y-93016113D01*
X120844988Y-93008430D01*
X120844988Y-93003863D01*
X121352988Y-93003863D01*
X121357463Y-93019102D01*
X121358853Y-93020307D01*
X121366536Y-93021978D01*
X121669211Y-93021978D01*
X121675926Y-93021618D01*
X121725245Y-93016316D01*
X121740466Y-93012719D01*
X121861508Y-92967573D01*
X121877164Y-92959024D01*
X121979681Y-92882280D01*
X121992290Y-92869671D01*
X122069034Y-92767154D01*
X122077583Y-92751498D01*
X122122729Y-92630456D01*
X122126326Y-92615235D01*
X122131628Y-92565916D01*
X122131988Y-92559201D01*
X122131988Y-92036093D01*
X122127513Y-92020854D01*
X122126123Y-92019649D01*
X122118440Y-92017978D01*
X121371103Y-92017978D01*
X121355864Y-92022453D01*
X121354659Y-92023843D01*
X121352988Y-92031526D01*
X121352988Y-93003863D01*
X120844988Y-93003863D01*
X120844988Y-92213677D01*
X120846988Y-92193380D01*
X120847534Y-92191579D01*
X120848140Y-92185426D01*
X120848141Y-92185421D01*
X120862185Y-92042832D01*
X120862185Y-92042827D01*
X120862488Y-92039753D01*
X120862488Y-91491863D01*
X121352988Y-91491863D01*
X121357463Y-91507102D01*
X121358853Y-91508307D01*
X121366536Y-91509978D01*
X122113873Y-91509978D01*
X122129112Y-91505503D01*
X122130317Y-91504113D01*
X122131988Y-91496430D01*
X122131988Y-90968755D01*
X122131628Y-90962040D01*
X122126326Y-90912721D01*
X122122729Y-90897500D01*
X122077583Y-90776458D01*
X122069034Y-90760802D01*
X121992290Y-90658285D01*
X121979681Y-90645676D01*
X121877164Y-90568932D01*
X121861508Y-90560383D01*
X121740466Y-90515237D01*
X121725245Y-90511640D01*
X121675926Y-90506338D01*
X121669211Y-90505978D01*
X121371103Y-90505978D01*
X121355864Y-90510453D01*
X121354659Y-90511843D01*
X121352988Y-90519526D01*
X121352988Y-91491863D01*
X120862488Y-91491863D01*
X120862488Y-91488203D01*
X120848141Y-91342533D01*
X120848140Y-91342530D01*
X120847534Y-91336377D01*
X120846988Y-91334576D01*
X120844988Y-91314279D01*
X120844988Y-90524093D01*
X120840513Y-90508854D01*
X120839123Y-90507649D01*
X120831440Y-90505978D01*
X120528765Y-90505978D01*
X120522050Y-90506338D01*
X120472731Y-90511640D01*
X120457510Y-90515237D01*
X120336472Y-90560382D01*
X120321010Y-90568825D01*
X120251636Y-90583917D01*
X120224048Y-90578813D01*
X120037515Y-90522229D01*
X120037509Y-90522228D01*
X120031589Y-90520432D01*
X119828988Y-90500477D01*
X119626387Y-90520432D01*
X119620467Y-90522228D01*
X119620461Y-90522229D01*
X119494688Y-90560382D01*
X119431571Y-90579528D01*
X119426116Y-90582444D01*
X119253384Y-90674771D01*
X119183878Y-90689243D01*
X119134592Y-90674771D01*
X118961860Y-90582444D01*
X118956405Y-90579528D01*
X118893288Y-90560382D01*
X118767515Y-90522229D01*
X118767509Y-90522228D01*
X118761589Y-90520432D01*
X118558988Y-90500477D01*
X118356387Y-90520432D01*
X118350467Y-90522228D01*
X118350461Y-90522229D01*
X118224688Y-90560382D01*
X118161571Y-90579528D01*
X117982028Y-90675496D01*
X117824657Y-90804647D01*
X117695506Y-90962018D01*
X117599538Y-91141561D01*
X117540442Y-91336377D01*
X117525488Y-91488203D01*
X117525488Y-92039753D01*
X117540442Y-92191579D01*
X117599538Y-92386395D01*
X117695506Y-92565938D01*
X117824657Y-92723309D01*
X117982028Y-92852460D01*
X118161571Y-92948428D01*
X118196502Y-92959024D01*
X118350461Y-93005727D01*
X118350467Y-93005728D01*
X118356387Y-93007524D01*
X118558988Y-93027479D01*
X118761589Y-93007524D01*
X118846023Y-92981912D01*
X118907913Y-92963138D01*
X118978907Y-92962505D01*
X119038973Y-93000355D01*
X119069041Y-93064670D01*
X119070488Y-93083713D01*
X119070488Y-99253685D01*
X119069158Y-99271947D01*
X119065647Y-99295916D01*
X119066287Y-99303226D01*
X119070009Y-99345773D01*
X119070488Y-99356755D01*
X119070488Y-99362307D01*
X119070913Y-99365947D01*
X119070914Y-99365957D01*
X119074123Y-99393414D01*
X119074495Y-99397056D01*
X119081101Y-99472553D01*
X119083410Y-99479522D01*
X119084093Y-99482828D01*
X119084162Y-99483254D01*
X119084282Y-99483678D01*
X119085057Y-99486948D01*
X119085909Y-99494240D01*
X119088417Y-99501131D01*
X119088418Y-99501135D01*
X119111842Y-99565492D01*
X119113042Y-99568945D01*
X119136874Y-99640865D01*
X119140727Y-99647111D01*
X119142147Y-99650157D01*
X119142318Y-99650569D01*
X119142519Y-99650930D01*
X119144045Y-99653969D01*
X119146553Y-99660859D01*
X119150582Y-99666984D01*
X119150586Y-99666993D01*
X119188216Y-99724206D01*
X119190186Y-99727298D01*
X119226102Y-99785528D01*
X119226106Y-99785534D01*
X119229958Y-99791778D01*
X119235151Y-99796971D01*
X119237230Y-99799600D01*
X119237492Y-99799963D01*
X119237778Y-99800275D01*
X119239952Y-99802866D01*
X119243987Y-99809001D01*
X119249326Y-99814038D01*
X119299162Y-99861056D01*
X119301790Y-99863610D01*
X137468951Y-118030771D01*
X137480924Y-118044624D01*
X137495392Y-118064058D01*
X137501010Y-118068772D01*
X137533732Y-118096229D01*
X137541836Y-118103656D01*
X137545761Y-118107581D01*
X137570330Y-118127008D01*
X137573145Y-118129301D01*
X137631221Y-118178032D01*
X137637784Y-118181327D01*
X137640596Y-118183177D01*
X137640955Y-118183437D01*
X137641341Y-118183652D01*
X137644201Y-118185416D01*
X137649956Y-118189967D01*
X137656606Y-118193068D01*
X137718647Y-118221999D01*
X137721939Y-118223592D01*
X137789673Y-118257609D01*
X137796819Y-118259303D01*
X137799971Y-118260450D01*
X137800385Y-118260622D01*
X137800785Y-118260735D01*
X137804006Y-118261802D01*
X137810655Y-118264903D01*
X137817837Y-118266386D01*
X137817840Y-118266387D01*
X137852290Y-118273500D01*
X137884940Y-118280242D01*
X137888458Y-118281022D01*
X137935057Y-118292066D01*
X137955069Y-118296809D01*
X137955071Y-118296809D01*
X137962205Y-118298500D01*
X137969540Y-118298500D01*
X137972878Y-118298890D01*
X137973324Y-118298962D01*
X137973737Y-118298980D01*
X137977122Y-118299276D01*
X137984303Y-118300759D01*
X137991630Y-118300546D01*
X137991632Y-118300546D01*
X138060119Y-118298553D01*
X138063784Y-118298500D01*
X150985508Y-118298500D01*
X151003771Y-118299830D01*
X151027739Y-118303341D01*
X151077596Y-118298979D01*
X151088578Y-118298500D01*
X151094130Y-118298500D01*
X151097770Y-118298075D01*
X151097780Y-118298074D01*
X151125237Y-118294865D01*
X151128879Y-118294493D01*
X151197061Y-118288527D01*
X151204376Y-118287887D01*
X151211345Y-118285578D01*
X151214651Y-118284895D01*
X151215077Y-118284826D01*
X151215501Y-118284706D01*
X151218771Y-118283931D01*
X151226063Y-118283079D01*
X151232954Y-118280571D01*
X151232958Y-118280570D01*
X151297315Y-118257146D01*
X151300775Y-118255944D01*
X151365723Y-118234422D01*
X151372688Y-118232114D01*
X151378934Y-118228261D01*
X151381980Y-118226841D01*
X151382392Y-118226670D01*
X151382753Y-118226469D01*
X151385792Y-118224943D01*
X151392682Y-118222435D01*
X151398807Y-118218406D01*
X151398816Y-118218402D01*
X151456029Y-118180772D01*
X151459121Y-118178802D01*
X151517351Y-118142886D01*
X151517357Y-118142882D01*
X151523601Y-118139030D01*
X151528794Y-118133837D01*
X151531423Y-118131758D01*
X151531786Y-118131496D01*
X151532098Y-118131210D01*
X151534689Y-118129036D01*
X151540824Y-118125001D01*
X151592880Y-118069825D01*
X151595433Y-118067198D01*
X154172631Y-115490000D01*
X160346673Y-115490000D01*
X160365949Y-115722626D01*
X160367230Y-115727684D01*
X160367230Y-115727685D01*
X160420380Y-115937568D01*
X160423251Y-115948907D01*
X160517016Y-116162669D01*
X160644686Y-116358083D01*
X160648211Y-116361912D01*
X160648214Y-116361916D01*
X160754975Y-116477889D01*
X160802780Y-116529818D01*
X160806892Y-116533019D01*
X160806898Y-116533024D01*
X160982870Y-116669989D01*
X160986983Y-116673190D01*
X161192273Y-116784287D01*
X161413049Y-116860080D01*
X161418183Y-116860937D01*
X161418188Y-116860938D01*
X161638151Y-116897643D01*
X161638154Y-116897643D01*
X161643288Y-116898500D01*
X161876712Y-116898500D01*
X161881846Y-116897643D01*
X161881849Y-116897643D01*
X162101812Y-116860938D01*
X162101817Y-116860937D01*
X162106951Y-116860080D01*
X162327727Y-116784287D01*
X162533017Y-116673190D01*
X162537130Y-116669989D01*
X162713102Y-116533024D01*
X162713108Y-116533019D01*
X162717220Y-116529818D01*
X162765025Y-116477889D01*
X162871786Y-116361916D01*
X162871789Y-116361912D01*
X162875314Y-116358083D01*
X163002984Y-116162669D01*
X163096749Y-115948907D01*
X163099621Y-115937568D01*
X163152770Y-115727685D01*
X163152770Y-115727684D01*
X163154051Y-115722626D01*
X163173327Y-115490000D01*
X163154051Y-115257374D01*
X163096749Y-115031093D01*
X163084147Y-115002362D01*
X163005079Y-114822107D01*
X163005077Y-114822103D01*
X163002984Y-114817331D01*
X162875314Y-114621917D01*
X162871789Y-114618088D01*
X162871786Y-114618084D01*
X162720752Y-114454019D01*
X162717220Y-114450182D01*
X162548825Y-114319114D01*
X162507356Y-114261491D01*
X162503622Y-114190593D01*
X162538812Y-114128931D01*
X162546720Y-114122079D01*
X162555492Y-114109890D01*
X162548937Y-114098148D01*
X161772811Y-113322021D01*
X161758868Y-113314408D01*
X161757034Y-113314539D01*
X161750420Y-113318790D01*
X160971489Y-114097722D01*
X160964542Y-114110444D01*
X160982864Y-114135404D01*
X160982348Y-114135782D01*
X161012644Y-114177878D01*
X161016378Y-114248776D01*
X160981188Y-114310438D01*
X160971190Y-114319102D01*
X160802780Y-114450182D01*
X160799248Y-114454019D01*
X160648214Y-114618084D01*
X160648211Y-114618088D01*
X160644686Y-114621917D01*
X160517016Y-114817331D01*
X160514923Y-114822103D01*
X160514921Y-114822107D01*
X160435854Y-115002362D01*
X160423251Y-115031093D01*
X160365949Y-115257374D01*
X160346673Y-115490000D01*
X154172631Y-115490000D01*
X156707442Y-112955189D01*
X160347604Y-112955189D01*
X160366012Y-113177348D01*
X160367724Y-113187603D01*
X160422445Y-113403691D01*
X160425818Y-113413516D01*
X160515363Y-113617657D01*
X160520306Y-113626792D01*
X160590889Y-113734827D01*
X160601615Y-113743981D01*
X160611336Y-113739453D01*
X161387979Y-112962811D01*
X161394356Y-112951132D01*
X162124408Y-112951132D01*
X162124539Y-112952966D01*
X162128790Y-112959580D01*
X162906395Y-113737184D01*
X162918770Y-113743941D01*
X162927355Y-113737515D01*
X162999694Y-113626792D01*
X163004637Y-113617657D01*
X163094182Y-113413516D01*
X163097555Y-113403691D01*
X163152276Y-113187603D01*
X163153988Y-113177348D01*
X163172396Y-112955189D01*
X163172396Y-112944811D01*
X163153988Y-112722652D01*
X163152276Y-112712397D01*
X163097555Y-112496309D01*
X163094182Y-112486484D01*
X163004637Y-112282343D01*
X162999694Y-112273208D01*
X162929111Y-112165173D01*
X162918385Y-112156019D01*
X162908664Y-112160547D01*
X162132021Y-112937189D01*
X162124408Y-112951132D01*
X161394356Y-112951132D01*
X161395592Y-112948868D01*
X161395461Y-112947034D01*
X161391210Y-112940420D01*
X160613605Y-112162816D01*
X160601230Y-112156059D01*
X160592645Y-112162485D01*
X160520306Y-112273208D01*
X160515363Y-112282343D01*
X160425818Y-112486484D01*
X160422445Y-112496309D01*
X160367724Y-112712397D01*
X160366012Y-112722652D01*
X160347604Y-112944811D01*
X160347604Y-112955189D01*
X156707442Y-112955189D01*
X158457226Y-111205405D01*
X158519538Y-111171379D01*
X158546321Y-111168500D01*
X160504904Y-111168500D01*
X160573025Y-111188502D01*
X160610386Y-111225583D01*
X160644686Y-111278083D01*
X160648211Y-111281912D01*
X160648214Y-111281916D01*
X160754975Y-111397889D01*
X160802780Y-111449818D01*
X160971175Y-111580886D01*
X161012644Y-111638509D01*
X161016378Y-111709407D01*
X160981188Y-111771069D01*
X160973280Y-111777921D01*
X160964508Y-111790110D01*
X160971063Y-111801852D01*
X161747189Y-112577979D01*
X161761132Y-112585592D01*
X161762966Y-112585461D01*
X161769580Y-112581210D01*
X162548511Y-111802278D01*
X162555458Y-111789556D01*
X162537136Y-111764596D01*
X162537652Y-111764218D01*
X162507356Y-111722122D01*
X162503622Y-111651224D01*
X162538812Y-111589562D01*
X162548810Y-111580898D01*
X162717220Y-111449818D01*
X162765025Y-111397889D01*
X162871786Y-111281916D01*
X162871789Y-111281912D01*
X162875314Y-111278083D01*
X163002984Y-111082669D01*
X163096749Y-110868907D01*
X163154051Y-110642626D01*
X163173327Y-110410000D01*
X163154051Y-110177374D01*
X163096749Y-109951093D01*
X163002984Y-109737331D01*
X162875314Y-109541917D01*
X162871789Y-109538088D01*
X162871786Y-109538084D01*
X162720752Y-109374019D01*
X162717220Y-109370182D01*
X162549230Y-109239429D01*
X162507761Y-109181806D01*
X162504028Y-109110908D01*
X162539217Y-109049246D01*
X162549218Y-109040580D01*
X162717220Y-108909818D01*
X162765025Y-108857889D01*
X162871786Y-108741916D01*
X162871789Y-108741912D01*
X162875314Y-108738083D01*
X163002984Y-108542669D01*
X163096749Y-108328907D01*
X163154051Y-108102626D01*
X163163501Y-107988589D01*
X163172897Y-107875189D01*
X163173327Y-107870000D01*
X163154051Y-107637374D01*
X163096749Y-107411093D01*
X163017415Y-107230229D01*
X163005079Y-107202107D01*
X163002984Y-107197331D01*
X162993974Y-107183539D01*
X162878165Y-107006281D01*
X162875314Y-107001917D01*
X162871789Y-106998088D01*
X162871786Y-106998084D01*
X162720752Y-106834019D01*
X162717220Y-106830182D01*
X162549230Y-106699429D01*
X162507761Y-106641806D01*
X162504028Y-106570908D01*
X162539217Y-106509246D01*
X162549218Y-106500580D01*
X162717220Y-106369818D01*
X162765025Y-106317889D01*
X162871786Y-106201916D01*
X162871789Y-106201912D01*
X162875314Y-106198083D01*
X163002984Y-106002669D01*
X163096749Y-105788907D01*
X163154051Y-105562626D01*
X163173327Y-105330000D01*
X163154051Y-105097374D01*
X163096749Y-104871093D01*
X163002984Y-104657331D01*
X162875314Y-104461917D01*
X162871789Y-104458088D01*
X162871786Y-104458084D01*
X162720752Y-104294019D01*
X162717220Y-104290182D01*
X162549230Y-104159429D01*
X162507761Y-104101806D01*
X162504028Y-104030908D01*
X162539217Y-103969246D01*
X162549218Y-103960580D01*
X162717220Y-103829818D01*
X162765025Y-103777889D01*
X162871786Y-103661916D01*
X162871789Y-103661912D01*
X162875314Y-103658083D01*
X162944163Y-103552701D01*
X163000132Y-103467035D01*
X163000134Y-103467031D01*
X163002984Y-103462669D01*
X163017416Y-103429767D01*
X163094656Y-103253679D01*
X163094657Y-103253677D01*
X163096749Y-103248907D01*
X163154051Y-103022626D01*
X163173327Y-102790000D01*
X163154051Y-102557374D01*
X163096749Y-102331093D01*
X163002984Y-102117331D01*
X162875314Y-101921917D01*
X162871789Y-101918088D01*
X162871786Y-101918084D01*
X162720752Y-101754019D01*
X162717220Y-101750182D01*
X162549230Y-101619429D01*
X162507761Y-101561806D01*
X162504028Y-101490908D01*
X162539217Y-101429246D01*
X162549218Y-101420580D01*
X162717220Y-101289818D01*
X162784243Y-101217012D01*
X162871786Y-101121916D01*
X162871789Y-101121912D01*
X162875314Y-101118083D01*
X163002984Y-100922669D01*
X163096749Y-100708907D01*
X163154051Y-100482626D01*
X163173327Y-100250000D01*
X163154051Y-100017374D01*
X163152770Y-100012315D01*
X163151914Y-100007187D01*
X163154036Y-100006833D01*
X163156363Y-99945013D01*
X163186743Y-99895938D01*
X166319759Y-96762922D01*
X166333612Y-96750949D01*
X166347164Y-96740860D01*
X166353046Y-96736481D01*
X166385218Y-96698140D01*
X166392644Y-96690037D01*
X166396568Y-96686113D01*
X166415990Y-96661551D01*
X166418296Y-96658719D01*
X166462303Y-96606273D01*
X166467020Y-96600652D01*
X166470315Y-96594090D01*
X166472161Y-96591284D01*
X166472418Y-96590928D01*
X166472629Y-96590550D01*
X166474400Y-96587678D01*
X166478955Y-96581918D01*
X166482059Y-96575262D01*
X166510990Y-96513219D01*
X166512587Y-96509919D01*
X166543304Y-96448756D01*
X166546597Y-96442200D01*
X166548289Y-96435060D01*
X166549443Y-96431891D01*
X166549611Y-96431485D01*
X166549722Y-96431095D01*
X166550793Y-96427863D01*
X166553891Y-96421218D01*
X166569229Y-96346931D01*
X166570007Y-96343423D01*
X166587488Y-96269668D01*
X166587488Y-96262325D01*
X166587879Y-96258980D01*
X166587950Y-96258543D01*
X166587968Y-96258122D01*
X166588263Y-96254753D01*
X166589746Y-96247570D01*
X166587541Y-96171773D01*
X166587488Y-96168109D01*
X166587488Y-91827534D01*
X174990488Y-91827534D01*
X175005707Y-91996634D01*
X175007212Y-92002089D01*
X175007213Y-92002092D01*
X175016597Y-92036093D01*
X175065974Y-92215005D01*
X175164263Y-92419105D01*
X175297417Y-92602375D01*
X175378674Y-92680065D01*
X175457065Y-92755015D01*
X175457068Y-92755017D01*
X175461154Y-92758924D01*
X175465876Y-92762041D01*
X175644818Y-92880159D01*
X175650214Y-92883721D01*
X175655423Y-92885947D01*
X175655424Y-92885948D01*
X175692226Y-92901678D01*
X175858518Y-92972755D01*
X176079373Y-93023163D01*
X176305679Y-93033327D01*
X176530163Y-93002918D01*
X176541117Y-92999359D01*
X176576137Y-92987980D01*
X176745609Y-92932915D01*
X176945094Y-92825568D01*
X176949510Y-92822046D01*
X176949515Y-92822043D01*
X177117785Y-92687852D01*
X177117787Y-92687850D01*
X177122206Y-92684326D01*
X177163036Y-92637593D01*
X177267523Y-92517997D01*
X177271251Y-92513730D01*
X177274331Y-92508576D01*
X177384537Y-92324122D01*
X177387441Y-92319262D01*
X177389432Y-92313958D01*
X177401809Y-92280981D01*
X177444472Y-92224233D01*
X177511042Y-92199558D01*
X177580386Y-92214791D01*
X177633296Y-92270586D01*
X177702237Y-92413745D01*
X177708022Y-92423428D01*
X177834470Y-92597468D01*
X177841884Y-92605954D01*
X177997378Y-92754623D01*
X178006188Y-92761649D01*
X178185725Y-92880159D01*
X178195661Y-92885506D01*
X178393465Y-92970051D01*
X178404191Y-92973536D01*
X178517327Y-92999359D01*
X178531403Y-92998497D01*
X178534988Y-92989175D01*
X178534988Y-92987980D01*
X179042988Y-92987980D01*
X179047010Y-93001677D01*
X179060678Y-93003699D01*
X179064448Y-93003188D01*
X179075431Y-93000681D01*
X179280034Y-92934201D01*
X179290392Y-92929774D01*
X179479836Y-92827830D01*
X179489239Y-92821624D01*
X179657438Y-92687489D01*
X179665582Y-92679702D01*
X179807119Y-92517699D01*
X179813748Y-92508576D01*
X179836323Y-92470792D01*
X179888433Y-92422573D01*
X179958340Y-92410181D01*
X180023849Y-92437551D01*
X180064161Y-92495992D01*
X180070488Y-92535417D01*
X180070488Y-92569650D01*
X180076999Y-92630213D01*
X180128099Y-92767216D01*
X180215727Y-92884273D01*
X180222938Y-92889671D01*
X180303826Y-92950223D01*
X180332784Y-92971901D01*
X180469787Y-93023001D01*
X180505794Y-93026872D01*
X180527000Y-93029152D01*
X180527003Y-93029152D01*
X180530350Y-93029512D01*
X182127626Y-93029512D01*
X182130973Y-93029152D01*
X182130976Y-93029152D01*
X182152182Y-93026872D01*
X182188189Y-93023001D01*
X182325192Y-92971901D01*
X182354151Y-92950223D01*
X182435038Y-92889671D01*
X182442249Y-92884273D01*
X182529877Y-92767216D01*
X182580977Y-92630213D01*
X182587488Y-92569650D01*
X182587488Y-89972374D01*
X182580977Y-89911811D01*
X182529877Y-89774808D01*
X182442249Y-89657751D01*
X182375553Y-89607823D01*
X182332406Y-89575523D01*
X182332404Y-89575522D01*
X182325192Y-89570123D01*
X182188189Y-89519023D01*
X182151283Y-89515055D01*
X182130976Y-89512872D01*
X182130973Y-89512872D01*
X182127626Y-89512512D01*
X180530350Y-89512512D01*
X180527003Y-89512872D01*
X180527000Y-89512872D01*
X180506693Y-89515055D01*
X180469787Y-89519023D01*
X180332784Y-89570123D01*
X180325572Y-89575522D01*
X180325570Y-89575523D01*
X180282423Y-89607823D01*
X180215727Y-89657751D01*
X180128099Y-89774808D01*
X180076999Y-89911811D01*
X180070488Y-89972374D01*
X180070488Y-90006820D01*
X180050486Y-90074941D01*
X179996830Y-90121434D01*
X179926556Y-90131538D01*
X179861976Y-90102044D01*
X179842552Y-90080881D01*
X179743506Y-89944556D01*
X179736092Y-89936070D01*
X179580598Y-89787401D01*
X179571788Y-89780375D01*
X179392251Y-89661865D01*
X179382315Y-89656518D01*
X179184511Y-89571973D01*
X179173785Y-89568488D01*
X179060649Y-89542665D01*
X179046573Y-89543527D01*
X179042988Y-89552849D01*
X179042988Y-92987980D01*
X178534988Y-92987980D01*
X178534988Y-89554044D01*
X178530966Y-89540347D01*
X178517298Y-89538325D01*
X178513528Y-89538836D01*
X178502545Y-89541343D01*
X178297942Y-89607823D01*
X178287584Y-89612250D01*
X178098140Y-89714194D01*
X178088737Y-89720400D01*
X177920538Y-89854535D01*
X177912394Y-89862322D01*
X177770857Y-90024325D01*
X177764228Y-90033448D01*
X177653888Y-90218127D01*
X177648997Y-90228282D01*
X177636711Y-90261018D01*
X177594049Y-90317767D01*
X177527478Y-90342442D01*
X177458135Y-90327209D01*
X177405224Y-90271414D01*
X177384346Y-90228060D01*
X177333713Y-90122919D01*
X177318547Y-90102044D01*
X177203884Y-89944226D01*
X177200559Y-89939649D01*
X177111157Y-89854172D01*
X177040911Y-89787009D01*
X177040908Y-89787007D01*
X177036822Y-89783100D01*
X176941835Y-89720400D01*
X176852489Y-89661423D01*
X176852487Y-89661422D01*
X176847762Y-89658303D01*
X176833842Y-89652353D01*
X176740016Y-89612250D01*
X176639458Y-89569269D01*
X176418603Y-89518861D01*
X176192297Y-89508697D01*
X175967813Y-89539106D01*
X175962434Y-89540854D01*
X175962433Y-89540854D01*
X175931246Y-89550987D01*
X175752367Y-89609109D01*
X175552882Y-89716456D01*
X175548466Y-89719978D01*
X175548461Y-89719981D01*
X175380191Y-89854172D01*
X175375770Y-89857698D01*
X175372049Y-89861957D01*
X175372047Y-89861959D01*
X175275581Y-89972374D01*
X175226725Y-90028294D01*
X175223822Y-90033153D01*
X175223819Y-90033157D01*
X175182661Y-90102044D01*
X175110535Y-90222762D01*
X175030937Y-90434851D01*
X174990488Y-90657745D01*
X174990488Y-91827534D01*
X166587488Y-91827534D01*
X166587488Y-78874911D01*
X166588818Y-78856649D01*
X166589115Y-78854624D01*
X166592329Y-78832680D01*
X166587967Y-78782823D01*
X166587488Y-78771841D01*
X166587488Y-78766289D01*
X166587063Y-78762649D01*
X166587062Y-78762639D01*
X166583853Y-78735182D01*
X166583481Y-78731540D01*
X166577515Y-78663358D01*
X166576875Y-78656043D01*
X166574566Y-78649074D01*
X166573883Y-78645768D01*
X166573814Y-78645342D01*
X166573694Y-78644918D01*
X166572919Y-78641648D01*
X166572067Y-78634356D01*
X166569559Y-78627465D01*
X166569558Y-78627461D01*
X166546134Y-78563104D01*
X166544932Y-78559644D01*
X166523410Y-78494696D01*
X166521102Y-78487731D01*
X166517249Y-78481485D01*
X166515829Y-78478439D01*
X166515658Y-78478027D01*
X166515457Y-78477666D01*
X166513931Y-78474627D01*
X166511423Y-78467737D01*
X166507394Y-78461612D01*
X166507390Y-78461603D01*
X166469760Y-78404390D01*
X166467790Y-78401298D01*
X166431874Y-78343068D01*
X166431870Y-78343062D01*
X166428018Y-78336818D01*
X166422825Y-78331625D01*
X166420746Y-78328996D01*
X166420484Y-78328633D01*
X166420198Y-78328321D01*
X166418024Y-78325730D01*
X166413989Y-78319595D01*
X166358813Y-78267539D01*
X166356186Y-78264986D01*
X163143108Y-75051908D01*
X186041193Y-75051908D01*
X186061536Y-75440084D01*
X186122344Y-75824007D01*
X186222949Y-76199470D01*
X186362250Y-76562361D01*
X186363748Y-76565301D01*
X186442286Y-76719440D01*
X186538720Y-76908703D01*
X186750425Y-77234701D01*
X186817543Y-77317584D01*
X186986318Y-77526003D01*
X186995048Y-77536784D01*
X187269906Y-77811642D01*
X187571989Y-78056265D01*
X187897987Y-78267970D01*
X187900921Y-78269465D01*
X187900928Y-78269469D01*
X188165726Y-78404390D01*
X188244329Y-78444440D01*
X188357106Y-78487731D01*
X188549028Y-78561403D01*
X188607220Y-78583741D01*
X188982683Y-78684346D01*
X189186575Y-78716640D01*
X189363358Y-78744640D01*
X189363366Y-78744641D01*
X189366606Y-78745154D01*
X189754782Y-78765497D01*
X190142958Y-78745154D01*
X190146198Y-78744641D01*
X190146206Y-78744640D01*
X190322989Y-78716640D01*
X190526881Y-78684346D01*
X190902344Y-78583741D01*
X190960537Y-78561403D01*
X191152458Y-78487731D01*
X191265235Y-78444440D01*
X191343838Y-78404390D01*
X191608636Y-78269469D01*
X191608643Y-78269465D01*
X191611577Y-78267970D01*
X191937575Y-78056265D01*
X192239658Y-77811642D01*
X192514516Y-77536784D01*
X192523247Y-77526003D01*
X192692021Y-77317584D01*
X192759139Y-77234701D01*
X192970844Y-76908703D01*
X193067279Y-76719440D01*
X193145816Y-76565301D01*
X193147314Y-76562361D01*
X193286615Y-76199470D01*
X193387220Y-75824007D01*
X193448028Y-75440084D01*
X193468371Y-75051908D01*
X193448028Y-74663732D01*
X193447015Y-74657332D01*
X193387736Y-74283070D01*
X193387220Y-74279809D01*
X193286615Y-73904346D01*
X193147314Y-73541455D01*
X192970844Y-73195114D01*
X192759139Y-72869115D01*
X192514516Y-72567032D01*
X192239658Y-72292174D01*
X191937575Y-72047551D01*
X191611577Y-71835846D01*
X191608643Y-71834351D01*
X191608636Y-71834347D01*
X191268175Y-71660874D01*
X191265235Y-71659376D01*
X190902344Y-71520075D01*
X190526881Y-71419470D01*
X190322989Y-71387176D01*
X190146206Y-71359176D01*
X190146198Y-71359175D01*
X190142958Y-71358662D01*
X189754782Y-71338319D01*
X189366606Y-71358662D01*
X189363366Y-71359175D01*
X189363358Y-71359176D01*
X189186575Y-71387176D01*
X188982683Y-71419470D01*
X188607220Y-71520075D01*
X188244329Y-71659376D01*
X188241389Y-71660874D01*
X187900929Y-71834347D01*
X187900922Y-71834351D01*
X187897988Y-71835846D01*
X187571989Y-72047551D01*
X187269906Y-72292174D01*
X186995048Y-72567032D01*
X186750425Y-72869115D01*
X186538720Y-73195114D01*
X186362250Y-73541455D01*
X186222949Y-73904346D01*
X186122344Y-74279809D01*
X186121828Y-74283070D01*
X186062550Y-74657332D01*
X186061536Y-74663732D01*
X186041193Y-75051908D01*
X163143108Y-75051908D01*
X152992065Y-64900864D01*
X152958039Y-64838552D01*
X152963104Y-64767737D01*
X153005651Y-64710901D01*
X153051746Y-64689250D01*
X153110897Y-64675049D01*
X153182674Y-64657817D01*
X153187245Y-64655924D01*
X153187247Y-64655923D01*
X153264615Y-64623876D01*
X153409314Y-64563939D01*
X153595345Y-64449940D01*
X153614252Y-64438354D01*
X153614255Y-64438352D01*
X153618478Y-64435764D01*
X153624401Y-64430706D01*
X153801259Y-64279653D01*
X153805015Y-64276445D01*
X153964334Y-64089908D01*
X154092509Y-63880744D01*
X154186387Y-63654104D01*
X154206231Y-63571449D01*
X154242499Y-63420382D01*
X154242500Y-63420376D01*
X154243654Y-63415569D01*
X154262901Y-63171012D01*
X154246093Y-62957445D01*
X154260689Y-62887965D01*
X154310532Y-62837405D01*
X154379796Y-62821819D01*
X154446492Y-62846154D01*
X154460800Y-62858464D01*
X154605190Y-63002854D01*
X154639216Y-63065166D01*
X154641707Y-63101834D01*
X154638371Y-63144229D01*
X154636263Y-63171012D01*
X154655510Y-63415569D01*
X154656664Y-63420376D01*
X154656665Y-63420382D01*
X154692933Y-63571449D01*
X154712777Y-63654104D01*
X154806655Y-63880744D01*
X154934830Y-64089908D01*
X155094149Y-64276445D01*
X155097905Y-64279653D01*
X155274764Y-64430706D01*
X155280686Y-64435764D01*
X155284909Y-64438352D01*
X155284912Y-64438354D01*
X155303819Y-64449940D01*
X155489850Y-64563939D01*
X155634549Y-64623876D01*
X155711917Y-64655923D01*
X155711919Y-64655924D01*
X155716490Y-64657817D01*
X155788267Y-64675049D01*
X155950212Y-64713929D01*
X155950218Y-64713930D01*
X155955025Y-64715084D01*
X156199582Y-64734331D01*
X156444139Y-64715084D01*
X156448946Y-64713930D01*
X156448952Y-64713929D01*
X156610897Y-64675049D01*
X156682674Y-64657817D01*
X156687245Y-64655924D01*
X156687247Y-64655923D01*
X156764615Y-64623876D01*
X156909314Y-64563939D01*
X157095345Y-64449940D01*
X157114252Y-64438354D01*
X157114255Y-64438352D01*
X157118478Y-64435764D01*
X157124401Y-64430706D01*
X157301259Y-64279653D01*
X157305015Y-64276445D01*
X157464334Y-64089908D01*
X157592509Y-63880744D01*
X157686387Y-63654104D01*
X157706231Y-63571449D01*
X157742499Y-63420382D01*
X157742500Y-63420376D01*
X157743654Y-63415569D01*
X157762901Y-63171012D01*
X158136263Y-63171012D01*
X158155510Y-63415569D01*
X158156664Y-63420376D01*
X158156665Y-63420382D01*
X158192933Y-63571449D01*
X158212777Y-63654104D01*
X158306655Y-63880744D01*
X158434830Y-64089908D01*
X158594149Y-64276445D01*
X158597905Y-64279653D01*
X158774764Y-64430706D01*
X158780686Y-64435764D01*
X158784909Y-64438352D01*
X158784912Y-64438354D01*
X158803819Y-64449940D01*
X158989850Y-64563939D01*
X159134549Y-64623876D01*
X159211917Y-64655923D01*
X159211919Y-64655924D01*
X159216490Y-64657817D01*
X159288267Y-64675049D01*
X159450212Y-64713929D01*
X159450218Y-64713930D01*
X159455025Y-64715084D01*
X159699582Y-64734331D01*
X159944139Y-64715084D01*
X159948946Y-64713930D01*
X159948952Y-64713929D01*
X160110897Y-64675049D01*
X160182674Y-64657817D01*
X160187245Y-64655924D01*
X160187247Y-64655923D01*
X160264615Y-64623876D01*
X160409314Y-64563939D01*
X160595345Y-64449940D01*
X160614252Y-64438354D01*
X160614255Y-64438352D01*
X160618478Y-64435764D01*
X160624401Y-64430706D01*
X160801259Y-64279653D01*
X160805015Y-64276445D01*
X160964334Y-64089908D01*
X161092509Y-63880744D01*
X161186387Y-63654104D01*
X161206231Y-63571449D01*
X161242499Y-63420382D01*
X161242500Y-63420376D01*
X161243654Y-63415569D01*
X161262901Y-63171012D01*
X161636263Y-63171012D01*
X161655510Y-63415569D01*
X161656664Y-63420376D01*
X161656665Y-63420382D01*
X161692933Y-63571449D01*
X161712777Y-63654104D01*
X161806655Y-63880744D01*
X161934830Y-64089908D01*
X162094149Y-64276445D01*
X162097905Y-64279653D01*
X162274764Y-64430706D01*
X162280686Y-64435764D01*
X162284909Y-64438352D01*
X162284912Y-64438354D01*
X162303819Y-64449940D01*
X162489850Y-64563939D01*
X162634549Y-64623876D01*
X162711917Y-64655923D01*
X162711919Y-64655924D01*
X162716490Y-64657817D01*
X162788267Y-64675049D01*
X162950212Y-64713929D01*
X162950218Y-64713930D01*
X162955025Y-64715084D01*
X163199582Y-64734331D01*
X163444139Y-64715084D01*
X163448946Y-64713930D01*
X163448952Y-64713929D01*
X163610897Y-64675049D01*
X163682674Y-64657817D01*
X163687245Y-64655924D01*
X163687247Y-64655923D01*
X163764615Y-64623876D01*
X163909314Y-64563939D01*
X164095345Y-64449940D01*
X164114252Y-64438354D01*
X164114255Y-64438352D01*
X164118478Y-64435764D01*
X164124401Y-64430706D01*
X164301259Y-64279653D01*
X164305015Y-64276445D01*
X164464334Y-64089908D01*
X164592509Y-63880744D01*
X164686387Y-63654104D01*
X164706231Y-63571449D01*
X164742499Y-63420382D01*
X164742500Y-63420376D01*
X164743654Y-63415569D01*
X164762901Y-63171012D01*
X164743654Y-62926455D01*
X164742497Y-62921633D01*
X164687542Y-62692732D01*
X164686387Y-62687920D01*
X164592509Y-62461280D01*
X164464334Y-62252116D01*
X164391029Y-62166287D01*
X164308223Y-62069335D01*
X164305015Y-62065579D01*
X164242061Y-62011811D01*
X164122245Y-61909477D01*
X164122242Y-61909475D01*
X164118478Y-61906260D01*
X164114255Y-61903672D01*
X164114252Y-61903670D01*
X164045067Y-61861274D01*
X163909314Y-61778085D01*
X163705351Y-61693600D01*
X163687247Y-61686101D01*
X163687245Y-61686100D01*
X163682674Y-61684207D01*
X163600019Y-61664363D01*
X163448952Y-61628095D01*
X163448946Y-61628094D01*
X163444139Y-61626940D01*
X163199582Y-61607693D01*
X162955025Y-61626940D01*
X162950218Y-61628094D01*
X162950212Y-61628095D01*
X162799145Y-61664363D01*
X162716490Y-61684207D01*
X162711919Y-61686100D01*
X162711917Y-61686101D01*
X162693813Y-61693600D01*
X162489850Y-61778085D01*
X162354097Y-61861274D01*
X162284912Y-61903670D01*
X162284909Y-61903672D01*
X162280686Y-61906260D01*
X162276922Y-61909475D01*
X162276919Y-61909477D01*
X162157103Y-62011811D01*
X162094149Y-62065579D01*
X162090941Y-62069335D01*
X162008136Y-62166287D01*
X161934830Y-62252116D01*
X161806655Y-62461280D01*
X161712777Y-62687920D01*
X161711622Y-62692732D01*
X161656668Y-62921633D01*
X161655510Y-62926455D01*
X161636263Y-63171012D01*
X161262901Y-63171012D01*
X161243654Y-62926455D01*
X161242497Y-62921633D01*
X161187542Y-62692732D01*
X161186387Y-62687920D01*
X161092509Y-62461280D01*
X160964334Y-62252116D01*
X160891029Y-62166287D01*
X160808223Y-62069335D01*
X160805015Y-62065579D01*
X160742061Y-62011811D01*
X160622245Y-61909477D01*
X160622242Y-61909475D01*
X160618478Y-61906260D01*
X160614255Y-61903672D01*
X160614252Y-61903670D01*
X160545067Y-61861274D01*
X160409314Y-61778085D01*
X160205351Y-61693600D01*
X160187247Y-61686101D01*
X160187245Y-61686100D01*
X160182674Y-61684207D01*
X160100019Y-61664363D01*
X159948952Y-61628095D01*
X159948946Y-61628094D01*
X159944139Y-61626940D01*
X159699582Y-61607693D01*
X159455025Y-61626940D01*
X159450218Y-61628094D01*
X159450212Y-61628095D01*
X159299145Y-61664363D01*
X159216490Y-61684207D01*
X159211919Y-61686100D01*
X159211917Y-61686101D01*
X159193813Y-61693600D01*
X158989850Y-61778085D01*
X158854097Y-61861274D01*
X158784912Y-61903670D01*
X158784909Y-61903672D01*
X158780686Y-61906260D01*
X158776922Y-61909475D01*
X158776919Y-61909477D01*
X158657103Y-62011811D01*
X158594149Y-62065579D01*
X158590941Y-62069335D01*
X158508136Y-62166287D01*
X158434830Y-62252116D01*
X158306655Y-62461280D01*
X158212777Y-62687920D01*
X158211622Y-62692732D01*
X158156668Y-62921633D01*
X158155510Y-62926455D01*
X158136263Y-63171012D01*
X157762901Y-63171012D01*
X157743654Y-62926455D01*
X157742497Y-62921633D01*
X157687542Y-62692732D01*
X157686387Y-62687920D01*
X157592509Y-62461280D01*
X157464334Y-62252116D01*
X157391029Y-62166287D01*
X157308223Y-62069335D01*
X157305015Y-62065579D01*
X157242061Y-62011811D01*
X157122245Y-61909477D01*
X157122242Y-61909475D01*
X157118478Y-61906260D01*
X157114255Y-61903672D01*
X157114252Y-61903670D01*
X157045067Y-61861274D01*
X156909314Y-61778085D01*
X156705351Y-61693600D01*
X156687247Y-61686101D01*
X156687245Y-61686100D01*
X156682674Y-61684207D01*
X156600019Y-61664363D01*
X156448952Y-61628095D01*
X156448946Y-61628094D01*
X156444139Y-61626940D01*
X156199582Y-61607693D01*
X156194652Y-61608081D01*
X156194651Y-61608081D01*
X156130404Y-61613137D01*
X156060924Y-61598541D01*
X156031424Y-61576620D01*
X155199411Y-60744607D01*
X155165385Y-60682295D01*
X155170450Y-60611480D01*
X155212997Y-60554644D01*
X155279517Y-60529833D01*
X155288506Y-60529512D01*
X166079658Y-60529512D01*
X166147779Y-60549514D01*
X166168753Y-60566417D01*
X167012130Y-61409794D01*
X167046156Y-61472106D01*
X167041091Y-61542921D01*
X166998544Y-61599757D01*
X166932024Y-61624568D01*
X166913149Y-61624501D01*
X166704512Y-61608081D01*
X166699582Y-61607693D01*
X166455025Y-61626940D01*
X166450218Y-61628094D01*
X166450212Y-61628095D01*
X166299145Y-61664363D01*
X166216490Y-61684207D01*
X166211919Y-61686100D01*
X166211917Y-61686101D01*
X166193813Y-61693600D01*
X165989850Y-61778085D01*
X165854097Y-61861274D01*
X165784912Y-61903670D01*
X165784909Y-61903672D01*
X165780686Y-61906260D01*
X165776922Y-61909475D01*
X165776919Y-61909477D01*
X165657103Y-62011811D01*
X165594149Y-62065579D01*
X165590941Y-62069335D01*
X165508136Y-62166287D01*
X165434830Y-62252116D01*
X165306655Y-62461280D01*
X165212777Y-62687920D01*
X165211622Y-62692732D01*
X165156668Y-62921633D01*
X165155510Y-62926455D01*
X165136263Y-63171012D01*
X165155510Y-63415569D01*
X165156664Y-63420376D01*
X165156665Y-63420382D01*
X165192933Y-63571449D01*
X165212777Y-63654104D01*
X165306655Y-63880744D01*
X165434830Y-64089908D01*
X165594149Y-64276445D01*
X165597905Y-64279653D01*
X165774764Y-64430706D01*
X165780686Y-64435764D01*
X165784909Y-64438352D01*
X165784912Y-64438354D01*
X165803819Y-64449940D01*
X165989850Y-64563939D01*
X166134549Y-64623876D01*
X166211917Y-64655923D01*
X166211919Y-64655924D01*
X166216490Y-64657817D01*
X166288267Y-64675049D01*
X166450212Y-64713929D01*
X166450218Y-64713930D01*
X166455025Y-64715084D01*
X166699582Y-64734331D01*
X166944139Y-64715084D01*
X166948946Y-64713930D01*
X166948952Y-64713929D01*
X167110897Y-64675049D01*
X167182674Y-64657817D01*
X167187245Y-64655924D01*
X167187247Y-64655923D01*
X167264615Y-64623876D01*
X167409314Y-64563939D01*
X167595345Y-64449940D01*
X167614252Y-64438354D01*
X167614255Y-64438352D01*
X167618478Y-64435764D01*
X167624401Y-64430706D01*
X167801259Y-64279653D01*
X167805015Y-64276445D01*
X167964334Y-64089908D01*
X168092509Y-63880744D01*
X168186387Y-63654104D01*
X168206231Y-63571449D01*
X168242499Y-63420382D01*
X168242500Y-63420376D01*
X168243654Y-63415569D01*
X168262901Y-63171012D01*
X168246093Y-62957445D01*
X168260689Y-62887966D01*
X168310532Y-62837406D01*
X168379796Y-62821820D01*
X168446492Y-62846155D01*
X168460800Y-62858465D01*
X168604177Y-63001842D01*
X168638203Y-63064154D01*
X168641082Y-63090937D01*
X168641082Y-64269650D01*
X168641442Y-64272997D01*
X168641442Y-64273000D01*
X168642157Y-64279653D01*
X168647593Y-64330213D01*
X168698693Y-64467216D01*
X168704092Y-64474428D01*
X168704093Y-64474430D01*
X168722133Y-64498528D01*
X168786321Y-64584273D01*
X168793532Y-64589671D01*
X168885470Y-64658495D01*
X168903378Y-64671901D01*
X169040381Y-64723001D01*
X169077287Y-64726969D01*
X169097594Y-64729152D01*
X169097597Y-64729152D01*
X169100944Y-64729512D01*
X171298220Y-64729512D01*
X171301567Y-64729152D01*
X171301570Y-64729152D01*
X171321877Y-64726969D01*
X171358783Y-64723001D01*
X171495786Y-64671901D01*
X171513695Y-64658495D01*
X171605632Y-64589671D01*
X171612843Y-64584273D01*
X171677031Y-64498528D01*
X171695071Y-64474430D01*
X171695072Y-64474428D01*
X171700471Y-64467216D01*
X171751571Y-64330213D01*
X171757007Y-64279653D01*
X171757722Y-64273000D01*
X171757722Y-64272997D01*
X171758082Y-64269650D01*
X171758082Y-63171012D01*
X176618169Y-63171012D01*
X176637416Y-63415569D01*
X176638570Y-63420376D01*
X176638571Y-63420382D01*
X176674839Y-63571449D01*
X176694683Y-63654104D01*
X176788561Y-63880744D01*
X176916736Y-64089908D01*
X177076055Y-64276445D01*
X177079811Y-64279653D01*
X177256670Y-64430706D01*
X177262592Y-64435764D01*
X177266815Y-64438352D01*
X177266818Y-64438354D01*
X177285725Y-64449940D01*
X177471756Y-64563939D01*
X177616455Y-64623876D01*
X177693823Y-64655923D01*
X177693825Y-64655924D01*
X177698396Y-64657817D01*
X177770173Y-64675049D01*
X177932118Y-64713929D01*
X177932124Y-64713930D01*
X177936931Y-64715084D01*
X178181488Y-64734331D01*
X178426045Y-64715084D01*
X178430852Y-64713930D01*
X178430858Y-64713929D01*
X178592803Y-64675049D01*
X178664580Y-64657817D01*
X178669151Y-64655924D01*
X178669153Y-64655923D01*
X178746521Y-64623876D01*
X178891220Y-64563939D01*
X179077251Y-64449940D01*
X179096158Y-64438354D01*
X179096161Y-64438352D01*
X179100384Y-64435764D01*
X179106307Y-64430706D01*
X179283165Y-64279653D01*
X179286921Y-64276445D01*
X179446240Y-64089908D01*
X179574415Y-63880744D01*
X179668293Y-63654104D01*
X179688137Y-63571449D01*
X179724405Y-63420382D01*
X179724406Y-63420376D01*
X179725560Y-63415569D01*
X179744807Y-63171012D01*
X180118169Y-63171012D01*
X180137416Y-63415569D01*
X180138570Y-63420376D01*
X180138571Y-63420382D01*
X180174839Y-63571449D01*
X180194683Y-63654104D01*
X180288561Y-63880744D01*
X180416736Y-64089908D01*
X180576055Y-64276445D01*
X180579811Y-64279653D01*
X180756670Y-64430706D01*
X180762592Y-64435764D01*
X180766815Y-64438352D01*
X180766818Y-64438354D01*
X180785725Y-64449940D01*
X180971756Y-64563939D01*
X181116455Y-64623876D01*
X181193823Y-64655923D01*
X181193825Y-64655924D01*
X181198396Y-64657817D01*
X181270173Y-64675049D01*
X181432118Y-64713929D01*
X181432124Y-64713930D01*
X181436931Y-64715084D01*
X181681488Y-64734331D01*
X181926045Y-64715084D01*
X181930852Y-64713930D01*
X181930858Y-64713929D01*
X182092803Y-64675049D01*
X182164580Y-64657817D01*
X182169151Y-64655924D01*
X182169153Y-64655923D01*
X182246521Y-64623876D01*
X182391220Y-64563939D01*
X182577251Y-64449940D01*
X182596158Y-64438354D01*
X182596161Y-64438352D01*
X182600384Y-64435764D01*
X182606307Y-64430706D01*
X182783165Y-64279653D01*
X182786921Y-64276445D01*
X182946240Y-64089908D01*
X183074415Y-63880744D01*
X183168293Y-63654104D01*
X183188137Y-63571449D01*
X183224405Y-63420382D01*
X183224406Y-63420376D01*
X183225560Y-63415569D01*
X183244807Y-63171012D01*
X183618169Y-63171012D01*
X183637416Y-63415569D01*
X183638570Y-63420376D01*
X183638571Y-63420382D01*
X183674839Y-63571449D01*
X183694683Y-63654104D01*
X183788561Y-63880744D01*
X183916736Y-64089908D01*
X184076055Y-64276445D01*
X184079811Y-64279653D01*
X184256670Y-64430706D01*
X184262592Y-64435764D01*
X184266815Y-64438352D01*
X184266818Y-64438354D01*
X184285725Y-64449940D01*
X184471756Y-64563939D01*
X184616455Y-64623876D01*
X184693823Y-64655923D01*
X184693825Y-64655924D01*
X184698396Y-64657817D01*
X184770173Y-64675049D01*
X184932118Y-64713929D01*
X184932124Y-64713930D01*
X184936931Y-64715084D01*
X185181488Y-64734331D01*
X185426045Y-64715084D01*
X185430852Y-64713930D01*
X185430858Y-64713929D01*
X185592803Y-64675049D01*
X185664580Y-64657817D01*
X185669151Y-64655924D01*
X185669153Y-64655923D01*
X185746521Y-64623876D01*
X185891220Y-64563939D01*
X186077251Y-64449940D01*
X186096158Y-64438354D01*
X186096161Y-64438352D01*
X186100384Y-64435764D01*
X186106307Y-64430706D01*
X186283165Y-64279653D01*
X186286921Y-64276445D01*
X186292725Y-64269650D01*
X187122988Y-64269650D01*
X187123348Y-64272997D01*
X187123348Y-64273000D01*
X187124063Y-64279653D01*
X187129499Y-64330213D01*
X187180599Y-64467216D01*
X187185998Y-64474428D01*
X187185999Y-64474430D01*
X187204039Y-64498528D01*
X187268227Y-64584273D01*
X187275438Y-64589671D01*
X187367376Y-64658495D01*
X187385284Y-64671901D01*
X187522287Y-64723001D01*
X187559193Y-64726969D01*
X187579500Y-64729152D01*
X187579503Y-64729152D01*
X187582850Y-64729512D01*
X189780126Y-64729512D01*
X189783473Y-64729152D01*
X189783476Y-64729152D01*
X189803783Y-64726969D01*
X189840689Y-64723001D01*
X189977692Y-64671901D01*
X189995601Y-64658495D01*
X190087538Y-64589671D01*
X190094749Y-64584273D01*
X190158937Y-64498528D01*
X190176977Y-64474430D01*
X190176978Y-64474428D01*
X190182377Y-64467216D01*
X190233477Y-64330213D01*
X190238913Y-64279653D01*
X190239628Y-64273000D01*
X190239628Y-64272997D01*
X190239988Y-64269650D01*
X190239988Y-62072374D01*
X190239258Y-62065579D01*
X190234319Y-62019645D01*
X190233477Y-62011811D01*
X190182377Y-61874808D01*
X190094749Y-61757751D01*
X190051865Y-61725648D01*
X189984906Y-61675523D01*
X189984904Y-61675522D01*
X189977692Y-61670123D01*
X189840689Y-61619023D01*
X189803783Y-61615055D01*
X189783476Y-61612872D01*
X189783473Y-61612872D01*
X189780126Y-61612512D01*
X187582850Y-61612512D01*
X187579503Y-61612872D01*
X187579500Y-61612872D01*
X187559193Y-61615055D01*
X187522287Y-61619023D01*
X187385284Y-61670123D01*
X187378072Y-61675522D01*
X187378070Y-61675523D01*
X187311111Y-61725648D01*
X187268227Y-61757751D01*
X187180599Y-61874808D01*
X187129499Y-62011811D01*
X187128657Y-62019645D01*
X187123719Y-62065579D01*
X187122988Y-62072374D01*
X187122988Y-64269650D01*
X186292725Y-64269650D01*
X186446240Y-64089908D01*
X186574415Y-63880744D01*
X186668293Y-63654104D01*
X186688137Y-63571449D01*
X186724405Y-63420382D01*
X186724406Y-63420376D01*
X186725560Y-63415569D01*
X186744807Y-63171012D01*
X186725560Y-62926455D01*
X186724403Y-62921633D01*
X186669448Y-62692732D01*
X186668293Y-62687920D01*
X186574415Y-62461280D01*
X186446240Y-62252116D01*
X186372935Y-62166287D01*
X186290129Y-62069335D01*
X186286921Y-62065579D01*
X186223967Y-62011811D01*
X186104151Y-61909477D01*
X186104148Y-61909475D01*
X186100384Y-61906260D01*
X186096161Y-61903672D01*
X186096158Y-61903670D01*
X186026973Y-61861274D01*
X185891220Y-61778085D01*
X185687257Y-61693600D01*
X185669153Y-61686101D01*
X185669151Y-61686100D01*
X185664580Y-61684207D01*
X185581925Y-61664363D01*
X185430858Y-61628095D01*
X185430852Y-61628094D01*
X185426045Y-61626940D01*
X185181488Y-61607693D01*
X184936931Y-61626940D01*
X184932124Y-61628094D01*
X184932118Y-61628095D01*
X184781051Y-61664363D01*
X184698396Y-61684207D01*
X184693825Y-61686100D01*
X184693823Y-61686101D01*
X184675719Y-61693600D01*
X184471756Y-61778085D01*
X184336003Y-61861274D01*
X184266818Y-61903670D01*
X184266815Y-61903672D01*
X184262592Y-61906260D01*
X184258828Y-61909475D01*
X184258825Y-61909477D01*
X184139009Y-62011811D01*
X184076055Y-62065579D01*
X184072847Y-62069335D01*
X183990042Y-62166287D01*
X183916736Y-62252116D01*
X183788561Y-62461280D01*
X183694683Y-62687920D01*
X183693528Y-62692732D01*
X183638574Y-62921633D01*
X183637416Y-62926455D01*
X183618169Y-63171012D01*
X183244807Y-63171012D01*
X183225560Y-62926455D01*
X183224403Y-62921633D01*
X183169448Y-62692732D01*
X183168293Y-62687920D01*
X183074415Y-62461280D01*
X182946240Y-62252116D01*
X182872935Y-62166287D01*
X182790129Y-62069335D01*
X182786921Y-62065579D01*
X182723967Y-62011811D01*
X182604151Y-61909477D01*
X182604148Y-61909475D01*
X182600384Y-61906260D01*
X182596161Y-61903672D01*
X182596158Y-61903670D01*
X182526973Y-61861274D01*
X182391220Y-61778085D01*
X182187257Y-61693600D01*
X182169153Y-61686101D01*
X182169151Y-61686100D01*
X182164580Y-61684207D01*
X182081925Y-61664363D01*
X181930858Y-61628095D01*
X181930852Y-61628094D01*
X181926045Y-61626940D01*
X181681488Y-61607693D01*
X181436931Y-61626940D01*
X181432124Y-61628094D01*
X181432118Y-61628095D01*
X181281051Y-61664363D01*
X181198396Y-61684207D01*
X181193825Y-61686100D01*
X181193823Y-61686101D01*
X181175719Y-61693600D01*
X180971756Y-61778085D01*
X180836003Y-61861274D01*
X180766818Y-61903670D01*
X180766815Y-61903672D01*
X180762592Y-61906260D01*
X180758828Y-61909475D01*
X180758825Y-61909477D01*
X180639009Y-62011811D01*
X180576055Y-62065579D01*
X180572847Y-62069335D01*
X180490042Y-62166287D01*
X180416736Y-62252116D01*
X180288561Y-62461280D01*
X180194683Y-62687920D01*
X180193528Y-62692732D01*
X180138574Y-62921633D01*
X180137416Y-62926455D01*
X180118169Y-63171012D01*
X179744807Y-63171012D01*
X179725560Y-62926455D01*
X179724403Y-62921633D01*
X179669448Y-62692732D01*
X179668293Y-62687920D01*
X179574415Y-62461280D01*
X179446240Y-62252116D01*
X179372935Y-62166287D01*
X179290129Y-62069335D01*
X179286921Y-62065579D01*
X179223967Y-62011811D01*
X179104151Y-61909477D01*
X179104148Y-61909475D01*
X179100384Y-61906260D01*
X179096161Y-61903672D01*
X179096158Y-61903670D01*
X179026973Y-61861274D01*
X178891220Y-61778085D01*
X178687257Y-61693600D01*
X178669153Y-61686101D01*
X178669151Y-61686100D01*
X178664580Y-61684207D01*
X178581925Y-61664363D01*
X178430858Y-61628095D01*
X178430852Y-61628094D01*
X178426045Y-61626940D01*
X178181488Y-61607693D01*
X177936931Y-61626940D01*
X177932124Y-61628094D01*
X177932118Y-61628095D01*
X177781051Y-61664363D01*
X177698396Y-61684207D01*
X177693825Y-61686100D01*
X177693823Y-61686101D01*
X177675719Y-61693600D01*
X177471756Y-61778085D01*
X177336003Y-61861274D01*
X177266818Y-61903670D01*
X177266815Y-61903672D01*
X177262592Y-61906260D01*
X177258828Y-61909475D01*
X177258825Y-61909477D01*
X177139009Y-62011811D01*
X177076055Y-62065579D01*
X177072847Y-62069335D01*
X176990042Y-62166287D01*
X176916736Y-62252116D01*
X176788561Y-62461280D01*
X176694683Y-62687920D01*
X176693528Y-62692732D01*
X176638574Y-62921633D01*
X176637416Y-62926455D01*
X176618169Y-63171012D01*
X171758082Y-63171012D01*
X171758082Y-62072374D01*
X171757352Y-62065579D01*
X171752413Y-62019645D01*
X171751571Y-62011811D01*
X171700471Y-61874808D01*
X171612843Y-61757751D01*
X171569959Y-61725648D01*
X171503000Y-61675523D01*
X171502998Y-61675522D01*
X171495786Y-61670123D01*
X171358783Y-61619023D01*
X171321877Y-61615055D01*
X171301570Y-61612872D01*
X171301567Y-61612872D01*
X171298220Y-61612512D01*
X170119507Y-61612512D01*
X170051386Y-61592510D01*
X170030412Y-61575607D01*
X167302120Y-58847316D01*
X167293816Y-58838155D01*
X167270072Y-58809223D01*
X167266150Y-58804444D01*
X167112586Y-58678417D01*
X167107127Y-58675499D01*
X166942844Y-58587688D01*
X166942841Y-58587687D01*
X166937386Y-58584771D01*
X166747283Y-58527103D01*
X166549582Y-58507632D01*
X166543419Y-58508239D01*
X166543418Y-58508239D01*
X166506194Y-58511905D01*
X166493845Y-58512512D01*
X117412351Y-58512512D01*
X117400002Y-58511905D01*
X117362778Y-58508239D01*
X117362777Y-58508239D01*
X117356614Y-58507632D01*
X117158913Y-58527103D01*
X117013056Y-58571349D01*
X116968810Y-58584771D01*
X116963355Y-58587687D01*
X116963352Y-58587688D01*
X116799069Y-58675499D01*
X116793610Y-58678417D01*
X116640046Y-58804444D01*
X116636124Y-58809223D01*
X116612380Y-58838155D01*
X116604076Y-58847316D01*
X113757792Y-61693600D01*
X113748631Y-61701904D01*
X113714920Y-61729570D01*
X113710998Y-61734349D01*
X113649428Y-61809372D01*
X113590751Y-61849340D01*
X113519780Y-61851241D01*
X113486194Y-61836871D01*
X113395206Y-61781114D01*
X113386421Y-61776637D01*
X113168998Y-61686578D01*
X113159613Y-61683529D01*
X112930780Y-61628590D01*
X112921033Y-61627047D01*
X112686418Y-61608582D01*
X112676558Y-61608582D01*
X112441943Y-61627047D01*
X112432196Y-61628590D01*
X112203363Y-61683529D01*
X112193978Y-61686578D01*
X111976555Y-61776637D01*
X111967760Y-61781119D01*
X111786683Y-61892084D01*
X111777221Y-61902542D01*
X102908682Y-61902542D01*
X102908682Y-59054800D01*
X102908816Y-59048980D01*
X102916699Y-58878494D01*
X102916717Y-58878132D01*
X102926339Y-58682251D01*
X102927395Y-58671025D01*
X102939678Y-58582974D01*
X102952861Y-58488469D01*
X102952978Y-58487659D01*
X102980108Y-58304774D01*
X102982091Y-58294415D01*
X103024723Y-58113158D01*
X103025152Y-58111390D01*
X103069545Y-57934164D01*
X103072301Y-57924738D01*
X103131760Y-57747339D01*
X103132594Y-57744932D01*
X103193830Y-57573792D01*
X103197200Y-57565347D01*
X103272961Y-57393764D01*
X103274323Y-57390785D01*
X103351839Y-57226894D01*
X103355664Y-57219455D01*
X103355989Y-57218871D01*
X103447069Y-57055353D01*
X103449042Y-57051939D01*
X103542131Y-56896631D01*
X103546256Y-56890201D01*
X103652480Y-56735134D01*
X103655225Y-56731283D01*
X103762971Y-56586005D01*
X103767239Y-56580569D01*
X103886730Y-56436671D01*
X103887379Y-56435890D01*
X103890941Y-56431784D01*
X104012389Y-56297788D01*
X104016653Y-56293310D01*
X104149619Y-56160344D01*
X104154098Y-56156079D01*
X104288070Y-56034654D01*
X104292191Y-56031078D01*
X104436881Y-55910929D01*
X104442302Y-55906672D01*
X104587629Y-55798891D01*
X104591396Y-55796205D01*
X104746512Y-55689948D01*
X104752941Y-55685825D01*
X104810555Y-55651292D01*
X104908254Y-55592734D01*
X104911621Y-55590786D01*
X105075763Y-55499360D01*
X105083203Y-55495534D01*
X105247112Y-55418011D01*
X105250089Y-55416650D01*
X105314227Y-55388330D01*
X105421651Y-55340898D01*
X105430087Y-55337532D01*
X105601274Y-55276280D01*
X105603680Y-55275446D01*
X105781038Y-55216001D01*
X105790465Y-55213245D01*
X105967689Y-55168853D01*
X105969455Y-55168424D01*
X106121438Y-55132677D01*
X106150725Y-55125788D01*
X106161077Y-55123807D01*
X106343857Y-55096694D01*
X106344861Y-55096548D01*
X106385597Y-55090866D01*
X106527331Y-55071095D01*
X106538556Y-55070039D01*
X106733664Y-55060453D01*
X106734027Y-55060435D01*
X106905371Y-55052512D01*
X106911191Y-55052378D01*
X194904961Y-55052378D01*
X194910780Y-55052512D01*
G37*
%TD.AperFunction*%
%TA.AperFunction,Conductor*%
G36*
X164288520Y-86228277D02*
G01*
X164345356Y-86270824D01*
X164370167Y-86337344D01*
X164370488Y-86346333D01*
X164370488Y-93974641D01*
X164350486Y-94042762D01*
X164333583Y-94063736D01*
X162110346Y-96286973D01*
X162048034Y-96320999D01*
X162000513Y-96322159D01*
X161876712Y-96301500D01*
X161643288Y-96301500D01*
X161638154Y-96302357D01*
X161638151Y-96302357D01*
X161418188Y-96339062D01*
X161418183Y-96339063D01*
X161413049Y-96339920D01*
X161192273Y-96415713D01*
X161187691Y-96418193D01*
X161187688Y-96418194D01*
X161046403Y-96494654D01*
X160986983Y-96526810D01*
X160982872Y-96530009D01*
X160982870Y-96530011D01*
X160806898Y-96666976D01*
X160806892Y-96666981D01*
X160802780Y-96670182D01*
X160785721Y-96688713D01*
X160648214Y-96838084D01*
X160648211Y-96838088D01*
X160644686Y-96841917D01*
X160517016Y-97037331D01*
X160423251Y-97251093D01*
X160421973Y-97256141D01*
X160421971Y-97256146D01*
X160384273Y-97405013D01*
X160365949Y-97477374D01*
X160365519Y-97482565D01*
X160365518Y-97482570D01*
X160348113Y-97692626D01*
X160346673Y-97710000D01*
X160365949Y-97942626D01*
X160423251Y-98168907D01*
X160517016Y-98382669D01*
X160644686Y-98578083D01*
X160648211Y-98581912D01*
X160648214Y-98581916D01*
X160754975Y-98697889D01*
X160802780Y-98749818D01*
X160970770Y-98880571D01*
X161012239Y-98938194D01*
X161015972Y-99009092D01*
X160980783Y-99070754D01*
X160970782Y-99079420D01*
X160802780Y-99210182D01*
X160754975Y-99262111D01*
X160648214Y-99378084D01*
X160648211Y-99378088D01*
X160644686Y-99381917D01*
X160641835Y-99386281D01*
X160524751Y-99565492D01*
X160517016Y-99577331D01*
X160514921Y-99582107D01*
X160451921Y-99725733D01*
X160423251Y-99791093D01*
X160421973Y-99796141D01*
X160421971Y-99796146D01*
X160384273Y-99945013D01*
X160365949Y-100017374D01*
X160346673Y-100250000D01*
X160365949Y-100482626D01*
X160423251Y-100708907D01*
X160517016Y-100922669D01*
X160644686Y-101118083D01*
X160648211Y-101121912D01*
X160648214Y-101121916D01*
X160735757Y-101217012D01*
X160802780Y-101289818D01*
X160970770Y-101420571D01*
X161012239Y-101478194D01*
X161015972Y-101549092D01*
X160980783Y-101610754D01*
X160970782Y-101619420D01*
X160802780Y-101750182D01*
X160799248Y-101754019D01*
X160648214Y-101918084D01*
X160648211Y-101918088D01*
X160644686Y-101921917D01*
X160517016Y-102117331D01*
X160423251Y-102331093D01*
X160365949Y-102557374D01*
X160346673Y-102790000D01*
X160365949Y-103022626D01*
X160423251Y-103248907D01*
X160425343Y-103253677D01*
X160425344Y-103253679D01*
X160502584Y-103429767D01*
X160517016Y-103462669D01*
X160519866Y-103467031D01*
X160519868Y-103467035D01*
X160575837Y-103552701D01*
X160644686Y-103658083D01*
X160648211Y-103661912D01*
X160648214Y-103661916D01*
X160754975Y-103777889D01*
X160802780Y-103829818D01*
X160970770Y-103960571D01*
X161012239Y-104018194D01*
X161015972Y-104089092D01*
X160980783Y-104150754D01*
X160970782Y-104159420D01*
X160802780Y-104290182D01*
X160799248Y-104294019D01*
X160648214Y-104458084D01*
X160648211Y-104458088D01*
X160644686Y-104461917D01*
X160517016Y-104657331D01*
X160423251Y-104871093D01*
X160365949Y-105097374D01*
X160346673Y-105330000D01*
X160365949Y-105562626D01*
X160423251Y-105788907D01*
X160517016Y-106002669D01*
X160644686Y-106198083D01*
X160648211Y-106201912D01*
X160648214Y-106201916D01*
X160754975Y-106317889D01*
X160802780Y-106369818D01*
X160970770Y-106500571D01*
X161012239Y-106558194D01*
X161015972Y-106629092D01*
X160980783Y-106690754D01*
X160970782Y-106699420D01*
X160802780Y-106830182D01*
X160799248Y-106834019D01*
X160648214Y-106998084D01*
X160648211Y-106998088D01*
X160644686Y-107001917D01*
X160610387Y-107054416D01*
X160556383Y-107100504D01*
X160504904Y-107111500D01*
X159794442Y-107111500D01*
X159776180Y-107110170D01*
X159774155Y-107109873D01*
X159752211Y-107106659D01*
X159702354Y-107111021D01*
X159691372Y-107111500D01*
X159685820Y-107111500D01*
X159654692Y-107115138D01*
X159651148Y-107115501D01*
X159575573Y-107122113D01*
X159568605Y-107124422D01*
X159565296Y-107125105D01*
X159564871Y-107125174D01*
X159564461Y-107125290D01*
X159561173Y-107126069D01*
X159553887Y-107126921D01*
X159546993Y-107129430D01*
X159546990Y-107129431D01*
X159482676Y-107152839D01*
X159479215Y-107154042D01*
X159414233Y-107175575D01*
X159414227Y-107175578D01*
X159407261Y-107177886D01*
X159401016Y-107181738D01*
X159397951Y-107183167D01*
X159397556Y-107183331D01*
X159397183Y-107183539D01*
X159394167Y-107185054D01*
X159387268Y-107187565D01*
X159323894Y-107229247D01*
X159320858Y-107231181D01*
X159256349Y-107270970D01*
X159251157Y-107276162D01*
X159248524Y-107278244D01*
X159248165Y-107278504D01*
X159247852Y-107278790D01*
X159245261Y-107280964D01*
X159239126Y-107284999D01*
X159234089Y-107290338D01*
X159187071Y-107340174D01*
X159184517Y-107342802D01*
X150482724Y-116044595D01*
X150420412Y-116078621D01*
X150393629Y-116081500D01*
X140365056Y-116081500D01*
X140296935Y-116061498D01*
X140250442Y-116007842D01*
X140240338Y-115937568D01*
X140242912Y-115924569D01*
X140292770Y-115727685D01*
X140292770Y-115727684D01*
X140294051Y-115722626D01*
X140313327Y-115490000D01*
X140294051Y-115257374D01*
X140236749Y-115031093D01*
X140224147Y-115002362D01*
X140145079Y-114822107D01*
X140145077Y-114822103D01*
X140142984Y-114817331D01*
X140015314Y-114621917D01*
X140011789Y-114618088D01*
X140011786Y-114618084D01*
X139860752Y-114454019D01*
X139857220Y-114450182D01*
X139689230Y-114319429D01*
X139647761Y-114261806D01*
X139644028Y-114190908D01*
X139679217Y-114129246D01*
X139689218Y-114120580D01*
X139857220Y-113989818D01*
X139905025Y-113937889D01*
X140011786Y-113821916D01*
X140011789Y-113821912D01*
X140015314Y-113818083D01*
X140063753Y-113743941D01*
X140140132Y-113627035D01*
X140140134Y-113627031D01*
X140142984Y-113622669D01*
X140145079Y-113617893D01*
X140234656Y-113413679D01*
X140234657Y-113413677D01*
X140236749Y-113408907D01*
X140258752Y-113322021D01*
X140292770Y-113187685D01*
X140292770Y-113187684D01*
X140294051Y-113182626D01*
X140294489Y-113177348D01*
X140312897Y-112955189D01*
X140313327Y-112950000D01*
X140311887Y-112932626D01*
X140294482Y-112722570D01*
X140294481Y-112722565D01*
X140294051Y-112717374D01*
X140292770Y-112712315D01*
X140238029Y-112496146D01*
X140238027Y-112496141D01*
X140236749Y-112491093D01*
X140145183Y-112282343D01*
X140145079Y-112282107D01*
X140142984Y-112277331D01*
X140066686Y-112160547D01*
X140018165Y-112086281D01*
X140015314Y-112081917D01*
X140011789Y-112078088D01*
X140011786Y-112078084D01*
X139860752Y-111914019D01*
X139857220Y-111910182D01*
X139689230Y-111779429D01*
X139647761Y-111721806D01*
X139644028Y-111650908D01*
X139679217Y-111589246D01*
X139689218Y-111580580D01*
X139857220Y-111449818D01*
X139905025Y-111397889D01*
X140011786Y-111281916D01*
X140011789Y-111281912D01*
X140015314Y-111278083D01*
X140142984Y-111082669D01*
X140236749Y-110868907D01*
X140294051Y-110642626D01*
X140313327Y-110410000D01*
X140294051Y-110177374D01*
X140236749Y-109951093D01*
X140142984Y-109737331D01*
X140015314Y-109541917D01*
X140011789Y-109538088D01*
X140011786Y-109538084D01*
X139860752Y-109374019D01*
X139857220Y-109370182D01*
X139689230Y-109239429D01*
X139647761Y-109181806D01*
X139644028Y-109110908D01*
X139679217Y-109049246D01*
X139689218Y-109040580D01*
X139857220Y-108909818D01*
X139905025Y-108857889D01*
X140011786Y-108741916D01*
X140011789Y-108741912D01*
X140015314Y-108738083D01*
X140142984Y-108542669D01*
X140236749Y-108328907D01*
X140294051Y-108102626D01*
X140303501Y-107988589D01*
X140312897Y-107875189D01*
X140313327Y-107870000D01*
X140294051Y-107637374D01*
X140236749Y-107411093D01*
X140157415Y-107230229D01*
X140145079Y-107202107D01*
X140142984Y-107197331D01*
X140133974Y-107183539D01*
X140018165Y-107006281D01*
X140015314Y-107001917D01*
X140011789Y-106998088D01*
X140011786Y-106998084D01*
X139860752Y-106834019D01*
X139857220Y-106830182D01*
X139689230Y-106699429D01*
X139647761Y-106641806D01*
X139644028Y-106570908D01*
X139679217Y-106509246D01*
X139689218Y-106500580D01*
X139857220Y-106369818D01*
X139905025Y-106317889D01*
X140011786Y-106201916D01*
X140011789Y-106201912D01*
X140015314Y-106198083D01*
X140142984Y-106002669D01*
X140236749Y-105788907D01*
X140294051Y-105562626D01*
X140313327Y-105330000D01*
X140294051Y-105097374D01*
X140236749Y-104871093D01*
X140142984Y-104657331D01*
X140015314Y-104461917D01*
X140011789Y-104458088D01*
X140011786Y-104458084D01*
X139860752Y-104294019D01*
X139857220Y-104290182D01*
X139689230Y-104159429D01*
X139647761Y-104101806D01*
X139644028Y-104030908D01*
X139679217Y-103969246D01*
X139689218Y-103960580D01*
X139857220Y-103829818D01*
X139905025Y-103777889D01*
X140011786Y-103661916D01*
X140011789Y-103661912D01*
X140015314Y-103658083D01*
X140049614Y-103605584D01*
X140103617Y-103559496D01*
X140155096Y-103548500D01*
X146485508Y-103548500D01*
X146503771Y-103549830D01*
X146527739Y-103553341D01*
X146577596Y-103548979D01*
X146588578Y-103548500D01*
X146594130Y-103548500D01*
X146597770Y-103548075D01*
X146597780Y-103548074D01*
X146625237Y-103544865D01*
X146628879Y-103544493D01*
X146697061Y-103538527D01*
X146704376Y-103537887D01*
X146711345Y-103535578D01*
X146714651Y-103534895D01*
X146715077Y-103534826D01*
X146715501Y-103534706D01*
X146718771Y-103533931D01*
X146726063Y-103533079D01*
X146732954Y-103530571D01*
X146732958Y-103530570D01*
X146797315Y-103507146D01*
X146800775Y-103505944D01*
X146865723Y-103484422D01*
X146872688Y-103482114D01*
X146878934Y-103478261D01*
X146881980Y-103476841D01*
X146882392Y-103476670D01*
X146882753Y-103476469D01*
X146885792Y-103474943D01*
X146892682Y-103472435D01*
X146898807Y-103468406D01*
X146898816Y-103468402D01*
X146956029Y-103430772D01*
X146959121Y-103428802D01*
X147017351Y-103392886D01*
X147017357Y-103392882D01*
X147023601Y-103389030D01*
X147028794Y-103383837D01*
X147031423Y-103381758D01*
X147031786Y-103381496D01*
X147032098Y-103381210D01*
X147034689Y-103379036D01*
X147040824Y-103375001D01*
X147092880Y-103319825D01*
X147095433Y-103317198D01*
X164155393Y-86257238D01*
X164217705Y-86223212D01*
X164288520Y-86228277D01*
G37*
%TD.AperFunction*%
%TD*%
M02*
