%TF.GenerationSoftware,KiCad,Pcbnew,(6.99.0-3810-gd26b59a0bf)*%
%TF.CreationDate,2022-11-09T12:36:04+00:00*%
%TF.ProjectId,roller-shutter-controller,726f6c6c-6572-42d7-9368-75747465722d,-*%
%TF.SameCoordinates,Original*%
%TF.FileFunction,Legend,Bot*%
%TF.FilePolarity,Positive*%
%FSLAX46Y46*%
G04 Gerber Fmt 4.6, Leading zero omitted, Abs format (unit mm)*
G04 Created by KiCad (PCBNEW (6.99.0-3810-gd26b59a0bf)) date 2022-11-09 12:36:04*
%MOMM*%
%LPD*%
G01*
G04 APERTURE LIST*
G04 Aperture macros list*
%AMRoundRect*
0 Rectangle with rounded corners*
0 $1 Rounding radius*
0 $2 $3 $4 $5 $6 $7 $8 $9 X,Y pos of 4 corners*
0 Add a 4 corners polygon primitive as box body*
4,1,4,$2,$3,$4,$5,$6,$7,$8,$9,$2,$3,0*
0 Add four circle primitives for the rounded corners*
1,1,$1+$1,$2,$3*
1,1,$1+$1,$4,$5*
1,1,$1+$1,$6,$7*
1,1,$1+$1,$8,$9*
0 Add four rect primitives between the rounded corners*
20,1,$1+$1,$2,$3,$4,$5,0*
20,1,$1+$1,$4,$5,$6,$7,0*
20,1,$1+$1,$6,$7,$8,$9,0*
20,1,$1+$1,$8,$9,$2,$3,0*%
G04 Aperture macros list end*
%ADD10C,5.000000*%
%ADD11C,6.400000*%
%ADD12R,1.050000X1.500000*%
%ADD13O,1.050000X1.500000*%
%ADD14RoundRect,0.250500X0.499500X0.499500X-0.499500X0.499500X-0.499500X-0.499500X0.499500X-0.499500X0*%
%ADD15C,1.500000*%
%ADD16C,2.100000*%
%ADD17R,2.100000X2.100000*%
%ADD18R,1.500000X2.500000*%
%ADD19O,1.500000X2.500000*%
%ADD20C,1.800000*%
G04 APERTURE END LIST*
%LPC*%
D10*
X106870000Y-55047200D02*
X194869700Y-55047200D01*
X115986000Y-142882000D02*
G75*
G03*
X107249040Y-133710464I-13554196J-4164700D01*
G01*
X119532000Y-147047200D02*
X182207600Y-147047200D01*
X115986000Y-142882000D02*
X116684000Y-144989600D01*
X182207600Y-147047199D02*
G75*
G03*
X185055724Y-144989635I0J2999999D01*
G01*
X198869700Y-59047200D02*
G75*
G03*
X194869700Y-55047200I-4000000J0D01*
G01*
X107249000Y-133710500D02*
X104780000Y-132747900D01*
X196959454Y-132747874D02*
G75*
G03*
X198869700Y-129952800I-1089754J2795074D01*
G01*
X102870000Y-59047200D02*
X102870000Y-129952800D01*
X106870000Y-55047200D02*
G75*
G03*
X102870000Y-59047200I24J-4000024D01*
G01*
X194490500Y-133710500D02*
X196959500Y-132747900D01*
X194490560Y-133710465D02*
G75*
G03*
X185753146Y-142881966I4817070J-13336765D01*
G01*
X116683881Y-144989633D02*
G75*
G03*
X119532000Y-147047200I2848169J942493D01*
G01*
X102870000Y-129952800D02*
G75*
G03*
X104780000Y-132747899I2999900J-190D01*
G01*
X198869700Y-59047200D02*
X198869700Y-129952800D01*
X185753200Y-142882000D02*
X185055800Y-144989600D01*
D11*
%TO.C,H1*%
X112061282Y-75051908D03*
%TD*%
%TO.C,H3*%
X189754782Y-75051908D03*
%TD*%
%TO.C,H2*%
X150907682Y-139123978D03*
%TD*%
D12*
%TO.C,Q1*%
X150308987Y-85089999D03*
D13*
X151578987Y-85089999D03*
X152848987Y-85089999D03*
%TD*%
D14*
%TO.C,K1*%
X132296488Y-85151478D03*
D15*
X132296488Y-80071478D03*
X132296488Y-77531478D03*
X132296488Y-74991478D03*
X127216488Y-74991478D03*
X127216488Y-77531478D03*
X127216488Y-80071478D03*
X127216488Y-85151478D03*
%TD*%
D12*
%TO.C,Q3*%
X121098987Y-91763977D03*
D13*
X119828987Y-91763977D03*
X118558987Y-91763977D03*
%TD*%
D16*
%TO.C,J1*%
X112681488Y-63171012D03*
X116181488Y-63171012D03*
X119681488Y-63171012D03*
X123181488Y-63171012D03*
X126681488Y-63171012D03*
D17*
X130181487Y-63171011D03*
%TD*%
D18*
%TO.C,U2*%
X181328987Y-91271011D03*
D19*
X178788987Y-91271011D03*
X176248987Y-91271011D03*
%TD*%
D14*
%TO.C,K2*%
X122296488Y-85151478D03*
D15*
X122296488Y-80071478D03*
X122296488Y-77531478D03*
X122296488Y-74991478D03*
X117216488Y-74991478D03*
X117216488Y-77531478D03*
X117216488Y-80071478D03*
X117216488Y-85151478D03*
%TD*%
D17*
%TO.C,J3*%
X188681487Y-63171011D03*
D16*
X185181488Y-63171012D03*
X181681488Y-63171012D03*
X178181488Y-63171012D03*
%TD*%
D12*
%TO.C,Q4*%
X139445999Y-84941999D03*
D13*
X140715999Y-84941999D03*
X141985999Y-84941999D03*
%TD*%
D12*
%TO.C,Q2*%
X131098987Y-91763977D03*
D13*
X129828987Y-91763977D03*
X128558987Y-91763977D03*
%TD*%
D17*
%TO.C,J2*%
X170199581Y-63171011D03*
D16*
X166699582Y-63171012D03*
X163199582Y-63171012D03*
X159699582Y-63171012D03*
X156199582Y-63171012D03*
X152699582Y-63171012D03*
X149199582Y-63171012D03*
X145699582Y-63171012D03*
X142199582Y-63171012D03*
X138699582Y-63171012D03*
%TD*%
D20*
%TO.C,U1*%
X138900000Y-97710000D03*
X138900000Y-100250000D03*
X138900000Y-102790000D03*
X138900000Y-105330000D03*
X138900000Y-107870000D03*
X138900000Y-110410000D03*
X138900000Y-112950000D03*
X138900000Y-115490000D03*
X161760000Y-115490000D03*
X161760000Y-112950000D03*
X161760000Y-110410000D03*
X161760000Y-107870000D03*
X161760000Y-105330000D03*
X161760000Y-102790000D03*
X161760000Y-100250000D03*
X161760000Y-97710000D03*
%TD*%
M02*
