M48
; DRILL file {KiCad (6.99.0-3810-gd26b59a0bf)} date Wed Nov  9 12:37:07 2022
; FORMAT={-:-/ absolute / metric / decimal}
; #@! TF.CreationDate,2022-11-09T12:37:07+00:00
; #@! TF.GenerationSoftware,Kicad,Pcbnew,(6.99.0-3810-gd26b59a0bf)
; #@! TF.FileFunction,Plated,1,2,PTH
FMAT,2
METRIC
; #@! TA.AperFunction,Plated,PTH,ViaDrill
T1C0.300
; #@! TA.AperFunction,Plated,PTH,ViaDrill
T2C0.400
; #@! TA.AperFunction,Plated,PTH,ComponentDrill
T3C0.750
; #@! TA.AperFunction,Plated,PTH,ComponentDrill
T4C0.800
; #@! TA.AperFunction,Plated,PTH,ComponentDrill
T5C1.000
; #@! TA.AperFunction,Plated,PTH,ComponentDrill
T6C1.016
; #@! TA.AperFunction,Plated,PTH,ComponentDrill
T7C1.400
; #@! TA.AperFunction,Plated,PTH,ComponentDrill
T8C3.200
%
G90
G05
T1
X164.329Y-84.021
X164.329Y-85.271
T2
X104.0Y-60.0
X104.0Y-62.5
X104.0Y-65.0
X104.0Y-67.5
X104.0Y-70.0
X104.0Y-72.5
X104.0Y-75.0
X104.0Y-77.5
X104.0Y-80.0
X104.0Y-82.5
X104.0Y-85.0
X104.0Y-87.5
X104.0Y-90.0
X104.0Y-92.5
X104.0Y-95.0
X104.0Y-97.5
X104.0Y-100.0
X104.0Y-102.5
X104.0Y-105.0
X104.0Y-107.5
X104.0Y-110.0
X104.0Y-112.5
X104.0Y-115.0
X104.0Y-117.5
X104.0Y-120.0
X104.0Y-122.5
X104.0Y-125.0
X104.0Y-127.5
X104.0Y-130.0
X104.5Y-58.0
X105.0Y-131.5
X106.0Y-56.5
X107.0Y-132.5
X108.0Y-56.0
X108.0Y-60.0
X108.0Y-65.0
X108.0Y-70.0
X108.0Y-75.0
X108.0Y-80.0
X108.0Y-85.0
X108.0Y-90.0
X108.0Y-95.0
X108.0Y-100.0
X108.0Y-105.0
X108.0Y-110.0
X108.0Y-115.0
X108.0Y-120.0
X108.0Y-125.0
X109.5Y-133.5
X110.5Y-56.0
X112.0Y-135.0
X113.0Y-56.0
X113.0Y-60.0
X113.0Y-65.0
X113.0Y-70.0
X113.0Y-80.0
X113.0Y-85.0
X113.0Y-90.0
X113.0Y-95.0
X113.0Y-100.0
X113.0Y-105.0
X113.0Y-110.0
X113.0Y-115.0
X113.0Y-120.0
X113.0Y-125.0
X113.0Y-130.0
X114.5Y-137.5
X115.5Y-56.0
X116.0Y-140.0
X117.0Y-142.5
X118.0Y-56.0
X118.0Y-67.0
X118.0Y-100.0
X118.0Y-105.0
X118.0Y-110.0
X118.0Y-115.0
X118.0Y-120.0
X118.0Y-125.0
X118.0Y-130.0
X118.0Y-135.0
X118.0Y-145.0
X120.5Y-56.0
X120.5Y-146.0
X123.0Y-56.0
X123.0Y-70.0
X123.0Y-90.0
X123.0Y-95.0
X123.0Y-100.0
X123.0Y-105.0
X123.0Y-110.0
X123.0Y-115.0
X123.0Y-120.0
X123.0Y-125.0
X123.0Y-130.0
X123.0Y-135.0
X123.0Y-140.0
X123.0Y-146.0
X125.0Y-79.0
X125.5Y-56.0
X125.5Y-146.0
X128.0Y-56.0
X128.0Y-67.0
X128.0Y-70.0
X128.0Y-95.0
X128.0Y-100.0
X128.0Y-115.0
X128.0Y-120.0
X128.0Y-125.0
X128.0Y-130.0
X128.0Y-135.0
X128.0Y-140.0
X128.0Y-146.0
X130.5Y-56.0
X130.5Y-146.0
X133.0Y-56.0
X133.0Y-65.0
X133.0Y-70.0
X133.0Y-100.0
X133.0Y-120.0
X133.0Y-125.0
X133.0Y-130.0
X133.0Y-135.0
X133.0Y-140.0
X133.0Y-146.0
X135.5Y-56.0
X135.5Y-146.0
X138.0Y-56.0
X138.0Y-65.0
X138.0Y-70.0
X138.0Y-75.0
X138.0Y-80.0
X138.0Y-90.0
X138.0Y-95.0
X138.0Y-120.0
X138.0Y-125.0
X138.0Y-130.0
X138.0Y-135.0
X138.0Y-140.0
X138.0Y-146.0
X140.5Y-56.0
X140.5Y-146.0
X143.0Y-56.0
X143.0Y-65.0
X143.0Y-70.0
X143.0Y-75.0
X143.0Y-80.0
X143.0Y-90.0
X143.0Y-95.0
X143.0Y-105.0
X143.0Y-115.0
X143.0Y-120.0
X143.0Y-125.0
X143.0Y-130.0
X143.0Y-135.0
X143.0Y-140.0
X143.0Y-146.0
X145.5Y-56.0
X145.5Y-146.0
X148.0Y-56.0
X148.0Y-65.0
X148.0Y-70.0
X148.0Y-75.0
X148.0Y-80.0
X148.0Y-85.0
X148.0Y-90.0
X148.0Y-95.0
X148.0Y-110.0
X148.0Y-115.0
X148.0Y-120.0
X148.0Y-125.0
X148.0Y-130.0
X148.0Y-135.0
X148.0Y-146.0
X150.5Y-56.0
X150.5Y-146.0
X153.0Y-56.0
X153.0Y-90.0
X153.0Y-100.0
X153.0Y-105.0
X153.0Y-110.0
X153.0Y-120.0
X153.0Y-125.0
X153.0Y-130.0
X153.0Y-135.0
X153.0Y-146.0
X155.5Y-56.0
X155.5Y-146.0
X158.0Y-56.0
X158.0Y-65.0
X158.0Y-75.0
X158.0Y-80.0
X158.0Y-85.0
X158.0Y-95.0
X158.0Y-100.0
X158.0Y-105.0
X158.0Y-115.0
X158.0Y-120.0
X158.0Y-125.0
X158.0Y-130.0
X158.0Y-135.0
X158.0Y-140.0
X158.0Y-146.0
X160.5Y-56.0
X160.5Y-146.0
X163.0Y-56.0
X163.0Y-90.0
X163.0Y-95.0
X163.0Y-120.0
X163.0Y-125.0
X163.0Y-130.0
X163.0Y-135.0
X163.0Y-140.0
X163.0Y-146.0
X165.0Y-67.0
X165.0Y-70.0
X165.0Y-75.0
X165.5Y-56.0
X165.5Y-146.0
X168.0Y-56.0
X168.0Y-65.0
X168.0Y-70.0
X168.0Y-75.0
X168.0Y-80.0
X168.0Y-90.0
X168.0Y-95.0
X168.0Y-100.0
X168.0Y-105.0
X168.0Y-115.0
X168.0Y-120.0
X168.0Y-125.0
X168.0Y-130.0
X168.0Y-135.0
X168.0Y-140.0
X168.0Y-146.0
X170.5Y-56.0
X170.5Y-146.0
X173.0Y-56.0
X173.0Y-65.0
X173.0Y-70.0
X173.0Y-75.0
X173.0Y-80.0
X173.0Y-85.0
X173.0Y-100.0
X173.0Y-110.0
X173.0Y-115.0
X173.0Y-120.0
X173.0Y-125.0
X173.0Y-130.0
X173.0Y-135.0
X173.0Y-140.0
X173.0Y-146.0
X175.5Y-56.0
X175.5Y-146.0
X178.0Y-56.0
X178.0Y-65.0
X178.0Y-70.0
X178.0Y-75.0
X178.0Y-80.0
X178.0Y-100.0
X178.0Y-105.0
X178.0Y-110.0
X178.0Y-115.0
X178.0Y-120.0
X178.0Y-125.0
X178.0Y-130.0
X178.0Y-135.0
X178.0Y-140.0
X178.0Y-146.0
X180.5Y-56.0
X180.5Y-146.0
X183.0Y-56.0
X183.0Y-65.0
X183.0Y-70.0
X183.0Y-80.0
X183.0Y-100.0
X183.0Y-105.0
X183.0Y-110.0
X183.0Y-115.0
X183.0Y-120.0
X183.0Y-125.0
X183.0Y-130.0
X183.0Y-135.0
X183.0Y-145.5
X184.5Y-143.0
X185.5Y-56.0
X185.5Y-140.5
X187.0Y-138.0
X188.0Y-56.0
X188.0Y-60.0
X188.0Y-80.0
X188.0Y-85.0
X188.0Y-90.0
X188.0Y-95.0
X188.0Y-100.0
X188.0Y-105.0
X188.0Y-110.0
X188.0Y-115.0
X188.0Y-120.0
X188.0Y-125.0
X188.0Y-130.0
X189.5Y-135.5
X190.5Y-56.0
X192.0Y-133.5
X193.0Y-56.0
X193.0Y-60.0
X193.0Y-65.0
X193.0Y-70.0
X193.0Y-80.0
X193.0Y-85.0
X193.0Y-90.0
X193.0Y-95.0
X193.0Y-100.0
X193.0Y-105.0
X193.0Y-110.0
X193.0Y-115.0
X193.0Y-120.0
X193.0Y-125.0
X194.5Y-132.5
X195.5Y-56.5
X196.5Y-131.5
X197.5Y-58.0
X198.0Y-60.0
X198.0Y-62.5
X198.0Y-65.0
X198.0Y-67.5
X198.0Y-70.0
X198.0Y-72.5
X198.0Y-75.0
X198.0Y-77.5
X198.0Y-80.0
X198.0Y-82.5
X198.0Y-85.0
X198.0Y-87.5
X198.0Y-90.0
X198.0Y-92.5
X198.0Y-95.0
X198.0Y-97.5
X198.0Y-100.0
X198.0Y-102.5
X198.0Y-105.0
X198.0Y-107.5
X198.0Y-110.0
X198.0Y-112.5
X198.0Y-115.0
X198.0Y-117.5
X198.0Y-120.0
X198.0Y-122.5
X198.0Y-125.0
X198.0Y-127.5
X198.0Y-130.0
T3
X118.559Y-91.764
X119.829Y-91.764
X121.099Y-91.764
X128.559Y-91.764
X129.829Y-91.764
X131.099Y-91.764
X139.446Y-84.942
X140.716Y-84.942
X141.986Y-84.942
X150.309Y-85.09
X151.579Y-85.09
X152.849Y-85.09
T4
X117.216Y-74.991
X117.216Y-77.531
X117.216Y-80.071
X117.216Y-85.151
X122.296Y-74.991
X122.296Y-77.531
X122.296Y-80.071
X122.296Y-85.151
X127.216Y-74.991
X127.216Y-77.531
X127.216Y-80.071
X127.216Y-85.151
X132.296Y-74.991
X132.296Y-77.531
X132.296Y-80.071
X132.296Y-85.151
T5
X176.249Y-91.271
X178.789Y-91.271
X181.329Y-91.271
T6
X138.9Y-97.71
X138.9Y-100.25
X138.9Y-102.79
X138.9Y-105.33
X138.9Y-107.87
X138.9Y-110.41
X138.9Y-112.95
X138.9Y-115.49
X161.76Y-97.71
X161.76Y-100.25
X161.76Y-102.79
X161.76Y-105.33
X161.76Y-107.87
X161.76Y-110.41
X161.76Y-112.95
X161.76Y-115.49
T7
X112.681Y-63.171
X116.181Y-63.171
X119.681Y-63.171
X123.181Y-63.171
X126.681Y-63.171
X130.181Y-63.171
X138.7Y-63.171
X142.2Y-63.171
X145.7Y-63.171
X149.2Y-63.171
X152.7Y-63.171
X156.2Y-63.171
X159.7Y-63.171
X163.2Y-63.171
X166.7Y-63.171
X170.2Y-63.171
X178.181Y-63.171
X181.681Y-63.171
X185.181Y-63.171
X188.681Y-63.171
T8
X112.061Y-75.052
X150.908Y-139.124
X189.755Y-75.052
T0
M30
