%TF.GenerationSoftware,KiCad,Pcbnew,(6.99.0-3810-gd26b59a0bf)*%
%TF.CreationDate,2022-11-09T12:37:44+00:00*%
%TF.ProjectId,roller-shutter-controller,726f6c6c-6572-42d7-9368-75747465722d,-*%
%TF.SameCoordinates,Original*%
%TF.FileFunction,Drillmap*%
%TF.FilePolarity,Positive*%
%FSLAX45Y45*%
G04 Gerber Fmt 4.5, Leading zero omitted, Abs format (unit mm)*
G04 Created by KiCad (PCBNEW (6.99.0-3810-gd26b59a0bf)) date 2022-11-09 12:37:44*
%MOMM*%
%LPD*%
G01*
G04 APERTURE LIST*
%ADD10C,0.200000*%
%ADD11C,0.030000*%
%ADD12C,0.040000*%
%ADD13C,0.075000*%
%ADD14C,0.080000*%
%ADD15C,0.100000*%
%ADD16C,0.101600*%
%ADD17C,0.140000*%
%ADD18C,0.320000*%
G04 APERTURE END LIST*
D10*
X19890792Y-5905188D02*
G75*
G03*
X19490788Y-5505188I-400002J-2D01*
G01*
X10728718Y-13371518D02*
X10481818Y-13275258D01*
X18224578Y-14705187D02*
G75*
G03*
X18509391Y-14499431I2J299998D01*
G01*
X19452874Y-13371515D02*
G75*
G03*
X18579133Y-14288664I481706J-1333675D01*
G01*
X11672209Y-14499430D02*
G75*
G03*
X11957018Y-14705188I284811J94240D01*
G01*
X18579138Y-14288668D02*
X18509398Y-14499428D01*
X19452868Y-13371518D02*
X19699768Y-13275258D01*
X11957018Y-14705188D02*
X18224578Y-14705188D01*
X10690818Y-5505188D02*
G75*
G03*
X10290818Y-5905188I2J-400002D01*
G01*
X19699764Y-13275256D02*
G75*
G03*
X19890788Y-12995748I-108974J279506D01*
G01*
X11602418Y-14288668D02*
X11672218Y-14499428D01*
X10290818Y-12995748D02*
G75*
G03*
X10481818Y-13275258I299990J-19D01*
G01*
X11602418Y-14288668D02*
G75*
G03*
X10728722Y-13371514I-1355420J-416470D01*
G01*
X10690818Y-5505188D02*
X19490788Y-5505188D01*
X19890788Y-5905188D02*
X19890788Y-12995748D01*
X10290818Y-5905188D02*
X10290818Y-12995748D01*
D11*
X16417899Y-8387101D02*
X16447899Y-8417101D01*
X16447899Y-8387101D02*
X16417899Y-8417101D01*
X16417899Y-8512101D02*
X16447899Y-8542101D01*
X16447899Y-8512101D02*
X16417899Y-8542101D01*
D12*
X10420000Y-6000000D02*
G75*
G03*
X10420000Y-6000000I-20000J0D01*
G01*
X10420000Y-6250000D02*
G75*
G03*
X10420000Y-6250000I-20000J0D01*
G01*
X10420000Y-6500000D02*
G75*
G03*
X10420000Y-6500000I-20000J0D01*
G01*
X10420000Y-6750000D02*
G75*
G03*
X10420000Y-6750000I-20000J0D01*
G01*
X10420000Y-7000000D02*
G75*
G03*
X10420000Y-7000000I-20000J0D01*
G01*
X10420000Y-7250000D02*
G75*
G03*
X10420000Y-7250000I-20000J0D01*
G01*
X10420000Y-7500000D02*
G75*
G03*
X10420000Y-7500000I-20000J0D01*
G01*
X10420000Y-7750000D02*
G75*
G03*
X10420000Y-7750000I-20000J0D01*
G01*
X10420000Y-8000000D02*
G75*
G03*
X10420000Y-8000000I-20000J0D01*
G01*
X10420000Y-8250000D02*
G75*
G03*
X10420000Y-8250000I-20000J0D01*
G01*
X10420000Y-8500000D02*
G75*
G03*
X10420000Y-8500000I-20000J0D01*
G01*
X10420000Y-8750000D02*
G75*
G03*
X10420000Y-8750000I-20000J0D01*
G01*
X10420000Y-9000000D02*
G75*
G03*
X10420000Y-9000000I-20000J0D01*
G01*
X10420000Y-9250000D02*
G75*
G03*
X10420000Y-9250000I-20000J0D01*
G01*
X10420000Y-9500000D02*
G75*
G03*
X10420000Y-9500000I-20000J0D01*
G01*
X10420000Y-9750000D02*
G75*
G03*
X10420000Y-9750000I-20000J0D01*
G01*
X10420000Y-10000000D02*
G75*
G03*
X10420000Y-10000000I-20000J0D01*
G01*
X10420000Y-10250000D02*
G75*
G03*
X10420000Y-10250000I-20000J0D01*
G01*
X10420000Y-10500000D02*
G75*
G03*
X10420000Y-10500000I-20000J0D01*
G01*
X10420000Y-10750000D02*
G75*
G03*
X10420000Y-10750000I-20000J0D01*
G01*
X10420000Y-11000000D02*
G75*
G03*
X10420000Y-11000000I-20000J0D01*
G01*
X10420000Y-11250000D02*
G75*
G03*
X10420000Y-11250000I-20000J0D01*
G01*
X10420000Y-11500000D02*
G75*
G03*
X10420000Y-11500000I-20000J0D01*
G01*
X10420000Y-11750000D02*
G75*
G03*
X10420000Y-11750000I-20000J0D01*
G01*
X10420000Y-12000000D02*
G75*
G03*
X10420000Y-12000000I-20000J0D01*
G01*
X10420000Y-12250000D02*
G75*
G03*
X10420000Y-12250000I-20000J0D01*
G01*
X10420000Y-12500000D02*
G75*
G03*
X10420000Y-12500000I-20000J0D01*
G01*
X10420000Y-12750000D02*
G75*
G03*
X10420000Y-12750000I-20000J0D01*
G01*
X10420000Y-13000000D02*
G75*
G03*
X10420000Y-13000000I-20000J0D01*
G01*
X10470000Y-5800000D02*
G75*
G03*
X10470000Y-5800000I-20000J0D01*
G01*
X10520000Y-13150000D02*
G75*
G03*
X10520000Y-13150000I-20000J0D01*
G01*
X10620000Y-5650000D02*
G75*
G03*
X10620000Y-5650000I-20000J0D01*
G01*
X10720000Y-13250000D02*
G75*
G03*
X10720000Y-13250000I-20000J0D01*
G01*
X10820000Y-5600000D02*
G75*
G03*
X10820000Y-5600000I-20000J0D01*
G01*
X10820000Y-6000000D02*
G75*
G03*
X10820000Y-6000000I-20000J0D01*
G01*
X10820000Y-6500000D02*
G75*
G03*
X10820000Y-6500000I-20000J0D01*
G01*
X10820000Y-7000000D02*
G75*
G03*
X10820000Y-7000000I-20000J0D01*
G01*
X10820000Y-7500000D02*
G75*
G03*
X10820000Y-7500000I-20000J0D01*
G01*
X10820000Y-8000000D02*
G75*
G03*
X10820000Y-8000000I-20000J0D01*
G01*
X10820000Y-8500000D02*
G75*
G03*
X10820000Y-8500000I-20000J0D01*
G01*
X10820000Y-9000000D02*
G75*
G03*
X10820000Y-9000000I-20000J0D01*
G01*
X10820000Y-9500000D02*
G75*
G03*
X10820000Y-9500000I-20000J0D01*
G01*
X10820000Y-10000000D02*
G75*
G03*
X10820000Y-10000000I-20000J0D01*
G01*
X10820000Y-10500000D02*
G75*
G03*
X10820000Y-10500000I-20000J0D01*
G01*
X10820000Y-11000000D02*
G75*
G03*
X10820000Y-11000000I-20000J0D01*
G01*
X10820000Y-11500000D02*
G75*
G03*
X10820000Y-11500000I-20000J0D01*
G01*
X10820000Y-12000000D02*
G75*
G03*
X10820000Y-12000000I-20000J0D01*
G01*
X10820000Y-12500000D02*
G75*
G03*
X10820000Y-12500000I-20000J0D01*
G01*
X10970000Y-13350000D02*
G75*
G03*
X10970000Y-13350000I-20000J0D01*
G01*
X11070000Y-5600000D02*
G75*
G03*
X11070000Y-5600000I-20000J0D01*
G01*
X11220000Y-13500000D02*
G75*
G03*
X11220000Y-13500000I-20000J0D01*
G01*
X11320000Y-5600000D02*
G75*
G03*
X11320000Y-5600000I-20000J0D01*
G01*
X11320000Y-6000000D02*
G75*
G03*
X11320000Y-6000000I-20000J0D01*
G01*
X11320000Y-6500000D02*
G75*
G03*
X11320000Y-6500000I-20000J0D01*
G01*
X11320000Y-7000000D02*
G75*
G03*
X11320000Y-7000000I-20000J0D01*
G01*
X11320000Y-8000000D02*
G75*
G03*
X11320000Y-8000000I-20000J0D01*
G01*
X11320000Y-8500000D02*
G75*
G03*
X11320000Y-8500000I-20000J0D01*
G01*
X11320000Y-9000000D02*
G75*
G03*
X11320000Y-9000000I-20000J0D01*
G01*
X11320000Y-9500000D02*
G75*
G03*
X11320000Y-9500000I-20000J0D01*
G01*
X11320000Y-10000000D02*
G75*
G03*
X11320000Y-10000000I-20000J0D01*
G01*
X11320000Y-10500000D02*
G75*
G03*
X11320000Y-10500000I-20000J0D01*
G01*
X11320000Y-11000000D02*
G75*
G03*
X11320000Y-11000000I-20000J0D01*
G01*
X11320000Y-11500000D02*
G75*
G03*
X11320000Y-11500000I-20000J0D01*
G01*
X11320000Y-12000000D02*
G75*
G03*
X11320000Y-12000000I-20000J0D01*
G01*
X11320000Y-12500000D02*
G75*
G03*
X11320000Y-12500000I-20000J0D01*
G01*
X11320000Y-13000000D02*
G75*
G03*
X11320000Y-13000000I-20000J0D01*
G01*
X11470000Y-13750000D02*
G75*
G03*
X11470000Y-13750000I-20000J0D01*
G01*
X11570000Y-5600000D02*
G75*
G03*
X11570000Y-5600000I-20000J0D01*
G01*
X11620000Y-14000000D02*
G75*
G03*
X11620000Y-14000000I-20000J0D01*
G01*
X11720000Y-14250000D02*
G75*
G03*
X11720000Y-14250000I-20000J0D01*
G01*
X11820000Y-5600000D02*
G75*
G03*
X11820000Y-5600000I-20000J0D01*
G01*
X11820000Y-6700000D02*
G75*
G03*
X11820000Y-6700000I-20000J0D01*
G01*
X11820000Y-10000000D02*
G75*
G03*
X11820000Y-10000000I-20000J0D01*
G01*
X11820000Y-10500000D02*
G75*
G03*
X11820000Y-10500000I-20000J0D01*
G01*
X11820000Y-11000000D02*
G75*
G03*
X11820000Y-11000000I-20000J0D01*
G01*
X11820000Y-11500000D02*
G75*
G03*
X11820000Y-11500000I-20000J0D01*
G01*
X11820000Y-12000000D02*
G75*
G03*
X11820000Y-12000000I-20000J0D01*
G01*
X11820000Y-12500000D02*
G75*
G03*
X11820000Y-12500000I-20000J0D01*
G01*
X11820000Y-13000000D02*
G75*
G03*
X11820000Y-13000000I-20000J0D01*
G01*
X11820000Y-13500000D02*
G75*
G03*
X11820000Y-13500000I-20000J0D01*
G01*
X11820000Y-14500000D02*
G75*
G03*
X11820000Y-14500000I-20000J0D01*
G01*
X12070000Y-5600000D02*
G75*
G03*
X12070000Y-5600000I-20000J0D01*
G01*
X12070000Y-14600000D02*
G75*
G03*
X12070000Y-14600000I-20000J0D01*
G01*
X12320000Y-5600000D02*
G75*
G03*
X12320000Y-5600000I-20000J0D01*
G01*
X12320000Y-7000000D02*
G75*
G03*
X12320000Y-7000000I-20000J0D01*
G01*
X12320000Y-9000000D02*
G75*
G03*
X12320000Y-9000000I-20000J0D01*
G01*
X12320000Y-9500000D02*
G75*
G03*
X12320000Y-9500000I-20000J0D01*
G01*
X12320000Y-10000000D02*
G75*
G03*
X12320000Y-10000000I-20000J0D01*
G01*
X12320000Y-10500000D02*
G75*
G03*
X12320000Y-10500000I-20000J0D01*
G01*
X12320000Y-11000000D02*
G75*
G03*
X12320000Y-11000000I-20000J0D01*
G01*
X12320000Y-11500000D02*
G75*
G03*
X12320000Y-11500000I-20000J0D01*
G01*
X12320000Y-12000000D02*
G75*
G03*
X12320000Y-12000000I-20000J0D01*
G01*
X12320000Y-12500000D02*
G75*
G03*
X12320000Y-12500000I-20000J0D01*
G01*
X12320000Y-13000000D02*
G75*
G03*
X12320000Y-13000000I-20000J0D01*
G01*
X12320000Y-13500000D02*
G75*
G03*
X12320000Y-13500000I-20000J0D01*
G01*
X12320000Y-14000000D02*
G75*
G03*
X12320000Y-14000000I-20000J0D01*
G01*
X12320000Y-14600000D02*
G75*
G03*
X12320000Y-14600000I-20000J0D01*
G01*
X12520000Y-7900000D02*
G75*
G03*
X12520000Y-7900000I-20000J0D01*
G01*
X12570000Y-5600000D02*
G75*
G03*
X12570000Y-5600000I-20000J0D01*
G01*
X12570000Y-14600000D02*
G75*
G03*
X12570000Y-14600000I-20000J0D01*
G01*
X12820000Y-5600000D02*
G75*
G03*
X12820000Y-5600000I-20000J0D01*
G01*
X12820000Y-6700000D02*
G75*
G03*
X12820000Y-6700000I-20000J0D01*
G01*
X12820000Y-7000000D02*
G75*
G03*
X12820000Y-7000000I-20000J0D01*
G01*
X12820000Y-9500000D02*
G75*
G03*
X12820000Y-9500000I-20000J0D01*
G01*
X12820000Y-10000000D02*
G75*
G03*
X12820000Y-10000000I-20000J0D01*
G01*
X12820000Y-11500000D02*
G75*
G03*
X12820000Y-11500000I-20000J0D01*
G01*
X12820000Y-12000000D02*
G75*
G03*
X12820000Y-12000000I-20000J0D01*
G01*
X12820000Y-12500000D02*
G75*
G03*
X12820000Y-12500000I-20000J0D01*
G01*
X12820000Y-13000000D02*
G75*
G03*
X12820000Y-13000000I-20000J0D01*
G01*
X12820000Y-13500000D02*
G75*
G03*
X12820000Y-13500000I-20000J0D01*
G01*
X12820000Y-14000000D02*
G75*
G03*
X12820000Y-14000000I-20000J0D01*
G01*
X12820000Y-14600000D02*
G75*
G03*
X12820000Y-14600000I-20000J0D01*
G01*
X13070000Y-5600000D02*
G75*
G03*
X13070000Y-5600000I-20000J0D01*
G01*
X13070000Y-14600000D02*
G75*
G03*
X13070000Y-14600000I-20000J0D01*
G01*
X13320000Y-5600000D02*
G75*
G03*
X13320000Y-5600000I-20000J0D01*
G01*
X13320000Y-6500000D02*
G75*
G03*
X13320000Y-6500000I-20000J0D01*
G01*
X13320000Y-7000000D02*
G75*
G03*
X13320000Y-7000000I-20000J0D01*
G01*
X13320000Y-10000000D02*
G75*
G03*
X13320000Y-10000000I-20000J0D01*
G01*
X13320000Y-12000000D02*
G75*
G03*
X13320000Y-12000000I-20000J0D01*
G01*
X13320000Y-12500000D02*
G75*
G03*
X13320000Y-12500000I-20000J0D01*
G01*
X13320000Y-13000000D02*
G75*
G03*
X13320000Y-13000000I-20000J0D01*
G01*
X13320000Y-13500000D02*
G75*
G03*
X13320000Y-13500000I-20000J0D01*
G01*
X13320000Y-14000000D02*
G75*
G03*
X13320000Y-14000000I-20000J0D01*
G01*
X13320000Y-14600000D02*
G75*
G03*
X13320000Y-14600000I-20000J0D01*
G01*
X13570000Y-5600000D02*
G75*
G03*
X13570000Y-5600000I-20000J0D01*
G01*
X13570000Y-14600000D02*
G75*
G03*
X13570000Y-14600000I-20000J0D01*
G01*
X13820000Y-5600000D02*
G75*
G03*
X13820000Y-5600000I-20000J0D01*
G01*
X13820000Y-6500000D02*
G75*
G03*
X13820000Y-6500000I-20000J0D01*
G01*
X13820000Y-7000000D02*
G75*
G03*
X13820000Y-7000000I-20000J0D01*
G01*
X13820000Y-7500000D02*
G75*
G03*
X13820000Y-7500000I-20000J0D01*
G01*
X13820000Y-8000000D02*
G75*
G03*
X13820000Y-8000000I-20000J0D01*
G01*
X13820000Y-9000000D02*
G75*
G03*
X13820000Y-9000000I-20000J0D01*
G01*
X13820000Y-9500000D02*
G75*
G03*
X13820000Y-9500000I-20000J0D01*
G01*
X13820000Y-12000000D02*
G75*
G03*
X13820000Y-12000000I-20000J0D01*
G01*
X13820000Y-12500000D02*
G75*
G03*
X13820000Y-12500000I-20000J0D01*
G01*
X13820000Y-13000000D02*
G75*
G03*
X13820000Y-13000000I-20000J0D01*
G01*
X13820000Y-13500000D02*
G75*
G03*
X13820000Y-13500000I-20000J0D01*
G01*
X13820000Y-14000000D02*
G75*
G03*
X13820000Y-14000000I-20000J0D01*
G01*
X13820000Y-14600000D02*
G75*
G03*
X13820000Y-14600000I-20000J0D01*
G01*
X14070000Y-5600000D02*
G75*
G03*
X14070000Y-5600000I-20000J0D01*
G01*
X14070000Y-14600000D02*
G75*
G03*
X14070000Y-14600000I-20000J0D01*
G01*
X14320000Y-5600000D02*
G75*
G03*
X14320000Y-5600000I-20000J0D01*
G01*
X14320000Y-6500000D02*
G75*
G03*
X14320000Y-6500000I-20000J0D01*
G01*
X14320000Y-7000000D02*
G75*
G03*
X14320000Y-7000000I-20000J0D01*
G01*
X14320000Y-7500000D02*
G75*
G03*
X14320000Y-7500000I-20000J0D01*
G01*
X14320000Y-8000000D02*
G75*
G03*
X14320000Y-8000000I-20000J0D01*
G01*
X14320000Y-9000000D02*
G75*
G03*
X14320000Y-9000000I-20000J0D01*
G01*
X14320000Y-9500000D02*
G75*
G03*
X14320000Y-9500000I-20000J0D01*
G01*
X14320000Y-10500000D02*
G75*
G03*
X14320000Y-10500000I-20000J0D01*
G01*
X14320000Y-11500000D02*
G75*
G03*
X14320000Y-11500000I-20000J0D01*
G01*
X14320000Y-12000000D02*
G75*
G03*
X14320000Y-12000000I-20000J0D01*
G01*
X14320000Y-12500000D02*
G75*
G03*
X14320000Y-12500000I-20000J0D01*
G01*
X14320000Y-13000000D02*
G75*
G03*
X14320000Y-13000000I-20000J0D01*
G01*
X14320000Y-13500000D02*
G75*
G03*
X14320000Y-13500000I-20000J0D01*
G01*
X14320000Y-14000000D02*
G75*
G03*
X14320000Y-14000000I-20000J0D01*
G01*
X14320000Y-14600000D02*
G75*
G03*
X14320000Y-14600000I-20000J0D01*
G01*
X14570000Y-5600000D02*
G75*
G03*
X14570000Y-5600000I-20000J0D01*
G01*
X14570000Y-14600000D02*
G75*
G03*
X14570000Y-14600000I-20000J0D01*
G01*
X14820000Y-5600000D02*
G75*
G03*
X14820000Y-5600000I-20000J0D01*
G01*
X14820000Y-6500000D02*
G75*
G03*
X14820000Y-6500000I-20000J0D01*
G01*
X14820000Y-7000000D02*
G75*
G03*
X14820000Y-7000000I-20000J0D01*
G01*
X14820000Y-7500000D02*
G75*
G03*
X14820000Y-7500000I-20000J0D01*
G01*
X14820000Y-8000000D02*
G75*
G03*
X14820000Y-8000000I-20000J0D01*
G01*
X14820000Y-8500000D02*
G75*
G03*
X14820000Y-8500000I-20000J0D01*
G01*
X14820000Y-9000000D02*
G75*
G03*
X14820000Y-9000000I-20000J0D01*
G01*
X14820000Y-9500000D02*
G75*
G03*
X14820000Y-9500000I-20000J0D01*
G01*
X14820000Y-11000000D02*
G75*
G03*
X14820000Y-11000000I-20000J0D01*
G01*
X14820000Y-11500000D02*
G75*
G03*
X14820000Y-11500000I-20000J0D01*
G01*
X14820000Y-12000000D02*
G75*
G03*
X14820000Y-12000000I-20000J0D01*
G01*
X14820000Y-12500000D02*
G75*
G03*
X14820000Y-12500000I-20000J0D01*
G01*
X14820000Y-13000000D02*
G75*
G03*
X14820000Y-13000000I-20000J0D01*
G01*
X14820000Y-13500000D02*
G75*
G03*
X14820000Y-13500000I-20000J0D01*
G01*
X14820000Y-14600000D02*
G75*
G03*
X14820000Y-14600000I-20000J0D01*
G01*
X15070000Y-5600000D02*
G75*
G03*
X15070000Y-5600000I-20000J0D01*
G01*
X15070000Y-14600000D02*
G75*
G03*
X15070000Y-14600000I-20000J0D01*
G01*
X15320000Y-5600000D02*
G75*
G03*
X15320000Y-5600000I-20000J0D01*
G01*
X15320000Y-9000000D02*
G75*
G03*
X15320000Y-9000000I-20000J0D01*
G01*
X15320000Y-10000000D02*
G75*
G03*
X15320000Y-10000000I-20000J0D01*
G01*
X15320000Y-10500000D02*
G75*
G03*
X15320000Y-10500000I-20000J0D01*
G01*
X15320000Y-11000000D02*
G75*
G03*
X15320000Y-11000000I-20000J0D01*
G01*
X15320000Y-12000000D02*
G75*
G03*
X15320000Y-12000000I-20000J0D01*
G01*
X15320000Y-12500000D02*
G75*
G03*
X15320000Y-12500000I-20000J0D01*
G01*
X15320000Y-13000000D02*
G75*
G03*
X15320000Y-13000000I-20000J0D01*
G01*
X15320000Y-13500000D02*
G75*
G03*
X15320000Y-13500000I-20000J0D01*
G01*
X15320000Y-14600000D02*
G75*
G03*
X15320000Y-14600000I-20000J0D01*
G01*
X15570000Y-5600000D02*
G75*
G03*
X15570000Y-5600000I-20000J0D01*
G01*
X15570000Y-14600000D02*
G75*
G03*
X15570000Y-14600000I-20000J0D01*
G01*
X15820000Y-5600000D02*
G75*
G03*
X15820000Y-5600000I-20000J0D01*
G01*
X15820000Y-6500000D02*
G75*
G03*
X15820000Y-6500000I-20000J0D01*
G01*
X15820000Y-7500000D02*
G75*
G03*
X15820000Y-7500000I-20000J0D01*
G01*
X15820000Y-8000000D02*
G75*
G03*
X15820000Y-8000000I-20000J0D01*
G01*
X15820000Y-8500000D02*
G75*
G03*
X15820000Y-8500000I-20000J0D01*
G01*
X15820000Y-9500000D02*
G75*
G03*
X15820000Y-9500000I-20000J0D01*
G01*
X15820000Y-10000000D02*
G75*
G03*
X15820000Y-10000000I-20000J0D01*
G01*
X15820000Y-10500000D02*
G75*
G03*
X15820000Y-10500000I-20000J0D01*
G01*
X15820000Y-11500000D02*
G75*
G03*
X15820000Y-11500000I-20000J0D01*
G01*
X15820000Y-12000000D02*
G75*
G03*
X15820000Y-12000000I-20000J0D01*
G01*
X15820000Y-12500000D02*
G75*
G03*
X15820000Y-12500000I-20000J0D01*
G01*
X15820000Y-13000000D02*
G75*
G03*
X15820000Y-13000000I-20000J0D01*
G01*
X15820000Y-13500000D02*
G75*
G03*
X15820000Y-13500000I-20000J0D01*
G01*
X15820000Y-14000000D02*
G75*
G03*
X15820000Y-14000000I-20000J0D01*
G01*
X15820000Y-14600000D02*
G75*
G03*
X15820000Y-14600000I-20000J0D01*
G01*
X16070000Y-5600000D02*
G75*
G03*
X16070000Y-5600000I-20000J0D01*
G01*
X16070000Y-14600000D02*
G75*
G03*
X16070000Y-14600000I-20000J0D01*
G01*
X16320000Y-5600000D02*
G75*
G03*
X16320000Y-5600000I-20000J0D01*
G01*
X16320000Y-9000000D02*
G75*
G03*
X16320000Y-9000000I-20000J0D01*
G01*
X16320000Y-9500000D02*
G75*
G03*
X16320000Y-9500000I-20000J0D01*
G01*
X16320000Y-12000000D02*
G75*
G03*
X16320000Y-12000000I-20000J0D01*
G01*
X16320000Y-12500000D02*
G75*
G03*
X16320000Y-12500000I-20000J0D01*
G01*
X16320000Y-13000000D02*
G75*
G03*
X16320000Y-13000000I-20000J0D01*
G01*
X16320000Y-13500000D02*
G75*
G03*
X16320000Y-13500000I-20000J0D01*
G01*
X16320000Y-14000000D02*
G75*
G03*
X16320000Y-14000000I-20000J0D01*
G01*
X16320000Y-14600000D02*
G75*
G03*
X16320000Y-14600000I-20000J0D01*
G01*
X16520000Y-6700000D02*
G75*
G03*
X16520000Y-6700000I-20000J0D01*
G01*
X16520000Y-7000000D02*
G75*
G03*
X16520000Y-7000000I-20000J0D01*
G01*
X16520000Y-7500000D02*
G75*
G03*
X16520000Y-7500000I-20000J0D01*
G01*
X16570000Y-5600000D02*
G75*
G03*
X16570000Y-5600000I-20000J0D01*
G01*
X16570000Y-14600000D02*
G75*
G03*
X16570000Y-14600000I-20000J0D01*
G01*
X16820000Y-5600000D02*
G75*
G03*
X16820000Y-5600000I-20000J0D01*
G01*
X16820000Y-6500000D02*
G75*
G03*
X16820000Y-6500000I-20000J0D01*
G01*
X16820000Y-7000000D02*
G75*
G03*
X16820000Y-7000000I-20000J0D01*
G01*
X16820000Y-7500000D02*
G75*
G03*
X16820000Y-7500000I-20000J0D01*
G01*
X16820000Y-8000000D02*
G75*
G03*
X16820000Y-8000000I-20000J0D01*
G01*
X16820000Y-9000000D02*
G75*
G03*
X16820000Y-9000000I-20000J0D01*
G01*
X16820000Y-9500000D02*
G75*
G03*
X16820000Y-9500000I-20000J0D01*
G01*
X16820000Y-10000000D02*
G75*
G03*
X16820000Y-10000000I-20000J0D01*
G01*
X16820000Y-10500000D02*
G75*
G03*
X16820000Y-10500000I-20000J0D01*
G01*
X16820000Y-11500000D02*
G75*
G03*
X16820000Y-11500000I-20000J0D01*
G01*
X16820000Y-12000000D02*
G75*
G03*
X16820000Y-12000000I-20000J0D01*
G01*
X16820000Y-12500000D02*
G75*
G03*
X16820000Y-12500000I-20000J0D01*
G01*
X16820000Y-13000000D02*
G75*
G03*
X16820000Y-13000000I-20000J0D01*
G01*
X16820000Y-13500000D02*
G75*
G03*
X16820000Y-13500000I-20000J0D01*
G01*
X16820000Y-14000000D02*
G75*
G03*
X16820000Y-14000000I-20000J0D01*
G01*
X16820000Y-14600000D02*
G75*
G03*
X16820000Y-14600000I-20000J0D01*
G01*
X17070000Y-5600000D02*
G75*
G03*
X17070000Y-5600000I-20000J0D01*
G01*
X17070000Y-14600000D02*
G75*
G03*
X17070000Y-14600000I-20000J0D01*
G01*
X17320000Y-5600000D02*
G75*
G03*
X17320000Y-5600000I-20000J0D01*
G01*
X17320000Y-6500000D02*
G75*
G03*
X17320000Y-6500000I-20000J0D01*
G01*
X17320000Y-7000000D02*
G75*
G03*
X17320000Y-7000000I-20000J0D01*
G01*
X17320000Y-7500000D02*
G75*
G03*
X17320000Y-7500000I-20000J0D01*
G01*
X17320000Y-8000000D02*
G75*
G03*
X17320000Y-8000000I-20000J0D01*
G01*
X17320000Y-8500000D02*
G75*
G03*
X17320000Y-8500000I-20000J0D01*
G01*
X17320000Y-10000000D02*
G75*
G03*
X17320000Y-10000000I-20000J0D01*
G01*
X17320000Y-11000000D02*
G75*
G03*
X17320000Y-11000000I-20000J0D01*
G01*
X17320000Y-11500000D02*
G75*
G03*
X17320000Y-11500000I-20000J0D01*
G01*
X17320000Y-12000000D02*
G75*
G03*
X17320000Y-12000000I-20000J0D01*
G01*
X17320000Y-12500000D02*
G75*
G03*
X17320000Y-12500000I-20000J0D01*
G01*
X17320000Y-13000000D02*
G75*
G03*
X17320000Y-13000000I-20000J0D01*
G01*
X17320000Y-13500000D02*
G75*
G03*
X17320000Y-13500000I-20000J0D01*
G01*
X17320000Y-14000000D02*
G75*
G03*
X17320000Y-14000000I-20000J0D01*
G01*
X17320000Y-14600000D02*
G75*
G03*
X17320000Y-14600000I-20000J0D01*
G01*
X17570000Y-5600000D02*
G75*
G03*
X17570000Y-5600000I-20000J0D01*
G01*
X17570000Y-14600000D02*
G75*
G03*
X17570000Y-14600000I-20000J0D01*
G01*
X17820000Y-5600000D02*
G75*
G03*
X17820000Y-5600000I-20000J0D01*
G01*
X17820000Y-6500000D02*
G75*
G03*
X17820000Y-6500000I-20000J0D01*
G01*
X17820000Y-7000000D02*
G75*
G03*
X17820000Y-7000000I-20000J0D01*
G01*
X17820000Y-7500000D02*
G75*
G03*
X17820000Y-7500000I-20000J0D01*
G01*
X17820000Y-8000000D02*
G75*
G03*
X17820000Y-8000000I-20000J0D01*
G01*
X17820000Y-10000000D02*
G75*
G03*
X17820000Y-10000000I-20000J0D01*
G01*
X17820000Y-10500000D02*
G75*
G03*
X17820000Y-10500000I-20000J0D01*
G01*
X17820000Y-11000000D02*
G75*
G03*
X17820000Y-11000000I-20000J0D01*
G01*
X17820000Y-11500000D02*
G75*
G03*
X17820000Y-11500000I-20000J0D01*
G01*
X17820000Y-12000000D02*
G75*
G03*
X17820000Y-12000000I-20000J0D01*
G01*
X17820000Y-12500000D02*
G75*
G03*
X17820000Y-12500000I-20000J0D01*
G01*
X17820000Y-13000000D02*
G75*
G03*
X17820000Y-13000000I-20000J0D01*
G01*
X17820000Y-13500000D02*
G75*
G03*
X17820000Y-13500000I-20000J0D01*
G01*
X17820000Y-14000000D02*
G75*
G03*
X17820000Y-14000000I-20000J0D01*
G01*
X17820000Y-14600000D02*
G75*
G03*
X17820000Y-14600000I-20000J0D01*
G01*
X18070000Y-5600000D02*
G75*
G03*
X18070000Y-5600000I-20000J0D01*
G01*
X18070000Y-14600000D02*
G75*
G03*
X18070000Y-14600000I-20000J0D01*
G01*
X18320000Y-5600000D02*
G75*
G03*
X18320000Y-5600000I-20000J0D01*
G01*
X18320000Y-6500000D02*
G75*
G03*
X18320000Y-6500000I-20000J0D01*
G01*
X18320000Y-7000000D02*
G75*
G03*
X18320000Y-7000000I-20000J0D01*
G01*
X18320000Y-8000000D02*
G75*
G03*
X18320000Y-8000000I-20000J0D01*
G01*
X18320000Y-10000000D02*
G75*
G03*
X18320000Y-10000000I-20000J0D01*
G01*
X18320000Y-10500000D02*
G75*
G03*
X18320000Y-10500000I-20000J0D01*
G01*
X18320000Y-11000000D02*
G75*
G03*
X18320000Y-11000000I-20000J0D01*
G01*
X18320000Y-11500000D02*
G75*
G03*
X18320000Y-11500000I-20000J0D01*
G01*
X18320000Y-12000000D02*
G75*
G03*
X18320000Y-12000000I-20000J0D01*
G01*
X18320000Y-12500000D02*
G75*
G03*
X18320000Y-12500000I-20000J0D01*
G01*
X18320000Y-13000000D02*
G75*
G03*
X18320000Y-13000000I-20000J0D01*
G01*
X18320000Y-13500000D02*
G75*
G03*
X18320000Y-13500000I-20000J0D01*
G01*
X18320000Y-14550000D02*
G75*
G03*
X18320000Y-14550000I-20000J0D01*
G01*
X18470000Y-14300000D02*
G75*
G03*
X18470000Y-14300000I-20000J0D01*
G01*
X18570000Y-5600000D02*
G75*
G03*
X18570000Y-5600000I-20000J0D01*
G01*
X18570000Y-14050000D02*
G75*
G03*
X18570000Y-14050000I-20000J0D01*
G01*
X18720000Y-13800000D02*
G75*
G03*
X18720000Y-13800000I-20000J0D01*
G01*
X18820000Y-5600000D02*
G75*
G03*
X18820000Y-5600000I-20000J0D01*
G01*
X18820000Y-6000000D02*
G75*
G03*
X18820000Y-6000000I-20000J0D01*
G01*
X18820000Y-8000000D02*
G75*
G03*
X18820000Y-8000000I-20000J0D01*
G01*
X18820000Y-8500000D02*
G75*
G03*
X18820000Y-8500000I-20000J0D01*
G01*
X18820000Y-9000000D02*
G75*
G03*
X18820000Y-9000000I-20000J0D01*
G01*
X18820000Y-9500000D02*
G75*
G03*
X18820000Y-9500000I-20000J0D01*
G01*
X18820000Y-10000000D02*
G75*
G03*
X18820000Y-10000000I-20000J0D01*
G01*
X18820000Y-10500000D02*
G75*
G03*
X18820000Y-10500000I-20000J0D01*
G01*
X18820000Y-11000000D02*
G75*
G03*
X18820000Y-11000000I-20000J0D01*
G01*
X18820000Y-11500000D02*
G75*
G03*
X18820000Y-11500000I-20000J0D01*
G01*
X18820000Y-12000000D02*
G75*
G03*
X18820000Y-12000000I-20000J0D01*
G01*
X18820000Y-12500000D02*
G75*
G03*
X18820000Y-12500000I-20000J0D01*
G01*
X18820000Y-13000000D02*
G75*
G03*
X18820000Y-13000000I-20000J0D01*
G01*
X18970000Y-13550000D02*
G75*
G03*
X18970000Y-13550000I-20000J0D01*
G01*
X19070000Y-5600000D02*
G75*
G03*
X19070000Y-5600000I-20000J0D01*
G01*
X19220000Y-13350000D02*
G75*
G03*
X19220000Y-13350000I-20000J0D01*
G01*
X19320000Y-5600000D02*
G75*
G03*
X19320000Y-5600000I-20000J0D01*
G01*
X19320000Y-6000000D02*
G75*
G03*
X19320000Y-6000000I-20000J0D01*
G01*
X19320000Y-6500000D02*
G75*
G03*
X19320000Y-6500000I-20000J0D01*
G01*
X19320000Y-7000000D02*
G75*
G03*
X19320000Y-7000000I-20000J0D01*
G01*
X19320000Y-8000000D02*
G75*
G03*
X19320000Y-8000000I-20000J0D01*
G01*
X19320000Y-8500000D02*
G75*
G03*
X19320000Y-8500000I-20000J0D01*
G01*
X19320000Y-9000000D02*
G75*
G03*
X19320000Y-9000000I-20000J0D01*
G01*
X19320000Y-9500000D02*
G75*
G03*
X19320000Y-9500000I-20000J0D01*
G01*
X19320000Y-10000000D02*
G75*
G03*
X19320000Y-10000000I-20000J0D01*
G01*
X19320000Y-10500000D02*
G75*
G03*
X19320000Y-10500000I-20000J0D01*
G01*
X19320000Y-11000000D02*
G75*
G03*
X19320000Y-11000000I-20000J0D01*
G01*
X19320000Y-11500000D02*
G75*
G03*
X19320000Y-11500000I-20000J0D01*
G01*
X19320000Y-12000000D02*
G75*
G03*
X19320000Y-12000000I-20000J0D01*
G01*
X19320000Y-12500000D02*
G75*
G03*
X19320000Y-12500000I-20000J0D01*
G01*
X19470000Y-13250000D02*
G75*
G03*
X19470000Y-13250000I-20000J0D01*
G01*
X19570000Y-5650000D02*
G75*
G03*
X19570000Y-5650000I-20000J0D01*
G01*
X19670000Y-13150000D02*
G75*
G03*
X19670000Y-13150000I-20000J0D01*
G01*
X19770000Y-5800000D02*
G75*
G03*
X19770000Y-5800000I-20000J0D01*
G01*
X19820000Y-6000000D02*
G75*
G03*
X19820000Y-6000000I-20000J0D01*
G01*
X19820000Y-6250000D02*
G75*
G03*
X19820000Y-6250000I-20000J0D01*
G01*
X19820000Y-6500000D02*
G75*
G03*
X19820000Y-6500000I-20000J0D01*
G01*
X19820000Y-6750000D02*
G75*
G03*
X19820000Y-6750000I-20000J0D01*
G01*
X19820000Y-7000000D02*
G75*
G03*
X19820000Y-7000000I-20000J0D01*
G01*
X19820000Y-7250000D02*
G75*
G03*
X19820000Y-7250000I-20000J0D01*
G01*
X19820000Y-7500000D02*
G75*
G03*
X19820000Y-7500000I-20000J0D01*
G01*
X19820000Y-7750000D02*
G75*
G03*
X19820000Y-7750000I-20000J0D01*
G01*
X19820000Y-8000000D02*
G75*
G03*
X19820000Y-8000000I-20000J0D01*
G01*
X19820000Y-8250000D02*
G75*
G03*
X19820000Y-8250000I-20000J0D01*
G01*
X19820000Y-8500000D02*
G75*
G03*
X19820000Y-8500000I-20000J0D01*
G01*
X19820000Y-8750000D02*
G75*
G03*
X19820000Y-8750000I-20000J0D01*
G01*
X19820000Y-9000000D02*
G75*
G03*
X19820000Y-9000000I-20000J0D01*
G01*
X19820000Y-9250000D02*
G75*
G03*
X19820000Y-9250000I-20000J0D01*
G01*
X19820000Y-9500000D02*
G75*
G03*
X19820000Y-9500000I-20000J0D01*
G01*
X19820000Y-9750000D02*
G75*
G03*
X19820000Y-9750000I-20000J0D01*
G01*
X19820000Y-10000000D02*
G75*
G03*
X19820000Y-10000000I-20000J0D01*
G01*
X19820000Y-10250000D02*
G75*
G03*
X19820000Y-10250000I-20000J0D01*
G01*
X19820000Y-10500000D02*
G75*
G03*
X19820000Y-10500000I-20000J0D01*
G01*
X19820000Y-10750000D02*
G75*
G03*
X19820000Y-10750000I-20000J0D01*
G01*
X19820000Y-11000000D02*
G75*
G03*
X19820000Y-11000000I-20000J0D01*
G01*
X19820000Y-11250000D02*
G75*
G03*
X19820000Y-11250000I-20000J0D01*
G01*
X19820000Y-11500000D02*
G75*
G03*
X19820000Y-11500000I-20000J0D01*
G01*
X19820000Y-11750000D02*
G75*
G03*
X19820000Y-11750000I-20000J0D01*
G01*
X19820000Y-12000000D02*
G75*
G03*
X19820000Y-12000000I-20000J0D01*
G01*
X19820000Y-12250000D02*
G75*
G03*
X19820000Y-12250000I-20000J0D01*
G01*
X19820000Y-12500000D02*
G75*
G03*
X19820000Y-12500000I-20000J0D01*
G01*
X19820000Y-12750000D02*
G75*
G03*
X19820000Y-12750000I-20000J0D01*
G01*
X19820000Y-13000000D02*
G75*
G03*
X19820000Y-13000000I-20000J0D01*
G01*
D13*
X11855899Y-9138898D02*
X11855899Y-9213898D01*
X11818399Y-9176398D02*
X11893399Y-9176398D01*
X11982899Y-9138898D02*
X11982899Y-9213898D01*
X11945399Y-9176398D02*
X12020399Y-9176398D01*
X12109899Y-9138898D02*
X12109899Y-9213898D01*
X12072399Y-9176398D02*
X12147399Y-9176398D01*
X12855899Y-9138898D02*
X12855899Y-9213898D01*
X12818399Y-9176398D02*
X12893399Y-9176398D01*
X12982899Y-9138898D02*
X12982899Y-9213898D01*
X12945399Y-9176398D02*
X13020399Y-9176398D01*
X13109899Y-9138898D02*
X13109899Y-9213898D01*
X13072399Y-9176398D02*
X13147399Y-9176398D01*
X13944600Y-8456700D02*
X13944600Y-8531700D01*
X13907100Y-8494200D02*
X13982100Y-8494200D01*
X14071600Y-8456700D02*
X14071600Y-8531700D01*
X14034100Y-8494200D02*
X14109100Y-8494200D01*
X14198600Y-8456700D02*
X14198600Y-8531700D01*
X14161100Y-8494200D02*
X14236100Y-8494200D01*
X15030899Y-8471500D02*
X15030899Y-8546500D01*
X14993399Y-8509000D02*
X15068399Y-8509000D01*
X15157899Y-8471500D02*
X15157899Y-8546500D01*
X15120399Y-8509000D02*
X15195399Y-8509000D01*
X15284899Y-8471500D02*
X15284899Y-8546500D01*
X15247399Y-8509000D02*
X15322399Y-8509000D01*
D14*
X11749933Y-7527432D02*
X11749933Y-7470863D01*
X11693364Y-7470863D01*
X11693364Y-7527432D01*
X11749933Y-7527432D01*
X11749933Y-7781432D02*
X11749933Y-7724863D01*
X11693364Y-7724863D01*
X11693364Y-7781432D01*
X11749933Y-7781432D01*
X11749933Y-8035432D02*
X11749933Y-7978863D01*
X11693364Y-7978863D01*
X11693364Y-8035432D01*
X11749933Y-8035432D01*
X11749933Y-8543432D02*
X11749933Y-8486863D01*
X11693364Y-8486863D01*
X11693364Y-8543432D01*
X11749933Y-8543432D01*
X12257933Y-7527432D02*
X12257933Y-7470863D01*
X12201364Y-7470863D01*
X12201364Y-7527432D01*
X12257933Y-7527432D01*
X12257933Y-7781432D02*
X12257933Y-7724863D01*
X12201364Y-7724863D01*
X12201364Y-7781432D01*
X12257933Y-7781432D01*
X12257933Y-8035432D02*
X12257933Y-7978863D01*
X12201364Y-7978863D01*
X12201364Y-8035432D01*
X12257933Y-8035432D01*
X12257933Y-8543432D02*
X12257933Y-8486863D01*
X12201364Y-8486863D01*
X12201364Y-8543432D01*
X12257933Y-8543432D01*
X12749933Y-7527432D02*
X12749933Y-7470863D01*
X12693364Y-7470863D01*
X12693364Y-7527432D01*
X12749933Y-7527432D01*
X12749933Y-7781432D02*
X12749933Y-7724863D01*
X12693364Y-7724863D01*
X12693364Y-7781432D01*
X12749933Y-7781432D01*
X12749933Y-8035432D02*
X12749933Y-7978863D01*
X12693364Y-7978863D01*
X12693364Y-8035432D01*
X12749933Y-8035432D01*
X12749933Y-8543432D02*
X12749933Y-8486863D01*
X12693364Y-8486863D01*
X12693364Y-8543432D01*
X12749933Y-8543432D01*
X13257933Y-7527432D02*
X13257933Y-7470863D01*
X13201364Y-7470863D01*
X13201364Y-7527432D01*
X13257933Y-7527432D01*
X13257933Y-7781432D02*
X13257933Y-7724863D01*
X13201364Y-7724863D01*
X13201364Y-7781432D01*
X13257933Y-7781432D01*
X13257933Y-8035432D02*
X13257933Y-7978863D01*
X13201364Y-7978863D01*
X13201364Y-8035432D01*
X13257933Y-8035432D01*
X13257933Y-8543432D02*
X13257933Y-8486863D01*
X13201364Y-8486863D01*
X13201364Y-8543432D01*
X13257933Y-8543432D01*
D15*
X17624899Y-9177101D02*
X17674899Y-9127101D01*
X17624899Y-9077101D01*
X17574899Y-9127101D01*
X17624899Y-9177101D01*
X17878899Y-9177101D02*
X17928899Y-9127101D01*
X17878899Y-9077101D01*
X17828899Y-9127101D01*
X17878899Y-9177101D01*
X18132899Y-9177101D02*
X18182899Y-9127101D01*
X18132899Y-9077101D01*
X18082899Y-9127101D01*
X18132899Y-9177101D01*
D16*
X13839200Y-9720200D02*
X13940800Y-9821800D01*
X13940800Y-9720200D02*
X13839200Y-9821800D01*
X13940800Y-9771000D02*
G75*
G03*
X13940800Y-9771000I-50800J0D01*
G01*
X13839200Y-9974200D02*
X13940800Y-10075800D01*
X13940800Y-9974200D02*
X13839200Y-10075800D01*
X13940800Y-10025000D02*
G75*
G03*
X13940800Y-10025000I-50800J0D01*
G01*
X13839200Y-10228200D02*
X13940800Y-10329800D01*
X13940800Y-10228200D02*
X13839200Y-10329800D01*
X13940800Y-10279000D02*
G75*
G03*
X13940800Y-10279000I-50800J0D01*
G01*
X13839200Y-10482200D02*
X13940800Y-10583800D01*
X13940800Y-10482200D02*
X13839200Y-10583800D01*
X13940800Y-10533000D02*
G75*
G03*
X13940800Y-10533000I-50800J0D01*
G01*
X13839200Y-10736200D02*
X13940800Y-10837800D01*
X13940800Y-10736200D02*
X13839200Y-10837800D01*
X13940800Y-10787000D02*
G75*
G03*
X13940800Y-10787000I-50800J0D01*
G01*
X13839200Y-10990200D02*
X13940800Y-11091800D01*
X13940800Y-10990200D02*
X13839200Y-11091800D01*
X13940800Y-11041000D02*
G75*
G03*
X13940800Y-11041000I-50800J0D01*
G01*
X13839200Y-11244200D02*
X13940800Y-11345800D01*
X13940800Y-11244200D02*
X13839200Y-11345800D01*
X13940800Y-11295000D02*
G75*
G03*
X13940800Y-11295000I-50800J0D01*
G01*
X13839200Y-11498200D02*
X13940800Y-11599800D01*
X13940800Y-11498200D02*
X13839200Y-11599800D01*
X13940800Y-11549000D02*
G75*
G03*
X13940800Y-11549000I-50800J0D01*
G01*
X16125200Y-9720200D02*
X16226800Y-9821800D01*
X16226800Y-9720200D02*
X16125200Y-9821800D01*
X16226800Y-9771000D02*
G75*
G03*
X16226800Y-9771000I-50800J0D01*
G01*
X16125200Y-9974200D02*
X16226800Y-10075800D01*
X16226800Y-9974200D02*
X16125200Y-10075800D01*
X16226800Y-10025000D02*
G75*
G03*
X16226800Y-10025000I-50800J0D01*
G01*
X16125200Y-10228200D02*
X16226800Y-10329800D01*
X16226800Y-10228200D02*
X16125200Y-10329800D01*
X16226800Y-10279000D02*
G75*
G03*
X16226800Y-10279000I-50800J0D01*
G01*
X16125200Y-10482200D02*
X16226800Y-10583800D01*
X16226800Y-10482200D02*
X16125200Y-10583800D01*
X16226800Y-10533000D02*
G75*
G03*
X16226800Y-10533000I-50800J0D01*
G01*
X16125200Y-10736200D02*
X16226800Y-10837800D01*
X16226800Y-10736200D02*
X16125200Y-10837800D01*
X16226800Y-10787000D02*
G75*
G03*
X16226800Y-10787000I-50800J0D01*
G01*
X16125200Y-10990200D02*
X16226800Y-11091800D01*
X16226800Y-10990200D02*
X16125200Y-11091800D01*
X16226800Y-11041000D02*
G75*
G03*
X16226800Y-11041000I-50800J0D01*
G01*
X16125200Y-11244200D02*
X16226800Y-11345800D01*
X16226800Y-11244200D02*
X16125200Y-11345800D01*
X16226800Y-11295000D02*
G75*
G03*
X16226800Y-11295000I-50800J0D01*
G01*
X16125200Y-11498200D02*
X16226800Y-11599800D01*
X16226800Y-11498200D02*
X16125200Y-11599800D01*
X16226800Y-11549000D02*
G75*
G03*
X16226800Y-11549000I-50800J0D01*
G01*
D17*
X11198149Y-6247101D02*
X11338149Y-6387101D01*
X11338149Y-6247101D02*
X11198149Y-6387101D01*
X11268149Y-6247101D02*
X11268149Y-6387101D01*
X11198149Y-6317101D02*
X11338149Y-6317101D01*
X11548149Y-6247101D02*
X11688149Y-6387101D01*
X11688149Y-6247101D02*
X11548149Y-6387101D01*
X11618149Y-6247101D02*
X11618149Y-6387101D01*
X11548149Y-6317101D02*
X11688149Y-6317101D01*
X11898149Y-6247101D02*
X12038149Y-6387101D01*
X12038149Y-6247101D02*
X11898149Y-6387101D01*
X11968149Y-6247101D02*
X11968149Y-6387101D01*
X11898149Y-6317101D02*
X12038149Y-6317101D01*
X12248149Y-6247101D02*
X12388149Y-6387101D01*
X12388149Y-6247101D02*
X12248149Y-6387101D01*
X12318149Y-6247101D02*
X12318149Y-6387101D01*
X12248149Y-6317101D02*
X12388149Y-6317101D01*
X12598149Y-6247101D02*
X12738149Y-6387101D01*
X12738149Y-6247101D02*
X12598149Y-6387101D01*
X12668149Y-6247101D02*
X12668149Y-6387101D01*
X12598149Y-6317101D02*
X12738149Y-6317101D01*
X12948149Y-6247101D02*
X13088149Y-6387101D01*
X13088149Y-6247101D02*
X12948149Y-6387101D01*
X13018149Y-6247101D02*
X13018149Y-6387101D01*
X12948149Y-6317101D02*
X13088149Y-6317101D01*
X13799958Y-6247101D02*
X13939958Y-6387101D01*
X13939958Y-6247101D02*
X13799958Y-6387101D01*
X13869958Y-6247101D02*
X13869958Y-6387101D01*
X13799958Y-6317101D02*
X13939958Y-6317101D01*
X14149958Y-6247101D02*
X14289958Y-6387101D01*
X14289958Y-6247101D02*
X14149958Y-6387101D01*
X14219958Y-6247101D02*
X14219958Y-6387101D01*
X14149958Y-6317101D02*
X14289958Y-6317101D01*
X14499958Y-6247101D02*
X14639958Y-6387101D01*
X14639958Y-6247101D02*
X14499958Y-6387101D01*
X14569958Y-6247101D02*
X14569958Y-6387101D01*
X14499958Y-6317101D02*
X14639958Y-6317101D01*
X14849958Y-6247101D02*
X14989958Y-6387101D01*
X14989958Y-6247101D02*
X14849958Y-6387101D01*
X14919958Y-6247101D02*
X14919958Y-6387101D01*
X14849958Y-6317101D02*
X14989958Y-6317101D01*
X15199958Y-6247101D02*
X15339958Y-6387101D01*
X15339958Y-6247101D02*
X15199958Y-6387101D01*
X15269958Y-6247101D02*
X15269958Y-6387101D01*
X15199958Y-6317101D02*
X15339958Y-6317101D01*
X15549958Y-6247101D02*
X15689958Y-6387101D01*
X15689958Y-6247101D02*
X15549958Y-6387101D01*
X15619958Y-6247101D02*
X15619958Y-6387101D01*
X15549958Y-6317101D02*
X15689958Y-6317101D01*
X15899958Y-6247101D02*
X16039958Y-6387101D01*
X16039958Y-6247101D02*
X15899958Y-6387101D01*
X15969958Y-6247101D02*
X15969958Y-6387101D01*
X15899958Y-6317101D02*
X16039958Y-6317101D01*
X16249958Y-6247101D02*
X16389958Y-6387101D01*
X16389958Y-6247101D02*
X16249958Y-6387101D01*
X16319958Y-6247101D02*
X16319958Y-6387101D01*
X16249958Y-6317101D02*
X16389958Y-6317101D01*
X16599958Y-6247101D02*
X16739958Y-6387101D01*
X16739958Y-6247101D02*
X16599958Y-6387101D01*
X16669958Y-6247101D02*
X16669958Y-6387101D01*
X16599958Y-6317101D02*
X16739958Y-6317101D01*
X16949958Y-6247101D02*
X17089958Y-6387101D01*
X17089958Y-6247101D02*
X16949958Y-6387101D01*
X17019958Y-6247101D02*
X17019958Y-6387101D01*
X16949958Y-6317101D02*
X17089958Y-6317101D01*
X17748149Y-6247101D02*
X17888149Y-6387101D01*
X17888149Y-6247101D02*
X17748149Y-6387101D01*
X17818149Y-6247101D02*
X17818149Y-6387101D01*
X17748149Y-6317101D02*
X17888149Y-6317101D01*
X18098149Y-6247101D02*
X18238149Y-6387101D01*
X18238149Y-6247101D02*
X18098149Y-6387101D01*
X18168149Y-6247101D02*
X18168149Y-6387101D01*
X18098149Y-6317101D02*
X18238149Y-6317101D01*
X18448149Y-6247101D02*
X18588149Y-6387101D01*
X18588149Y-6247101D02*
X18448149Y-6387101D01*
X18518149Y-6247101D02*
X18518149Y-6387101D01*
X18448149Y-6317101D02*
X18588149Y-6317101D01*
X18798149Y-6247101D02*
X18938149Y-6387101D01*
X18938149Y-6247101D02*
X18798149Y-6387101D01*
X18868149Y-6247101D02*
X18868149Y-6387101D01*
X18798149Y-6317101D02*
X18938149Y-6317101D01*
D18*
X11046128Y-7345191D02*
X11366128Y-7665191D01*
X11366128Y-7345191D02*
X11046128Y-7665191D01*
X11319266Y-7618329D02*
X11319266Y-7392053D01*
X11092990Y-7392053D01*
X11092990Y-7618329D01*
X11319266Y-7618329D01*
X14930768Y-13752398D02*
X15250768Y-14072398D01*
X15250768Y-13752398D02*
X14930768Y-14072398D01*
X15203906Y-14025536D02*
X15203906Y-13799260D01*
X14977630Y-13799260D01*
X14977630Y-14025536D01*
X15203906Y-14025536D01*
X18815478Y-7345191D02*
X19135478Y-7665191D01*
X19135478Y-7345191D02*
X18815478Y-7665191D01*
X19088616Y-7618329D02*
X19088616Y-7392053D01*
X18862340Y-7392053D01*
X18862340Y-7618329D01*
X19088616Y-7618329D01*
D10*
X10528437Y-15008664D02*
X10528437Y-14808664D01*
X10528437Y-14808664D02*
X10576056Y-14808664D01*
X10576056Y-14808664D02*
X10604628Y-14818188D01*
X10604628Y-14818188D02*
X10623675Y-14837235D01*
X10623675Y-14837235D02*
X10633199Y-14856283D01*
X10633199Y-14856283D02*
X10642723Y-14894378D01*
X10642723Y-14894378D02*
X10642723Y-14922950D01*
X10642723Y-14922950D02*
X10633199Y-14961045D01*
X10633199Y-14961045D02*
X10623675Y-14980092D01*
X10623675Y-14980092D02*
X10604628Y-14999140D01*
X10604628Y-14999140D02*
X10576056Y-15008664D01*
X10576056Y-15008664D02*
X10528437Y-15008664D01*
X10728437Y-15008664D02*
X10728437Y-14875331D01*
X10728437Y-14913426D02*
X10737961Y-14894378D01*
X10737961Y-14894378D02*
X10747485Y-14884854D01*
X10747485Y-14884854D02*
X10766532Y-14875331D01*
X10766532Y-14875331D02*
X10785580Y-14875331D01*
X10852247Y-15008664D02*
X10852247Y-14875331D01*
X10852247Y-14808664D02*
X10842723Y-14818188D01*
X10842723Y-14818188D02*
X10852247Y-14827712D01*
X10852247Y-14827712D02*
X10861771Y-14818188D01*
X10861771Y-14818188D02*
X10852247Y-14808664D01*
X10852247Y-14808664D02*
X10852247Y-14827712D01*
X10976056Y-15008664D02*
X10957009Y-14999140D01*
X10957009Y-14999140D02*
X10947485Y-14980092D01*
X10947485Y-14980092D02*
X10947485Y-14808664D01*
X11080818Y-15008664D02*
X11061771Y-14999140D01*
X11061771Y-14999140D02*
X11052247Y-14980092D01*
X11052247Y-14980092D02*
X11052247Y-14808664D01*
X11277009Y-15008664D02*
X11277009Y-14808664D01*
X11277009Y-14808664D02*
X11343675Y-14951521D01*
X11343675Y-14951521D02*
X11410342Y-14808664D01*
X11410342Y-14808664D02*
X11410342Y-15008664D01*
X11591294Y-15008664D02*
X11591294Y-14903902D01*
X11591294Y-14903902D02*
X11581770Y-14884854D01*
X11581770Y-14884854D02*
X11562723Y-14875331D01*
X11562723Y-14875331D02*
X11524628Y-14875331D01*
X11524628Y-14875331D02*
X11505580Y-14884854D01*
X11591294Y-14999140D02*
X11572247Y-15008664D01*
X11572247Y-15008664D02*
X11524628Y-15008664D01*
X11524628Y-15008664D02*
X11505580Y-14999140D01*
X11505580Y-14999140D02*
X11496056Y-14980092D01*
X11496056Y-14980092D02*
X11496056Y-14961045D01*
X11496056Y-14961045D02*
X11505580Y-14941997D01*
X11505580Y-14941997D02*
X11524628Y-14932473D01*
X11524628Y-14932473D02*
X11572247Y-14932473D01*
X11572247Y-14932473D02*
X11591294Y-14922950D01*
X11686532Y-14875331D02*
X11686532Y-15075331D01*
X11686532Y-14884854D02*
X11705580Y-14875331D01*
X11705580Y-14875331D02*
X11743675Y-14875331D01*
X11743675Y-14875331D02*
X11762723Y-14884854D01*
X11762723Y-14884854D02*
X11772247Y-14894378D01*
X11772247Y-14894378D02*
X11781770Y-14913426D01*
X11781770Y-14913426D02*
X11781770Y-14970569D01*
X11781770Y-14970569D02*
X11772247Y-14989616D01*
X11772247Y-14989616D02*
X11762723Y-14999140D01*
X11762723Y-14999140D02*
X11743675Y-15008664D01*
X11743675Y-15008664D02*
X11705580Y-15008664D01*
X11705580Y-15008664D02*
X11686532Y-14999140D01*
X11867485Y-14989616D02*
X11877009Y-14999140D01*
X11877009Y-14999140D02*
X11867485Y-15008664D01*
X11867485Y-15008664D02*
X11857961Y-14999140D01*
X11857961Y-14999140D02*
X11867485Y-14989616D01*
X11867485Y-14989616D02*
X11867485Y-15008664D01*
X11867485Y-14884854D02*
X11877009Y-14894378D01*
X11877009Y-14894378D02*
X11867485Y-14903902D01*
X11867485Y-14903902D02*
X11857961Y-14894378D01*
X11857961Y-14894378D02*
X11867485Y-14884854D01*
X11867485Y-14884854D02*
X11867485Y-14903902D01*
D11*
X10250818Y-15340188D02*
X10280818Y-15370188D01*
X10280818Y-15340188D02*
X10250818Y-15370188D01*
D10*
X10566532Y-15228664D02*
X10585580Y-15228664D01*
X10585580Y-15228664D02*
X10604628Y-15238188D01*
X10604628Y-15238188D02*
X10614152Y-15247712D01*
X10614152Y-15247712D02*
X10623675Y-15266759D01*
X10623675Y-15266759D02*
X10633199Y-15304854D01*
X10633199Y-15304854D02*
X10633199Y-15352473D01*
X10633199Y-15352473D02*
X10623675Y-15390569D01*
X10623675Y-15390569D02*
X10614152Y-15409616D01*
X10614152Y-15409616D02*
X10604628Y-15419140D01*
X10604628Y-15419140D02*
X10585580Y-15428664D01*
X10585580Y-15428664D02*
X10566532Y-15428664D01*
X10566532Y-15428664D02*
X10547485Y-15419140D01*
X10547485Y-15419140D02*
X10537961Y-15409616D01*
X10537961Y-15409616D02*
X10528437Y-15390569D01*
X10528437Y-15390569D02*
X10518913Y-15352473D01*
X10518913Y-15352473D02*
X10518913Y-15304854D01*
X10518913Y-15304854D02*
X10528437Y-15266759D01*
X10528437Y-15266759D02*
X10537961Y-15247712D01*
X10537961Y-15247712D02*
X10547485Y-15238188D01*
X10547485Y-15238188D02*
X10566532Y-15228664D01*
X10718913Y-15409616D02*
X10728437Y-15419140D01*
X10728437Y-15419140D02*
X10718913Y-15428664D01*
X10718913Y-15428664D02*
X10709390Y-15419140D01*
X10709390Y-15419140D02*
X10718913Y-15409616D01*
X10718913Y-15409616D02*
X10718913Y-15428664D01*
X10795104Y-15228664D02*
X10918913Y-15228664D01*
X10918913Y-15228664D02*
X10852247Y-15304854D01*
X10852247Y-15304854D02*
X10880818Y-15304854D01*
X10880818Y-15304854D02*
X10899866Y-15314378D01*
X10899866Y-15314378D02*
X10909390Y-15323902D01*
X10909390Y-15323902D02*
X10918913Y-15342950D01*
X10918913Y-15342950D02*
X10918913Y-15390569D01*
X10918913Y-15390569D02*
X10909390Y-15409616D01*
X10909390Y-15409616D02*
X10899866Y-15419140D01*
X10899866Y-15419140D02*
X10880818Y-15428664D01*
X10880818Y-15428664D02*
X10823675Y-15428664D01*
X10823675Y-15428664D02*
X10804628Y-15419140D01*
X10804628Y-15419140D02*
X10795104Y-15409616D01*
X11042723Y-15228664D02*
X11061771Y-15228664D01*
X11061771Y-15228664D02*
X11080818Y-15238188D01*
X11080818Y-15238188D02*
X11090342Y-15247712D01*
X11090342Y-15247712D02*
X11099866Y-15266759D01*
X11099866Y-15266759D02*
X11109390Y-15304854D01*
X11109390Y-15304854D02*
X11109390Y-15352473D01*
X11109390Y-15352473D02*
X11099866Y-15390569D01*
X11099866Y-15390569D02*
X11090342Y-15409616D01*
X11090342Y-15409616D02*
X11080818Y-15419140D01*
X11080818Y-15419140D02*
X11061771Y-15428664D01*
X11061771Y-15428664D02*
X11042723Y-15428664D01*
X11042723Y-15428664D02*
X11023675Y-15419140D01*
X11023675Y-15419140D02*
X11014152Y-15409616D01*
X11014152Y-15409616D02*
X11004628Y-15390569D01*
X11004628Y-15390569D02*
X10995104Y-15352473D01*
X10995104Y-15352473D02*
X10995104Y-15304854D01*
X10995104Y-15304854D02*
X11004628Y-15266759D01*
X11004628Y-15266759D02*
X11014152Y-15247712D01*
X11014152Y-15247712D02*
X11023675Y-15238188D01*
X11023675Y-15238188D02*
X11042723Y-15228664D01*
X11233199Y-15228664D02*
X11252247Y-15228664D01*
X11252247Y-15228664D02*
X11271294Y-15238188D01*
X11271294Y-15238188D02*
X11280818Y-15247712D01*
X11280818Y-15247712D02*
X11290342Y-15266759D01*
X11290342Y-15266759D02*
X11299866Y-15304854D01*
X11299866Y-15304854D02*
X11299866Y-15352473D01*
X11299866Y-15352473D02*
X11290342Y-15390569D01*
X11290342Y-15390569D02*
X11280818Y-15409616D01*
X11280818Y-15409616D02*
X11271294Y-15419140D01*
X11271294Y-15419140D02*
X11252247Y-15428664D01*
X11252247Y-15428664D02*
X11233199Y-15428664D01*
X11233199Y-15428664D02*
X11214151Y-15419140D01*
X11214151Y-15419140D02*
X11204628Y-15409616D01*
X11204628Y-15409616D02*
X11195104Y-15390569D01*
X11195104Y-15390569D02*
X11185580Y-15352473D01*
X11185580Y-15352473D02*
X11185580Y-15304854D01*
X11185580Y-15304854D02*
X11195104Y-15266759D01*
X11195104Y-15266759D02*
X11204628Y-15247712D01*
X11204628Y-15247712D02*
X11214151Y-15238188D01*
X11214151Y-15238188D02*
X11233199Y-15228664D01*
X11385580Y-15428664D02*
X11385580Y-15295331D01*
X11385580Y-15314378D02*
X11395104Y-15304854D01*
X11395104Y-15304854D02*
X11414151Y-15295331D01*
X11414151Y-15295331D02*
X11442723Y-15295331D01*
X11442723Y-15295331D02*
X11461771Y-15304854D01*
X11461771Y-15304854D02*
X11471294Y-15323902D01*
X11471294Y-15323902D02*
X11471294Y-15428664D01*
X11471294Y-15323902D02*
X11480818Y-15304854D01*
X11480818Y-15304854D02*
X11499866Y-15295331D01*
X11499866Y-15295331D02*
X11528437Y-15295331D01*
X11528437Y-15295331D02*
X11547485Y-15304854D01*
X11547485Y-15304854D02*
X11557009Y-15323902D01*
X11557009Y-15323902D02*
X11557009Y-15428664D01*
X11652247Y-15428664D02*
X11652247Y-15295331D01*
X11652247Y-15314378D02*
X11661771Y-15304854D01*
X11661771Y-15304854D02*
X11680818Y-15295331D01*
X11680818Y-15295331D02*
X11709390Y-15295331D01*
X11709390Y-15295331D02*
X11728437Y-15304854D01*
X11728437Y-15304854D02*
X11737961Y-15323902D01*
X11737961Y-15323902D02*
X11737961Y-15428664D01*
X11737961Y-15323902D02*
X11747485Y-15304854D01*
X11747485Y-15304854D02*
X11766532Y-15295331D01*
X11766532Y-15295331D02*
X11795104Y-15295331D01*
X11795104Y-15295331D02*
X11814152Y-15304854D01*
X11814152Y-15304854D02*
X11823675Y-15323902D01*
X11823675Y-15323902D02*
X11823675Y-15428664D01*
X12181771Y-15219140D02*
X12010342Y-15476283D01*
X12406532Y-15228664D02*
X12425580Y-15228664D01*
X12425580Y-15228664D02*
X12444628Y-15238188D01*
X12444628Y-15238188D02*
X12454152Y-15247712D01*
X12454152Y-15247712D02*
X12463675Y-15266759D01*
X12463675Y-15266759D02*
X12473199Y-15304854D01*
X12473199Y-15304854D02*
X12473199Y-15352473D01*
X12473199Y-15352473D02*
X12463675Y-15390569D01*
X12463675Y-15390569D02*
X12454152Y-15409616D01*
X12454152Y-15409616D02*
X12444628Y-15419140D01*
X12444628Y-15419140D02*
X12425580Y-15428664D01*
X12425580Y-15428664D02*
X12406532Y-15428664D01*
X12406532Y-15428664D02*
X12387485Y-15419140D01*
X12387485Y-15419140D02*
X12377961Y-15409616D01*
X12377961Y-15409616D02*
X12368437Y-15390569D01*
X12368437Y-15390569D02*
X12358913Y-15352473D01*
X12358913Y-15352473D02*
X12358913Y-15304854D01*
X12358913Y-15304854D02*
X12368437Y-15266759D01*
X12368437Y-15266759D02*
X12377961Y-15247712D01*
X12377961Y-15247712D02*
X12387485Y-15238188D01*
X12387485Y-15238188D02*
X12406532Y-15228664D01*
X12558913Y-15409616D02*
X12568437Y-15419140D01*
X12568437Y-15419140D02*
X12558913Y-15428664D01*
X12558913Y-15428664D02*
X12549390Y-15419140D01*
X12549390Y-15419140D02*
X12558913Y-15409616D01*
X12558913Y-15409616D02*
X12558913Y-15428664D01*
X12692247Y-15228664D02*
X12711294Y-15228664D01*
X12711294Y-15228664D02*
X12730342Y-15238188D01*
X12730342Y-15238188D02*
X12739866Y-15247712D01*
X12739866Y-15247712D02*
X12749390Y-15266759D01*
X12749390Y-15266759D02*
X12758913Y-15304854D01*
X12758913Y-15304854D02*
X12758913Y-15352473D01*
X12758913Y-15352473D02*
X12749390Y-15390569D01*
X12749390Y-15390569D02*
X12739866Y-15409616D01*
X12739866Y-15409616D02*
X12730342Y-15419140D01*
X12730342Y-15419140D02*
X12711294Y-15428664D01*
X12711294Y-15428664D02*
X12692247Y-15428664D01*
X12692247Y-15428664D02*
X12673199Y-15419140D01*
X12673199Y-15419140D02*
X12663675Y-15409616D01*
X12663675Y-15409616D02*
X12654152Y-15390569D01*
X12654152Y-15390569D02*
X12644628Y-15352473D01*
X12644628Y-15352473D02*
X12644628Y-15304854D01*
X12644628Y-15304854D02*
X12654152Y-15266759D01*
X12654152Y-15266759D02*
X12663675Y-15247712D01*
X12663675Y-15247712D02*
X12673199Y-15238188D01*
X12673199Y-15238188D02*
X12692247Y-15228664D01*
X12949390Y-15428664D02*
X12835104Y-15428664D01*
X12892247Y-15428664D02*
X12892247Y-15228664D01*
X12892247Y-15228664D02*
X12873199Y-15257235D01*
X12873199Y-15257235D02*
X12854152Y-15276283D01*
X12854152Y-15276283D02*
X12835104Y-15285807D01*
X13139866Y-15428664D02*
X13025580Y-15428664D01*
X13082723Y-15428664D02*
X13082723Y-15228664D01*
X13082723Y-15228664D02*
X13063675Y-15257235D01*
X13063675Y-15257235D02*
X13044628Y-15276283D01*
X13044628Y-15276283D02*
X13025580Y-15285807D01*
X13254152Y-15314378D02*
X13235104Y-15304854D01*
X13235104Y-15304854D02*
X13225580Y-15295331D01*
X13225580Y-15295331D02*
X13216056Y-15276283D01*
X13216056Y-15276283D02*
X13216056Y-15266759D01*
X13216056Y-15266759D02*
X13225580Y-15247712D01*
X13225580Y-15247712D02*
X13235104Y-15238188D01*
X13235104Y-15238188D02*
X13254152Y-15228664D01*
X13254152Y-15228664D02*
X13292247Y-15228664D01*
X13292247Y-15228664D02*
X13311294Y-15238188D01*
X13311294Y-15238188D02*
X13320818Y-15247712D01*
X13320818Y-15247712D02*
X13330342Y-15266759D01*
X13330342Y-15266759D02*
X13330342Y-15276283D01*
X13330342Y-15276283D02*
X13320818Y-15295331D01*
X13320818Y-15295331D02*
X13311294Y-15304854D01*
X13311294Y-15304854D02*
X13292247Y-15314378D01*
X13292247Y-15314378D02*
X13254152Y-15314378D01*
X13254152Y-15314378D02*
X13235104Y-15323902D01*
X13235104Y-15323902D02*
X13225580Y-15333426D01*
X13225580Y-15333426D02*
X13216056Y-15352473D01*
X13216056Y-15352473D02*
X13216056Y-15390569D01*
X13216056Y-15390569D02*
X13225580Y-15409616D01*
X13225580Y-15409616D02*
X13235104Y-15419140D01*
X13235104Y-15419140D02*
X13254152Y-15428664D01*
X13254152Y-15428664D02*
X13292247Y-15428664D01*
X13292247Y-15428664D02*
X13311294Y-15419140D01*
X13311294Y-15419140D02*
X13320818Y-15409616D01*
X13320818Y-15409616D02*
X13330342Y-15390569D01*
X13330342Y-15390569D02*
X13330342Y-15352473D01*
X13330342Y-15352473D02*
X13320818Y-15333426D01*
X13320818Y-15333426D02*
X13311294Y-15323902D01*
X13311294Y-15323902D02*
X13292247Y-15314378D01*
X13406533Y-15228664D02*
X13406533Y-15266759D01*
X13482723Y-15228664D02*
X13482723Y-15266759D01*
X13745580Y-15504854D02*
X13736056Y-15495331D01*
X13736056Y-15495331D02*
X13717009Y-15466759D01*
X13717009Y-15466759D02*
X13707485Y-15447712D01*
X13707485Y-15447712D02*
X13697961Y-15419140D01*
X13697961Y-15419140D02*
X13688437Y-15371521D01*
X13688437Y-15371521D02*
X13688437Y-15333426D01*
X13688437Y-15333426D02*
X13697961Y-15285807D01*
X13697961Y-15285807D02*
X13707485Y-15257235D01*
X13707485Y-15257235D02*
X13717009Y-15238188D01*
X13717009Y-15238188D02*
X13736056Y-15209616D01*
X13736056Y-15209616D02*
X13745580Y-15200092D01*
X13812247Y-15247712D02*
X13821771Y-15238188D01*
X13821771Y-15238188D02*
X13840818Y-15228664D01*
X13840818Y-15228664D02*
X13888437Y-15228664D01*
X13888437Y-15228664D02*
X13907485Y-15238188D01*
X13907485Y-15238188D02*
X13917009Y-15247712D01*
X13917009Y-15247712D02*
X13926533Y-15266759D01*
X13926533Y-15266759D02*
X13926533Y-15285807D01*
X13926533Y-15285807D02*
X13917009Y-15314378D01*
X13917009Y-15314378D02*
X13802723Y-15428664D01*
X13802723Y-15428664D02*
X13926533Y-15428664D01*
X14132247Y-15428664D02*
X14132247Y-15228664D01*
X14217961Y-15428664D02*
X14217961Y-15323902D01*
X14217961Y-15323902D02*
X14208437Y-15304854D01*
X14208437Y-15304854D02*
X14189390Y-15295331D01*
X14189390Y-15295331D02*
X14160818Y-15295331D01*
X14160818Y-15295331D02*
X14141771Y-15304854D01*
X14141771Y-15304854D02*
X14132247Y-15314378D01*
X14341771Y-15428664D02*
X14322723Y-15419140D01*
X14322723Y-15419140D02*
X14313199Y-15409616D01*
X14313199Y-15409616D02*
X14303675Y-15390569D01*
X14303675Y-15390569D02*
X14303675Y-15333426D01*
X14303675Y-15333426D02*
X14313199Y-15314378D01*
X14313199Y-15314378D02*
X14322723Y-15304854D01*
X14322723Y-15304854D02*
X14341771Y-15295331D01*
X14341771Y-15295331D02*
X14370342Y-15295331D01*
X14370342Y-15295331D02*
X14389390Y-15304854D01*
X14389390Y-15304854D02*
X14398914Y-15314378D01*
X14398914Y-15314378D02*
X14408437Y-15333426D01*
X14408437Y-15333426D02*
X14408437Y-15390569D01*
X14408437Y-15390569D02*
X14398914Y-15409616D01*
X14398914Y-15409616D02*
X14389390Y-15419140D01*
X14389390Y-15419140D02*
X14370342Y-15428664D01*
X14370342Y-15428664D02*
X14341771Y-15428664D01*
X14522723Y-15428664D02*
X14503675Y-15419140D01*
X14503675Y-15419140D02*
X14494152Y-15400092D01*
X14494152Y-15400092D02*
X14494152Y-15228664D01*
X14675104Y-15419140D02*
X14656056Y-15428664D01*
X14656056Y-15428664D02*
X14617961Y-15428664D01*
X14617961Y-15428664D02*
X14598914Y-15419140D01*
X14598914Y-15419140D02*
X14589390Y-15400092D01*
X14589390Y-15400092D02*
X14589390Y-15323902D01*
X14589390Y-15323902D02*
X14598914Y-15304854D01*
X14598914Y-15304854D02*
X14617961Y-15295331D01*
X14617961Y-15295331D02*
X14656056Y-15295331D01*
X14656056Y-15295331D02*
X14675104Y-15304854D01*
X14675104Y-15304854D02*
X14684628Y-15323902D01*
X14684628Y-15323902D02*
X14684628Y-15342950D01*
X14684628Y-15342950D02*
X14589390Y-15361997D01*
X14760818Y-15419140D02*
X14779866Y-15428664D01*
X14779866Y-15428664D02*
X14817961Y-15428664D01*
X14817961Y-15428664D02*
X14837009Y-15419140D01*
X14837009Y-15419140D02*
X14846533Y-15400092D01*
X14846533Y-15400092D02*
X14846533Y-15390569D01*
X14846533Y-15390569D02*
X14837009Y-15371521D01*
X14837009Y-15371521D02*
X14817961Y-15361997D01*
X14817961Y-15361997D02*
X14789390Y-15361997D01*
X14789390Y-15361997D02*
X14770342Y-15352473D01*
X14770342Y-15352473D02*
X14760818Y-15333426D01*
X14760818Y-15333426D02*
X14760818Y-15323902D01*
X14760818Y-15323902D02*
X14770342Y-15304854D01*
X14770342Y-15304854D02*
X14789390Y-15295331D01*
X14789390Y-15295331D02*
X14817961Y-15295331D01*
X14817961Y-15295331D02*
X14837009Y-15304854D01*
X14913199Y-15504854D02*
X14922723Y-15495331D01*
X14922723Y-15495331D02*
X14941771Y-15466759D01*
X14941771Y-15466759D02*
X14951295Y-15447712D01*
X14951295Y-15447712D02*
X14960818Y-15419140D01*
X14960818Y-15419140D02*
X14970342Y-15371521D01*
X14970342Y-15371521D02*
X14970342Y-15333426D01*
X14970342Y-15333426D02*
X14960818Y-15285807D01*
X14960818Y-15285807D02*
X14951295Y-15257235D01*
X14951295Y-15257235D02*
X14941771Y-15238188D01*
X14941771Y-15238188D02*
X14922723Y-15209616D01*
X14922723Y-15209616D02*
X14913199Y-15200092D01*
D12*
X10280818Y-15619188D02*
G75*
G03*
X10280818Y-15619188I-20000J0D01*
G01*
D10*
X10566532Y-15492664D02*
X10585580Y-15492664D01*
X10585580Y-15492664D02*
X10604628Y-15502188D01*
X10604628Y-15502188D02*
X10614152Y-15511712D01*
X10614152Y-15511712D02*
X10623675Y-15530759D01*
X10623675Y-15530759D02*
X10633199Y-15568854D01*
X10633199Y-15568854D02*
X10633199Y-15616473D01*
X10633199Y-15616473D02*
X10623675Y-15654569D01*
X10623675Y-15654569D02*
X10614152Y-15673616D01*
X10614152Y-15673616D02*
X10604628Y-15683140D01*
X10604628Y-15683140D02*
X10585580Y-15692664D01*
X10585580Y-15692664D02*
X10566532Y-15692664D01*
X10566532Y-15692664D02*
X10547485Y-15683140D01*
X10547485Y-15683140D02*
X10537961Y-15673616D01*
X10537961Y-15673616D02*
X10528437Y-15654569D01*
X10528437Y-15654569D02*
X10518913Y-15616473D01*
X10518913Y-15616473D02*
X10518913Y-15568854D01*
X10518913Y-15568854D02*
X10528437Y-15530759D01*
X10528437Y-15530759D02*
X10537961Y-15511712D01*
X10537961Y-15511712D02*
X10547485Y-15502188D01*
X10547485Y-15502188D02*
X10566532Y-15492664D01*
X10718913Y-15673616D02*
X10728437Y-15683140D01*
X10728437Y-15683140D02*
X10718913Y-15692664D01*
X10718913Y-15692664D02*
X10709390Y-15683140D01*
X10709390Y-15683140D02*
X10718913Y-15673616D01*
X10718913Y-15673616D02*
X10718913Y-15692664D01*
X10899866Y-15559331D02*
X10899866Y-15692664D01*
X10852247Y-15483140D02*
X10804628Y-15625997D01*
X10804628Y-15625997D02*
X10928437Y-15625997D01*
X11042723Y-15492664D02*
X11061771Y-15492664D01*
X11061771Y-15492664D02*
X11080818Y-15502188D01*
X11080818Y-15502188D02*
X11090342Y-15511712D01*
X11090342Y-15511712D02*
X11099866Y-15530759D01*
X11099866Y-15530759D02*
X11109390Y-15568854D01*
X11109390Y-15568854D02*
X11109390Y-15616473D01*
X11109390Y-15616473D02*
X11099866Y-15654569D01*
X11099866Y-15654569D02*
X11090342Y-15673616D01*
X11090342Y-15673616D02*
X11080818Y-15683140D01*
X11080818Y-15683140D02*
X11061771Y-15692664D01*
X11061771Y-15692664D02*
X11042723Y-15692664D01*
X11042723Y-15692664D02*
X11023675Y-15683140D01*
X11023675Y-15683140D02*
X11014152Y-15673616D01*
X11014152Y-15673616D02*
X11004628Y-15654569D01*
X11004628Y-15654569D02*
X10995104Y-15616473D01*
X10995104Y-15616473D02*
X10995104Y-15568854D01*
X10995104Y-15568854D02*
X11004628Y-15530759D01*
X11004628Y-15530759D02*
X11014152Y-15511712D01*
X11014152Y-15511712D02*
X11023675Y-15502188D01*
X11023675Y-15502188D02*
X11042723Y-15492664D01*
X11233199Y-15492664D02*
X11252247Y-15492664D01*
X11252247Y-15492664D02*
X11271294Y-15502188D01*
X11271294Y-15502188D02*
X11280818Y-15511712D01*
X11280818Y-15511712D02*
X11290342Y-15530759D01*
X11290342Y-15530759D02*
X11299866Y-15568854D01*
X11299866Y-15568854D02*
X11299866Y-15616473D01*
X11299866Y-15616473D02*
X11290342Y-15654569D01*
X11290342Y-15654569D02*
X11280818Y-15673616D01*
X11280818Y-15673616D02*
X11271294Y-15683140D01*
X11271294Y-15683140D02*
X11252247Y-15692664D01*
X11252247Y-15692664D02*
X11233199Y-15692664D01*
X11233199Y-15692664D02*
X11214151Y-15683140D01*
X11214151Y-15683140D02*
X11204628Y-15673616D01*
X11204628Y-15673616D02*
X11195104Y-15654569D01*
X11195104Y-15654569D02*
X11185580Y-15616473D01*
X11185580Y-15616473D02*
X11185580Y-15568854D01*
X11185580Y-15568854D02*
X11195104Y-15530759D01*
X11195104Y-15530759D02*
X11204628Y-15511712D01*
X11204628Y-15511712D02*
X11214151Y-15502188D01*
X11214151Y-15502188D02*
X11233199Y-15492664D01*
X11385580Y-15692664D02*
X11385580Y-15559331D01*
X11385580Y-15578378D02*
X11395104Y-15568854D01*
X11395104Y-15568854D02*
X11414151Y-15559331D01*
X11414151Y-15559331D02*
X11442723Y-15559331D01*
X11442723Y-15559331D02*
X11461771Y-15568854D01*
X11461771Y-15568854D02*
X11471294Y-15587902D01*
X11471294Y-15587902D02*
X11471294Y-15692664D01*
X11471294Y-15587902D02*
X11480818Y-15568854D01*
X11480818Y-15568854D02*
X11499866Y-15559331D01*
X11499866Y-15559331D02*
X11528437Y-15559331D01*
X11528437Y-15559331D02*
X11547485Y-15568854D01*
X11547485Y-15568854D02*
X11557009Y-15587902D01*
X11557009Y-15587902D02*
X11557009Y-15692664D01*
X11652247Y-15692664D02*
X11652247Y-15559331D01*
X11652247Y-15578378D02*
X11661771Y-15568854D01*
X11661771Y-15568854D02*
X11680818Y-15559331D01*
X11680818Y-15559331D02*
X11709390Y-15559331D01*
X11709390Y-15559331D02*
X11728437Y-15568854D01*
X11728437Y-15568854D02*
X11737961Y-15587902D01*
X11737961Y-15587902D02*
X11737961Y-15692664D01*
X11737961Y-15587902D02*
X11747485Y-15568854D01*
X11747485Y-15568854D02*
X11766532Y-15559331D01*
X11766532Y-15559331D02*
X11795104Y-15559331D01*
X11795104Y-15559331D02*
X11814152Y-15568854D01*
X11814152Y-15568854D02*
X11823675Y-15587902D01*
X11823675Y-15587902D02*
X11823675Y-15692664D01*
X12181771Y-15483140D02*
X12010342Y-15740283D01*
X12406532Y-15492664D02*
X12425580Y-15492664D01*
X12425580Y-15492664D02*
X12444628Y-15502188D01*
X12444628Y-15502188D02*
X12454152Y-15511712D01*
X12454152Y-15511712D02*
X12463675Y-15530759D01*
X12463675Y-15530759D02*
X12473199Y-15568854D01*
X12473199Y-15568854D02*
X12473199Y-15616473D01*
X12473199Y-15616473D02*
X12463675Y-15654569D01*
X12463675Y-15654569D02*
X12454152Y-15673616D01*
X12454152Y-15673616D02*
X12444628Y-15683140D01*
X12444628Y-15683140D02*
X12425580Y-15692664D01*
X12425580Y-15692664D02*
X12406532Y-15692664D01*
X12406532Y-15692664D02*
X12387485Y-15683140D01*
X12387485Y-15683140D02*
X12377961Y-15673616D01*
X12377961Y-15673616D02*
X12368437Y-15654569D01*
X12368437Y-15654569D02*
X12358913Y-15616473D01*
X12358913Y-15616473D02*
X12358913Y-15568854D01*
X12358913Y-15568854D02*
X12368437Y-15530759D01*
X12368437Y-15530759D02*
X12377961Y-15511712D01*
X12377961Y-15511712D02*
X12387485Y-15502188D01*
X12387485Y-15502188D02*
X12406532Y-15492664D01*
X12558913Y-15673616D02*
X12568437Y-15683140D01*
X12568437Y-15683140D02*
X12558913Y-15692664D01*
X12558913Y-15692664D02*
X12549390Y-15683140D01*
X12549390Y-15683140D02*
X12558913Y-15673616D01*
X12558913Y-15673616D02*
X12558913Y-15692664D01*
X12692247Y-15492664D02*
X12711294Y-15492664D01*
X12711294Y-15492664D02*
X12730342Y-15502188D01*
X12730342Y-15502188D02*
X12739866Y-15511712D01*
X12739866Y-15511712D02*
X12749390Y-15530759D01*
X12749390Y-15530759D02*
X12758913Y-15568854D01*
X12758913Y-15568854D02*
X12758913Y-15616473D01*
X12758913Y-15616473D02*
X12749390Y-15654569D01*
X12749390Y-15654569D02*
X12739866Y-15673616D01*
X12739866Y-15673616D02*
X12730342Y-15683140D01*
X12730342Y-15683140D02*
X12711294Y-15692664D01*
X12711294Y-15692664D02*
X12692247Y-15692664D01*
X12692247Y-15692664D02*
X12673199Y-15683140D01*
X12673199Y-15683140D02*
X12663675Y-15673616D01*
X12663675Y-15673616D02*
X12654152Y-15654569D01*
X12654152Y-15654569D02*
X12644628Y-15616473D01*
X12644628Y-15616473D02*
X12644628Y-15568854D01*
X12644628Y-15568854D02*
X12654152Y-15530759D01*
X12654152Y-15530759D02*
X12663675Y-15511712D01*
X12663675Y-15511712D02*
X12673199Y-15502188D01*
X12673199Y-15502188D02*
X12692247Y-15492664D01*
X12949390Y-15692664D02*
X12835104Y-15692664D01*
X12892247Y-15692664D02*
X12892247Y-15492664D01*
X12892247Y-15492664D02*
X12873199Y-15521235D01*
X12873199Y-15521235D02*
X12854152Y-15540283D01*
X12854152Y-15540283D02*
X12835104Y-15549807D01*
X13130342Y-15492664D02*
X13035104Y-15492664D01*
X13035104Y-15492664D02*
X13025580Y-15587902D01*
X13025580Y-15587902D02*
X13035104Y-15578378D01*
X13035104Y-15578378D02*
X13054152Y-15568854D01*
X13054152Y-15568854D02*
X13101771Y-15568854D01*
X13101771Y-15568854D02*
X13120818Y-15578378D01*
X13120818Y-15578378D02*
X13130342Y-15587902D01*
X13130342Y-15587902D02*
X13139866Y-15606950D01*
X13139866Y-15606950D02*
X13139866Y-15654569D01*
X13139866Y-15654569D02*
X13130342Y-15673616D01*
X13130342Y-15673616D02*
X13120818Y-15683140D01*
X13120818Y-15683140D02*
X13101771Y-15692664D01*
X13101771Y-15692664D02*
X13054152Y-15692664D01*
X13054152Y-15692664D02*
X13035104Y-15683140D01*
X13035104Y-15683140D02*
X13025580Y-15673616D01*
X13206533Y-15492664D02*
X13339866Y-15492664D01*
X13339866Y-15492664D02*
X13254152Y-15692664D01*
X13406533Y-15492664D02*
X13406533Y-15530759D01*
X13482723Y-15492664D02*
X13482723Y-15530759D01*
X13745580Y-15768854D02*
X13736056Y-15759331D01*
X13736056Y-15759331D02*
X13717009Y-15730759D01*
X13717009Y-15730759D02*
X13707485Y-15711712D01*
X13707485Y-15711712D02*
X13697961Y-15683140D01*
X13697961Y-15683140D02*
X13688437Y-15635521D01*
X13688437Y-15635521D02*
X13688437Y-15597426D01*
X13688437Y-15597426D02*
X13697961Y-15549807D01*
X13697961Y-15549807D02*
X13707485Y-15521235D01*
X13707485Y-15521235D02*
X13717009Y-15502188D01*
X13717009Y-15502188D02*
X13736056Y-15473616D01*
X13736056Y-15473616D02*
X13745580Y-15464092D01*
X13802723Y-15492664D02*
X13926533Y-15492664D01*
X13926533Y-15492664D02*
X13859866Y-15568854D01*
X13859866Y-15568854D02*
X13888437Y-15568854D01*
X13888437Y-15568854D02*
X13907485Y-15578378D01*
X13907485Y-15578378D02*
X13917009Y-15587902D01*
X13917009Y-15587902D02*
X13926533Y-15606950D01*
X13926533Y-15606950D02*
X13926533Y-15654569D01*
X13926533Y-15654569D02*
X13917009Y-15673616D01*
X13917009Y-15673616D02*
X13907485Y-15683140D01*
X13907485Y-15683140D02*
X13888437Y-15692664D01*
X13888437Y-15692664D02*
X13831294Y-15692664D01*
X13831294Y-15692664D02*
X13812247Y-15683140D01*
X13812247Y-15683140D02*
X13802723Y-15673616D01*
X14107485Y-15492664D02*
X14012247Y-15492664D01*
X14012247Y-15492664D02*
X14002723Y-15587902D01*
X14002723Y-15587902D02*
X14012247Y-15578378D01*
X14012247Y-15578378D02*
X14031294Y-15568854D01*
X14031294Y-15568854D02*
X14078914Y-15568854D01*
X14078914Y-15568854D02*
X14097961Y-15578378D01*
X14097961Y-15578378D02*
X14107485Y-15587902D01*
X14107485Y-15587902D02*
X14117009Y-15606950D01*
X14117009Y-15606950D02*
X14117009Y-15654569D01*
X14117009Y-15654569D02*
X14107485Y-15673616D01*
X14107485Y-15673616D02*
X14097961Y-15683140D01*
X14097961Y-15683140D02*
X14078914Y-15692664D01*
X14078914Y-15692664D02*
X14031294Y-15692664D01*
X14031294Y-15692664D02*
X14012247Y-15683140D01*
X14012247Y-15683140D02*
X14002723Y-15673616D01*
X14240818Y-15492664D02*
X14259866Y-15492664D01*
X14259866Y-15492664D02*
X14278914Y-15502188D01*
X14278914Y-15502188D02*
X14288437Y-15511712D01*
X14288437Y-15511712D02*
X14297961Y-15530759D01*
X14297961Y-15530759D02*
X14307485Y-15568854D01*
X14307485Y-15568854D02*
X14307485Y-15616473D01*
X14307485Y-15616473D02*
X14297961Y-15654569D01*
X14297961Y-15654569D02*
X14288437Y-15673616D01*
X14288437Y-15673616D02*
X14278914Y-15683140D01*
X14278914Y-15683140D02*
X14259866Y-15692664D01*
X14259866Y-15692664D02*
X14240818Y-15692664D01*
X14240818Y-15692664D02*
X14221771Y-15683140D01*
X14221771Y-15683140D02*
X14212247Y-15673616D01*
X14212247Y-15673616D02*
X14202723Y-15654569D01*
X14202723Y-15654569D02*
X14193199Y-15616473D01*
X14193199Y-15616473D02*
X14193199Y-15568854D01*
X14193199Y-15568854D02*
X14202723Y-15530759D01*
X14202723Y-15530759D02*
X14212247Y-15511712D01*
X14212247Y-15511712D02*
X14221771Y-15502188D01*
X14221771Y-15502188D02*
X14240818Y-15492664D01*
X14513199Y-15692664D02*
X14513199Y-15492664D01*
X14598914Y-15692664D02*
X14598914Y-15587902D01*
X14598914Y-15587902D02*
X14589390Y-15568854D01*
X14589390Y-15568854D02*
X14570342Y-15559331D01*
X14570342Y-15559331D02*
X14541771Y-15559331D01*
X14541771Y-15559331D02*
X14522723Y-15568854D01*
X14522723Y-15568854D02*
X14513199Y-15578378D01*
X14722723Y-15692664D02*
X14703675Y-15683140D01*
X14703675Y-15683140D02*
X14694152Y-15673616D01*
X14694152Y-15673616D02*
X14684628Y-15654569D01*
X14684628Y-15654569D02*
X14684628Y-15597426D01*
X14684628Y-15597426D02*
X14694152Y-15578378D01*
X14694152Y-15578378D02*
X14703675Y-15568854D01*
X14703675Y-15568854D02*
X14722723Y-15559331D01*
X14722723Y-15559331D02*
X14751295Y-15559331D01*
X14751295Y-15559331D02*
X14770342Y-15568854D01*
X14770342Y-15568854D02*
X14779866Y-15578378D01*
X14779866Y-15578378D02*
X14789390Y-15597426D01*
X14789390Y-15597426D02*
X14789390Y-15654569D01*
X14789390Y-15654569D02*
X14779866Y-15673616D01*
X14779866Y-15673616D02*
X14770342Y-15683140D01*
X14770342Y-15683140D02*
X14751295Y-15692664D01*
X14751295Y-15692664D02*
X14722723Y-15692664D01*
X14903675Y-15692664D02*
X14884628Y-15683140D01*
X14884628Y-15683140D02*
X14875104Y-15664092D01*
X14875104Y-15664092D02*
X14875104Y-15492664D01*
X15056056Y-15683140D02*
X15037009Y-15692664D01*
X15037009Y-15692664D02*
X14998914Y-15692664D01*
X14998914Y-15692664D02*
X14979866Y-15683140D01*
X14979866Y-15683140D02*
X14970342Y-15664092D01*
X14970342Y-15664092D02*
X14970342Y-15587902D01*
X14970342Y-15587902D02*
X14979866Y-15568854D01*
X14979866Y-15568854D02*
X14998914Y-15559331D01*
X14998914Y-15559331D02*
X15037009Y-15559331D01*
X15037009Y-15559331D02*
X15056056Y-15568854D01*
X15056056Y-15568854D02*
X15065580Y-15587902D01*
X15065580Y-15587902D02*
X15065580Y-15606950D01*
X15065580Y-15606950D02*
X14970342Y-15625997D01*
X15141771Y-15683140D02*
X15160818Y-15692664D01*
X15160818Y-15692664D02*
X15198914Y-15692664D01*
X15198914Y-15692664D02*
X15217961Y-15683140D01*
X15217961Y-15683140D02*
X15227485Y-15664092D01*
X15227485Y-15664092D02*
X15227485Y-15654569D01*
X15227485Y-15654569D02*
X15217961Y-15635521D01*
X15217961Y-15635521D02*
X15198914Y-15625997D01*
X15198914Y-15625997D02*
X15170342Y-15625997D01*
X15170342Y-15625997D02*
X15151295Y-15616473D01*
X15151295Y-15616473D02*
X15141771Y-15597426D01*
X15141771Y-15597426D02*
X15141771Y-15587902D01*
X15141771Y-15587902D02*
X15151295Y-15568854D01*
X15151295Y-15568854D02*
X15170342Y-15559331D01*
X15170342Y-15559331D02*
X15198914Y-15559331D01*
X15198914Y-15559331D02*
X15217961Y-15568854D01*
X15294152Y-15768854D02*
X15303676Y-15759331D01*
X15303676Y-15759331D02*
X15322723Y-15730759D01*
X15322723Y-15730759D02*
X15332247Y-15711712D01*
X15332247Y-15711712D02*
X15341771Y-15683140D01*
X15341771Y-15683140D02*
X15351295Y-15635521D01*
X15351295Y-15635521D02*
X15351295Y-15597426D01*
X15351295Y-15597426D02*
X15341771Y-15549807D01*
X15341771Y-15549807D02*
X15332247Y-15521235D01*
X15332247Y-15521235D02*
X15322723Y-15502188D01*
X15322723Y-15502188D02*
X15303676Y-15473616D01*
X15303676Y-15473616D02*
X15294152Y-15464092D01*
D13*
X10243318Y-15845688D02*
X10243318Y-15920688D01*
X10205818Y-15883188D02*
X10280818Y-15883188D01*
D10*
X10566532Y-15756664D02*
X10585580Y-15756664D01*
X10585580Y-15756664D02*
X10604628Y-15766188D01*
X10604628Y-15766188D02*
X10614152Y-15775712D01*
X10614152Y-15775712D02*
X10623675Y-15794759D01*
X10623675Y-15794759D02*
X10633199Y-15832854D01*
X10633199Y-15832854D02*
X10633199Y-15880473D01*
X10633199Y-15880473D02*
X10623675Y-15918569D01*
X10623675Y-15918569D02*
X10614152Y-15937616D01*
X10614152Y-15937616D02*
X10604628Y-15947140D01*
X10604628Y-15947140D02*
X10585580Y-15956664D01*
X10585580Y-15956664D02*
X10566532Y-15956664D01*
X10566532Y-15956664D02*
X10547485Y-15947140D01*
X10547485Y-15947140D02*
X10537961Y-15937616D01*
X10537961Y-15937616D02*
X10528437Y-15918569D01*
X10528437Y-15918569D02*
X10518913Y-15880473D01*
X10518913Y-15880473D02*
X10518913Y-15832854D01*
X10518913Y-15832854D02*
X10528437Y-15794759D01*
X10528437Y-15794759D02*
X10537961Y-15775712D01*
X10537961Y-15775712D02*
X10547485Y-15766188D01*
X10547485Y-15766188D02*
X10566532Y-15756664D01*
X10718913Y-15937616D02*
X10728437Y-15947140D01*
X10728437Y-15947140D02*
X10718913Y-15956664D01*
X10718913Y-15956664D02*
X10709390Y-15947140D01*
X10709390Y-15947140D02*
X10718913Y-15937616D01*
X10718913Y-15937616D02*
X10718913Y-15956664D01*
X10795104Y-15756664D02*
X10928437Y-15756664D01*
X10928437Y-15756664D02*
X10842723Y-15956664D01*
X11099866Y-15756664D02*
X11004628Y-15756664D01*
X11004628Y-15756664D02*
X10995104Y-15851902D01*
X10995104Y-15851902D02*
X11004628Y-15842378D01*
X11004628Y-15842378D02*
X11023675Y-15832854D01*
X11023675Y-15832854D02*
X11071294Y-15832854D01*
X11071294Y-15832854D02*
X11090342Y-15842378D01*
X11090342Y-15842378D02*
X11099866Y-15851902D01*
X11099866Y-15851902D02*
X11109390Y-15870950D01*
X11109390Y-15870950D02*
X11109390Y-15918569D01*
X11109390Y-15918569D02*
X11099866Y-15937616D01*
X11099866Y-15937616D02*
X11090342Y-15947140D01*
X11090342Y-15947140D02*
X11071294Y-15956664D01*
X11071294Y-15956664D02*
X11023675Y-15956664D01*
X11023675Y-15956664D02*
X11004628Y-15947140D01*
X11004628Y-15947140D02*
X10995104Y-15937616D01*
X11233199Y-15756664D02*
X11252247Y-15756664D01*
X11252247Y-15756664D02*
X11271294Y-15766188D01*
X11271294Y-15766188D02*
X11280818Y-15775712D01*
X11280818Y-15775712D02*
X11290342Y-15794759D01*
X11290342Y-15794759D02*
X11299866Y-15832854D01*
X11299866Y-15832854D02*
X11299866Y-15880473D01*
X11299866Y-15880473D02*
X11290342Y-15918569D01*
X11290342Y-15918569D02*
X11280818Y-15937616D01*
X11280818Y-15937616D02*
X11271294Y-15947140D01*
X11271294Y-15947140D02*
X11252247Y-15956664D01*
X11252247Y-15956664D02*
X11233199Y-15956664D01*
X11233199Y-15956664D02*
X11214151Y-15947140D01*
X11214151Y-15947140D02*
X11204628Y-15937616D01*
X11204628Y-15937616D02*
X11195104Y-15918569D01*
X11195104Y-15918569D02*
X11185580Y-15880473D01*
X11185580Y-15880473D02*
X11185580Y-15832854D01*
X11185580Y-15832854D02*
X11195104Y-15794759D01*
X11195104Y-15794759D02*
X11204628Y-15775712D01*
X11204628Y-15775712D02*
X11214151Y-15766188D01*
X11214151Y-15766188D02*
X11233199Y-15756664D01*
X11385580Y-15956664D02*
X11385580Y-15823331D01*
X11385580Y-15842378D02*
X11395104Y-15832854D01*
X11395104Y-15832854D02*
X11414151Y-15823331D01*
X11414151Y-15823331D02*
X11442723Y-15823331D01*
X11442723Y-15823331D02*
X11461771Y-15832854D01*
X11461771Y-15832854D02*
X11471294Y-15851902D01*
X11471294Y-15851902D02*
X11471294Y-15956664D01*
X11471294Y-15851902D02*
X11480818Y-15832854D01*
X11480818Y-15832854D02*
X11499866Y-15823331D01*
X11499866Y-15823331D02*
X11528437Y-15823331D01*
X11528437Y-15823331D02*
X11547485Y-15832854D01*
X11547485Y-15832854D02*
X11557009Y-15851902D01*
X11557009Y-15851902D02*
X11557009Y-15956664D01*
X11652247Y-15956664D02*
X11652247Y-15823331D01*
X11652247Y-15842378D02*
X11661771Y-15832854D01*
X11661771Y-15832854D02*
X11680818Y-15823331D01*
X11680818Y-15823331D02*
X11709390Y-15823331D01*
X11709390Y-15823331D02*
X11728437Y-15832854D01*
X11728437Y-15832854D02*
X11737961Y-15851902D01*
X11737961Y-15851902D02*
X11737961Y-15956664D01*
X11737961Y-15851902D02*
X11747485Y-15832854D01*
X11747485Y-15832854D02*
X11766532Y-15823331D01*
X11766532Y-15823331D02*
X11795104Y-15823331D01*
X11795104Y-15823331D02*
X11814152Y-15832854D01*
X11814152Y-15832854D02*
X11823675Y-15851902D01*
X11823675Y-15851902D02*
X11823675Y-15956664D01*
X12181771Y-15747140D02*
X12010342Y-16004283D01*
X12406532Y-15756664D02*
X12425580Y-15756664D01*
X12425580Y-15756664D02*
X12444628Y-15766188D01*
X12444628Y-15766188D02*
X12454152Y-15775712D01*
X12454152Y-15775712D02*
X12463675Y-15794759D01*
X12463675Y-15794759D02*
X12473199Y-15832854D01*
X12473199Y-15832854D02*
X12473199Y-15880473D01*
X12473199Y-15880473D02*
X12463675Y-15918569D01*
X12463675Y-15918569D02*
X12454152Y-15937616D01*
X12454152Y-15937616D02*
X12444628Y-15947140D01*
X12444628Y-15947140D02*
X12425580Y-15956664D01*
X12425580Y-15956664D02*
X12406532Y-15956664D01*
X12406532Y-15956664D02*
X12387485Y-15947140D01*
X12387485Y-15947140D02*
X12377961Y-15937616D01*
X12377961Y-15937616D02*
X12368437Y-15918569D01*
X12368437Y-15918569D02*
X12358913Y-15880473D01*
X12358913Y-15880473D02*
X12358913Y-15832854D01*
X12358913Y-15832854D02*
X12368437Y-15794759D01*
X12368437Y-15794759D02*
X12377961Y-15775712D01*
X12377961Y-15775712D02*
X12387485Y-15766188D01*
X12387485Y-15766188D02*
X12406532Y-15756664D01*
X12558913Y-15937616D02*
X12568437Y-15947140D01*
X12568437Y-15947140D02*
X12558913Y-15956664D01*
X12558913Y-15956664D02*
X12549390Y-15947140D01*
X12549390Y-15947140D02*
X12558913Y-15937616D01*
X12558913Y-15937616D02*
X12558913Y-15956664D01*
X12692247Y-15756664D02*
X12711294Y-15756664D01*
X12711294Y-15756664D02*
X12730342Y-15766188D01*
X12730342Y-15766188D02*
X12739866Y-15775712D01*
X12739866Y-15775712D02*
X12749390Y-15794759D01*
X12749390Y-15794759D02*
X12758913Y-15832854D01*
X12758913Y-15832854D02*
X12758913Y-15880473D01*
X12758913Y-15880473D02*
X12749390Y-15918569D01*
X12749390Y-15918569D02*
X12739866Y-15937616D01*
X12739866Y-15937616D02*
X12730342Y-15947140D01*
X12730342Y-15947140D02*
X12711294Y-15956664D01*
X12711294Y-15956664D02*
X12692247Y-15956664D01*
X12692247Y-15956664D02*
X12673199Y-15947140D01*
X12673199Y-15947140D02*
X12663675Y-15937616D01*
X12663675Y-15937616D02*
X12654152Y-15918569D01*
X12654152Y-15918569D02*
X12644628Y-15880473D01*
X12644628Y-15880473D02*
X12644628Y-15832854D01*
X12644628Y-15832854D02*
X12654152Y-15794759D01*
X12654152Y-15794759D02*
X12663675Y-15775712D01*
X12663675Y-15775712D02*
X12673199Y-15766188D01*
X12673199Y-15766188D02*
X12692247Y-15756664D01*
X12835104Y-15775712D02*
X12844628Y-15766188D01*
X12844628Y-15766188D02*
X12863675Y-15756664D01*
X12863675Y-15756664D02*
X12911294Y-15756664D01*
X12911294Y-15756664D02*
X12930342Y-15766188D01*
X12930342Y-15766188D02*
X12939866Y-15775712D01*
X12939866Y-15775712D02*
X12949390Y-15794759D01*
X12949390Y-15794759D02*
X12949390Y-15813807D01*
X12949390Y-15813807D02*
X12939866Y-15842378D01*
X12939866Y-15842378D02*
X12825580Y-15956664D01*
X12825580Y-15956664D02*
X12949390Y-15956664D01*
X13044628Y-15956664D02*
X13082723Y-15956664D01*
X13082723Y-15956664D02*
X13101771Y-15947140D01*
X13101771Y-15947140D02*
X13111294Y-15937616D01*
X13111294Y-15937616D02*
X13130342Y-15909045D01*
X13130342Y-15909045D02*
X13139866Y-15870950D01*
X13139866Y-15870950D02*
X13139866Y-15794759D01*
X13139866Y-15794759D02*
X13130342Y-15775712D01*
X13130342Y-15775712D02*
X13120818Y-15766188D01*
X13120818Y-15766188D02*
X13101771Y-15756664D01*
X13101771Y-15756664D02*
X13063675Y-15756664D01*
X13063675Y-15756664D02*
X13044628Y-15766188D01*
X13044628Y-15766188D02*
X13035104Y-15775712D01*
X13035104Y-15775712D02*
X13025580Y-15794759D01*
X13025580Y-15794759D02*
X13025580Y-15842378D01*
X13025580Y-15842378D02*
X13035104Y-15861426D01*
X13035104Y-15861426D02*
X13044628Y-15870950D01*
X13044628Y-15870950D02*
X13063675Y-15880473D01*
X13063675Y-15880473D02*
X13101771Y-15880473D01*
X13101771Y-15880473D02*
X13120818Y-15870950D01*
X13120818Y-15870950D02*
X13130342Y-15861426D01*
X13130342Y-15861426D02*
X13139866Y-15842378D01*
X13320818Y-15756664D02*
X13225580Y-15756664D01*
X13225580Y-15756664D02*
X13216056Y-15851902D01*
X13216056Y-15851902D02*
X13225580Y-15842378D01*
X13225580Y-15842378D02*
X13244628Y-15832854D01*
X13244628Y-15832854D02*
X13292247Y-15832854D01*
X13292247Y-15832854D02*
X13311294Y-15842378D01*
X13311294Y-15842378D02*
X13320818Y-15851902D01*
X13320818Y-15851902D02*
X13330342Y-15870950D01*
X13330342Y-15870950D02*
X13330342Y-15918569D01*
X13330342Y-15918569D02*
X13320818Y-15937616D01*
X13320818Y-15937616D02*
X13311294Y-15947140D01*
X13311294Y-15947140D02*
X13292247Y-15956664D01*
X13292247Y-15956664D02*
X13244628Y-15956664D01*
X13244628Y-15956664D02*
X13225580Y-15947140D01*
X13225580Y-15947140D02*
X13216056Y-15937616D01*
X13406533Y-15756664D02*
X13406533Y-15794759D01*
X13482723Y-15756664D02*
X13482723Y-15794759D01*
X13745580Y-16032854D02*
X13736056Y-16023331D01*
X13736056Y-16023331D02*
X13717009Y-15994759D01*
X13717009Y-15994759D02*
X13707485Y-15975712D01*
X13707485Y-15975712D02*
X13697961Y-15947140D01*
X13697961Y-15947140D02*
X13688437Y-15899521D01*
X13688437Y-15899521D02*
X13688437Y-15861426D01*
X13688437Y-15861426D02*
X13697961Y-15813807D01*
X13697961Y-15813807D02*
X13707485Y-15785235D01*
X13707485Y-15785235D02*
X13717009Y-15766188D01*
X13717009Y-15766188D02*
X13736056Y-15737616D01*
X13736056Y-15737616D02*
X13745580Y-15728092D01*
X13926533Y-15956664D02*
X13812247Y-15956664D01*
X13869390Y-15956664D02*
X13869390Y-15756664D01*
X13869390Y-15756664D02*
X13850342Y-15785235D01*
X13850342Y-15785235D02*
X13831294Y-15804283D01*
X13831294Y-15804283D02*
X13812247Y-15813807D01*
X14002723Y-15775712D02*
X14012247Y-15766188D01*
X14012247Y-15766188D02*
X14031294Y-15756664D01*
X14031294Y-15756664D02*
X14078914Y-15756664D01*
X14078914Y-15756664D02*
X14097961Y-15766188D01*
X14097961Y-15766188D02*
X14107485Y-15775712D01*
X14107485Y-15775712D02*
X14117009Y-15794759D01*
X14117009Y-15794759D02*
X14117009Y-15813807D01*
X14117009Y-15813807D02*
X14107485Y-15842378D01*
X14107485Y-15842378D02*
X13993199Y-15956664D01*
X13993199Y-15956664D02*
X14117009Y-15956664D01*
X14322723Y-15956664D02*
X14322723Y-15756664D01*
X14408437Y-15956664D02*
X14408437Y-15851902D01*
X14408437Y-15851902D02*
X14398914Y-15832854D01*
X14398914Y-15832854D02*
X14379866Y-15823331D01*
X14379866Y-15823331D02*
X14351294Y-15823331D01*
X14351294Y-15823331D02*
X14332247Y-15832854D01*
X14332247Y-15832854D02*
X14322723Y-15842378D01*
X14532247Y-15956664D02*
X14513199Y-15947140D01*
X14513199Y-15947140D02*
X14503675Y-15937616D01*
X14503675Y-15937616D02*
X14494152Y-15918569D01*
X14494152Y-15918569D02*
X14494152Y-15861426D01*
X14494152Y-15861426D02*
X14503675Y-15842378D01*
X14503675Y-15842378D02*
X14513199Y-15832854D01*
X14513199Y-15832854D02*
X14532247Y-15823331D01*
X14532247Y-15823331D02*
X14560818Y-15823331D01*
X14560818Y-15823331D02*
X14579866Y-15832854D01*
X14579866Y-15832854D02*
X14589390Y-15842378D01*
X14589390Y-15842378D02*
X14598914Y-15861426D01*
X14598914Y-15861426D02*
X14598914Y-15918569D01*
X14598914Y-15918569D02*
X14589390Y-15937616D01*
X14589390Y-15937616D02*
X14579866Y-15947140D01*
X14579866Y-15947140D02*
X14560818Y-15956664D01*
X14560818Y-15956664D02*
X14532247Y-15956664D01*
X14713199Y-15956664D02*
X14694152Y-15947140D01*
X14694152Y-15947140D02*
X14684628Y-15928092D01*
X14684628Y-15928092D02*
X14684628Y-15756664D01*
X14865580Y-15947140D02*
X14846533Y-15956664D01*
X14846533Y-15956664D02*
X14808437Y-15956664D01*
X14808437Y-15956664D02*
X14789390Y-15947140D01*
X14789390Y-15947140D02*
X14779866Y-15928092D01*
X14779866Y-15928092D02*
X14779866Y-15851902D01*
X14779866Y-15851902D02*
X14789390Y-15832854D01*
X14789390Y-15832854D02*
X14808437Y-15823331D01*
X14808437Y-15823331D02*
X14846533Y-15823331D01*
X14846533Y-15823331D02*
X14865580Y-15832854D01*
X14865580Y-15832854D02*
X14875104Y-15851902D01*
X14875104Y-15851902D02*
X14875104Y-15870950D01*
X14875104Y-15870950D02*
X14779866Y-15889997D01*
X14951295Y-15947140D02*
X14970342Y-15956664D01*
X14970342Y-15956664D02*
X15008437Y-15956664D01*
X15008437Y-15956664D02*
X15027485Y-15947140D01*
X15027485Y-15947140D02*
X15037009Y-15928092D01*
X15037009Y-15928092D02*
X15037009Y-15918569D01*
X15037009Y-15918569D02*
X15027485Y-15899521D01*
X15027485Y-15899521D02*
X15008437Y-15889997D01*
X15008437Y-15889997D02*
X14979866Y-15889997D01*
X14979866Y-15889997D02*
X14960818Y-15880473D01*
X14960818Y-15880473D02*
X14951295Y-15861426D01*
X14951295Y-15861426D02*
X14951295Y-15851902D01*
X14951295Y-15851902D02*
X14960818Y-15832854D01*
X14960818Y-15832854D02*
X14979866Y-15823331D01*
X14979866Y-15823331D02*
X15008437Y-15823331D01*
X15008437Y-15823331D02*
X15027485Y-15832854D01*
X15103676Y-16032854D02*
X15113199Y-16023331D01*
X15113199Y-16023331D02*
X15132247Y-15994759D01*
X15132247Y-15994759D02*
X15141771Y-15975712D01*
X15141771Y-15975712D02*
X15151295Y-15947140D01*
X15151295Y-15947140D02*
X15160818Y-15899521D01*
X15160818Y-15899521D02*
X15160818Y-15861426D01*
X15160818Y-15861426D02*
X15151295Y-15813807D01*
X15151295Y-15813807D02*
X15141771Y-15785235D01*
X15141771Y-15785235D02*
X15132247Y-15766188D01*
X15132247Y-15766188D02*
X15113199Y-15737616D01*
X15113199Y-15737616D02*
X15103676Y-15728092D01*
D14*
X10269103Y-16175472D02*
X10269103Y-16118903D01*
X10212534Y-16118903D01*
X10212534Y-16175472D01*
X10269103Y-16175472D01*
D10*
X10566532Y-16020664D02*
X10585580Y-16020664D01*
X10585580Y-16020664D02*
X10604628Y-16030188D01*
X10604628Y-16030188D02*
X10614152Y-16039712D01*
X10614152Y-16039712D02*
X10623675Y-16058759D01*
X10623675Y-16058759D02*
X10633199Y-16096854D01*
X10633199Y-16096854D02*
X10633199Y-16144473D01*
X10633199Y-16144473D02*
X10623675Y-16182569D01*
X10623675Y-16182569D02*
X10614152Y-16201616D01*
X10614152Y-16201616D02*
X10604628Y-16211140D01*
X10604628Y-16211140D02*
X10585580Y-16220664D01*
X10585580Y-16220664D02*
X10566532Y-16220664D01*
X10566532Y-16220664D02*
X10547485Y-16211140D01*
X10547485Y-16211140D02*
X10537961Y-16201616D01*
X10537961Y-16201616D02*
X10528437Y-16182569D01*
X10528437Y-16182569D02*
X10518913Y-16144473D01*
X10518913Y-16144473D02*
X10518913Y-16096854D01*
X10518913Y-16096854D02*
X10528437Y-16058759D01*
X10528437Y-16058759D02*
X10537961Y-16039712D01*
X10537961Y-16039712D02*
X10547485Y-16030188D01*
X10547485Y-16030188D02*
X10566532Y-16020664D01*
X10718913Y-16201616D02*
X10728437Y-16211140D01*
X10728437Y-16211140D02*
X10718913Y-16220664D01*
X10718913Y-16220664D02*
X10709390Y-16211140D01*
X10709390Y-16211140D02*
X10718913Y-16201616D01*
X10718913Y-16201616D02*
X10718913Y-16220664D01*
X10842723Y-16106378D02*
X10823675Y-16096854D01*
X10823675Y-16096854D02*
X10814152Y-16087331D01*
X10814152Y-16087331D02*
X10804628Y-16068283D01*
X10804628Y-16068283D02*
X10804628Y-16058759D01*
X10804628Y-16058759D02*
X10814152Y-16039712D01*
X10814152Y-16039712D02*
X10823675Y-16030188D01*
X10823675Y-16030188D02*
X10842723Y-16020664D01*
X10842723Y-16020664D02*
X10880818Y-16020664D01*
X10880818Y-16020664D02*
X10899866Y-16030188D01*
X10899866Y-16030188D02*
X10909390Y-16039712D01*
X10909390Y-16039712D02*
X10918913Y-16058759D01*
X10918913Y-16058759D02*
X10918913Y-16068283D01*
X10918913Y-16068283D02*
X10909390Y-16087331D01*
X10909390Y-16087331D02*
X10899866Y-16096854D01*
X10899866Y-16096854D02*
X10880818Y-16106378D01*
X10880818Y-16106378D02*
X10842723Y-16106378D01*
X10842723Y-16106378D02*
X10823675Y-16115902D01*
X10823675Y-16115902D02*
X10814152Y-16125426D01*
X10814152Y-16125426D02*
X10804628Y-16144473D01*
X10804628Y-16144473D02*
X10804628Y-16182569D01*
X10804628Y-16182569D02*
X10814152Y-16201616D01*
X10814152Y-16201616D02*
X10823675Y-16211140D01*
X10823675Y-16211140D02*
X10842723Y-16220664D01*
X10842723Y-16220664D02*
X10880818Y-16220664D01*
X10880818Y-16220664D02*
X10899866Y-16211140D01*
X10899866Y-16211140D02*
X10909390Y-16201616D01*
X10909390Y-16201616D02*
X10918913Y-16182569D01*
X10918913Y-16182569D02*
X10918913Y-16144473D01*
X10918913Y-16144473D02*
X10909390Y-16125426D01*
X10909390Y-16125426D02*
X10899866Y-16115902D01*
X10899866Y-16115902D02*
X10880818Y-16106378D01*
X11042723Y-16020664D02*
X11061771Y-16020664D01*
X11061771Y-16020664D02*
X11080818Y-16030188D01*
X11080818Y-16030188D02*
X11090342Y-16039712D01*
X11090342Y-16039712D02*
X11099866Y-16058759D01*
X11099866Y-16058759D02*
X11109390Y-16096854D01*
X11109390Y-16096854D02*
X11109390Y-16144473D01*
X11109390Y-16144473D02*
X11099866Y-16182569D01*
X11099866Y-16182569D02*
X11090342Y-16201616D01*
X11090342Y-16201616D02*
X11080818Y-16211140D01*
X11080818Y-16211140D02*
X11061771Y-16220664D01*
X11061771Y-16220664D02*
X11042723Y-16220664D01*
X11042723Y-16220664D02*
X11023675Y-16211140D01*
X11023675Y-16211140D02*
X11014152Y-16201616D01*
X11014152Y-16201616D02*
X11004628Y-16182569D01*
X11004628Y-16182569D02*
X10995104Y-16144473D01*
X10995104Y-16144473D02*
X10995104Y-16096854D01*
X10995104Y-16096854D02*
X11004628Y-16058759D01*
X11004628Y-16058759D02*
X11014152Y-16039712D01*
X11014152Y-16039712D02*
X11023675Y-16030188D01*
X11023675Y-16030188D02*
X11042723Y-16020664D01*
X11233199Y-16020664D02*
X11252247Y-16020664D01*
X11252247Y-16020664D02*
X11271294Y-16030188D01*
X11271294Y-16030188D02*
X11280818Y-16039712D01*
X11280818Y-16039712D02*
X11290342Y-16058759D01*
X11290342Y-16058759D02*
X11299866Y-16096854D01*
X11299866Y-16096854D02*
X11299866Y-16144473D01*
X11299866Y-16144473D02*
X11290342Y-16182569D01*
X11290342Y-16182569D02*
X11280818Y-16201616D01*
X11280818Y-16201616D02*
X11271294Y-16211140D01*
X11271294Y-16211140D02*
X11252247Y-16220664D01*
X11252247Y-16220664D02*
X11233199Y-16220664D01*
X11233199Y-16220664D02*
X11214151Y-16211140D01*
X11214151Y-16211140D02*
X11204628Y-16201616D01*
X11204628Y-16201616D02*
X11195104Y-16182569D01*
X11195104Y-16182569D02*
X11185580Y-16144473D01*
X11185580Y-16144473D02*
X11185580Y-16096854D01*
X11185580Y-16096854D02*
X11195104Y-16058759D01*
X11195104Y-16058759D02*
X11204628Y-16039712D01*
X11204628Y-16039712D02*
X11214151Y-16030188D01*
X11214151Y-16030188D02*
X11233199Y-16020664D01*
X11385580Y-16220664D02*
X11385580Y-16087331D01*
X11385580Y-16106378D02*
X11395104Y-16096854D01*
X11395104Y-16096854D02*
X11414151Y-16087331D01*
X11414151Y-16087331D02*
X11442723Y-16087331D01*
X11442723Y-16087331D02*
X11461771Y-16096854D01*
X11461771Y-16096854D02*
X11471294Y-16115902D01*
X11471294Y-16115902D02*
X11471294Y-16220664D01*
X11471294Y-16115902D02*
X11480818Y-16096854D01*
X11480818Y-16096854D02*
X11499866Y-16087331D01*
X11499866Y-16087331D02*
X11528437Y-16087331D01*
X11528437Y-16087331D02*
X11547485Y-16096854D01*
X11547485Y-16096854D02*
X11557009Y-16115902D01*
X11557009Y-16115902D02*
X11557009Y-16220664D01*
X11652247Y-16220664D02*
X11652247Y-16087331D01*
X11652247Y-16106378D02*
X11661771Y-16096854D01*
X11661771Y-16096854D02*
X11680818Y-16087331D01*
X11680818Y-16087331D02*
X11709390Y-16087331D01*
X11709390Y-16087331D02*
X11728437Y-16096854D01*
X11728437Y-16096854D02*
X11737961Y-16115902D01*
X11737961Y-16115902D02*
X11737961Y-16220664D01*
X11737961Y-16115902D02*
X11747485Y-16096854D01*
X11747485Y-16096854D02*
X11766532Y-16087331D01*
X11766532Y-16087331D02*
X11795104Y-16087331D01*
X11795104Y-16087331D02*
X11814152Y-16096854D01*
X11814152Y-16096854D02*
X11823675Y-16115902D01*
X11823675Y-16115902D02*
X11823675Y-16220664D01*
X12181771Y-16011140D02*
X12010342Y-16268283D01*
X12406532Y-16020664D02*
X12425580Y-16020664D01*
X12425580Y-16020664D02*
X12444628Y-16030188D01*
X12444628Y-16030188D02*
X12454152Y-16039712D01*
X12454152Y-16039712D02*
X12463675Y-16058759D01*
X12463675Y-16058759D02*
X12473199Y-16096854D01*
X12473199Y-16096854D02*
X12473199Y-16144473D01*
X12473199Y-16144473D02*
X12463675Y-16182569D01*
X12463675Y-16182569D02*
X12454152Y-16201616D01*
X12454152Y-16201616D02*
X12444628Y-16211140D01*
X12444628Y-16211140D02*
X12425580Y-16220664D01*
X12425580Y-16220664D02*
X12406532Y-16220664D01*
X12406532Y-16220664D02*
X12387485Y-16211140D01*
X12387485Y-16211140D02*
X12377961Y-16201616D01*
X12377961Y-16201616D02*
X12368437Y-16182569D01*
X12368437Y-16182569D02*
X12358913Y-16144473D01*
X12358913Y-16144473D02*
X12358913Y-16096854D01*
X12358913Y-16096854D02*
X12368437Y-16058759D01*
X12368437Y-16058759D02*
X12377961Y-16039712D01*
X12377961Y-16039712D02*
X12387485Y-16030188D01*
X12387485Y-16030188D02*
X12406532Y-16020664D01*
X12558913Y-16201616D02*
X12568437Y-16211140D01*
X12568437Y-16211140D02*
X12558913Y-16220664D01*
X12558913Y-16220664D02*
X12549390Y-16211140D01*
X12549390Y-16211140D02*
X12558913Y-16201616D01*
X12558913Y-16201616D02*
X12558913Y-16220664D01*
X12692247Y-16020664D02*
X12711294Y-16020664D01*
X12711294Y-16020664D02*
X12730342Y-16030188D01*
X12730342Y-16030188D02*
X12739866Y-16039712D01*
X12739866Y-16039712D02*
X12749390Y-16058759D01*
X12749390Y-16058759D02*
X12758913Y-16096854D01*
X12758913Y-16096854D02*
X12758913Y-16144473D01*
X12758913Y-16144473D02*
X12749390Y-16182569D01*
X12749390Y-16182569D02*
X12739866Y-16201616D01*
X12739866Y-16201616D02*
X12730342Y-16211140D01*
X12730342Y-16211140D02*
X12711294Y-16220664D01*
X12711294Y-16220664D02*
X12692247Y-16220664D01*
X12692247Y-16220664D02*
X12673199Y-16211140D01*
X12673199Y-16211140D02*
X12663675Y-16201616D01*
X12663675Y-16201616D02*
X12654152Y-16182569D01*
X12654152Y-16182569D02*
X12644628Y-16144473D01*
X12644628Y-16144473D02*
X12644628Y-16096854D01*
X12644628Y-16096854D02*
X12654152Y-16058759D01*
X12654152Y-16058759D02*
X12663675Y-16039712D01*
X12663675Y-16039712D02*
X12673199Y-16030188D01*
X12673199Y-16030188D02*
X12692247Y-16020664D01*
X12825580Y-16020664D02*
X12949390Y-16020664D01*
X12949390Y-16020664D02*
X12882723Y-16096854D01*
X12882723Y-16096854D02*
X12911294Y-16096854D01*
X12911294Y-16096854D02*
X12930342Y-16106378D01*
X12930342Y-16106378D02*
X12939866Y-16115902D01*
X12939866Y-16115902D02*
X12949390Y-16134950D01*
X12949390Y-16134950D02*
X12949390Y-16182569D01*
X12949390Y-16182569D02*
X12939866Y-16201616D01*
X12939866Y-16201616D02*
X12930342Y-16211140D01*
X12930342Y-16211140D02*
X12911294Y-16220664D01*
X12911294Y-16220664D02*
X12854152Y-16220664D01*
X12854152Y-16220664D02*
X12835104Y-16211140D01*
X12835104Y-16211140D02*
X12825580Y-16201616D01*
X13139866Y-16220664D02*
X13025580Y-16220664D01*
X13082723Y-16220664D02*
X13082723Y-16020664D01*
X13082723Y-16020664D02*
X13063675Y-16049235D01*
X13063675Y-16049235D02*
X13044628Y-16068283D01*
X13044628Y-16068283D02*
X13025580Y-16077807D01*
X13320818Y-16020664D02*
X13225580Y-16020664D01*
X13225580Y-16020664D02*
X13216056Y-16115902D01*
X13216056Y-16115902D02*
X13225580Y-16106378D01*
X13225580Y-16106378D02*
X13244628Y-16096854D01*
X13244628Y-16096854D02*
X13292247Y-16096854D01*
X13292247Y-16096854D02*
X13311294Y-16106378D01*
X13311294Y-16106378D02*
X13320818Y-16115902D01*
X13320818Y-16115902D02*
X13330342Y-16134950D01*
X13330342Y-16134950D02*
X13330342Y-16182569D01*
X13330342Y-16182569D02*
X13320818Y-16201616D01*
X13320818Y-16201616D02*
X13311294Y-16211140D01*
X13311294Y-16211140D02*
X13292247Y-16220664D01*
X13292247Y-16220664D02*
X13244628Y-16220664D01*
X13244628Y-16220664D02*
X13225580Y-16211140D01*
X13225580Y-16211140D02*
X13216056Y-16201616D01*
X13406533Y-16020664D02*
X13406533Y-16058759D01*
X13482723Y-16020664D02*
X13482723Y-16058759D01*
X13745580Y-16296854D02*
X13736056Y-16287331D01*
X13736056Y-16287331D02*
X13717009Y-16258759D01*
X13717009Y-16258759D02*
X13707485Y-16239712D01*
X13707485Y-16239712D02*
X13697961Y-16211140D01*
X13697961Y-16211140D02*
X13688437Y-16163521D01*
X13688437Y-16163521D02*
X13688437Y-16125426D01*
X13688437Y-16125426D02*
X13697961Y-16077807D01*
X13697961Y-16077807D02*
X13707485Y-16049235D01*
X13707485Y-16049235D02*
X13717009Y-16030188D01*
X13717009Y-16030188D02*
X13736056Y-16001616D01*
X13736056Y-16001616D02*
X13745580Y-15992092D01*
X13926533Y-16220664D02*
X13812247Y-16220664D01*
X13869390Y-16220664D02*
X13869390Y-16020664D01*
X13869390Y-16020664D02*
X13850342Y-16049235D01*
X13850342Y-16049235D02*
X13831294Y-16068283D01*
X13831294Y-16068283D02*
X13812247Y-16077807D01*
X14097961Y-16020664D02*
X14059866Y-16020664D01*
X14059866Y-16020664D02*
X14040818Y-16030188D01*
X14040818Y-16030188D02*
X14031294Y-16039712D01*
X14031294Y-16039712D02*
X14012247Y-16068283D01*
X14012247Y-16068283D02*
X14002723Y-16106378D01*
X14002723Y-16106378D02*
X14002723Y-16182569D01*
X14002723Y-16182569D02*
X14012247Y-16201616D01*
X14012247Y-16201616D02*
X14021771Y-16211140D01*
X14021771Y-16211140D02*
X14040818Y-16220664D01*
X14040818Y-16220664D02*
X14078914Y-16220664D01*
X14078914Y-16220664D02*
X14097961Y-16211140D01*
X14097961Y-16211140D02*
X14107485Y-16201616D01*
X14107485Y-16201616D02*
X14117009Y-16182569D01*
X14117009Y-16182569D02*
X14117009Y-16134950D01*
X14117009Y-16134950D02*
X14107485Y-16115902D01*
X14107485Y-16115902D02*
X14097961Y-16106378D01*
X14097961Y-16106378D02*
X14078914Y-16096854D01*
X14078914Y-16096854D02*
X14040818Y-16096854D01*
X14040818Y-16096854D02*
X14021771Y-16106378D01*
X14021771Y-16106378D02*
X14012247Y-16115902D01*
X14012247Y-16115902D02*
X14002723Y-16134950D01*
X14322723Y-16220664D02*
X14322723Y-16020664D01*
X14408437Y-16220664D02*
X14408437Y-16115902D01*
X14408437Y-16115902D02*
X14398914Y-16096854D01*
X14398914Y-16096854D02*
X14379866Y-16087331D01*
X14379866Y-16087331D02*
X14351294Y-16087331D01*
X14351294Y-16087331D02*
X14332247Y-16096854D01*
X14332247Y-16096854D02*
X14322723Y-16106378D01*
X14532247Y-16220664D02*
X14513199Y-16211140D01*
X14513199Y-16211140D02*
X14503675Y-16201616D01*
X14503675Y-16201616D02*
X14494152Y-16182569D01*
X14494152Y-16182569D02*
X14494152Y-16125426D01*
X14494152Y-16125426D02*
X14503675Y-16106378D01*
X14503675Y-16106378D02*
X14513199Y-16096854D01*
X14513199Y-16096854D02*
X14532247Y-16087331D01*
X14532247Y-16087331D02*
X14560818Y-16087331D01*
X14560818Y-16087331D02*
X14579866Y-16096854D01*
X14579866Y-16096854D02*
X14589390Y-16106378D01*
X14589390Y-16106378D02*
X14598914Y-16125426D01*
X14598914Y-16125426D02*
X14598914Y-16182569D01*
X14598914Y-16182569D02*
X14589390Y-16201616D01*
X14589390Y-16201616D02*
X14579866Y-16211140D01*
X14579866Y-16211140D02*
X14560818Y-16220664D01*
X14560818Y-16220664D02*
X14532247Y-16220664D01*
X14713199Y-16220664D02*
X14694152Y-16211140D01*
X14694152Y-16211140D02*
X14684628Y-16192092D01*
X14684628Y-16192092D02*
X14684628Y-16020664D01*
X14865580Y-16211140D02*
X14846533Y-16220664D01*
X14846533Y-16220664D02*
X14808437Y-16220664D01*
X14808437Y-16220664D02*
X14789390Y-16211140D01*
X14789390Y-16211140D02*
X14779866Y-16192092D01*
X14779866Y-16192092D02*
X14779866Y-16115902D01*
X14779866Y-16115902D02*
X14789390Y-16096854D01*
X14789390Y-16096854D02*
X14808437Y-16087331D01*
X14808437Y-16087331D02*
X14846533Y-16087331D01*
X14846533Y-16087331D02*
X14865580Y-16096854D01*
X14865580Y-16096854D02*
X14875104Y-16115902D01*
X14875104Y-16115902D02*
X14875104Y-16134950D01*
X14875104Y-16134950D02*
X14779866Y-16153997D01*
X14951295Y-16211140D02*
X14970342Y-16220664D01*
X14970342Y-16220664D02*
X15008437Y-16220664D01*
X15008437Y-16220664D02*
X15027485Y-16211140D01*
X15027485Y-16211140D02*
X15037009Y-16192092D01*
X15037009Y-16192092D02*
X15037009Y-16182569D01*
X15037009Y-16182569D02*
X15027485Y-16163521D01*
X15027485Y-16163521D02*
X15008437Y-16153997D01*
X15008437Y-16153997D02*
X14979866Y-16153997D01*
X14979866Y-16153997D02*
X14960818Y-16144473D01*
X14960818Y-16144473D02*
X14951295Y-16125426D01*
X14951295Y-16125426D02*
X14951295Y-16115902D01*
X14951295Y-16115902D02*
X14960818Y-16096854D01*
X14960818Y-16096854D02*
X14979866Y-16087331D01*
X14979866Y-16087331D02*
X15008437Y-16087331D01*
X15008437Y-16087331D02*
X15027485Y-16096854D01*
X15103676Y-16296854D02*
X15113199Y-16287331D01*
X15113199Y-16287331D02*
X15132247Y-16258759D01*
X15132247Y-16258759D02*
X15141771Y-16239712D01*
X15141771Y-16239712D02*
X15151295Y-16211140D01*
X15151295Y-16211140D02*
X15160818Y-16163521D01*
X15160818Y-16163521D02*
X15160818Y-16125426D01*
X15160818Y-16125426D02*
X15151295Y-16077807D01*
X15151295Y-16077807D02*
X15141771Y-16049235D01*
X15141771Y-16049235D02*
X15132247Y-16030188D01*
X15132247Y-16030188D02*
X15113199Y-16001616D01*
X15113199Y-16001616D02*
X15103676Y-15992092D01*
D15*
X10230818Y-16461188D02*
X10280818Y-16411188D01*
X10230818Y-16361188D01*
X10180818Y-16411188D01*
X10230818Y-16461188D01*
D10*
X10633199Y-16484664D02*
X10518913Y-16484664D01*
X10576056Y-16484664D02*
X10576056Y-16284664D01*
X10576056Y-16284664D02*
X10557009Y-16313235D01*
X10557009Y-16313235D02*
X10537961Y-16332283D01*
X10537961Y-16332283D02*
X10518913Y-16341807D01*
X10718913Y-16465616D02*
X10728437Y-16475140D01*
X10728437Y-16475140D02*
X10718913Y-16484664D01*
X10718913Y-16484664D02*
X10709390Y-16475140D01*
X10709390Y-16475140D02*
X10718913Y-16465616D01*
X10718913Y-16465616D02*
X10718913Y-16484664D01*
X10852247Y-16284664D02*
X10871294Y-16284664D01*
X10871294Y-16284664D02*
X10890342Y-16294188D01*
X10890342Y-16294188D02*
X10899866Y-16303712D01*
X10899866Y-16303712D02*
X10909390Y-16322759D01*
X10909390Y-16322759D02*
X10918913Y-16360854D01*
X10918913Y-16360854D02*
X10918913Y-16408473D01*
X10918913Y-16408473D02*
X10909390Y-16446569D01*
X10909390Y-16446569D02*
X10899866Y-16465616D01*
X10899866Y-16465616D02*
X10890342Y-16475140D01*
X10890342Y-16475140D02*
X10871294Y-16484664D01*
X10871294Y-16484664D02*
X10852247Y-16484664D01*
X10852247Y-16484664D02*
X10833199Y-16475140D01*
X10833199Y-16475140D02*
X10823675Y-16465616D01*
X10823675Y-16465616D02*
X10814152Y-16446569D01*
X10814152Y-16446569D02*
X10804628Y-16408473D01*
X10804628Y-16408473D02*
X10804628Y-16360854D01*
X10804628Y-16360854D02*
X10814152Y-16322759D01*
X10814152Y-16322759D02*
X10823675Y-16303712D01*
X10823675Y-16303712D02*
X10833199Y-16294188D01*
X10833199Y-16294188D02*
X10852247Y-16284664D01*
X11042723Y-16284664D02*
X11061771Y-16284664D01*
X11061771Y-16284664D02*
X11080818Y-16294188D01*
X11080818Y-16294188D02*
X11090342Y-16303712D01*
X11090342Y-16303712D02*
X11099866Y-16322759D01*
X11099866Y-16322759D02*
X11109390Y-16360854D01*
X11109390Y-16360854D02*
X11109390Y-16408473D01*
X11109390Y-16408473D02*
X11099866Y-16446569D01*
X11099866Y-16446569D02*
X11090342Y-16465616D01*
X11090342Y-16465616D02*
X11080818Y-16475140D01*
X11080818Y-16475140D02*
X11061771Y-16484664D01*
X11061771Y-16484664D02*
X11042723Y-16484664D01*
X11042723Y-16484664D02*
X11023675Y-16475140D01*
X11023675Y-16475140D02*
X11014152Y-16465616D01*
X11014152Y-16465616D02*
X11004628Y-16446569D01*
X11004628Y-16446569D02*
X10995104Y-16408473D01*
X10995104Y-16408473D02*
X10995104Y-16360854D01*
X10995104Y-16360854D02*
X11004628Y-16322759D01*
X11004628Y-16322759D02*
X11014152Y-16303712D01*
X11014152Y-16303712D02*
X11023675Y-16294188D01*
X11023675Y-16294188D02*
X11042723Y-16284664D01*
X11233199Y-16284664D02*
X11252247Y-16284664D01*
X11252247Y-16284664D02*
X11271294Y-16294188D01*
X11271294Y-16294188D02*
X11280818Y-16303712D01*
X11280818Y-16303712D02*
X11290342Y-16322759D01*
X11290342Y-16322759D02*
X11299866Y-16360854D01*
X11299866Y-16360854D02*
X11299866Y-16408473D01*
X11299866Y-16408473D02*
X11290342Y-16446569D01*
X11290342Y-16446569D02*
X11280818Y-16465616D01*
X11280818Y-16465616D02*
X11271294Y-16475140D01*
X11271294Y-16475140D02*
X11252247Y-16484664D01*
X11252247Y-16484664D02*
X11233199Y-16484664D01*
X11233199Y-16484664D02*
X11214151Y-16475140D01*
X11214151Y-16475140D02*
X11204628Y-16465616D01*
X11204628Y-16465616D02*
X11195104Y-16446569D01*
X11195104Y-16446569D02*
X11185580Y-16408473D01*
X11185580Y-16408473D02*
X11185580Y-16360854D01*
X11185580Y-16360854D02*
X11195104Y-16322759D01*
X11195104Y-16322759D02*
X11204628Y-16303712D01*
X11204628Y-16303712D02*
X11214151Y-16294188D01*
X11214151Y-16294188D02*
X11233199Y-16284664D01*
X11385580Y-16484664D02*
X11385580Y-16351331D01*
X11385580Y-16370378D02*
X11395104Y-16360854D01*
X11395104Y-16360854D02*
X11414151Y-16351331D01*
X11414151Y-16351331D02*
X11442723Y-16351331D01*
X11442723Y-16351331D02*
X11461771Y-16360854D01*
X11461771Y-16360854D02*
X11471294Y-16379902D01*
X11471294Y-16379902D02*
X11471294Y-16484664D01*
X11471294Y-16379902D02*
X11480818Y-16360854D01*
X11480818Y-16360854D02*
X11499866Y-16351331D01*
X11499866Y-16351331D02*
X11528437Y-16351331D01*
X11528437Y-16351331D02*
X11547485Y-16360854D01*
X11547485Y-16360854D02*
X11557009Y-16379902D01*
X11557009Y-16379902D02*
X11557009Y-16484664D01*
X11652247Y-16484664D02*
X11652247Y-16351331D01*
X11652247Y-16370378D02*
X11661771Y-16360854D01*
X11661771Y-16360854D02*
X11680818Y-16351331D01*
X11680818Y-16351331D02*
X11709390Y-16351331D01*
X11709390Y-16351331D02*
X11728437Y-16360854D01*
X11728437Y-16360854D02*
X11737961Y-16379902D01*
X11737961Y-16379902D02*
X11737961Y-16484664D01*
X11737961Y-16379902D02*
X11747485Y-16360854D01*
X11747485Y-16360854D02*
X11766532Y-16351331D01*
X11766532Y-16351331D02*
X11795104Y-16351331D01*
X11795104Y-16351331D02*
X11814152Y-16360854D01*
X11814152Y-16360854D02*
X11823675Y-16379902D01*
X11823675Y-16379902D02*
X11823675Y-16484664D01*
X12181771Y-16275140D02*
X12010342Y-16532283D01*
X12406532Y-16284664D02*
X12425580Y-16284664D01*
X12425580Y-16284664D02*
X12444628Y-16294188D01*
X12444628Y-16294188D02*
X12454152Y-16303712D01*
X12454152Y-16303712D02*
X12463675Y-16322759D01*
X12463675Y-16322759D02*
X12473199Y-16360854D01*
X12473199Y-16360854D02*
X12473199Y-16408473D01*
X12473199Y-16408473D02*
X12463675Y-16446569D01*
X12463675Y-16446569D02*
X12454152Y-16465616D01*
X12454152Y-16465616D02*
X12444628Y-16475140D01*
X12444628Y-16475140D02*
X12425580Y-16484664D01*
X12425580Y-16484664D02*
X12406532Y-16484664D01*
X12406532Y-16484664D02*
X12387485Y-16475140D01*
X12387485Y-16475140D02*
X12377961Y-16465616D01*
X12377961Y-16465616D02*
X12368437Y-16446569D01*
X12368437Y-16446569D02*
X12358913Y-16408473D01*
X12358913Y-16408473D02*
X12358913Y-16360854D01*
X12358913Y-16360854D02*
X12368437Y-16322759D01*
X12368437Y-16322759D02*
X12377961Y-16303712D01*
X12377961Y-16303712D02*
X12387485Y-16294188D01*
X12387485Y-16294188D02*
X12406532Y-16284664D01*
X12558913Y-16465616D02*
X12568437Y-16475140D01*
X12568437Y-16475140D02*
X12558913Y-16484664D01*
X12558913Y-16484664D02*
X12549390Y-16475140D01*
X12549390Y-16475140D02*
X12558913Y-16465616D01*
X12558913Y-16465616D02*
X12558913Y-16484664D01*
X12692247Y-16284664D02*
X12711294Y-16284664D01*
X12711294Y-16284664D02*
X12730342Y-16294188D01*
X12730342Y-16294188D02*
X12739866Y-16303712D01*
X12739866Y-16303712D02*
X12749390Y-16322759D01*
X12749390Y-16322759D02*
X12758913Y-16360854D01*
X12758913Y-16360854D02*
X12758913Y-16408473D01*
X12758913Y-16408473D02*
X12749390Y-16446569D01*
X12749390Y-16446569D02*
X12739866Y-16465616D01*
X12739866Y-16465616D02*
X12730342Y-16475140D01*
X12730342Y-16475140D02*
X12711294Y-16484664D01*
X12711294Y-16484664D02*
X12692247Y-16484664D01*
X12692247Y-16484664D02*
X12673199Y-16475140D01*
X12673199Y-16475140D02*
X12663675Y-16465616D01*
X12663675Y-16465616D02*
X12654152Y-16446569D01*
X12654152Y-16446569D02*
X12644628Y-16408473D01*
X12644628Y-16408473D02*
X12644628Y-16360854D01*
X12644628Y-16360854D02*
X12654152Y-16322759D01*
X12654152Y-16322759D02*
X12663675Y-16303712D01*
X12663675Y-16303712D02*
X12673199Y-16294188D01*
X12673199Y-16294188D02*
X12692247Y-16284664D01*
X12825580Y-16284664D02*
X12949390Y-16284664D01*
X12949390Y-16284664D02*
X12882723Y-16360854D01*
X12882723Y-16360854D02*
X12911294Y-16360854D01*
X12911294Y-16360854D02*
X12930342Y-16370378D01*
X12930342Y-16370378D02*
X12939866Y-16379902D01*
X12939866Y-16379902D02*
X12949390Y-16398950D01*
X12949390Y-16398950D02*
X12949390Y-16446569D01*
X12949390Y-16446569D02*
X12939866Y-16465616D01*
X12939866Y-16465616D02*
X12930342Y-16475140D01*
X12930342Y-16475140D02*
X12911294Y-16484664D01*
X12911294Y-16484664D02*
X12854152Y-16484664D01*
X12854152Y-16484664D02*
X12835104Y-16475140D01*
X12835104Y-16475140D02*
X12825580Y-16465616D01*
X13044628Y-16484664D02*
X13082723Y-16484664D01*
X13082723Y-16484664D02*
X13101771Y-16475140D01*
X13101771Y-16475140D02*
X13111294Y-16465616D01*
X13111294Y-16465616D02*
X13130342Y-16437045D01*
X13130342Y-16437045D02*
X13139866Y-16398950D01*
X13139866Y-16398950D02*
X13139866Y-16322759D01*
X13139866Y-16322759D02*
X13130342Y-16303712D01*
X13130342Y-16303712D02*
X13120818Y-16294188D01*
X13120818Y-16294188D02*
X13101771Y-16284664D01*
X13101771Y-16284664D02*
X13063675Y-16284664D01*
X13063675Y-16284664D02*
X13044628Y-16294188D01*
X13044628Y-16294188D02*
X13035104Y-16303712D01*
X13035104Y-16303712D02*
X13025580Y-16322759D01*
X13025580Y-16322759D02*
X13025580Y-16370378D01*
X13025580Y-16370378D02*
X13035104Y-16389426D01*
X13035104Y-16389426D02*
X13044628Y-16398950D01*
X13044628Y-16398950D02*
X13063675Y-16408473D01*
X13063675Y-16408473D02*
X13101771Y-16408473D01*
X13101771Y-16408473D02*
X13120818Y-16398950D01*
X13120818Y-16398950D02*
X13130342Y-16389426D01*
X13130342Y-16389426D02*
X13139866Y-16370378D01*
X13311294Y-16351331D02*
X13311294Y-16484664D01*
X13263675Y-16275140D02*
X13216056Y-16417997D01*
X13216056Y-16417997D02*
X13339866Y-16417997D01*
X13406533Y-16284664D02*
X13406533Y-16322759D01*
X13482723Y-16284664D02*
X13482723Y-16322759D01*
X13745580Y-16560854D02*
X13736056Y-16551331D01*
X13736056Y-16551331D02*
X13717009Y-16522759D01*
X13717009Y-16522759D02*
X13707485Y-16503712D01*
X13707485Y-16503712D02*
X13697961Y-16475140D01*
X13697961Y-16475140D02*
X13688437Y-16427521D01*
X13688437Y-16427521D02*
X13688437Y-16389426D01*
X13688437Y-16389426D02*
X13697961Y-16341807D01*
X13697961Y-16341807D02*
X13707485Y-16313235D01*
X13707485Y-16313235D02*
X13717009Y-16294188D01*
X13717009Y-16294188D02*
X13736056Y-16265616D01*
X13736056Y-16265616D02*
X13745580Y-16256092D01*
X13802723Y-16284664D02*
X13926533Y-16284664D01*
X13926533Y-16284664D02*
X13859866Y-16360854D01*
X13859866Y-16360854D02*
X13888437Y-16360854D01*
X13888437Y-16360854D02*
X13907485Y-16370378D01*
X13907485Y-16370378D02*
X13917009Y-16379902D01*
X13917009Y-16379902D02*
X13926533Y-16398950D01*
X13926533Y-16398950D02*
X13926533Y-16446569D01*
X13926533Y-16446569D02*
X13917009Y-16465616D01*
X13917009Y-16465616D02*
X13907485Y-16475140D01*
X13907485Y-16475140D02*
X13888437Y-16484664D01*
X13888437Y-16484664D02*
X13831294Y-16484664D01*
X13831294Y-16484664D02*
X13812247Y-16475140D01*
X13812247Y-16475140D02*
X13802723Y-16465616D01*
X14132247Y-16484664D02*
X14132247Y-16284664D01*
X14217961Y-16484664D02*
X14217961Y-16379902D01*
X14217961Y-16379902D02*
X14208437Y-16360854D01*
X14208437Y-16360854D02*
X14189390Y-16351331D01*
X14189390Y-16351331D02*
X14160818Y-16351331D01*
X14160818Y-16351331D02*
X14141771Y-16360854D01*
X14141771Y-16360854D02*
X14132247Y-16370378D01*
X14341771Y-16484664D02*
X14322723Y-16475140D01*
X14322723Y-16475140D02*
X14313199Y-16465616D01*
X14313199Y-16465616D02*
X14303675Y-16446569D01*
X14303675Y-16446569D02*
X14303675Y-16389426D01*
X14303675Y-16389426D02*
X14313199Y-16370378D01*
X14313199Y-16370378D02*
X14322723Y-16360854D01*
X14322723Y-16360854D02*
X14341771Y-16351331D01*
X14341771Y-16351331D02*
X14370342Y-16351331D01*
X14370342Y-16351331D02*
X14389390Y-16360854D01*
X14389390Y-16360854D02*
X14398914Y-16370378D01*
X14398914Y-16370378D02*
X14408437Y-16389426D01*
X14408437Y-16389426D02*
X14408437Y-16446569D01*
X14408437Y-16446569D02*
X14398914Y-16465616D01*
X14398914Y-16465616D02*
X14389390Y-16475140D01*
X14389390Y-16475140D02*
X14370342Y-16484664D01*
X14370342Y-16484664D02*
X14341771Y-16484664D01*
X14522723Y-16484664D02*
X14503675Y-16475140D01*
X14503675Y-16475140D02*
X14494152Y-16456092D01*
X14494152Y-16456092D02*
X14494152Y-16284664D01*
X14675104Y-16475140D02*
X14656056Y-16484664D01*
X14656056Y-16484664D02*
X14617961Y-16484664D01*
X14617961Y-16484664D02*
X14598914Y-16475140D01*
X14598914Y-16475140D02*
X14589390Y-16456092D01*
X14589390Y-16456092D02*
X14589390Y-16379902D01*
X14589390Y-16379902D02*
X14598914Y-16360854D01*
X14598914Y-16360854D02*
X14617961Y-16351331D01*
X14617961Y-16351331D02*
X14656056Y-16351331D01*
X14656056Y-16351331D02*
X14675104Y-16360854D01*
X14675104Y-16360854D02*
X14684628Y-16379902D01*
X14684628Y-16379902D02*
X14684628Y-16398950D01*
X14684628Y-16398950D02*
X14589390Y-16417997D01*
X14760818Y-16475140D02*
X14779866Y-16484664D01*
X14779866Y-16484664D02*
X14817961Y-16484664D01*
X14817961Y-16484664D02*
X14837009Y-16475140D01*
X14837009Y-16475140D02*
X14846533Y-16456092D01*
X14846533Y-16456092D02*
X14846533Y-16446569D01*
X14846533Y-16446569D02*
X14837009Y-16427521D01*
X14837009Y-16427521D02*
X14817961Y-16417997D01*
X14817961Y-16417997D02*
X14789390Y-16417997D01*
X14789390Y-16417997D02*
X14770342Y-16408473D01*
X14770342Y-16408473D02*
X14760818Y-16389426D01*
X14760818Y-16389426D02*
X14760818Y-16379902D01*
X14760818Y-16379902D02*
X14770342Y-16360854D01*
X14770342Y-16360854D02*
X14789390Y-16351331D01*
X14789390Y-16351331D02*
X14817961Y-16351331D01*
X14817961Y-16351331D02*
X14837009Y-16360854D01*
X14913199Y-16560854D02*
X14922723Y-16551331D01*
X14922723Y-16551331D02*
X14941771Y-16522759D01*
X14941771Y-16522759D02*
X14951295Y-16503712D01*
X14951295Y-16503712D02*
X14960818Y-16475140D01*
X14960818Y-16475140D02*
X14970342Y-16427521D01*
X14970342Y-16427521D02*
X14970342Y-16389426D01*
X14970342Y-16389426D02*
X14960818Y-16341807D01*
X14960818Y-16341807D02*
X14951295Y-16313235D01*
X14951295Y-16313235D02*
X14941771Y-16294188D01*
X14941771Y-16294188D02*
X14922723Y-16265616D01*
X14922723Y-16265616D02*
X14913199Y-16256092D01*
D16*
X10179218Y-16624388D02*
X10280818Y-16725988D01*
X10280818Y-16624388D02*
X10179218Y-16725988D01*
X10280818Y-16675188D02*
G75*
G03*
X10280818Y-16675188I-50800J0D01*
G01*
D10*
X10633199Y-16748664D02*
X10518913Y-16748664D01*
X10576056Y-16748664D02*
X10576056Y-16548664D01*
X10576056Y-16548664D02*
X10557009Y-16577235D01*
X10557009Y-16577235D02*
X10537961Y-16596283D01*
X10537961Y-16596283D02*
X10518913Y-16605807D01*
X10718913Y-16729616D02*
X10728437Y-16739140D01*
X10728437Y-16739140D02*
X10718913Y-16748664D01*
X10718913Y-16748664D02*
X10709390Y-16739140D01*
X10709390Y-16739140D02*
X10718913Y-16729616D01*
X10718913Y-16729616D02*
X10718913Y-16748664D01*
X10852247Y-16548664D02*
X10871294Y-16548664D01*
X10871294Y-16548664D02*
X10890342Y-16558188D01*
X10890342Y-16558188D02*
X10899866Y-16567712D01*
X10899866Y-16567712D02*
X10909390Y-16586759D01*
X10909390Y-16586759D02*
X10918913Y-16624854D01*
X10918913Y-16624854D02*
X10918913Y-16672473D01*
X10918913Y-16672473D02*
X10909390Y-16710569D01*
X10909390Y-16710569D02*
X10899866Y-16729616D01*
X10899866Y-16729616D02*
X10890342Y-16739140D01*
X10890342Y-16739140D02*
X10871294Y-16748664D01*
X10871294Y-16748664D02*
X10852247Y-16748664D01*
X10852247Y-16748664D02*
X10833199Y-16739140D01*
X10833199Y-16739140D02*
X10823675Y-16729616D01*
X10823675Y-16729616D02*
X10814152Y-16710569D01*
X10814152Y-16710569D02*
X10804628Y-16672473D01*
X10804628Y-16672473D02*
X10804628Y-16624854D01*
X10804628Y-16624854D02*
X10814152Y-16586759D01*
X10814152Y-16586759D02*
X10823675Y-16567712D01*
X10823675Y-16567712D02*
X10833199Y-16558188D01*
X10833199Y-16558188D02*
X10852247Y-16548664D01*
X11109390Y-16748664D02*
X10995104Y-16748664D01*
X11052247Y-16748664D02*
X11052247Y-16548664D01*
X11052247Y-16548664D02*
X11033199Y-16577235D01*
X11033199Y-16577235D02*
X11014152Y-16596283D01*
X11014152Y-16596283D02*
X10995104Y-16605807D01*
X11280818Y-16548664D02*
X11242723Y-16548664D01*
X11242723Y-16548664D02*
X11223675Y-16558188D01*
X11223675Y-16558188D02*
X11214151Y-16567712D01*
X11214151Y-16567712D02*
X11195104Y-16596283D01*
X11195104Y-16596283D02*
X11185580Y-16634378D01*
X11185580Y-16634378D02*
X11185580Y-16710569D01*
X11185580Y-16710569D02*
X11195104Y-16729616D01*
X11195104Y-16729616D02*
X11204628Y-16739140D01*
X11204628Y-16739140D02*
X11223675Y-16748664D01*
X11223675Y-16748664D02*
X11261771Y-16748664D01*
X11261771Y-16748664D02*
X11280818Y-16739140D01*
X11280818Y-16739140D02*
X11290342Y-16729616D01*
X11290342Y-16729616D02*
X11299866Y-16710569D01*
X11299866Y-16710569D02*
X11299866Y-16662950D01*
X11299866Y-16662950D02*
X11290342Y-16643902D01*
X11290342Y-16643902D02*
X11280818Y-16634378D01*
X11280818Y-16634378D02*
X11261771Y-16624854D01*
X11261771Y-16624854D02*
X11223675Y-16624854D01*
X11223675Y-16624854D02*
X11204628Y-16634378D01*
X11204628Y-16634378D02*
X11195104Y-16643902D01*
X11195104Y-16643902D02*
X11185580Y-16662950D01*
X11385580Y-16748664D02*
X11385580Y-16615331D01*
X11385580Y-16634378D02*
X11395104Y-16624854D01*
X11395104Y-16624854D02*
X11414151Y-16615331D01*
X11414151Y-16615331D02*
X11442723Y-16615331D01*
X11442723Y-16615331D02*
X11461771Y-16624854D01*
X11461771Y-16624854D02*
X11471294Y-16643902D01*
X11471294Y-16643902D02*
X11471294Y-16748664D01*
X11471294Y-16643902D02*
X11480818Y-16624854D01*
X11480818Y-16624854D02*
X11499866Y-16615331D01*
X11499866Y-16615331D02*
X11528437Y-16615331D01*
X11528437Y-16615331D02*
X11547485Y-16624854D01*
X11547485Y-16624854D02*
X11557009Y-16643902D01*
X11557009Y-16643902D02*
X11557009Y-16748664D01*
X11652247Y-16748664D02*
X11652247Y-16615331D01*
X11652247Y-16634378D02*
X11661771Y-16624854D01*
X11661771Y-16624854D02*
X11680818Y-16615331D01*
X11680818Y-16615331D02*
X11709390Y-16615331D01*
X11709390Y-16615331D02*
X11728437Y-16624854D01*
X11728437Y-16624854D02*
X11737961Y-16643902D01*
X11737961Y-16643902D02*
X11737961Y-16748664D01*
X11737961Y-16643902D02*
X11747485Y-16624854D01*
X11747485Y-16624854D02*
X11766532Y-16615331D01*
X11766532Y-16615331D02*
X11795104Y-16615331D01*
X11795104Y-16615331D02*
X11814152Y-16624854D01*
X11814152Y-16624854D02*
X11823675Y-16643902D01*
X11823675Y-16643902D02*
X11823675Y-16748664D01*
X12181771Y-16539140D02*
X12010342Y-16796283D01*
X12406532Y-16548664D02*
X12425580Y-16548664D01*
X12425580Y-16548664D02*
X12444628Y-16558188D01*
X12444628Y-16558188D02*
X12454152Y-16567712D01*
X12454152Y-16567712D02*
X12463675Y-16586759D01*
X12463675Y-16586759D02*
X12473199Y-16624854D01*
X12473199Y-16624854D02*
X12473199Y-16672473D01*
X12473199Y-16672473D02*
X12463675Y-16710569D01*
X12463675Y-16710569D02*
X12454152Y-16729616D01*
X12454152Y-16729616D02*
X12444628Y-16739140D01*
X12444628Y-16739140D02*
X12425580Y-16748664D01*
X12425580Y-16748664D02*
X12406532Y-16748664D01*
X12406532Y-16748664D02*
X12387485Y-16739140D01*
X12387485Y-16739140D02*
X12377961Y-16729616D01*
X12377961Y-16729616D02*
X12368437Y-16710569D01*
X12368437Y-16710569D02*
X12358913Y-16672473D01*
X12358913Y-16672473D02*
X12358913Y-16624854D01*
X12358913Y-16624854D02*
X12368437Y-16586759D01*
X12368437Y-16586759D02*
X12377961Y-16567712D01*
X12377961Y-16567712D02*
X12387485Y-16558188D01*
X12387485Y-16558188D02*
X12406532Y-16548664D01*
X12558913Y-16729616D02*
X12568437Y-16739140D01*
X12568437Y-16739140D02*
X12558913Y-16748664D01*
X12558913Y-16748664D02*
X12549390Y-16739140D01*
X12549390Y-16739140D02*
X12558913Y-16729616D01*
X12558913Y-16729616D02*
X12558913Y-16748664D01*
X12692247Y-16548664D02*
X12711294Y-16548664D01*
X12711294Y-16548664D02*
X12730342Y-16558188D01*
X12730342Y-16558188D02*
X12739866Y-16567712D01*
X12739866Y-16567712D02*
X12749390Y-16586759D01*
X12749390Y-16586759D02*
X12758913Y-16624854D01*
X12758913Y-16624854D02*
X12758913Y-16672473D01*
X12758913Y-16672473D02*
X12749390Y-16710569D01*
X12749390Y-16710569D02*
X12739866Y-16729616D01*
X12739866Y-16729616D02*
X12730342Y-16739140D01*
X12730342Y-16739140D02*
X12711294Y-16748664D01*
X12711294Y-16748664D02*
X12692247Y-16748664D01*
X12692247Y-16748664D02*
X12673199Y-16739140D01*
X12673199Y-16739140D02*
X12663675Y-16729616D01*
X12663675Y-16729616D02*
X12654152Y-16710569D01*
X12654152Y-16710569D02*
X12644628Y-16672473D01*
X12644628Y-16672473D02*
X12644628Y-16624854D01*
X12644628Y-16624854D02*
X12654152Y-16586759D01*
X12654152Y-16586759D02*
X12663675Y-16567712D01*
X12663675Y-16567712D02*
X12673199Y-16558188D01*
X12673199Y-16558188D02*
X12692247Y-16548664D01*
X12930342Y-16615331D02*
X12930342Y-16748664D01*
X12882723Y-16539140D02*
X12835104Y-16681997D01*
X12835104Y-16681997D02*
X12958913Y-16681997D01*
X13073199Y-16548664D02*
X13092247Y-16548664D01*
X13092247Y-16548664D02*
X13111294Y-16558188D01*
X13111294Y-16558188D02*
X13120818Y-16567712D01*
X13120818Y-16567712D02*
X13130342Y-16586759D01*
X13130342Y-16586759D02*
X13139866Y-16624854D01*
X13139866Y-16624854D02*
X13139866Y-16672473D01*
X13139866Y-16672473D02*
X13130342Y-16710569D01*
X13130342Y-16710569D02*
X13120818Y-16729616D01*
X13120818Y-16729616D02*
X13111294Y-16739140D01*
X13111294Y-16739140D02*
X13092247Y-16748664D01*
X13092247Y-16748664D02*
X13073199Y-16748664D01*
X13073199Y-16748664D02*
X13054152Y-16739140D01*
X13054152Y-16739140D02*
X13044628Y-16729616D01*
X13044628Y-16729616D02*
X13035104Y-16710569D01*
X13035104Y-16710569D02*
X13025580Y-16672473D01*
X13025580Y-16672473D02*
X13025580Y-16624854D01*
X13025580Y-16624854D02*
X13035104Y-16586759D01*
X13035104Y-16586759D02*
X13044628Y-16567712D01*
X13044628Y-16567712D02*
X13054152Y-16558188D01*
X13054152Y-16558188D02*
X13073199Y-16548664D01*
X13263675Y-16548664D02*
X13282723Y-16548664D01*
X13282723Y-16548664D02*
X13301771Y-16558188D01*
X13301771Y-16558188D02*
X13311294Y-16567712D01*
X13311294Y-16567712D02*
X13320818Y-16586759D01*
X13320818Y-16586759D02*
X13330342Y-16624854D01*
X13330342Y-16624854D02*
X13330342Y-16672473D01*
X13330342Y-16672473D02*
X13320818Y-16710569D01*
X13320818Y-16710569D02*
X13311294Y-16729616D01*
X13311294Y-16729616D02*
X13301771Y-16739140D01*
X13301771Y-16739140D02*
X13282723Y-16748664D01*
X13282723Y-16748664D02*
X13263675Y-16748664D01*
X13263675Y-16748664D02*
X13244628Y-16739140D01*
X13244628Y-16739140D02*
X13235104Y-16729616D01*
X13235104Y-16729616D02*
X13225580Y-16710569D01*
X13225580Y-16710569D02*
X13216056Y-16672473D01*
X13216056Y-16672473D02*
X13216056Y-16624854D01*
X13216056Y-16624854D02*
X13225580Y-16586759D01*
X13225580Y-16586759D02*
X13235104Y-16567712D01*
X13235104Y-16567712D02*
X13244628Y-16558188D01*
X13244628Y-16558188D02*
X13263675Y-16548664D01*
X13406533Y-16548664D02*
X13406533Y-16586759D01*
X13482723Y-16548664D02*
X13482723Y-16586759D01*
X13745580Y-16824854D02*
X13736056Y-16815331D01*
X13736056Y-16815331D02*
X13717009Y-16786759D01*
X13717009Y-16786759D02*
X13707485Y-16767712D01*
X13707485Y-16767712D02*
X13697961Y-16739140D01*
X13697961Y-16739140D02*
X13688437Y-16691521D01*
X13688437Y-16691521D02*
X13688437Y-16653426D01*
X13688437Y-16653426D02*
X13697961Y-16605807D01*
X13697961Y-16605807D02*
X13707485Y-16577235D01*
X13707485Y-16577235D02*
X13717009Y-16558188D01*
X13717009Y-16558188D02*
X13736056Y-16529616D01*
X13736056Y-16529616D02*
X13745580Y-16520092D01*
X13926533Y-16748664D02*
X13812247Y-16748664D01*
X13869390Y-16748664D02*
X13869390Y-16548664D01*
X13869390Y-16548664D02*
X13850342Y-16577235D01*
X13850342Y-16577235D02*
X13831294Y-16596283D01*
X13831294Y-16596283D02*
X13812247Y-16605807D01*
X14097961Y-16548664D02*
X14059866Y-16548664D01*
X14059866Y-16548664D02*
X14040818Y-16558188D01*
X14040818Y-16558188D02*
X14031294Y-16567712D01*
X14031294Y-16567712D02*
X14012247Y-16596283D01*
X14012247Y-16596283D02*
X14002723Y-16634378D01*
X14002723Y-16634378D02*
X14002723Y-16710569D01*
X14002723Y-16710569D02*
X14012247Y-16729616D01*
X14012247Y-16729616D02*
X14021771Y-16739140D01*
X14021771Y-16739140D02*
X14040818Y-16748664D01*
X14040818Y-16748664D02*
X14078914Y-16748664D01*
X14078914Y-16748664D02*
X14097961Y-16739140D01*
X14097961Y-16739140D02*
X14107485Y-16729616D01*
X14107485Y-16729616D02*
X14117009Y-16710569D01*
X14117009Y-16710569D02*
X14117009Y-16662950D01*
X14117009Y-16662950D02*
X14107485Y-16643902D01*
X14107485Y-16643902D02*
X14097961Y-16634378D01*
X14097961Y-16634378D02*
X14078914Y-16624854D01*
X14078914Y-16624854D02*
X14040818Y-16624854D01*
X14040818Y-16624854D02*
X14021771Y-16634378D01*
X14021771Y-16634378D02*
X14012247Y-16643902D01*
X14012247Y-16643902D02*
X14002723Y-16662950D01*
X14322723Y-16748664D02*
X14322723Y-16548664D01*
X14408437Y-16748664D02*
X14408437Y-16643902D01*
X14408437Y-16643902D02*
X14398914Y-16624854D01*
X14398914Y-16624854D02*
X14379866Y-16615331D01*
X14379866Y-16615331D02*
X14351294Y-16615331D01*
X14351294Y-16615331D02*
X14332247Y-16624854D01*
X14332247Y-16624854D02*
X14322723Y-16634378D01*
X14532247Y-16748664D02*
X14513199Y-16739140D01*
X14513199Y-16739140D02*
X14503675Y-16729616D01*
X14503675Y-16729616D02*
X14494152Y-16710569D01*
X14494152Y-16710569D02*
X14494152Y-16653426D01*
X14494152Y-16653426D02*
X14503675Y-16634378D01*
X14503675Y-16634378D02*
X14513199Y-16624854D01*
X14513199Y-16624854D02*
X14532247Y-16615331D01*
X14532247Y-16615331D02*
X14560818Y-16615331D01*
X14560818Y-16615331D02*
X14579866Y-16624854D01*
X14579866Y-16624854D02*
X14589390Y-16634378D01*
X14589390Y-16634378D02*
X14598914Y-16653426D01*
X14598914Y-16653426D02*
X14598914Y-16710569D01*
X14598914Y-16710569D02*
X14589390Y-16729616D01*
X14589390Y-16729616D02*
X14579866Y-16739140D01*
X14579866Y-16739140D02*
X14560818Y-16748664D01*
X14560818Y-16748664D02*
X14532247Y-16748664D01*
X14713199Y-16748664D02*
X14694152Y-16739140D01*
X14694152Y-16739140D02*
X14684628Y-16720092D01*
X14684628Y-16720092D02*
X14684628Y-16548664D01*
X14865580Y-16739140D02*
X14846533Y-16748664D01*
X14846533Y-16748664D02*
X14808437Y-16748664D01*
X14808437Y-16748664D02*
X14789390Y-16739140D01*
X14789390Y-16739140D02*
X14779866Y-16720092D01*
X14779866Y-16720092D02*
X14779866Y-16643902D01*
X14779866Y-16643902D02*
X14789390Y-16624854D01*
X14789390Y-16624854D02*
X14808437Y-16615331D01*
X14808437Y-16615331D02*
X14846533Y-16615331D01*
X14846533Y-16615331D02*
X14865580Y-16624854D01*
X14865580Y-16624854D02*
X14875104Y-16643902D01*
X14875104Y-16643902D02*
X14875104Y-16662950D01*
X14875104Y-16662950D02*
X14779866Y-16681997D01*
X14951295Y-16739140D02*
X14970342Y-16748664D01*
X14970342Y-16748664D02*
X15008437Y-16748664D01*
X15008437Y-16748664D02*
X15027485Y-16739140D01*
X15027485Y-16739140D02*
X15037009Y-16720092D01*
X15037009Y-16720092D02*
X15037009Y-16710569D01*
X15037009Y-16710569D02*
X15027485Y-16691521D01*
X15027485Y-16691521D02*
X15008437Y-16681997D01*
X15008437Y-16681997D02*
X14979866Y-16681997D01*
X14979866Y-16681997D02*
X14960818Y-16672473D01*
X14960818Y-16672473D02*
X14951295Y-16653426D01*
X14951295Y-16653426D02*
X14951295Y-16643902D01*
X14951295Y-16643902D02*
X14960818Y-16624854D01*
X14960818Y-16624854D02*
X14979866Y-16615331D01*
X14979866Y-16615331D02*
X15008437Y-16615331D01*
X15008437Y-16615331D02*
X15027485Y-16624854D01*
X15103676Y-16824854D02*
X15113199Y-16815331D01*
X15113199Y-16815331D02*
X15132247Y-16786759D01*
X15132247Y-16786759D02*
X15141771Y-16767712D01*
X15141771Y-16767712D02*
X15151295Y-16739140D01*
X15151295Y-16739140D02*
X15160818Y-16691521D01*
X15160818Y-16691521D02*
X15160818Y-16653426D01*
X15160818Y-16653426D02*
X15151295Y-16605807D01*
X15151295Y-16605807D02*
X15141771Y-16577235D01*
X15141771Y-16577235D02*
X15132247Y-16558188D01*
X15132247Y-16558188D02*
X15113199Y-16529616D01*
X15113199Y-16529616D02*
X15103676Y-16520092D01*
D17*
X10140818Y-16869188D02*
X10280818Y-17009188D01*
X10280818Y-16869188D02*
X10140818Y-17009188D01*
X10210818Y-16869188D02*
X10210818Y-17009188D01*
X10140818Y-16939188D02*
X10280818Y-16939188D01*
D10*
X10633199Y-17012664D02*
X10518913Y-17012664D01*
X10576056Y-17012664D02*
X10576056Y-16812664D01*
X10576056Y-16812664D02*
X10557009Y-16841235D01*
X10557009Y-16841235D02*
X10537961Y-16860283D01*
X10537961Y-16860283D02*
X10518913Y-16869807D01*
X10718913Y-16993616D02*
X10728437Y-17003140D01*
X10728437Y-17003140D02*
X10718913Y-17012664D01*
X10718913Y-17012664D02*
X10709390Y-17003140D01*
X10709390Y-17003140D02*
X10718913Y-16993616D01*
X10718913Y-16993616D02*
X10718913Y-17012664D01*
X10899866Y-16879331D02*
X10899866Y-17012664D01*
X10852247Y-16803140D02*
X10804628Y-16945997D01*
X10804628Y-16945997D02*
X10928437Y-16945997D01*
X11042723Y-16812664D02*
X11061771Y-16812664D01*
X11061771Y-16812664D02*
X11080818Y-16822188D01*
X11080818Y-16822188D02*
X11090342Y-16831712D01*
X11090342Y-16831712D02*
X11099866Y-16850759D01*
X11099866Y-16850759D02*
X11109390Y-16888854D01*
X11109390Y-16888854D02*
X11109390Y-16936474D01*
X11109390Y-16936474D02*
X11099866Y-16974569D01*
X11099866Y-16974569D02*
X11090342Y-16993616D01*
X11090342Y-16993616D02*
X11080818Y-17003140D01*
X11080818Y-17003140D02*
X11061771Y-17012664D01*
X11061771Y-17012664D02*
X11042723Y-17012664D01*
X11042723Y-17012664D02*
X11023675Y-17003140D01*
X11023675Y-17003140D02*
X11014152Y-16993616D01*
X11014152Y-16993616D02*
X11004628Y-16974569D01*
X11004628Y-16974569D02*
X10995104Y-16936474D01*
X10995104Y-16936474D02*
X10995104Y-16888854D01*
X10995104Y-16888854D02*
X11004628Y-16850759D01*
X11004628Y-16850759D02*
X11014152Y-16831712D01*
X11014152Y-16831712D02*
X11023675Y-16822188D01*
X11023675Y-16822188D02*
X11042723Y-16812664D01*
X11233199Y-16812664D02*
X11252247Y-16812664D01*
X11252247Y-16812664D02*
X11271294Y-16822188D01*
X11271294Y-16822188D02*
X11280818Y-16831712D01*
X11280818Y-16831712D02*
X11290342Y-16850759D01*
X11290342Y-16850759D02*
X11299866Y-16888854D01*
X11299866Y-16888854D02*
X11299866Y-16936474D01*
X11299866Y-16936474D02*
X11290342Y-16974569D01*
X11290342Y-16974569D02*
X11280818Y-16993616D01*
X11280818Y-16993616D02*
X11271294Y-17003140D01*
X11271294Y-17003140D02*
X11252247Y-17012664D01*
X11252247Y-17012664D02*
X11233199Y-17012664D01*
X11233199Y-17012664D02*
X11214151Y-17003140D01*
X11214151Y-17003140D02*
X11204628Y-16993616D01*
X11204628Y-16993616D02*
X11195104Y-16974569D01*
X11195104Y-16974569D02*
X11185580Y-16936474D01*
X11185580Y-16936474D02*
X11185580Y-16888854D01*
X11185580Y-16888854D02*
X11195104Y-16850759D01*
X11195104Y-16850759D02*
X11204628Y-16831712D01*
X11204628Y-16831712D02*
X11214151Y-16822188D01*
X11214151Y-16822188D02*
X11233199Y-16812664D01*
X11385580Y-17012664D02*
X11385580Y-16879331D01*
X11385580Y-16898378D02*
X11395104Y-16888854D01*
X11395104Y-16888854D02*
X11414151Y-16879331D01*
X11414151Y-16879331D02*
X11442723Y-16879331D01*
X11442723Y-16879331D02*
X11461771Y-16888854D01*
X11461771Y-16888854D02*
X11471294Y-16907902D01*
X11471294Y-16907902D02*
X11471294Y-17012664D01*
X11471294Y-16907902D02*
X11480818Y-16888854D01*
X11480818Y-16888854D02*
X11499866Y-16879331D01*
X11499866Y-16879331D02*
X11528437Y-16879331D01*
X11528437Y-16879331D02*
X11547485Y-16888854D01*
X11547485Y-16888854D02*
X11557009Y-16907902D01*
X11557009Y-16907902D02*
X11557009Y-17012664D01*
X11652247Y-17012664D02*
X11652247Y-16879331D01*
X11652247Y-16898378D02*
X11661771Y-16888854D01*
X11661771Y-16888854D02*
X11680818Y-16879331D01*
X11680818Y-16879331D02*
X11709390Y-16879331D01*
X11709390Y-16879331D02*
X11728437Y-16888854D01*
X11728437Y-16888854D02*
X11737961Y-16907902D01*
X11737961Y-16907902D02*
X11737961Y-17012664D01*
X11737961Y-16907902D02*
X11747485Y-16888854D01*
X11747485Y-16888854D02*
X11766532Y-16879331D01*
X11766532Y-16879331D02*
X11795104Y-16879331D01*
X11795104Y-16879331D02*
X11814152Y-16888854D01*
X11814152Y-16888854D02*
X11823675Y-16907902D01*
X11823675Y-16907902D02*
X11823675Y-17012664D01*
X12181771Y-16803140D02*
X12010342Y-17060283D01*
X12406532Y-16812664D02*
X12425580Y-16812664D01*
X12425580Y-16812664D02*
X12444628Y-16822188D01*
X12444628Y-16822188D02*
X12454152Y-16831712D01*
X12454152Y-16831712D02*
X12463675Y-16850759D01*
X12463675Y-16850759D02*
X12473199Y-16888854D01*
X12473199Y-16888854D02*
X12473199Y-16936474D01*
X12473199Y-16936474D02*
X12463675Y-16974569D01*
X12463675Y-16974569D02*
X12454152Y-16993616D01*
X12454152Y-16993616D02*
X12444628Y-17003140D01*
X12444628Y-17003140D02*
X12425580Y-17012664D01*
X12425580Y-17012664D02*
X12406532Y-17012664D01*
X12406532Y-17012664D02*
X12387485Y-17003140D01*
X12387485Y-17003140D02*
X12377961Y-16993616D01*
X12377961Y-16993616D02*
X12368437Y-16974569D01*
X12368437Y-16974569D02*
X12358913Y-16936474D01*
X12358913Y-16936474D02*
X12358913Y-16888854D01*
X12358913Y-16888854D02*
X12368437Y-16850759D01*
X12368437Y-16850759D02*
X12377961Y-16831712D01*
X12377961Y-16831712D02*
X12387485Y-16822188D01*
X12387485Y-16822188D02*
X12406532Y-16812664D01*
X12558913Y-16993616D02*
X12568437Y-17003140D01*
X12568437Y-17003140D02*
X12558913Y-17012664D01*
X12558913Y-17012664D02*
X12549390Y-17003140D01*
X12549390Y-17003140D02*
X12558913Y-16993616D01*
X12558913Y-16993616D02*
X12558913Y-17012664D01*
X12692247Y-16812664D02*
X12711294Y-16812664D01*
X12711294Y-16812664D02*
X12730342Y-16822188D01*
X12730342Y-16822188D02*
X12739866Y-16831712D01*
X12739866Y-16831712D02*
X12749390Y-16850759D01*
X12749390Y-16850759D02*
X12758913Y-16888854D01*
X12758913Y-16888854D02*
X12758913Y-16936474D01*
X12758913Y-16936474D02*
X12749390Y-16974569D01*
X12749390Y-16974569D02*
X12739866Y-16993616D01*
X12739866Y-16993616D02*
X12730342Y-17003140D01*
X12730342Y-17003140D02*
X12711294Y-17012664D01*
X12711294Y-17012664D02*
X12692247Y-17012664D01*
X12692247Y-17012664D02*
X12673199Y-17003140D01*
X12673199Y-17003140D02*
X12663675Y-16993616D01*
X12663675Y-16993616D02*
X12654152Y-16974569D01*
X12654152Y-16974569D02*
X12644628Y-16936474D01*
X12644628Y-16936474D02*
X12644628Y-16888854D01*
X12644628Y-16888854D02*
X12654152Y-16850759D01*
X12654152Y-16850759D02*
X12663675Y-16831712D01*
X12663675Y-16831712D02*
X12673199Y-16822188D01*
X12673199Y-16822188D02*
X12692247Y-16812664D01*
X12939866Y-16812664D02*
X12844628Y-16812664D01*
X12844628Y-16812664D02*
X12835104Y-16907902D01*
X12835104Y-16907902D02*
X12844628Y-16898378D01*
X12844628Y-16898378D02*
X12863675Y-16888854D01*
X12863675Y-16888854D02*
X12911294Y-16888854D01*
X12911294Y-16888854D02*
X12930342Y-16898378D01*
X12930342Y-16898378D02*
X12939866Y-16907902D01*
X12939866Y-16907902D02*
X12949390Y-16926950D01*
X12949390Y-16926950D02*
X12949390Y-16974569D01*
X12949390Y-16974569D02*
X12939866Y-16993616D01*
X12939866Y-16993616D02*
X12930342Y-17003140D01*
X12930342Y-17003140D02*
X12911294Y-17012664D01*
X12911294Y-17012664D02*
X12863675Y-17012664D01*
X12863675Y-17012664D02*
X12844628Y-17003140D01*
X12844628Y-17003140D02*
X12835104Y-16993616D01*
X13130342Y-16812664D02*
X13035104Y-16812664D01*
X13035104Y-16812664D02*
X13025580Y-16907902D01*
X13025580Y-16907902D02*
X13035104Y-16898378D01*
X13035104Y-16898378D02*
X13054152Y-16888854D01*
X13054152Y-16888854D02*
X13101771Y-16888854D01*
X13101771Y-16888854D02*
X13120818Y-16898378D01*
X13120818Y-16898378D02*
X13130342Y-16907902D01*
X13130342Y-16907902D02*
X13139866Y-16926950D01*
X13139866Y-16926950D02*
X13139866Y-16974569D01*
X13139866Y-16974569D02*
X13130342Y-16993616D01*
X13130342Y-16993616D02*
X13120818Y-17003140D01*
X13120818Y-17003140D02*
X13101771Y-17012664D01*
X13101771Y-17012664D02*
X13054152Y-17012664D01*
X13054152Y-17012664D02*
X13035104Y-17003140D01*
X13035104Y-17003140D02*
X13025580Y-16993616D01*
X13330342Y-17012664D02*
X13216056Y-17012664D01*
X13273199Y-17012664D02*
X13273199Y-16812664D01*
X13273199Y-16812664D02*
X13254152Y-16841235D01*
X13254152Y-16841235D02*
X13235104Y-16860283D01*
X13235104Y-16860283D02*
X13216056Y-16869807D01*
X13406533Y-16812664D02*
X13406533Y-16850759D01*
X13482723Y-16812664D02*
X13482723Y-16850759D01*
X13745580Y-17088854D02*
X13736056Y-17079331D01*
X13736056Y-17079331D02*
X13717009Y-17050759D01*
X13717009Y-17050759D02*
X13707485Y-17031712D01*
X13707485Y-17031712D02*
X13697961Y-17003140D01*
X13697961Y-17003140D02*
X13688437Y-16955521D01*
X13688437Y-16955521D02*
X13688437Y-16917426D01*
X13688437Y-16917426D02*
X13697961Y-16869807D01*
X13697961Y-16869807D02*
X13707485Y-16841235D01*
X13707485Y-16841235D02*
X13717009Y-16822188D01*
X13717009Y-16822188D02*
X13736056Y-16793616D01*
X13736056Y-16793616D02*
X13745580Y-16784093D01*
X13812247Y-16831712D02*
X13821771Y-16822188D01*
X13821771Y-16822188D02*
X13840818Y-16812664D01*
X13840818Y-16812664D02*
X13888437Y-16812664D01*
X13888437Y-16812664D02*
X13907485Y-16822188D01*
X13907485Y-16822188D02*
X13917009Y-16831712D01*
X13917009Y-16831712D02*
X13926533Y-16850759D01*
X13926533Y-16850759D02*
X13926533Y-16869807D01*
X13926533Y-16869807D02*
X13917009Y-16898378D01*
X13917009Y-16898378D02*
X13802723Y-17012664D01*
X13802723Y-17012664D02*
X13926533Y-17012664D01*
X14050342Y-16812664D02*
X14069390Y-16812664D01*
X14069390Y-16812664D02*
X14088437Y-16822188D01*
X14088437Y-16822188D02*
X14097961Y-16831712D01*
X14097961Y-16831712D02*
X14107485Y-16850759D01*
X14107485Y-16850759D02*
X14117009Y-16888854D01*
X14117009Y-16888854D02*
X14117009Y-16936474D01*
X14117009Y-16936474D02*
X14107485Y-16974569D01*
X14107485Y-16974569D02*
X14097961Y-16993616D01*
X14097961Y-16993616D02*
X14088437Y-17003140D01*
X14088437Y-17003140D02*
X14069390Y-17012664D01*
X14069390Y-17012664D02*
X14050342Y-17012664D01*
X14050342Y-17012664D02*
X14031294Y-17003140D01*
X14031294Y-17003140D02*
X14021771Y-16993616D01*
X14021771Y-16993616D02*
X14012247Y-16974569D01*
X14012247Y-16974569D02*
X14002723Y-16936474D01*
X14002723Y-16936474D02*
X14002723Y-16888854D01*
X14002723Y-16888854D02*
X14012247Y-16850759D01*
X14012247Y-16850759D02*
X14021771Y-16831712D01*
X14021771Y-16831712D02*
X14031294Y-16822188D01*
X14031294Y-16822188D02*
X14050342Y-16812664D01*
X14322723Y-17012664D02*
X14322723Y-16812664D01*
X14408437Y-17012664D02*
X14408437Y-16907902D01*
X14408437Y-16907902D02*
X14398914Y-16888854D01*
X14398914Y-16888854D02*
X14379866Y-16879331D01*
X14379866Y-16879331D02*
X14351294Y-16879331D01*
X14351294Y-16879331D02*
X14332247Y-16888854D01*
X14332247Y-16888854D02*
X14322723Y-16898378D01*
X14532247Y-17012664D02*
X14513199Y-17003140D01*
X14513199Y-17003140D02*
X14503675Y-16993616D01*
X14503675Y-16993616D02*
X14494152Y-16974569D01*
X14494152Y-16974569D02*
X14494152Y-16917426D01*
X14494152Y-16917426D02*
X14503675Y-16898378D01*
X14503675Y-16898378D02*
X14513199Y-16888854D01*
X14513199Y-16888854D02*
X14532247Y-16879331D01*
X14532247Y-16879331D02*
X14560818Y-16879331D01*
X14560818Y-16879331D02*
X14579866Y-16888854D01*
X14579866Y-16888854D02*
X14589390Y-16898378D01*
X14589390Y-16898378D02*
X14598914Y-16917426D01*
X14598914Y-16917426D02*
X14598914Y-16974569D01*
X14598914Y-16974569D02*
X14589390Y-16993616D01*
X14589390Y-16993616D02*
X14579866Y-17003140D01*
X14579866Y-17003140D02*
X14560818Y-17012664D01*
X14560818Y-17012664D02*
X14532247Y-17012664D01*
X14713199Y-17012664D02*
X14694152Y-17003140D01*
X14694152Y-17003140D02*
X14684628Y-16984093D01*
X14684628Y-16984093D02*
X14684628Y-16812664D01*
X14865580Y-17003140D02*
X14846533Y-17012664D01*
X14846533Y-17012664D02*
X14808437Y-17012664D01*
X14808437Y-17012664D02*
X14789390Y-17003140D01*
X14789390Y-17003140D02*
X14779866Y-16984093D01*
X14779866Y-16984093D02*
X14779866Y-16907902D01*
X14779866Y-16907902D02*
X14789390Y-16888854D01*
X14789390Y-16888854D02*
X14808437Y-16879331D01*
X14808437Y-16879331D02*
X14846533Y-16879331D01*
X14846533Y-16879331D02*
X14865580Y-16888854D01*
X14865580Y-16888854D02*
X14875104Y-16907902D01*
X14875104Y-16907902D02*
X14875104Y-16926950D01*
X14875104Y-16926950D02*
X14779866Y-16945997D01*
X14951295Y-17003140D02*
X14970342Y-17012664D01*
X14970342Y-17012664D02*
X15008437Y-17012664D01*
X15008437Y-17012664D02*
X15027485Y-17003140D01*
X15027485Y-17003140D02*
X15037009Y-16984093D01*
X15037009Y-16984093D02*
X15037009Y-16974569D01*
X15037009Y-16974569D02*
X15027485Y-16955521D01*
X15027485Y-16955521D02*
X15008437Y-16945997D01*
X15008437Y-16945997D02*
X14979866Y-16945997D01*
X14979866Y-16945997D02*
X14960818Y-16936474D01*
X14960818Y-16936474D02*
X14951295Y-16917426D01*
X14951295Y-16917426D02*
X14951295Y-16907902D01*
X14951295Y-16907902D02*
X14960818Y-16888854D01*
X14960818Y-16888854D02*
X14979866Y-16879331D01*
X14979866Y-16879331D02*
X15008437Y-16879331D01*
X15008437Y-16879331D02*
X15027485Y-16888854D01*
X15103676Y-17088854D02*
X15113199Y-17079331D01*
X15113199Y-17079331D02*
X15132247Y-17050759D01*
X15132247Y-17050759D02*
X15141771Y-17031712D01*
X15141771Y-17031712D02*
X15151295Y-17003140D01*
X15151295Y-17003140D02*
X15160818Y-16955521D01*
X15160818Y-16955521D02*
X15160818Y-16917426D01*
X15160818Y-16917426D02*
X15151295Y-16869807D01*
X15151295Y-16869807D02*
X15141771Y-16841235D01*
X15141771Y-16841235D02*
X15132247Y-16822188D01*
X15132247Y-16822188D02*
X15113199Y-16793616D01*
X15113199Y-16793616D02*
X15103676Y-16784093D01*
X10080818Y-17103188D02*
X10280818Y-17303188D01*
X10280818Y-17103188D02*
X10080818Y-17303188D01*
X10251530Y-17273899D02*
X10251530Y-17132476D01*
X10110107Y-17132476D01*
X10110107Y-17273899D01*
X10251530Y-17273899D01*
X10509390Y-17076664D02*
X10633199Y-17076664D01*
X10633199Y-17076664D02*
X10566532Y-17152854D01*
X10566532Y-17152854D02*
X10595104Y-17152854D01*
X10595104Y-17152854D02*
X10614152Y-17162378D01*
X10614152Y-17162378D02*
X10623675Y-17171902D01*
X10623675Y-17171902D02*
X10633199Y-17190950D01*
X10633199Y-17190950D02*
X10633199Y-17238569D01*
X10633199Y-17238569D02*
X10623675Y-17257616D01*
X10623675Y-17257616D02*
X10614152Y-17267140D01*
X10614152Y-17267140D02*
X10595104Y-17276664D01*
X10595104Y-17276664D02*
X10537961Y-17276664D01*
X10537961Y-17276664D02*
X10518913Y-17267140D01*
X10518913Y-17267140D02*
X10509390Y-17257616D01*
X10718913Y-17257616D02*
X10728437Y-17267140D01*
X10728437Y-17267140D02*
X10718913Y-17276664D01*
X10718913Y-17276664D02*
X10709390Y-17267140D01*
X10709390Y-17267140D02*
X10718913Y-17257616D01*
X10718913Y-17257616D02*
X10718913Y-17276664D01*
X10804628Y-17095712D02*
X10814152Y-17086188D01*
X10814152Y-17086188D02*
X10833199Y-17076664D01*
X10833199Y-17076664D02*
X10880818Y-17076664D01*
X10880818Y-17076664D02*
X10899866Y-17086188D01*
X10899866Y-17086188D02*
X10909390Y-17095712D01*
X10909390Y-17095712D02*
X10918913Y-17114759D01*
X10918913Y-17114759D02*
X10918913Y-17133807D01*
X10918913Y-17133807D02*
X10909390Y-17162378D01*
X10909390Y-17162378D02*
X10795104Y-17276664D01*
X10795104Y-17276664D02*
X10918913Y-17276664D01*
X11042723Y-17076664D02*
X11061771Y-17076664D01*
X11061771Y-17076664D02*
X11080818Y-17086188D01*
X11080818Y-17086188D02*
X11090342Y-17095712D01*
X11090342Y-17095712D02*
X11099866Y-17114759D01*
X11099866Y-17114759D02*
X11109390Y-17152854D01*
X11109390Y-17152854D02*
X11109390Y-17200474D01*
X11109390Y-17200474D02*
X11099866Y-17238569D01*
X11099866Y-17238569D02*
X11090342Y-17257616D01*
X11090342Y-17257616D02*
X11080818Y-17267140D01*
X11080818Y-17267140D02*
X11061771Y-17276664D01*
X11061771Y-17276664D02*
X11042723Y-17276664D01*
X11042723Y-17276664D02*
X11023675Y-17267140D01*
X11023675Y-17267140D02*
X11014152Y-17257616D01*
X11014152Y-17257616D02*
X11004628Y-17238569D01*
X11004628Y-17238569D02*
X10995104Y-17200474D01*
X10995104Y-17200474D02*
X10995104Y-17152854D01*
X10995104Y-17152854D02*
X11004628Y-17114759D01*
X11004628Y-17114759D02*
X11014152Y-17095712D01*
X11014152Y-17095712D02*
X11023675Y-17086188D01*
X11023675Y-17086188D02*
X11042723Y-17076664D01*
X11233199Y-17076664D02*
X11252247Y-17076664D01*
X11252247Y-17076664D02*
X11271294Y-17086188D01*
X11271294Y-17086188D02*
X11280818Y-17095712D01*
X11280818Y-17095712D02*
X11290342Y-17114759D01*
X11290342Y-17114759D02*
X11299866Y-17152854D01*
X11299866Y-17152854D02*
X11299866Y-17200474D01*
X11299866Y-17200474D02*
X11290342Y-17238569D01*
X11290342Y-17238569D02*
X11280818Y-17257616D01*
X11280818Y-17257616D02*
X11271294Y-17267140D01*
X11271294Y-17267140D02*
X11252247Y-17276664D01*
X11252247Y-17276664D02*
X11233199Y-17276664D01*
X11233199Y-17276664D02*
X11214151Y-17267140D01*
X11214151Y-17267140D02*
X11204628Y-17257616D01*
X11204628Y-17257616D02*
X11195104Y-17238569D01*
X11195104Y-17238569D02*
X11185580Y-17200474D01*
X11185580Y-17200474D02*
X11185580Y-17152854D01*
X11185580Y-17152854D02*
X11195104Y-17114759D01*
X11195104Y-17114759D02*
X11204628Y-17095712D01*
X11204628Y-17095712D02*
X11214151Y-17086188D01*
X11214151Y-17086188D02*
X11233199Y-17076664D01*
X11385580Y-17276664D02*
X11385580Y-17143331D01*
X11385580Y-17162378D02*
X11395104Y-17152854D01*
X11395104Y-17152854D02*
X11414151Y-17143331D01*
X11414151Y-17143331D02*
X11442723Y-17143331D01*
X11442723Y-17143331D02*
X11461771Y-17152854D01*
X11461771Y-17152854D02*
X11471294Y-17171902D01*
X11471294Y-17171902D02*
X11471294Y-17276664D01*
X11471294Y-17171902D02*
X11480818Y-17152854D01*
X11480818Y-17152854D02*
X11499866Y-17143331D01*
X11499866Y-17143331D02*
X11528437Y-17143331D01*
X11528437Y-17143331D02*
X11547485Y-17152854D01*
X11547485Y-17152854D02*
X11557009Y-17171902D01*
X11557009Y-17171902D02*
X11557009Y-17276664D01*
X11652247Y-17276664D02*
X11652247Y-17143331D01*
X11652247Y-17162378D02*
X11661771Y-17152854D01*
X11661771Y-17152854D02*
X11680818Y-17143331D01*
X11680818Y-17143331D02*
X11709390Y-17143331D01*
X11709390Y-17143331D02*
X11728437Y-17152854D01*
X11728437Y-17152854D02*
X11737961Y-17171902D01*
X11737961Y-17171902D02*
X11737961Y-17276664D01*
X11737961Y-17171902D02*
X11747485Y-17152854D01*
X11747485Y-17152854D02*
X11766532Y-17143331D01*
X11766532Y-17143331D02*
X11795104Y-17143331D01*
X11795104Y-17143331D02*
X11814152Y-17152854D01*
X11814152Y-17152854D02*
X11823675Y-17171902D01*
X11823675Y-17171902D02*
X11823675Y-17276664D01*
X12181771Y-17067140D02*
X12010342Y-17324283D01*
X12406532Y-17076664D02*
X12425580Y-17076664D01*
X12425580Y-17076664D02*
X12444628Y-17086188D01*
X12444628Y-17086188D02*
X12454152Y-17095712D01*
X12454152Y-17095712D02*
X12463675Y-17114759D01*
X12463675Y-17114759D02*
X12473199Y-17152854D01*
X12473199Y-17152854D02*
X12473199Y-17200474D01*
X12473199Y-17200474D02*
X12463675Y-17238569D01*
X12463675Y-17238569D02*
X12454152Y-17257616D01*
X12454152Y-17257616D02*
X12444628Y-17267140D01*
X12444628Y-17267140D02*
X12425580Y-17276664D01*
X12425580Y-17276664D02*
X12406532Y-17276664D01*
X12406532Y-17276664D02*
X12387485Y-17267140D01*
X12387485Y-17267140D02*
X12377961Y-17257616D01*
X12377961Y-17257616D02*
X12368437Y-17238569D01*
X12368437Y-17238569D02*
X12358913Y-17200474D01*
X12358913Y-17200474D02*
X12358913Y-17152854D01*
X12358913Y-17152854D02*
X12368437Y-17114759D01*
X12368437Y-17114759D02*
X12377961Y-17095712D01*
X12377961Y-17095712D02*
X12387485Y-17086188D01*
X12387485Y-17086188D02*
X12406532Y-17076664D01*
X12558913Y-17257616D02*
X12568437Y-17267140D01*
X12568437Y-17267140D02*
X12558913Y-17276664D01*
X12558913Y-17276664D02*
X12549390Y-17267140D01*
X12549390Y-17267140D02*
X12558913Y-17257616D01*
X12558913Y-17257616D02*
X12558913Y-17276664D01*
X12758913Y-17276664D02*
X12644628Y-17276664D01*
X12701771Y-17276664D02*
X12701771Y-17076664D01*
X12701771Y-17076664D02*
X12682723Y-17105235D01*
X12682723Y-17105235D02*
X12663675Y-17124283D01*
X12663675Y-17124283D02*
X12644628Y-17133807D01*
X12835104Y-17095712D02*
X12844628Y-17086188D01*
X12844628Y-17086188D02*
X12863675Y-17076664D01*
X12863675Y-17076664D02*
X12911294Y-17076664D01*
X12911294Y-17076664D02*
X12930342Y-17086188D01*
X12930342Y-17086188D02*
X12939866Y-17095712D01*
X12939866Y-17095712D02*
X12949390Y-17114759D01*
X12949390Y-17114759D02*
X12949390Y-17133807D01*
X12949390Y-17133807D02*
X12939866Y-17162378D01*
X12939866Y-17162378D02*
X12825580Y-17276664D01*
X12825580Y-17276664D02*
X12949390Y-17276664D01*
X13120818Y-17076664D02*
X13082723Y-17076664D01*
X13082723Y-17076664D02*
X13063675Y-17086188D01*
X13063675Y-17086188D02*
X13054152Y-17095712D01*
X13054152Y-17095712D02*
X13035104Y-17124283D01*
X13035104Y-17124283D02*
X13025580Y-17162378D01*
X13025580Y-17162378D02*
X13025580Y-17238569D01*
X13025580Y-17238569D02*
X13035104Y-17257616D01*
X13035104Y-17257616D02*
X13044628Y-17267140D01*
X13044628Y-17267140D02*
X13063675Y-17276664D01*
X13063675Y-17276664D02*
X13101771Y-17276664D01*
X13101771Y-17276664D02*
X13120818Y-17267140D01*
X13120818Y-17267140D02*
X13130342Y-17257616D01*
X13130342Y-17257616D02*
X13139866Y-17238569D01*
X13139866Y-17238569D02*
X13139866Y-17190950D01*
X13139866Y-17190950D02*
X13130342Y-17171902D01*
X13130342Y-17171902D02*
X13120818Y-17162378D01*
X13120818Y-17162378D02*
X13101771Y-17152854D01*
X13101771Y-17152854D02*
X13063675Y-17152854D01*
X13063675Y-17152854D02*
X13044628Y-17162378D01*
X13044628Y-17162378D02*
X13035104Y-17171902D01*
X13035104Y-17171902D02*
X13025580Y-17190950D01*
X13263675Y-17076664D02*
X13282723Y-17076664D01*
X13282723Y-17076664D02*
X13301771Y-17086188D01*
X13301771Y-17086188D02*
X13311294Y-17095712D01*
X13311294Y-17095712D02*
X13320818Y-17114759D01*
X13320818Y-17114759D02*
X13330342Y-17152854D01*
X13330342Y-17152854D02*
X13330342Y-17200474D01*
X13330342Y-17200474D02*
X13320818Y-17238569D01*
X13320818Y-17238569D02*
X13311294Y-17257616D01*
X13311294Y-17257616D02*
X13301771Y-17267140D01*
X13301771Y-17267140D02*
X13282723Y-17276664D01*
X13282723Y-17276664D02*
X13263675Y-17276664D01*
X13263675Y-17276664D02*
X13244628Y-17267140D01*
X13244628Y-17267140D02*
X13235104Y-17257616D01*
X13235104Y-17257616D02*
X13225580Y-17238569D01*
X13225580Y-17238569D02*
X13216056Y-17200474D01*
X13216056Y-17200474D02*
X13216056Y-17152854D01*
X13216056Y-17152854D02*
X13225580Y-17114759D01*
X13225580Y-17114759D02*
X13235104Y-17095712D01*
X13235104Y-17095712D02*
X13244628Y-17086188D01*
X13244628Y-17086188D02*
X13263675Y-17076664D01*
X13406533Y-17076664D02*
X13406533Y-17114759D01*
X13482723Y-17076664D02*
X13482723Y-17114759D01*
X13745580Y-17352854D02*
X13736056Y-17343331D01*
X13736056Y-17343331D02*
X13717009Y-17314759D01*
X13717009Y-17314759D02*
X13707485Y-17295712D01*
X13707485Y-17295712D02*
X13697961Y-17267140D01*
X13697961Y-17267140D02*
X13688437Y-17219521D01*
X13688437Y-17219521D02*
X13688437Y-17181426D01*
X13688437Y-17181426D02*
X13697961Y-17133807D01*
X13697961Y-17133807D02*
X13707485Y-17105235D01*
X13707485Y-17105235D02*
X13717009Y-17086188D01*
X13717009Y-17086188D02*
X13736056Y-17057616D01*
X13736056Y-17057616D02*
X13745580Y-17048093D01*
X13802723Y-17076664D02*
X13926533Y-17076664D01*
X13926533Y-17076664D02*
X13859866Y-17152854D01*
X13859866Y-17152854D02*
X13888437Y-17152854D01*
X13888437Y-17152854D02*
X13907485Y-17162378D01*
X13907485Y-17162378D02*
X13917009Y-17171902D01*
X13917009Y-17171902D02*
X13926533Y-17190950D01*
X13926533Y-17190950D02*
X13926533Y-17238569D01*
X13926533Y-17238569D02*
X13917009Y-17257616D01*
X13917009Y-17257616D02*
X13907485Y-17267140D01*
X13907485Y-17267140D02*
X13888437Y-17276664D01*
X13888437Y-17276664D02*
X13831294Y-17276664D01*
X13831294Y-17276664D02*
X13812247Y-17267140D01*
X13812247Y-17267140D02*
X13802723Y-17257616D01*
X14132247Y-17276664D02*
X14132247Y-17076664D01*
X14217961Y-17276664D02*
X14217961Y-17171902D01*
X14217961Y-17171902D02*
X14208437Y-17152854D01*
X14208437Y-17152854D02*
X14189390Y-17143331D01*
X14189390Y-17143331D02*
X14160818Y-17143331D01*
X14160818Y-17143331D02*
X14141771Y-17152854D01*
X14141771Y-17152854D02*
X14132247Y-17162378D01*
X14341771Y-17276664D02*
X14322723Y-17267140D01*
X14322723Y-17267140D02*
X14313199Y-17257616D01*
X14313199Y-17257616D02*
X14303675Y-17238569D01*
X14303675Y-17238569D02*
X14303675Y-17181426D01*
X14303675Y-17181426D02*
X14313199Y-17162378D01*
X14313199Y-17162378D02*
X14322723Y-17152854D01*
X14322723Y-17152854D02*
X14341771Y-17143331D01*
X14341771Y-17143331D02*
X14370342Y-17143331D01*
X14370342Y-17143331D02*
X14389390Y-17152854D01*
X14389390Y-17152854D02*
X14398914Y-17162378D01*
X14398914Y-17162378D02*
X14408437Y-17181426D01*
X14408437Y-17181426D02*
X14408437Y-17238569D01*
X14408437Y-17238569D02*
X14398914Y-17257616D01*
X14398914Y-17257616D02*
X14389390Y-17267140D01*
X14389390Y-17267140D02*
X14370342Y-17276664D01*
X14370342Y-17276664D02*
X14341771Y-17276664D01*
X14522723Y-17276664D02*
X14503675Y-17267140D01*
X14503675Y-17267140D02*
X14494152Y-17248093D01*
X14494152Y-17248093D02*
X14494152Y-17076664D01*
X14675104Y-17267140D02*
X14656056Y-17276664D01*
X14656056Y-17276664D02*
X14617961Y-17276664D01*
X14617961Y-17276664D02*
X14598914Y-17267140D01*
X14598914Y-17267140D02*
X14589390Y-17248093D01*
X14589390Y-17248093D02*
X14589390Y-17171902D01*
X14589390Y-17171902D02*
X14598914Y-17152854D01*
X14598914Y-17152854D02*
X14617961Y-17143331D01*
X14617961Y-17143331D02*
X14656056Y-17143331D01*
X14656056Y-17143331D02*
X14675104Y-17152854D01*
X14675104Y-17152854D02*
X14684628Y-17171902D01*
X14684628Y-17171902D02*
X14684628Y-17190950D01*
X14684628Y-17190950D02*
X14589390Y-17209997D01*
X14760818Y-17267140D02*
X14779866Y-17276664D01*
X14779866Y-17276664D02*
X14817961Y-17276664D01*
X14817961Y-17276664D02*
X14837009Y-17267140D01*
X14837009Y-17267140D02*
X14846533Y-17248093D01*
X14846533Y-17248093D02*
X14846533Y-17238569D01*
X14846533Y-17238569D02*
X14837009Y-17219521D01*
X14837009Y-17219521D02*
X14817961Y-17209997D01*
X14817961Y-17209997D02*
X14789390Y-17209997D01*
X14789390Y-17209997D02*
X14770342Y-17200474D01*
X14770342Y-17200474D02*
X14760818Y-17181426D01*
X14760818Y-17181426D02*
X14760818Y-17171902D01*
X14760818Y-17171902D02*
X14770342Y-17152854D01*
X14770342Y-17152854D02*
X14789390Y-17143331D01*
X14789390Y-17143331D02*
X14817961Y-17143331D01*
X14817961Y-17143331D02*
X14837009Y-17152854D01*
X14913199Y-17352854D02*
X14922723Y-17343331D01*
X14922723Y-17343331D02*
X14941771Y-17314759D01*
X14941771Y-17314759D02*
X14951295Y-17295712D01*
X14951295Y-17295712D02*
X14960818Y-17267140D01*
X14960818Y-17267140D02*
X14970342Y-17219521D01*
X14970342Y-17219521D02*
X14970342Y-17181426D01*
X14970342Y-17181426D02*
X14960818Y-17133807D01*
X14960818Y-17133807D02*
X14951295Y-17105235D01*
X14951295Y-17105235D02*
X14941771Y-17086188D01*
X14941771Y-17086188D02*
X14922723Y-17057616D01*
X14922723Y-17057616D02*
X14913199Y-17048093D01*
M02*
