%TF.GenerationSoftware,KiCad,Pcbnew,(6.99.0-3810-gd26b59a0bf)*%
%TF.CreationDate,2022-11-09T12:36:04+00:00*%
%TF.ProjectId,roller-shutter-controller,726f6c6c-6572-42d7-9368-75747465722d,-*%
%TF.SameCoordinates,Original*%
%TF.FileFunction,Soldermask,Top*%
%TF.FilePolarity,Negative*%
%FSLAX46Y46*%
G04 Gerber Fmt 4.6, Leading zero omitted, Abs format (unit mm)*
G04 Created by KiCad (PCBNEW (6.99.0-3810-gd26b59a0bf)) date 2022-11-09 12:36:04*
%MOMM*%
%LPD*%
G01*
G04 APERTURE LIST*
G04 Aperture macros list*
%AMRoundRect*
0 Rectangle with rounded corners*
0 $1 Rounding radius*
0 $2 $3 $4 $5 $6 $7 $8 $9 X,Y pos of 4 corners*
0 Add a 4 corners polygon primitive as box body*
4,1,4,$2,$3,$4,$5,$6,$7,$8,$9,$2,$3,0*
0 Add four circle primitives for the rounded corners*
1,1,$1+$1,$2,$3*
1,1,$1+$1,$4,$5*
1,1,$1+$1,$6,$7*
1,1,$1+$1,$8,$9*
0 Add four rect primitives between the rounded corners*
20,1,$1+$1,$2,$3,$4,$5,0*
20,1,$1+$1,$4,$5,$6,$7,0*
20,1,$1+$1,$6,$7,$8,$9,0*
20,1,$1+$1,$8,$9,$2,$3,0*%
G04 Aperture macros list end*
%ADD10C,5.000000*%
%ADD11C,6.400000*%
%ADD12RoundRect,0.150000X-0.150000X0.587500X-0.150000X-0.587500X0.150000X-0.587500X0.150000X0.587500X0*%
%ADD13RoundRect,0.237500X-0.250000X-0.237500X0.250000X-0.237500X0.250000X0.237500X-0.250000X0.237500X0*%
%ADD14R,1.050000X1.500000*%
%ADD15O,1.050000X1.500000*%
%ADD16RoundRect,0.237500X-0.237500X0.250000X-0.237500X-0.250000X0.237500X-0.250000X0.237500X0.250000X0*%
%ADD17RoundRect,0.250500X0.499500X0.499500X-0.499500X0.499500X-0.499500X-0.499500X0.499500X-0.499500X0*%
%ADD18C,1.500000*%
%ADD19RoundRect,0.237500X-0.287500X-0.237500X0.287500X-0.237500X0.287500X0.237500X-0.287500X0.237500X0*%
%ADD20R,1.100000X1.100000*%
%ADD21RoundRect,0.237500X0.300000X0.237500X-0.300000X0.237500X-0.300000X-0.237500X0.300000X-0.237500X0*%
%ADD22RoundRect,0.237500X-0.237500X0.287500X-0.237500X-0.287500X0.237500X-0.287500X0.237500X0.287500X0*%
%ADD23RoundRect,0.237500X-0.237500X0.300000X-0.237500X-0.300000X0.237500X-0.300000X0.237500X0.300000X0*%
%ADD24RoundRect,0.150000X0.150000X-0.587500X0.150000X0.587500X-0.150000X0.587500X-0.150000X-0.587500X0*%
%ADD25RoundRect,0.237500X0.237500X-0.287500X0.237500X0.287500X-0.237500X0.287500X-0.237500X-0.287500X0*%
%ADD26C,2.100000*%
%ADD27R,2.100000X2.100000*%
%ADD28R,1.500000X2.500000*%
%ADD29O,1.500000X2.500000*%
%ADD30R,1.000000X1.000000*%
%ADD31RoundRect,0.250000X0.412500X1.100000X-0.412500X1.100000X-0.412500X-1.100000X0.412500X-1.100000X0*%
%ADD32RoundRect,0.237500X0.237500X-0.250000X0.237500X0.250000X-0.237500X0.250000X-0.237500X-0.250000X0*%
%ADD33R,1.500000X1.900000*%
%ADD34RoundRect,0.250000X-0.412500X-1.100000X0.412500X-1.100000X0.412500X1.100000X-0.412500X1.100000X0*%
%ADD35C,1.800000*%
G04 APERTURE END LIST*
D10*
X106912382Y-55059978D02*
X194912082Y-55059978D01*
X102912382Y-129965578D02*
G75*
G03*
X104822382Y-132760678I2999895J-194D01*
G01*
X116028381Y-142894778D02*
G75*
G03*
X107291422Y-133723243I-13554193J-4164698D01*
G01*
X197001836Y-132760652D02*
G75*
G03*
X198912082Y-129965578I-1089707J2795042D01*
G01*
X116028382Y-142894778D02*
X116726382Y-145002378D01*
X102912382Y-59059978D02*
X102912382Y-129965578D01*
X198912082Y-59059978D02*
X198912082Y-129965578D01*
X185795582Y-142894778D02*
X185098182Y-145002378D01*
X107291382Y-133723278D02*
X104822382Y-132760678D01*
X106912382Y-55059978D02*
G75*
G03*
X102912382Y-59059978I25J-4000025D01*
G01*
X119574382Y-147059978D02*
X182249982Y-147059978D01*
X194532882Y-133723278D02*
X197001882Y-132760678D01*
X194532943Y-133723244D02*
G75*
G03*
X185795529Y-142894744I4817067J-13336762D01*
G01*
X182249982Y-147059977D02*
G75*
G03*
X185098107Y-145002413I15J2999979D01*
G01*
X116726257Y-145002413D02*
G75*
G03*
X119574382Y-147059978I2848170J942497D01*
G01*
X198912082Y-59059978D02*
G75*
G03*
X194912082Y-55059978I-3999953J47D01*
G01*
D11*
%TO.C,H1*%
X112061282Y-75051908D03*
%TD*%
%TO.C,H3*%
X189754782Y-75051908D03*
%TD*%
%TO.C,H2*%
X150907682Y-139123978D03*
%TD*%
D12*
%TO.C,D1*%
X161278988Y-81583512D03*
X159378988Y-81583512D03*
X160328988Y-83458512D03*
%TD*%
D13*
%TO.C,R6*%
X133916488Y-97608988D03*
X135741488Y-97608988D03*
%TD*%
D14*
%TO.C,Q1*%
X150308987Y-85089999D03*
D15*
X151578987Y-85089999D03*
X152848987Y-85089999D03*
%TD*%
D16*
%TO.C,R1*%
X163078988Y-81858512D03*
X163078988Y-83683512D03*
%TD*%
D17*
%TO.C,K1*%
X132296488Y-85151478D03*
D18*
X132296488Y-80071478D03*
X132296488Y-77531478D03*
X132296488Y-74991478D03*
X127216488Y-74991478D03*
X127216488Y-77531478D03*
X127216488Y-80071478D03*
X127216488Y-85151478D03*
%TD*%
D19*
%TO.C,D3*%
X128703988Y-105358988D03*
X130453988Y-105358988D03*
%TD*%
D20*
%TO.C,D9*%
X121228987Y-88123977D03*
X118428987Y-88123977D03*
%TD*%
D13*
%TO.C,R5*%
X132171488Y-105358988D03*
X133996488Y-105358988D03*
%TD*%
D14*
%TO.C,Q3*%
X121098987Y-91763977D03*
D15*
X119828987Y-91763977D03*
X118558987Y-91763977D03*
%TD*%
D21*
%TO.C,C6*%
X133941488Y-118358988D03*
X132216488Y-118358988D03*
%TD*%
D22*
%TO.C,D7*%
X120578988Y-95498978D03*
X120578988Y-97248978D03*
%TD*%
D19*
%TO.C,D4*%
X128698988Y-107858988D03*
X130448988Y-107858988D03*
%TD*%
D16*
%TO.C,R4*%
X166641488Y-85358512D03*
X166641488Y-87183512D03*
%TD*%
D23*
%TO.C,C2*%
X168391488Y-85408512D03*
X168391488Y-87133512D03*
%TD*%
%TO.C,C1*%
X161328988Y-85408512D03*
X161328988Y-87133512D03*
%TD*%
D24*
%TO.C,D2*%
X168378988Y-83458512D03*
X170278988Y-83458512D03*
X169328988Y-81583512D03*
%TD*%
D13*
%TO.C,R7*%
X132166488Y-107858988D03*
X133991488Y-107858988D03*
%TD*%
%TO.C,R8*%
X132166488Y-110358988D03*
X133991488Y-110358988D03*
%TD*%
D19*
%TO.C,D5*%
X128698988Y-110358988D03*
X130448988Y-110358988D03*
%TD*%
D21*
%TO.C,C7*%
X135691488Y-95758000D03*
X133966488Y-95758000D03*
%TD*%
D16*
%TO.C,R3*%
X166641488Y-81858512D03*
X166641488Y-83683512D03*
%TD*%
D25*
%TO.C,D6*%
X130828988Y-97498978D03*
X130828988Y-95748978D03*
%TD*%
D26*
%TO.C,J1*%
X112681488Y-63171012D03*
X116181488Y-63171012D03*
X119681488Y-63171012D03*
X123181488Y-63171012D03*
X126681488Y-63171012D03*
D27*
X130181487Y-63171011D03*
%TD*%
D28*
%TO.C,U2*%
X181328987Y-91271011D03*
D29*
X178788987Y-91271011D03*
X176248987Y-91271011D03*
%TD*%
D30*
%TO.C,TP1*%
X176328987Y-99271011D03*
%TD*%
D31*
%TO.C,C5*%
X133891488Y-115608988D03*
X130766488Y-115608988D03*
%TD*%
D17*
%TO.C,K2*%
X122296488Y-85151478D03*
D18*
X122296488Y-80071478D03*
X122296488Y-77531478D03*
X122296488Y-74991478D03*
X117216488Y-74991478D03*
X117216488Y-77531478D03*
X117216488Y-80071478D03*
X117216488Y-85151478D03*
%TD*%
D32*
%TO.C,R10*%
X118828988Y-97286478D03*
X118828988Y-95461478D03*
%TD*%
D20*
%TO.C,D8*%
X131228987Y-88123977D03*
X128428987Y-88123977D03*
%TD*%
D16*
%TO.C,R2*%
X163078988Y-85358512D03*
X163078988Y-87183512D03*
%TD*%
D27*
%TO.C,J3*%
X188681487Y-63171011D03*
D26*
X185181488Y-63171012D03*
X181681488Y-63171012D03*
X178181488Y-63171012D03*
%TD*%
D14*
%TO.C,Q4*%
X139445999Y-84941999D03*
D15*
X140715999Y-84941999D03*
X141985999Y-84941999D03*
%TD*%
D33*
%TO.C,L1*%
X176828987Y-82221011D03*
X176828987Y-86321011D03*
%TD*%
D14*
%TO.C,Q2*%
X131098987Y-91763977D03*
D15*
X129828987Y-91763977D03*
X128558987Y-91763977D03*
%TD*%
D34*
%TO.C,C4*%
X181266488Y-86271012D03*
X184391488Y-86271012D03*
%TD*%
D27*
%TO.C,J2*%
X170199581Y-63171011D03*
D26*
X166699582Y-63171012D03*
X163199582Y-63171012D03*
X159699582Y-63171012D03*
X156199582Y-63171012D03*
X152699582Y-63171012D03*
X149199582Y-63171012D03*
X145699582Y-63171012D03*
X142199582Y-63171012D03*
X138699582Y-63171012D03*
%TD*%
D34*
%TO.C,C3*%
X181266488Y-82271012D03*
X184391488Y-82271012D03*
%TD*%
D32*
%TO.C,R9*%
X129078988Y-97536478D03*
X129078988Y-95711478D03*
%TD*%
D35*
%TO.C,U1*%
X138900000Y-97710000D03*
X138900000Y-100250000D03*
X138900000Y-102790000D03*
X138900000Y-105330000D03*
X138900000Y-107870000D03*
X138900000Y-110410000D03*
X138900000Y-112950000D03*
X138900000Y-115490000D03*
X161760000Y-115490000D03*
X161760000Y-112950000D03*
X161760000Y-110410000D03*
X161760000Y-107870000D03*
X161760000Y-105330000D03*
X161760000Y-102790000D03*
X161760000Y-100250000D03*
X161760000Y-97710000D03*
%TD*%
M02*
