%TF.GenerationSoftware,KiCad,Pcbnew,(6.99.0-3810-gd26b59a0bf)*%
%TF.CreationDate,2022-11-09T12:37:44+00:00*%
%TF.ProjectId,roller-shutter-controller,726f6c6c-6572-42d7-9368-75747465722d,-*%
%TF.SameCoordinates,Original*%
%TF.FileFunction,Drillmap*%
%TF.FilePolarity,Positive*%
%FSLAX45Y45*%
G04 Gerber Fmt 4.5, Leading zero omitted, Abs format (unit mm)*
G04 Created by KiCad (PCBNEW (6.99.0-3810-gd26b59a0bf)) date 2022-11-09 12:37:44*
%MOMM*%
%LPD*%
G01*
G04 APERTURE LIST*
%ADD10C,0.200000*%
G04 APERTURE END LIST*
D10*
X19890792Y-5905188D02*
G75*
G03*
X19490788Y-5505188I-400002J-2D01*
G01*
X10728718Y-13371518D02*
X10481818Y-13275258D01*
X18224578Y-14705187D02*
G75*
G03*
X18509391Y-14499431I2J299998D01*
G01*
X19452874Y-13371515D02*
G75*
G03*
X18579133Y-14288664I481706J-1333675D01*
G01*
X11672209Y-14499430D02*
G75*
G03*
X11957018Y-14705188I284811J94240D01*
G01*
X18579138Y-14288668D02*
X18509398Y-14499428D01*
X19452868Y-13371518D02*
X19699768Y-13275258D01*
X11957018Y-14705188D02*
X18224578Y-14705188D01*
X10690818Y-5505188D02*
G75*
G03*
X10290818Y-5905188I2J-400002D01*
G01*
X19699764Y-13275256D02*
G75*
G03*
X19890788Y-12995748I-108974J279506D01*
G01*
X11602418Y-14288668D02*
X11672218Y-14499428D01*
X10290818Y-12995748D02*
G75*
G03*
X10481818Y-13275258I299990J-19D01*
G01*
X11602418Y-14288668D02*
G75*
G03*
X10728722Y-13371514I-1355420J-416470D01*
G01*
X10690818Y-5505188D02*
X19490788Y-5505188D01*
X19890788Y-5905188D02*
X19890788Y-12995748D01*
X10290818Y-5905188D02*
X10290818Y-12995748D01*
X10528437Y-15008664D02*
X10528437Y-14808664D01*
X10528437Y-14808664D02*
X10576056Y-14808664D01*
X10576056Y-14808664D02*
X10604628Y-14818188D01*
X10604628Y-14818188D02*
X10623675Y-14837235D01*
X10623675Y-14837235D02*
X10633199Y-14856283D01*
X10633199Y-14856283D02*
X10642723Y-14894378D01*
X10642723Y-14894378D02*
X10642723Y-14922950D01*
X10642723Y-14922950D02*
X10633199Y-14961045D01*
X10633199Y-14961045D02*
X10623675Y-14980092D01*
X10623675Y-14980092D02*
X10604628Y-14999140D01*
X10604628Y-14999140D02*
X10576056Y-15008664D01*
X10576056Y-15008664D02*
X10528437Y-15008664D01*
X10728437Y-15008664D02*
X10728437Y-14875331D01*
X10728437Y-14913426D02*
X10737961Y-14894378D01*
X10737961Y-14894378D02*
X10747485Y-14884854D01*
X10747485Y-14884854D02*
X10766532Y-14875331D01*
X10766532Y-14875331D02*
X10785580Y-14875331D01*
X10852247Y-15008664D02*
X10852247Y-14875331D01*
X10852247Y-14808664D02*
X10842723Y-14818188D01*
X10842723Y-14818188D02*
X10852247Y-14827712D01*
X10852247Y-14827712D02*
X10861771Y-14818188D01*
X10861771Y-14818188D02*
X10852247Y-14808664D01*
X10852247Y-14808664D02*
X10852247Y-14827712D01*
X10976056Y-15008664D02*
X10957009Y-14999140D01*
X10957009Y-14999140D02*
X10947485Y-14980092D01*
X10947485Y-14980092D02*
X10947485Y-14808664D01*
X11080818Y-15008664D02*
X11061771Y-14999140D01*
X11061771Y-14999140D02*
X11052247Y-14980092D01*
X11052247Y-14980092D02*
X11052247Y-14808664D01*
X11277009Y-15008664D02*
X11277009Y-14808664D01*
X11277009Y-14808664D02*
X11343675Y-14951521D01*
X11343675Y-14951521D02*
X11410342Y-14808664D01*
X11410342Y-14808664D02*
X11410342Y-15008664D01*
X11591294Y-15008664D02*
X11591294Y-14903902D01*
X11591294Y-14903902D02*
X11581770Y-14884854D01*
X11581770Y-14884854D02*
X11562723Y-14875331D01*
X11562723Y-14875331D02*
X11524628Y-14875331D01*
X11524628Y-14875331D02*
X11505580Y-14884854D01*
X11591294Y-14999140D02*
X11572247Y-15008664D01*
X11572247Y-15008664D02*
X11524628Y-15008664D01*
X11524628Y-15008664D02*
X11505580Y-14999140D01*
X11505580Y-14999140D02*
X11496056Y-14980092D01*
X11496056Y-14980092D02*
X11496056Y-14961045D01*
X11496056Y-14961045D02*
X11505580Y-14941997D01*
X11505580Y-14941997D02*
X11524628Y-14932473D01*
X11524628Y-14932473D02*
X11572247Y-14932473D01*
X11572247Y-14932473D02*
X11591294Y-14922950D01*
X11686532Y-14875331D02*
X11686532Y-15075331D01*
X11686532Y-14884854D02*
X11705580Y-14875331D01*
X11705580Y-14875331D02*
X11743675Y-14875331D01*
X11743675Y-14875331D02*
X11762723Y-14884854D01*
X11762723Y-14884854D02*
X11772247Y-14894378D01*
X11772247Y-14894378D02*
X11781770Y-14913426D01*
X11781770Y-14913426D02*
X11781770Y-14970569D01*
X11781770Y-14970569D02*
X11772247Y-14989616D01*
X11772247Y-14989616D02*
X11762723Y-14999140D01*
X11762723Y-14999140D02*
X11743675Y-15008664D01*
X11743675Y-15008664D02*
X11705580Y-15008664D01*
X11705580Y-15008664D02*
X11686532Y-14999140D01*
X11867485Y-14989616D02*
X11877009Y-14999140D01*
X11877009Y-14999140D02*
X11867485Y-15008664D01*
X11867485Y-15008664D02*
X11857961Y-14999140D01*
X11857961Y-14999140D02*
X11867485Y-14989616D01*
X11867485Y-14989616D02*
X11867485Y-15008664D01*
X11867485Y-14884854D02*
X11877009Y-14894378D01*
X11877009Y-14894378D02*
X11867485Y-14903902D01*
X11867485Y-14903902D02*
X11857961Y-14894378D01*
X11857961Y-14894378D02*
X11867485Y-14884854D01*
X11867485Y-14884854D02*
X11867485Y-14903902D01*
M02*
